<?xml version="1.0" encoding="utf-8"?>
<!-- Generator: Adobe Illustrator 25.0.1, SVG Export Plug-In . SVG Version: 6.00 Build 0)  -->
<svg version="1.1" id="neck-rotation" xmlns="http://www.w3.org/2000/svg" xmlns:xlink="http://www.w3.org/1999/xlink" x="0px"
	 y="0px" viewBox="0 0 564.5 891.8" style="enable-background:new 0 0 564.5 891.8;" xml:space="preserve">
<g id="body">
	<g>
		<path style="fill:#F79D7E;" d="M389.7,391.9c26.3,11.8,53.9,20.3,80.8,30.5c0.1,0,0.2,0.1,0.3,0.1c9.2-0.2,12.4,7.4,16.5,13.4
			c4.6,6.6,9.4,13.1,13,20.5c6.7,14.1,9.5,29,11.7,44.2c2.3,16.2,2.2,32.5,2.4,48.8c0.3,30.1,1.6,60.1,1.1,90.2
			c-0.4,22-1,43.9-1.7,65.9c-0.4,14.3,1.2,28.5,2.9,42.7c1.9,15.9,4,31.7,2.3,47.8c-0.8,7.3-3.2,14.1-7.1,20.3
			c-2.5,4.1-6.4,6.7-10.8,8.6c-11,4.6-22.6,6.8-34.2,9c-4.3,0.8-8.4,2.3-12.8,2.8c-2.6,0.3-5.1,0.3-7.7,0.2c-1.7-0.1-3.7-0.8-5-0.2
			c-1.5,0.7-0.5,2.9-0.6,4.4c-0.2,1.5-1.4,2.1-2.4,2.8c-11.1,8.3-23.5,14.1-36.5,18.8c-17.5,6.3-35.6,10.1-54,12.5
			c-12.2,1.6-24.6,2.2-36.9,2.8c-8.1,0.4-16.2,0.7-24.3,0.6c-16.4-0.2-32.8-1.1-49.1-2.5c-19.8-1.7-39.3-4.8-58.4-9.8
			c-22.7-6-44-14.9-61.8-30.6c-1.4-1.2-2.4-2.4-2.1-4.3c0.4-2.4-0.9-2.6-2.9-2.8c-14.4-1.5-29.2-0.6-43.2-5.8
			c-7.4-2.7-15-5-21.9-8.9c-9.8-5.5-14.8-13.9-14-25.3c1.1-14.5,0.9-29,1.1-43.5c0.2-17.4,1.5-34.7,2.2-52.1
			c0.5-13.5,1.1-27.1,1.7-40.6c0.6-15.3,1.4-30.7,2.2-46c1-17.7,0.6-35.4-2-53c-1.4-9.5-1.1-19.1-0.8-28.7
			c0.4-16.9,2.9-33.5,8.3-49.6c3.5-10.6,9.9-19.5,16.9-28c0.8-1,1.6-2,2.5-2.9c6-6.9,12.4-12.3,21.7-15.2
			c20.1-6.3,38.9-16.2,58.5-23.9c10.8-4.3,21-9.7,31.6-14.6c0.3,1.1,0.6,2.3,0.8,3.4c5.6,32.6,15.1,63.8,30.9,93
			c7,12.9,14.1,25.6,24.2,36.4c13.2,14.1,28.5,25.6,44.7,36c1,0.6,2.1,1.1,3.3,1c10.2-1.1,20.1-2.8,27.9-10.4
			c3.4-3.3,6.6-6.7,10.1-9.8c18.5-16.4,29.5-38.2,42.6-58.4c0.2-0.4,0.4-0.8,0.5-1.2c5.5-13.7,10.7-27.4,14.7-41.6
			C381.3,423.4,385.5,407.6,389.7,391.9z"/>
		<path style="fill:#FFFFFE;" d="M389.7,391.9c-4.3,15.7-8.5,31.5-12.9,47.2c-4,14.2-9.2,27.9-14.7,41.6c-0.2,0.4-0.3,0.8-0.5,1.2
			c-13.2,20.2-24.1,42.1-42.6,58.4c-3.5,3.1-6.8,6.5-10.1,9.8c-7.7,7.6-17.7,9.3-27.9,10.4c-1.2,0.1-2.3-0.3-3.3-1
			c-16.2-10.3-31.5-21.9-44.7-36c-10.1-10.7-17.2-23.5-24.2-36.4c-15.8-29.2-25.3-60.5-30.9-93c-0.2-1.2-0.5-2.3-0.8-3.4
			c9.5-4.6,19-9.3,28.6-13.8c3.1-1.5,6.1-3,8.6-5.3c1.4-1.2,3-2,4.5-2.9c7.3-4.3,13.8-9.5,17.1-17.4c2.2-5.2,2.4-11,2.4-16.6
			c0-2.6,0.6-4.8,2.1-6.9c4.6-6.6,10.3-11.9,17.8-15.1c24.1-10.4,48.6-5,66,11.5c2.7,2.6,4.6,5.6,5,9.6c1.3,13.9,8.3,24.8,18.8,33.6
			c4.8,4,10.3,7.2,15.3,10.9C371.6,384.1,381.1,387.1,389.7,391.9z"/>
	</g>
</g>
<g id="head-down">
	<g>
		<path style="fill:#010202;" d="M165.9,302.8c-4.4-1.5-6.4-5.3-8.7-8.9c-7.2-11.2-12.4-23.1-14.6-36.4c-2.2-13.3-1.6-26.6-1.6-39.8
			c-0.1-27,5.7-52.6,18.4-76.5c16.2-30.4,38.6-54.9,69.6-71c9-4.7,18.6-6.6,28.4-8c5.8-0.8,11.5-2.1,17.3-2.8
			c16.3-2,32.3-1,48.1,3.2c23.1,6.1,42.6,18.1,59,35.4c13.9,14.7,24,31.7,31,50.6c5.8,15.6,9.2,31.8,10.5,48.5
			c2.2,28-1.2,55.2-9.7,81.9c-2.7,8.3-5.9,16.4-9.3,24.5c-1.2,2.9-3.5,5.2-4.9,8.1c-1.1,2.2-3.3,0.5-4.9-0.6
			c-0.3-1.1,0.3-2.4-0.4-3.4c-3.5-4.9-7-9.8-11.6-13.8c-1.6-1.4-3.2-2.9-4.3-4.7c-7.4-11.8-19.3-16.6-31.6-20.6
			c-5.9-2-12.3-0.4-18.4-0.7c-2.6-0.1-5,0.6-7.4,1.7c-9,4-18,8-27.1,11.7c-26.4,10.7-53.8,17.5-81.9,22c1.3,5.1,4.8,7.9,9.8,8.9
			c10.5,2.3,20.5,2,29.2-5.4c2.9-2.4,6.6-2.1,8.9,0.4c2.3,2.4,2.3,5.9,0,8.7c-1.2,1.5-2.7,2.7-4.3,3.8c-6.8,4.6-14.6,6.5-22.6,6.7
			c-8.5,0.3-16.9-0.9-24-6c-5.3-3.7-9.5-8.3-7.9-15.8C189,305.1,177.3,306.5,165.9,302.8z"/>
		<path style="fill:#FDFDFC;" d="M165.9,302.8c11.4,3.8,23.1,2.4,34.8,1.5c-1.7,7.5,2.6,12,7.9,15.8c7.2,5.1,15.5,6.2,24,6
			c8.1-0.2,15.8-2.1,22.6-6.7c1.6-1.1,3.1-2.3,4.3-3.8c2.3-2.8,2.3-6.3,0-8.7c-2.3-2.5-6-2.8-8.9-0.4c-8.7,7.4-18.7,7.7-29.2,5.4
			c-4.9-1.1-8.4-3.8-9.8-8.9c28.1-4.5,55.5-11.4,81.9-22c9.1-3.7,18.1-7.7,27.1-11.7c2.4-1.1,4.8-1.8,7.4-1.7
			c6.2,0.3,12.5-1.3,18.4,0.7c12.3,4.1,24.2,8.9,31.6,20.6c1.1,1.8,2.7,3.3,4.3,4.7c4.7,4,8.1,8.9,11.6,13.8c0.7,1,0.2,2.3,0.4,3.4
			c-1.7,4.9-2.1,10.1-3.8,15.1c-2.1,6.1-4.6,11.9-8.1,17.2c-5.4,8.2-10.8,16.3-17.3,23.7c-10,11.4-17.9,24.4-26.5,36.8
			c-10.9,15.7-26.2,24.5-44.2,29.3c-0.8,0.2-1.7,0.4-2.5,0.2c-4.5-0.9-8.9-0.1-13.3,0.1c-14.6,0.9-26.6-5.7-38.1-13.3
			c-9.7-6.4-15.8-15.9-22.2-25.3c-13.1-19.4-26.9-38.3-38-59C174.7,325.1,170,314,165.9,302.8z M330.9,325.2
			c2.3,0.1,5.4-0.1,8.4-0.7c9.1-1.8,17.3-5.4,23.2-12.9c3-3.8,2.7-7.7-0.4-10.2c-3-2.3-6.7-1.6-9.7,2.1c-1.9,2.3-4.1,4-6.7,5.3
			c-7.8,3.7-15.9,4.5-24.2,2.5c-4.5-1.1-8.5-3-11.8-6.5c-2.5-2.6-5.9-3-8.4-1.4c-2.5,1.6-3.7,4.7-2.7,7.6c0.8,2.3,2.5,3.9,4.4,5.4
			C310.7,322.8,320,325.3,330.9,325.2z M280.1,383.8c0.2,0,0.4,0,0.6,0c10.2-1.2,15.3-9.3,21.1-16.2c1.6-2-0.2-5-2.5-6.5
			c-2-1.3-4-1.6-6,0.4c-1.7,1.7-3.7,3.2-5.6,4.7c-8.2,6.5-8.3,6.5-16.4,0c-2.2-1.8-3.6-3.3-1.9-6.3c1.1-1.9,0.4-4-1.2-5.5
			c-1.5-1.5-3.4-1.8-5.3-1.1c-6.2,2.3-8.5,12.7-3.7,17.2c3.9,3.6,8.1,6.9,12.5,9.9C274.2,382.1,276.8,383.7,280.1,383.8z
			 M279.3,414.1c8.1-0.1,15.7-2.5,23.1-5.5c3.5-1.4,4.8-4.9,3.5-8.2c-1.2-3.1-4.3-4.6-7.8-3.8c-2,0.5-3.9,1.1-5.8,1.8
			c-8,3-16.1,3.5-24.3,0.5c-2-0.7-4.1-1.1-6.3-1c-3.4,0.2-5.9,2.2-6.3,5.2c-0.5,3.2,0.9,6.2,4.2,7
			C266.1,411.8,272.4,414.3,279.3,414.1z"/>
		<path style="fill:#0B0B0B;" d="M330.9,325.2c-10.9,0.1-20.1-2.4-28.1-8.8c-1.8-1.5-3.6-3.1-4.4-5.4c-1-2.8,0.2-6,2.7-7.6
			c2.5-1.6,5.9-1.3,8.4,1.4c3.3,3.4,7.3,5.4,11.8,6.5c8.4,2,16.5,1.2,24.2-2.5c2.6-1.3,4.8-3,6.7-5.3c3-3.7,6.7-4.4,9.7-2.1
			c3.1,2.5,3.4,6.4,0.4,10.2c-5.9,7.5-14.1,11.1-23.2,12.9C336.3,325,333.2,325.3,330.9,325.2z"/>
		<path style="fill:#0D0E0E;" d="M280.1,383.8c-3.2-0.1-5.8-1.7-8.4-3.5c-4.4-3-8.6-6.2-12.5-9.9c-4.8-4.5-2.5-14.9,3.7-17.2
			c1.9-0.7,3.8-0.5,5.3,1.1c1.6,1.6,2.3,3.7,1.2,5.5c-1.8,3-0.4,4.5,1.9,6.3c8.1,6.5,8.2,6.6,16.4,0c1.9-1.5,3.9-3,5.6-4.7
			c2-2,4-1.8,6-0.4c2.3,1.6,4.1,4.6,2.5,6.5c-5.8,6.9-10.8,15-21.1,16.2C280.5,383.8,280.3,383.8,280.1,383.8z"/>
		<path style="fill:#F79C7E;" d="M279.3,414.1c-6.9,0.2-13.2-2.3-19.6-3.9c-3.2-0.8-4.7-3.8-4.2-7c0.4-3,3-5,6.3-5.2
			c2.2-0.1,4.3,0.3,6.3,1c8.2,3,16.3,2.5,24.3-0.5c1.9-0.7,3.8-1.3,5.8-1.8c3.5-0.9,6.6,0.7,7.8,3.8c1.2,3.3,0,6.8-3.5,8.2
			C295,411.6,287.4,414,279.3,414.1z"/>
	</g>
</g>
<g id="head-down-right">
	<g>
		<path style="fill:#020202;" d="M235.8,328.9c-3,0.4-5.2-0.9-7.4-2.9c-18.7-16.7-33.3-36.7-45.9-58.2c-6.1-10.3-9.8-21.7-13.3-33.1
			c-3.1-10.1-6.2-20.1-8.1-30.5c-2.5-13.8-2.5-27.6-0.7-41.6c3.1-23.2,12.8-43.7,26.6-62.1c11.5-15.3,24.9-29.2,42.1-38.1
			c17.2-8.9,35.2-16.2,54.6-18.9c11.2-1.6,22.4-3,33.6-3c12.5,0.1,24.6,2.9,36.7,6c19.6,5.1,36.8,14.7,52,27.7
			c10,8.6,18.5,18.9,26.1,29.7c9.8,14,15.7,29.6,18.9,46.3c1.6,8.3,3.3,16.7,4.9,25c0.2,1,0.2,2.1,0.3,3.2c0,3.7-1.5,6.2-4.4,7
			c-3.2,1-5.6-0.1-7.8-3.4c-0.2-0.3-0.6-0.5-0.9-0.8c0,0,0.1,0,0.1,0c0.3-0.8,0.1-1.5-0.5-2c-1-2.3-3.1-2.9-5.3-3
			c-10.6-0.5-20.5,1.9-29.5,7.5c-8,5-15.5,10.9-23.8,15.5c-2.3,1.3-4.5,2.8-7.2,4.5c2.2,0.4,3.8,0.5,5.3,0.9c4,1.1,5.9,3.9,5.3,7.5
			c-0.6,3.3-3.5,5.4-7.4,5c-7.3-0.7-14.7-0.9-22-0.9c-2.2,0-4.1,0.3-6,1.5c-12.9,8.5-27.1,14.6-40.8,21.7
			c-8.2,4.2-17.1,7.3-24.5,12.9c-8.4,6.4-17.9,10.5-27.7,14.2c-6.2,2.3-9.1,0.7-11.7-5.3c-3.5-8.2-5.9-16.7-9.6-24.8
			c-2.3-5-7-5.9-10.5-1.8c-1,1.2-1.7,2.5-2,3.9c-1.2,5.5-1.9,11.2-1,16.8c1.3,8.9,4.5,17.2,9.3,24.8c7.8,12.5,11.5,25.8,8.3,40.6
			C241.3,324.6,239.5,327.4,235.8,328.9z"/>
		<path style="fill:#FDFDFD;" d="M235.8,328.9c3.7-1.5,5.4-4.2,6.3-8.1c3.2-14.8-0.4-28.1-8.3-40.6c-4.8-7.6-8-15.9-9.3-24.8
			c-0.9-5.6-0.2-11.3,1-16.8c0.3-1.4,1.1-2.8,2-3.9c3.5-4.1,8.3-3.1,10.5,1.8c3.7,8.1,6.1,16.6,9.6,24.8c2.6,6,5.6,7.6,11.7,5.3
			c9.7-3.7,19.2-7.8,27.7-14.2c7.4-5.6,16.3-8.7,24.5-12.9c13.7-7.1,27.8-13.2,40.8-21.7c1.9-1.2,3.8-1.5,6-1.5
			c7.4,0,14.7,0.2,22,0.9c3.9,0.4,6.8-1.7,7.4-5c0.6-3.6-1.3-6.4-5.3-7.5c-1.5-0.4-3.1-0.5-5.3-0.9c2.7-1.7,4.9-3.2,7.2-4.5
			c8.3-4.7,15.8-10.5,23.8-15.5c8.9-5.6,18.9-8,29.5-7.5c2.1,0.1,4.2,0.7,5.3,3c0,0.7-0.3,1.5,0.5,2c0,0-0.1,0-0.1,0
			c0.5,7.3,1.8,14.4,3,21.6c-0.4,0.7-1.1,0.5-1.7,0.7c-4.3,1.1-8.7,2.1-12.3,4.8c-3,2.2-3.7,5.8-1.9,8.7c1.7,2.8,5.1,3.7,8.4,2.3
			c1.4-0.6,2.7-1.3,4.1-1.7c5.3-1.8,5.3-1.7,4.7,3.9c-0.3,6.6-3.5,12.2-6.3,18c-0.6,1.2-1.1,2.5-1.7,3.7c-5-0.6-9.9,0.4-14.7,1.6
			c-3.9,1-6.9,5.7-6.2,9.4c2,10.1,2.9,20.4,5.7,30.3c2,7,4,14.1,5.8,21.1c1,3.7,0.4,4.5-3.4,5c-2.3,0.3-4.7,0.3-7,0.3
			c-5.7-0.1-11.3,0.7-16.7,2c-4,1-5.9,4.4-5,8c0.8,3.3,4.2,5.1,8.1,4.4c6-1,12-2,18.1-1.5c-4.7,13.3-9.7,26.6-14.1,40
			c-2.6,7.9-5.3,15.7-8.2,23.5c-1,2.8-2.4,5.5-3.8,8.1c-3.6,6.6-9.5,9.2-16.7,10.3c-11.7,1.8-21.8-2.5-31.7-7.8
			c-20.3-10.8-40.2-22.5-60.3-33.8c-16-9.1-31.4-19.1-46.7-29.4C240.3,333,237.8,331.3,235.8,328.9z M367.8,264.9
			c6.2-0.1,11.4-0.9,16.3-2.7c3.1-1.1,4.8-4.1,4.3-7c-0.4-2.9-2.8-5.2-5.9-5.4c-1.2-0.1-2.5,0.2-3.8,0.5c-13,2.9-25.3,1.8-36.5-5.9
			c-2.5-1.7-5.1-1.5-7.4,0.3c-2.4,1.9-3,4.6-1.9,7.5c0.9,2.4,2.8,3.9,4.9,5.2C347.4,263.2,358,264.1,367.8,264.9z M397.5,357.1
			c1.9,0.2,5.1-0.4,8.2-0.9c4.3-0.8,6.8-4,6.2-7.5c-0.7-3.8-3.9-5.8-8.5-5.2c-10.4,1.4-20.3-0.1-29.6-5.2c-3.1-1.7-6.5-1-8.3,1.5
			c-2,2.7-1.7,6.2,0.8,8.7c1.8,1.7,3.9,3.1,6.2,3.9C380.2,355.1,388,356.9,397.5,357.1z"/>
		<path style="fill:#080909;" d="M424.2,323.9c-6.1-0.5-12.1,0.4-18.1,1.5c-3.9,0.7-7.3-1.1-8.1-4.4c-0.9-3.6,1-7,5-8
			c5.5-1.4,11-2.1,16.7-2c2.3,0,4.7,0.1,7-0.3c3.8-0.6,4.3-1.3,3.4-5c-1.8-7.1-3.9-14.1-5.8-21.1c-2.8-9.9-3.7-20.2-5.7-30.3
			c-0.7-3.7,2.2-8.4,6.2-9.4c4.8-1.2,9.7-2.2,14.7-1.6c5.8,4.5,4.9,9.7-2.2,12.8c-4.9,0.2-4.9,0.2-4.3,4.9c0.1,0.7,0,1.5,0.2,2.2
			c1.2,6.6,2,13.3,4.3,19.7c1.8,6.8,3.8,13.7,5.5,20.6c1.1,4.3,1.1,8.6-0.8,12.7c-1.5,3.3-3.9,5.5-7.4,6.4
			C431.4,323.4,427.9,323.9,424.2,323.9z"/>
		<path style="fill:#080909;" d="M447.6,221.4c0.6-5.6,0.6-5.6-4.7-3.9c-1.4,0.5-2.7,1.2-4.1,1.7c-3.3,1.4-6.7,0.5-8.4-2.3
			c-1.8-2.9-1.1-6.5,1.9-8.7c3.6-2.7,8-3.7,12.3-4.8c0.6-0.2,1.3,0,1.7-0.7c2.2,0.5,4.4,0.9,5.9,2.8c2.4,3.2,1.7,8-2,9.5
			C446.8,216.6,446.8,218.7,447.6,221.4z"/>
		<path style="fill:#ECEEED;" d="M437.6,282.8c-2.4-6.4-3.2-13.1-4.3-19.7c-0.1-0.7-0.1-1.5-0.2-2.2c-0.7-4.7-0.7-4.7,4.3-4.9
			c0.6,4.2,1.2,8.4,1.6,12.6C439.5,273.4,439,278.2,437.6,282.8z"/>
		<path style="fill:#080909;" d="M367.8,264.9c-9.7-0.8-20.4-1.7-29.9-7.6c-2.2-1.3-4-2.8-4.9-5.2c-1.1-2.9-0.5-5.5,1.9-7.5
			c2.3-1.8,4.9-2,7.4-0.3c11.3,7.8,23.6,8.8,36.5,5.9c1.2-0.3,2.5-0.6,3.8-0.5c3,0.2,5.4,2.5,5.9,5.4c0.4,3-1.2,5.9-4.3,7
			C379.1,264,374,264.9,367.8,264.9z"/>
		<path style="fill:#F79C7E;" d="M397.5,357.1c-9.5-0.2-17.3-2-25-4.8c-2.3-0.8-4.4-2.2-6.2-3.9c-2.5-2.5-2.8-6-0.8-8.7
			c1.9-2.5,5.3-3.2,8.3-1.5c9.3,5.1,19.2,6.6,29.6,5.2c4.5-0.6,7.8,1.4,8.5,5.2c0.6,3.5-1.9,6.7-6.2,7.5
			C402.6,356.8,399.4,357.3,397.5,357.1z"/>
	</g>
</g>
<g id="head-up-right">
	<g>
		<path style="fill:#FDFEFD;" d="M453.7,209.4c1.5,2.1,1.6,4.3,0.3,6.5c-0.8,1.5-1.4,3.1-2.2,4.6c-4,7.4-3.7,10.3,2.3,16.4
			c4.9,5,9,10.4,10.6,17.5c2.5,11.1-2.3,19.2-10.3,26c-2.2,1.9-4.6,3.5-7.3,4.5c-13.3,5.3-26.9,9.6-41.2,10.6
			c-18.5,1.3-34.5,8.1-47.5,21.3c-7,7.1-11.3,15.6-12.5,25.9c-0.7,6.3-2.5,12.5-3.2,18.8c-0.5,4.7-1.1,9.3-1.9,13.9
			c-5.6,36-40.6,46.2-64.7,39c-12.9-3.9-24.4-10-33.4-20.8c-4.9-5.9-8.4-12.5-11.6-19.3c-1.8-3.7-2.6-7.9-2.7-12
			c-0.3-11.1-0.3-22.2-0.4-33.3c3.4,2,6.9,1.6,10.4,0.2c3.6-1.4,6.7-3.7,9.7-6.1c11-8.9,18.3-20.5,24.9-32.8c8-15,8.2-30,1.7-45.1
			c-6.7-15.5-17-28.2-31.4-37.3c-2-1.3-3.9-2.7-5.7-4.1c-10.7-8.6-15.4-20.3-16.7-33.6c-0.4-3.9,1.1-5.1,4.9-5.1
			c5.9,0,11.3,1.9,16.5,4.2c9,3.9,17.6,8.5,26.3,13c10,5.1,20,5.6,30.9,2.8c11-2.8,18.5-8.9,23.6-18.7c2.9-5.7,5.8-11.4,8.1-17.3
			c6.2-15.7,11.1-31.8,12.7-48.6c1-11.2,4.7-20.8,12.2-29.1c4.3-4.8,9.4-7.6,15.9-7.4c13.7,11.1,23.7,25.2,32.6,40.2
			c2.1,3.5,2.8,7.2,2.8,11.2c0.1,8.7,1.9,11.5,9,14.6c12.3,5.4,24.2,11.9,37,16.1c2.6,0.8,4.8,2.7,7.1,4.2c2.5,1.6,2.1,4.2,2,6.6
			c-2.4,0-4.5,0.9-6.5,2.2c-8.1,5.4-15.7,11.6-24.5,16c-3.2,1.6-4.1,5.1-2.7,8.2c1.3,2.9,4.8,4.4,8.1,3.3c2.2-0.7,4.2-1.9,6.4-2.9
			c2.2,5.5,4.4,11.1,6.6,16.6c-2.4-0.4-4.4,0.4-6.3,1.8c-5.6,4.2-11.8,5.5-18.7,4.6c-3.1-0.4-6,1.2-7,3.9c-1,2.7,0,5.8,2.5,7.6
			c1.9,1.4,4,1.9,6.3,1.9c7.7-0.2,15-1.8,21.8-5.5C451,213.5,452.9,212.1,453.7,209.4z M348,95.5c0.1,5,4.6,7.8,9.1,5.9
			c2.2-1,4.3-2.2,6.5-3.3c4.9-2.4,10-4.1,15.7-3c3,0.6,5.8-1.6,6.7-4.7c1.2-4.4-2.1-8.2-7.7-8.6c-10.3-0.8-19.1,3.4-27.5,8.6
			C348.9,91.5,347.9,93.4,348,95.5z M388.5,140.1c4,0.1,6.3-1.2,7.3-4.3c0.9-2.9-0.2-5.9-3.1-7.7c-2-1.3-4.2-1.6-6.7-1.2
			c-7.5,1.4-14.7,3.5-21.2,7.4c-3.5,2.1-4.6,4.8-3.9,8.7c0.6,3,2.4,4.9,5.5,5.4c3.9,0.7,5.8-0.1,8.2-3.9c0.4-0.5,0.6-1.1,1.3-1.3
			C380.1,141.9,384,140,388.5,140.1z"/>
		<path style="fill:#020303;" d="M372.1,64c-6.5-0.2-11.6,2.5-15.9,7.4c-7.5,8.3-11.1,17.9-12.2,29.1c-1.6,16.8-6.5,32.9-12.7,48.6
			c-2.3,5.9-5.2,11.6-8.1,17.3c-5.1,9.9-12.6,15.9-23.6,18.7c-10.9,2.8-20.9,2.3-30.9-2.8c-8.7-4.5-17.3-9.1-26.3-13
			c-5.3-2.3-10.7-4.2-16.5-4.2c-3.8,0-5.3,1.2-4.9,5.1c1.3,13.3,6,24.9,16.7,33.6c1.8,1.5,3.7,2.9,5.7,4.1
			c14.4,9.1,24.8,21.8,31.4,37.3c6.5,15.1,6.3,30.1-1.7,45.1c-6.6,12.4-13.9,23.9-24.9,32.8c-3,2.4-6.1,4.7-9.7,6.1
			c-3.5,1.4-7,1.9-10.4-0.2c-1-0.8-2.2-1.5-2.9-2.5c-2.6-3.8-6.5-6-10.3-8.3c-11.9-7.4-23-15.8-32.8-25.8
			c-5.2-5.3-8.8-11.8-13.6-17.3c-14.1-16.1-21.9-35.1-26.6-55.6c-3.2-14-2.9-28.3-1.9-42.6c0.9-11.8,2.2-23.5,4.6-35.1
			c3.3-16,8.7-31.2,18.3-44.6c5.1-7.1,11-13.6,16.4-20.4c4.1-5.1,7.7-10.5,12.4-15c4.1-3.9,8.2-7.8,13.2-10.5
			c9.9-5.4,19-12.2,29.3-16.9c14.4-6.5,29.5-10.1,45.2-11.6c8.5-0.8,17-0.6,25.5-0.4c19,0.4,37.4,4.3,55.1,11
			c7,2.7,12.9,7.4,18.6,12.2c2.5,2.1,4,5,4.4,8.3c0.5,3.4-1.6,5.6-4.2,7.3C376.8,62.7,374.3,62.9,372.1,64z"/>
		<path style="fill:#080B09;" d="M443.4,183.8c-2.1,1-4.2,2.1-6.4,2.9c-3.4,1.1-6.8-0.4-8.1-3.3c-1.4-3.1-0.5-6.6,2.7-8.2
			c8.8-4.4,16.4-10.6,24.5-16c2-1.4,4.1-2.2,6.5-2.2c2.8,1,4.8,2.8,5.1,5.9c0.3,3.1-1.4,5.2-3.8,6.9
			C457,174.3,450.2,179,443.4,183.8z"/>
		<path style="fill:#F79B7E;" d="M453.7,209.4c-0.8,2.7-2.7,4.1-5.1,5.3c-6.8,3.7-14.1,5.2-21.8,5.5c-2.3,0.1-4.4-0.5-6.3-1.9
			c-2.5-1.8-3.5-4.9-2.5-7.6c1-2.7,3.8-4.3,7-3.9c6.8,0.8,13.1-0.5,18.7-4.6c1.8-1.4,3.9-2.2,6.3-1.8
			C452.4,202.9,453.1,206.1,453.7,209.4z"/>
		<path style="fill:#0B0B0B;" d="M348,95.5c-0.2-2.1,0.9-4,2.8-5.1c8.4-5.1,17.2-9.4,27.5-8.6c5.6,0.5,8.9,4.2,7.7,8.6
			c-0.9,3.1-3.7,5.3-6.7,4.7c-5.7-1.1-10.7,0.6-15.7,3c-2.2,1.1-4.3,2.4-6.5,3.3C352.6,103.3,348.1,100.4,348,95.5z"/>
		<path style="fill:#0B0B0B;" d="M388.5,140.1c-4.5-0.1-8.5,1.8-12.6,3.2c-0.7,0.2-0.9,0.8-1.3,1.3c-2.4,3.7-4.3,4.6-8.2,3.9
			c-3.1-0.6-4.9-2.4-5.5-5.4c-0.8-3.8,0.3-6.6,3.9-8.7c6.5-3.9,13.7-6,21.2-7.4c2.5-0.5,4.7-0.1,6.7,1.2c2.9,1.8,4,4.8,3.1,7.7
			C394.8,138.9,392.6,140.3,388.5,140.1z"/>
	</g>
</g>
<g id="head-down-left">
	<g>
		<path style="fill:#020202;" d="M326.3,328.9c3,0.4,5.2-0.9,7.4-2.9c18.7-16.7,33.3-36.7,45.9-58.2c6.1-10.3,9.8-21.7,13.3-33.1
			c3.1-10.1,6.2-20.1,8.1-30.5c2.5-13.8,2.5-27.6,0.7-41.6c-3.1-23.2-12.8-43.7-26.6-62.1c-11.5-15.3-24.9-29.2-42.1-38.1
			c-17.2-8.9-35.2-16.2-54.6-18.9c-11.2-1.6-22.4-3-33.6-3c-12.5,0.1-24.6,2.9-36.7,6c-19.6,5.1-36.8,14.7-52,27.7
			c-10,8.6-18.5,18.9-26.1,29.7c-9.8,14-15.7,29.6-18.9,46.3c-1.6,8.3-3.3,16.7-4.9,25c-0.2,1-0.2,2.1-0.3,3.2c0,3.7,1.5,6.2,4.4,7
			c3.2,1,5.6-0.1,7.8-3.4c0.2-0.3,0.6-0.5,0.9-0.8c0,0-0.1,0-0.1,0c-0.3-0.8-0.1-1.5,0.5-2c1-2.3,3.1-2.9,5.3-3
			c10.6-0.5,20.5,1.9,29.5,7.5c8,5,15.5,10.9,23.8,15.5c2.3,1.3,4.5,2.8,7.2,4.5c-2.2,0.4-3.8,0.5-5.3,0.9c-4,1.1-5.9,3.9-5.3,7.5
			c0.6,3.3,3.5,5.4,7.4,5c7.3-0.7,14.7-0.9,22-0.9c2.2,0,4.1,0.3,6,1.5c12.9,8.5,27.1,14.6,40.8,21.7c8.2,4.2,17.1,7.3,24.5,12.9
			c8.4,6.4,17.9,10.5,27.7,14.2c6.2,2.3,9.1,0.7,11.7-5.3c3.5-8.2,5.9-16.7,9.6-24.8c2.3-5,7-5.9,10.5-1.8c1,1.2,1.7,2.5,2,3.9
			c1.2,5.5,1.9,11.2,1,16.8c-1.3,8.9-4.5,17.2-9.3,24.8c-7.8,12.5-11.5,25.8-8.3,40.6C320.9,324.6,322.7,327.4,326.3,328.9z"/>
		<path style="fill:#FDFDFD;" d="M319.3,334.8c-15.2,10.3-30.7,20.3-46.7,29.4c-20.1,11.3-40,23-60.3,33.8
			c-9.8,5.2-19.9,9.6-31.7,7.8c-7.2-1.1-13.1-3.8-16.7-10.3c-1.4-2.6-2.8-5.3-3.8-8.1c-2.9-7.8-5.6-15.6-8.2-23.5
			c-4.4-13.4-9.4-26.7-14.1-40c6.1-0.5,12.1,0.4,18.1,1.5c3.9,0.7,7.3-1.1,8.1-4.4c0.9-3.6-1-7-5-8c-5.5-1.4-11-2.1-16.7-2
			c-2.3,0-4.7,0.1-7-0.3c-3.8-0.6-4.3-1.3-3.4-5c1.8-7.1,3.9-14.1,5.8-21.1c2.8-9.9,3.7-20.2,5.7-30.3c0.7-3.7-2.2-8.4-6.2-9.4
			c-4.8-1.2-9.7-2.2-14.7-1.6c-0.6-1.2-1.1-2.5-1.7-3.7c-2.9-5.7-6-11.3-6.3-18c-0.6-5.6-0.6-5.6,4.7-3.9c1.4,0.5,2.7,1.2,4.1,1.7
			c3.3,1.4,6.7,0.5,8.4-2.3c1.8-2.9,1.1-6.5-1.9-8.7c-3.6-2.7-8-3.7-12.3-4.8c-0.6-0.2-1.3,0-1.7-0.7c1.1-7.2,2.4-14.4,3-21.6
			c0,0-0.1,0-0.1,0c0.8-0.5,0.5-1.3,0.5-2c1-2.3,3.1-2.9,5.3-3c10.6-0.5,20.5,1.9,29.5,7.5c8,5,15.5,10.9,23.8,15.5
			c2.3,1.3,4.5,2.8,7.2,4.5c-2.2,0.4-3.8,0.5-5.3,0.9c-4,1.1-5.9,3.9-5.3,7.5c0.6,3.3,3.5,5.4,7.4,5c7.3-0.7,14.7-0.9,22-0.9
			c2.2,0,4.1,0.3,6,1.5c12.9,8.5,27.1,14.6,40.8,21.7c8.2,4.2,17.1,7.3,24.5,12.9c8.4,6.4,17.9,10.5,27.7,14.2
			c6.2,2.3,9.1,0.7,11.7-5.3c3.5-8.2,5.9-16.7,9.6-24.8c2.3-5,7-5.9,10.5-1.8c1,1.2,1.7,2.5,2,3.9c1.2,5.5,1.9,11.2,1,16.8
			c-1.3,8.9-4.5,17.2-9.3,24.8c-7.8,12.5-11.5,25.8-8.3,40.6c0.8,3.9,2.6,6.6,6.3,8.1C324.4,331.3,321.9,333,319.3,334.8z
			 M224.3,257.4c2.2-1.3,4-2.8,4.9-5.2c1.1-2.9,0.5-5.5-1.9-7.5c-2.3-1.8-4.9-2-7.4-0.3c-11.3,7.8-23.6,8.8-36.5,5.9
			c-1.2-0.3-2.5-0.6-3.8-0.5c-3,0.2-5.4,2.5-5.9,5.4c-0.4,3,1.2,5.9,4.3,7c4.9,1.8,10.1,2.6,16.3,2.7
			C204.1,264.1,214.8,263.2,224.3,257.4z M189.6,352.4c2.3-0.8,4.4-2.2,6.2-3.9c2.5-2.5,2.8-6,0.8-8.7c-1.9-2.5-5.3-3.2-8.3-1.5
			c-9.3,5.1-19.2,6.6-29.6,5.2c-4.5-0.6-7.8,1.4-8.5,5.2c-0.6,3.5,1.9,6.7,6.2,7.5c3.1,0.6,6.3,1.1,8.2,0.9
			C174.1,356.9,182,355.1,189.6,352.4z"/>
		<path style="fill:#080909;" d="M137.9,323.9c6.1-0.5,12.1,0.4,18.1,1.5c3.9,0.7,7.3-1.1,8.1-4.4c0.9-3.6-1-7-5-8
			c-5.5-1.4-11-2.1-16.7-2c-2.3,0-4.7,0.1-7-0.3c-3.8-0.6-4.3-1.3-3.4-5c1.8-7.1,3.9-14.1,5.8-21.1c2.8-9.9,3.7-20.2,5.7-30.3
			c0.7-3.7-2.2-8.4-6.2-9.4c-4.8-1.2-9.7-2.2-14.7-1.6c-5.8,4.5-4.9,9.7,2.2,12.8c4.9,0.2,4.9,0.2,4.3,4.9c-0.1,0.7,0,1.5-0.2,2.2
			c-1.2,6.6-2,13.3-4.3,19.7c-1.8,6.8-3.8,13.7-5.5,20.6c-1.1,4.3-1.1,8.6,0.8,12.7c1.5,3.3,3.9,5.5,7.4,6.4
			C130.7,323.4,134.3,323.9,137.9,323.9z"/>
		<path style="fill:#080909;" d="M114.6,221.4c-0.6-5.6-0.6-5.6,4.7-3.9c1.4,0.5,2.7,1.2,4.1,1.7c3.3,1.4,6.7,0.5,8.4-2.3
			c1.8-2.9,1.1-6.5-1.9-8.7c-3.6-2.7-8-3.7-12.3-4.8c-0.6-0.2-1.3,0-1.7-0.7c-2.2,0.5-4.4,0.9-5.9,2.8c-2.4,3.2-1.7,8,2,9.5
			C115.3,216.6,115.3,218.7,114.6,221.4z"/>
		<path style="fill:#ECEEED;" d="M124.5,282.8c2.4-6.4,3.2-13.1,4.3-19.7c0.1-0.7,0.1-1.5,0.2-2.2c0.7-4.7,0.7-4.7-4.3-4.9
			c-0.6,4.2-1.2,8.4-1.6,12.6C122.6,273.4,123.1,278.2,124.5,282.8z"/>
		<path style="fill:#080909;" d="M194.4,264.9c9.7-0.8,20.4-1.7,29.9-7.6c2.2-1.3,4-2.8,4.9-5.2c1.1-2.9,0.5-5.5-1.9-7.5
			c-2.3-1.8-4.9-2-7.4-0.3c-11.3,7.8-23.6,8.8-36.5,5.9c-1.2-0.3-2.5-0.6-3.8-0.5c-3,0.2-5.4,2.5-5.9,5.4c-0.4,3,1.2,5.9,4.3,7
			C183,264,188.2,264.9,194.4,264.9z"/>
		<path style="fill:#F79C7E;" d="M164.7,357.1c9.5-0.2,17.3-2,25-4.8c2.3-0.8,4.4-2.2,6.2-3.9c2.5-2.5,2.8-6,0.8-8.7
			c-1.9-2.5-5.3-3.2-8.3-1.5c-9.3,5.1-19.2,6.6-29.6,5.2c-4.5-0.6-7.8,1.4-8.5,5.2c-0.6,3.5,1.9,6.7,6.2,7.5
			C159.6,356.8,162.8,357.3,164.7,357.1z"/>
	</g>
</g>
<g id="head-up-left">
	<g>
		<path style="fill:#FDFEFD;" d="M113.6,214.7c6.8,3.7,14.1,5.2,21.8,5.5c2.3,0.1,4.4-0.5,6.3-1.9c2.5-1.8,3.5-4.9,2.5-7.6
			c-1-2.7-3.8-4.3-7-3.9c-6.8,0.8-13.1-0.5-18.7-4.6c-1.8-1.4-3.9-2.2-6.3-1.8c2.2-5.5,4.4-11.1,6.6-16.6c2.1,1,4.2,2.1,6.4,2.9
			c3.4,1.1,6.8-0.4,8.1-3.3c1.4-3.1,0.5-6.6-2.7-8.2c-8.8-4.4-16.4-10.6-24.5-16c-2-1.4-4.1-2.2-6.5-2.2c-0.2-2.5-0.5-5,2-6.6
			c2.3-1.5,4.6-3.3,7.1-4.2c12.8-4.2,24.7-10.7,37-16.1c7.1-3.1,8.9-5.9,9-14.6c0-4,0.7-7.7,2.8-11.2c8.9-15,18.9-29.1,32.6-40.2
			c6.5-0.2,11.6,2.5,15.9,7.4c7.5,8.3,11.1,17.9,12.2,29.1c1.6,16.8,6.5,32.9,12.7,48.6c2.3,5.9,5.2,11.6,8.1,17.3
			c5.1,9.9,12.6,15.9,23.6,18.7c10.9,2.8,20.9,2.3,30.9-2.8c8.7-4.5,17.3-9.1,26.3-13c5.3-2.3,10.7-4.2,16.5-4.2
			c3.8,0,5.3,1.2,4.9,5.1c-1.3,13.3-6,24.9-16.7,33.6c-1.8,1.5-3.7,2.9-5.7,4.1c-14.4,9.1-24.8,21.8-31.4,37.3
			c-6.5,15.1-6.3,30.1,1.7,45.1c6.6,12.4,13.9,23.9,24.9,32.8c3,2.4,6.1,4.7,9.7,6.1c3.5,1.4,7,1.9,10.4-0.2
			c-0.1,11.1-0.1,22.2-0.4,33.3c-0.1,4.1-0.9,8.3-2.7,12c-3.2,6.8-6.7,13.4-11.6,19.3c-8.9,10.7-20.4,16.9-33.4,20.8
			c-24.1,7.2-59.1-3-64.7-39c-0.7-4.6-1.4-9.3-1.9-13.9c-0.7-6.4-2.5-12.5-3.2-18.8c-1.2-10.3-5.4-18.8-12.5-25.9
			c-13-13.2-29-19.9-47.5-21.3c-14.3-1-27.9-5.3-41.2-10.6c-2.7-1.1-5.1-2.7-7.3-4.5c-8-6.9-12.8-14.9-10.3-26
			c1.6-7,5.7-12.5,10.6-17.5c6-6.1,6.3-9.1,2.3-16.4c-0.8-1.5-1.4-3.1-2.2-4.6c-1.3-2.3-1.1-4.4,0.3-6.5
			C109.2,212.1,111.2,213.5,113.6,214.7z M211.3,90.4c-8.4-5.1-17.2-9.4-27.5-8.6c-5.6,0.5-8.9,4.2-7.7,8.6c0.9,3.1,3.7,5.3,6.7,4.7
			c5.7-1.1,10.7,0.6,15.7,3c2.2,1.1,4.3,2.4,6.5,3.3c4.5,1.9,9.1-0.9,9.1-5.9C214.3,93.4,213.2,91.5,211.3,90.4z M186.2,143.4
			c0.7,0.2,0.9,0.8,1.3,1.3c2.4,3.7,4.3,4.6,8.2,3.9c3.1-0.6,4.9-2.4,5.5-5.4c0.8-3.8-0.3-6.6-3.9-8.7c-6.5-3.9-13.7-6-21.2-7.4
			c-2.5-0.5-4.7-0.1-6.7,1.2c-2.9,1.8-4,4.8-3.1,7.7c1,3.1,3.2,4.4,7.3,4.3C178.1,140,182.1,141.9,186.2,143.4z"/>
		<path style="fill:#020303;" d="M190.1,64c6.5-0.2,11.6,2.5,15.9,7.4c7.5,8.3,11.1,17.9,12.2,29.1c1.6,16.8,6.5,32.9,12.7,48.6
			c2.3,5.9,5.2,11.6,8.1,17.3c5.1,9.9,12.6,15.9,23.6,18.7c10.9,2.8,20.9,2.3,30.9-2.8c8.7-4.5,17.3-9.1,26.3-13
			c5.3-2.3,10.7-4.2,16.5-4.2c3.8,0,5.3,1.2,4.9,5.1c-1.3,13.3-6,24.9-16.7,33.6c-1.8,1.5-3.7,2.9-5.7,4.1
			c-14.4,9.1-24.8,21.8-31.4,37.3c-6.5,15.1-6.3,30.1,1.7,45.1c6.6,12.4,13.9,23.9,24.9,32.8c3,2.4,6.1,4.7,9.7,6.1
			c3.5,1.4,7,1.9,10.4-0.2c1-0.8,2.2-1.5,2.9-2.5c2.6-3.8,6.5-6,10.3-8.3c11.9-7.4,23-15.8,32.8-25.8c5.2-5.3,8.8-11.8,13.6-17.3
			c14.1-16.1,21.9-35.1,26.6-55.6c3.2-14,2.9-28.3,1.9-42.6c-0.9-11.8-2.2-23.5-4.6-35.1c-3.3-16-8.7-31.2-18.3-44.6
			c-5.1-7.1-11-13.6-16.4-20.4c-4.1-5.1-7.7-10.5-12.4-15c-4.1-3.9-8.2-7.8-13.2-10.5c-9.9-5.4-19-12.2-29.3-16.9
			C313.5,28,298.4,24.4,282.7,23c-8.5-0.8-17-0.6-25.5-0.4c-19,0.4-37.4,4.3-55.1,11c-7,2.7-12.9,7.4-18.6,12.2
			c-2.5,2.1-4,5-4.4,8.3c-0.5,3.4,1.6,5.6,4.2,7.3C185.3,62.7,187.9,62.9,190.1,64z"/>
		<path style="fill:#080B09;" d="M118.8,183.8c2.1,1,4.2,2.1,6.4,2.9c3.4,1.1,6.8-0.4,8.1-3.3c1.4-3.1,0.5-6.6-2.7-8.2
			c-8.8-4.4-16.4-10.6-24.5-16c-2-1.4-4.1-2.2-6.5-2.2c-2.8,1-4.8,2.8-5.1,5.9c-0.3,3.1,1.4,5.2,3.8,6.9
			C105.2,174.3,112,179,118.8,183.8z"/>
		<path style="fill:#F79B7E;" d="M108.5,209.4c0.8,2.7,2.7,4.1,5.1,5.3c6.8,3.7,14.1,5.2,21.8,5.5c2.3,0.1,4.4-0.5,6.3-1.9
			c2.5-1.8,3.5-4.9,2.5-7.6c-1-2.7-3.8-4.3-7-3.9c-6.8,0.8-13.1-0.5-18.7-4.6c-1.8-1.4-3.9-2.2-6.3-1.8
			C109.8,202.9,109.1,206.1,108.5,209.4z"/>
		<path style="fill:#0B0B0B;" d="M214.1,95.5c0.2-2.1-0.9-4-2.8-5.1c-8.4-5.1-17.2-9.4-27.5-8.6c-5.6,0.5-8.9,4.2-7.7,8.6
			c0.9,3.1,3.7,5.3,6.7,4.7c5.7-1.1,10.7,0.6,15.7,3c2.2,1.1,4.3,2.4,6.5,3.3C209.5,103.3,214.1,100.4,214.1,95.5z"/>
		<path style="fill:#0B0B0B;" d="M173.6,140.1c4.5-0.1,8.5,1.8,12.6,3.2c0.7,0.2,0.9,0.8,1.3,1.3c2.4,3.7,4.3,4.6,8.2,3.9
			c3.1-0.6,4.9-2.4,5.5-5.4c0.8-3.8-0.3-6.6-3.9-8.7c-6.5-3.9-13.7-6-21.2-7.4c-2.5-0.5-4.7-0.1-6.7,1.2c-2.9,1.8-4,4.8-3.1,7.7
			C167.3,138.9,169.6,140.3,173.6,140.1z"/>
	</g>
</g>
<g id="head-up">
	<path style="fill:#FEFEFE;" d="M341.2,348.7c-0.3,6.6,0.7,13.1,2.4,19.5c0.5,1.8,1.4,3.8-1.2,4.9c-0.9,0.4-0.3,1.1-0.2,1.6
		c1.2,6.3,2.3,12.6,3.6,18.9c0.4,1.9,0.5,3.6-1.1,5c-0.4,0.3-0.8,0.9-0.8,1.3c-0.5,7-5.6,10.5-11.1,12.2
		c-16.8,5.2-33.3,12-50.9,14.2c-15.7,1.9-31.2-0.2-46.2-5.5c-4-1.4-7.5-3.2-10.7-6c-4.4-3.8-6.4-8.6-6.2-14.4
		c0.3-6.8,1.9-13.5,2.8-20.2c1.2-8.4,3.4-16.7,2.3-25.3c-0.4-3.5-0.6-7.2-2.6-10.3c0.7-0.8,0.8-1.6,0.5-2.7
		c-1.8-7.1-3.4-14.4-5.4-21.4c-3.2-11.1-7.1-22-12.2-32.5c-3.1-6.4-6.9-11.8-12.3-16.3c-3.6-3-8.1-5.4-10.4-9.8
		c-6.4-12.1-11.3-24.7-13.3-38.2c-1.2-7.9,4.1-12.8,12-11.6c0-0.3,0-0.6,0-0.9c-3.3-17.8-7-35.4-5.1-53.8c1.1-10.4,3.1-20.1,10.5-28
		c0.6-0.6,1.1-1.3,1.6-2c20.6-28.2,46.6-49.7,79-63.2c12.6-5.3,25.7-7.9,39-10.5c8.1-1.6,16.1-3.1,24.4-2.6c3.8,0.2,7.2,1.1,10.5,3
		c7.6,4.6,14.1,10.4,19.9,16.9c14.4,15.9,23.2,34.9,28.4,55.5c3,11.6,4,23.7,5.5,35.6c1.7,13.9,2.2,27.8,1.5,41.8
		c-0.1,2.1-0.7,4,2.2,4.8c1.3,0.4,1.8,2,1.9,3.4c0.3,3.1,0.2,6.2-0.5,9.2c-3.3,13.9-9.4,26.7-15.6,39.5c-2.9,6-7.3,10.6-13.3,13.8
		c-2.9,1.6-6.4,3-8.1,6c-5.7,9.7-10.8,19.8-13.9,30.7c-2.2,8-3,16.3-4.4,24.5C343,340.1,341,344.2,341.2,348.7z M289.5,147.8
		c-1.2,0-2.3,0-3.5,0c-12.7-0.6-22.4,5.9-31.3,13.8c-2.7,2.4-2.8,5.7-0.9,8.4c1.9,2.5,5.2,3.3,8.3,1.6c1.2-0.6,2.3-1.5,3.4-2.4
		c5.7-4.2,11.2-8.2,18.8-8.5c8.4-0.4,16.5-0.3,22.6,6.7c1,1.2,2.4,2.1,3.8,2.9c3,2,6.5,1.5,8.6-1.1c2-2.5,1.9-5.9-0.6-8.4
		C310.8,152.5,301.8,146.4,289.5,147.8z M208.6,118.6c0,3.6,2.5,6.6,6,6.6c3.4,0,5.5-2,6.7-5c2.5-5.9,6.7-10.3,12.7-12.8
		c7.1-2.9,14.1-2.3,21.1,0.3c5,1.8,8.5,0.6,9.9-3.2c1.4-3.9-0.5-6.9-5.4-8.9c-5-2-10.1-3.2-15.5-3.1c-15.9,0.3-27.4,7.4-34.4,21.7
		C209.1,115.7,208.5,117,208.6,118.6z M372.4,113.5c-0.1-1.7-0.7-3.2-1.9-4.6c-5.3-5.9-11.2-10.9-18.5-14.3
		c-10.2-4.8-20.8-5.6-31.7-3.9c-2.7,0.4-4.3,2.1-5,4.7c-0.7,2.6,0.2,4.6,2.1,6.3c2.2,2,5,2.4,7.8,1.8c11-2.2,20.5,1.2,29.2,7.7
		c2.6,2,4.8,4.5,7.2,6.8c2.1,1.9,4.5,2.4,7.1,1.3C371.1,118.4,372.3,116.3,372.4,113.5z"/>
	<path style="fill:#050707;" d="M341.2,348.7c-0.2-4.6,1.7-8.7,2.5-13.1c1.4-8.2,2.2-16.5,4.4-24.5c3.1-10.9,8.2-20.9,13.9-30.7
		c1.7-2.9,5.2-4.4,8.1-6c6-3.2,10.4-7.8,13.3-13.8c6.2-12.8,12.2-25.6,15.6-39.5c0.7-3,0.8-6.1,0.5-9.2c-0.1-1.5-0.6-3.1-1.9-3.4
		c-3-0.8-2.3-2.7-2.2-4.8c0.7-14,0.2-27.9-1.5-41.8c-1.5-11.9-2.5-23.9-5.5-35.6c-5.2-20.6-14-39.6-28.4-55.5
		c-5.8-6.4-12.3-12.3-19.9-16.9c-3.3-2-6.7-2.8-10.5-3c-8.3-0.5-16.3,1-24.4,2.6c-13.2,2.6-26.4,5.2-39,10.5
		c-32.4,13.6-58.4,35-79,63.2c-0.5,0.7-1,1.4-1.6,2c-7.4,7.9-9.4,17.5-10.5,28c-1.9,18.4,1.8,36,5.1,53.8c0.1,0.3,0,0.6,0,0.9
		c-8-1.2-13.2,3.7-12,11.6c2,13.6,7,26.2,13.3,38.2c2.3,4.4,6.7,6.8,10.4,9.8c5.4,4.5,9.2,10,12.3,16.3c5.1,10.5,9,21.4,12.2,32.5
		c2.1,7.1,3.6,14.3,5.4,21.4c0.3,1,0.2,1.9-0.5,2.7c-3.7,0.9-6.8-0.4-9.9-2.3c-6.9-4.4-12.7-10-18.2-15.9
		c-8.6-9.2-16.9-18.6-24.8-28.4c-7.7-9.7-12-21.1-16.5-32.3c-4.3-10.7-7-21.9-9.8-33c-3.8-14.9-4-30.3-2.7-45.7
		c1.4-16.2,6-31.8,11-47.1c7.6-23.6,20.1-44.5,36.2-63.4c9.2-10.8,19.3-20.7,30.1-29.9c7.5-6.4,16-11.3,24.8-15.7
		c13.2-6.7,27.2-10.3,41.6-12.7c3.6-0.6,7.2-0.8,10.4-2.6c1.1-0.6,2.5-0.5,3.8,0c2.7,1,5.4,1.2,8.2,1c11-1,20.9,3,30.8,6.9
		c10.7,4.3,19.7,11.4,28.4,18.7c11.7,9.7,22.7,20.2,30.1,33.6c10.1,18.4,17.6,37.8,21.3,58.6c2,11.6,3.8,23.3,4.8,35
		c0.7,8.2,0.1,16.6-0.1,24.9c-0.7,20.3-5.9,39.9-8.6,59.9c-1.8,13.2-6.8,25.4-12.2,37.5c-7.2,16-17,30.3-29.3,42.8
		c-4.2,4.2-8.6,8.3-13.6,11.5c-1.4,0.9-2.7,2-3.9,3.2C348.7,353.5,345,353.4,341.2,348.7z"/>
	<path style="fill:#F79E7F;" d="M289.5,147.8c12.3-1.4,21.3,4.7,29.2,13c2.4,2.5,2.6,5.9,0.6,8.4c-2.1,2.6-5.6,3.1-8.6,1.1
		c-1.3-0.9-2.7-1.7-3.8-2.9c-6.2-7-14.2-7.1-22.6-6.7c-7.6,0.4-13.2,4.3-18.8,8.5c-1.1,0.8-2.2,1.7-3.4,2.4
		c-3.1,1.6-6.4,0.9-8.3-1.6c-1.9-2.6-1.8-6,0.9-8.4c8.9-7.9,18.6-14.3,31.3-13.8C287.2,147.8,288.3,147.8,289.5,147.8z"/>
	<path style="fill:#0B0B0B;" d="M208.6,118.6c-0.1-1.5,0.5-2.9,1.2-4.3c7-14.3,18.5-21.5,34.4-21.7c5.4-0.1,10.5,1,15.5,3.1
		c5,2,6.8,5,5.4,8.9c-1.4,3.8-4.9,5-9.9,3.2c-7-2.6-14-3.2-21.1-0.3c-6,2.5-10.2,6.8-12.7,12.8c-1.3,3-3.3,5-6.7,5
		C211.1,125.1,208.6,122.2,208.6,118.6z"/>
	<path style="fill:#0B0B0B;" d="M372.4,113.5c-0.1,2.8-1.3,4.9-3.8,5.9c-2.6,1.1-5,0.6-7.1-1.3c-2.4-2.2-4.6-4.8-7.2-6.8
		c-8.6-6.5-18.2-9.9-29.2-7.7c-2.8,0.6-5.6,0.2-7.8-1.8c-1.8-1.7-2.8-3.7-2.1-6.3c0.7-2.6,2.3-4.3,5-4.7c10.9-1.7,21.5-0.9,31.7,3.9
		c7.3,3.4,13.2,8.4,18.5,14.3C371.7,110.3,372.3,111.8,372.4,113.5z"/>
</g>
</svg>
