<svg id="fingers-palm-stretch" xmlns="http://www.w3.org/2000/svg" viewBox="0 0 224.86 400.57"><g id="arm-left"><g id="upperarm-right"><path id="upperarm-right-skin" d="M137.27,132.62l-72.5-9.16a12.39,12.39,0,0,1-10.56-13.82h0A12.06,12.06,0,0,1,67.6,98.86L140.1,108a12.4,12.4,0,0,1,10.57,13.82h0A12.06,12.06,0,0,1,137.27,132.62Z" transform="translate(-5 -25.43)" style="fill:#ffc0ab"/><path id="upperarm-right-clothes" d="M91.1,126.78l-27.81.69c-6.62-.84-15-9-14-18.44S60.87,94.2,67.49,95l40.28,8.89Z" transform="translate(-5 -25.43)" style="fill:#fff"/><polyline id="outline" points="102.76 78.5 86.1 101.35 58.28 102.04" style="fill:none;stroke:#ffe8e0;stroke-miterlimit:10"/></g><g id="forearm-right"><path id="forearm-right-skin" d="M189.22,74.86a6.3,6.3,0,0,1-1.13,5.58l-39.16,48.61a11.37,11.37,0,0,1-16.69.72h0a12,12,0,0,1-.23-17.09L179.4,71.61a6.12,6.12,0,0,1,9.82,3.25Z" transform="translate(-5 -25.43)" style="fill:#ffc0ab"/></g><g id="shadow-hand-left" style="opacity:0"><path d="M204.65,83.1l.42,9.53a4.37,4.37,0,0,0,4.43,4.21h0a4.18,4.18,0,0,0,4-4.43l-.42-9.53a4.38,4.38,0,0,0-4.43-4.21h0A4.18,4.18,0,0,0,204.65,83.1Z" transform="translate(-5 -25.43)" style="fill:#ffc0ab"/><path d="M203.86,104.3h0c1.32.83,2.87.68,3.48-.33l5.81-9.74c.79-1.32,0-3.28-1.68-4.36h0c-1.85-1.18-4-.84-4.68.71l-4.32,10.6A2.73,2.73,0,0,0,203.86,104.3Z" transform="translate(-5 -25.43)" style="fill:#ffc0ab"/><path d="M179.26,73.19h0c-.78,2.82,1.54,6,5.19,7.12l20.71,6.29c3.64,1.11,7.22-.29,8-3.11h0c.77-2.83.19-4.34-5.19-7.12l-13.32-6.88c-6-3.11-13.39-1.65-15.25,3.26C179.35,72.9,179.3,73.05,179.26,73.19Z" transform="translate(-5 -25.43)" style="fill:#ffc0ab"/><path d="M198.71,80.58l-3,5.67L199.79,94a2.27,2.27,0,0,1-.35,2.32h0a2.18,2.18,0,0,1-3.39-.1l-7.53-9.51-7.71-8.57Z" transform="translate(-5 -25.43)" style="fill:#ffc0ab"/></g></g><path id="chair" d="M150,306V295.89a12.15,12.15,0,0,0-12.14-12.14H41.41L13.88,135a1.84,1.84,0,0,0-1.81-1.51H6.85A1.84,1.84,0,0,0,5,135.6L23.71,283.75V306L14.87,424.5a1.4,1.4,0,0,0,1.39,1.5h6.13a1.39,1.39,0,0,0,1.38-1.19L39.71,317.46A13.43,13.43,0,0,1,53,306h67.75A13.43,13.43,0,0,1,134,317.46L150,424.81a1.41,1.41,0,0,0,1.39,1.19h6.13a1.4,1.4,0,0,0,1.39-1.5Z" transform="translate(-5 -25.43)" style="fill:#d3562c"/><g id="legs"><path d="M229.82,424.24c-.4-1.55-1.2-6.75-1.2-6.75S211,414.56,208.1,413.2l-29.58-13.73v-8.72L183,363.49l-25.15,0v27.2L152.27,418a6.71,6.71,0,0,0,6.58,8h7.36a24.28,24.28,0,0,0,6.51-.89l5.19-1.45a30.75,30.75,0,0,1,15-.37L205,426h23.49A1.41,1.41,0,0,0,229.82,424.24Z" transform="translate(-5 -25.43)" style="fill:#ff9b7a"/><path d="M57,219.68l3.19-12.81L106,215.45l-2.62,12.08,75.11,14.78c11.35,2.39,20.72,9.28,20.72,20.72a66.87,66.87,0,0,1-.55,7.23L183,363.49l-25.15,0V283.75H61.33C36.36,268.1,43.31,237.1,57,219.68Z" transform="translate(-5 -25.43)" style="fill:#231f20"/></g><g id="head"><rect id="neck" x="60.88" y="63.58" width="23.93" height="49.95" rx="8.92" transform="translate(125.81 162.05) rotate(-170.93)" style="fill:#ff9b7a"/><path d="M72.84,28.32c15.82-2.4,28.55,2.94,34.7,17.44a46.72,46.72,0,0,1,2.15,8.18,5.31,5.31,0,0,1-.84,3.85l-1.24,1.85L113,67.28a2,2,0,0,1-1.3,3.09l-3.62.71,1.85,3a1.28,1.28,0,0,1-.61,1.84l-2.55,1.11,1.7,1.51a1.28,1.28,0,0,1-.38,2.15l-1.94.8s2.14,7.72-6,7.71c-5.06,0-11.65-1.48-14.47-2.18-4.38-1.08-8-9.26-9.31-11.57C63.33,72.66,59,70.83,54.49,62,48,49.19,57,30.73,72.84,28.32Z" transform="translate(-5 -25.43)" style="fill:#ff9b7a"/><polyline points="98.42 33.46 95.26 36.36 96.92 38.87" style="fill:none;stroke:#231f20;stroke-linecap:round;stroke-linejoin:round;stroke-width:2px"/><path d="M108.11,54.2a9,9,0,0,0-8.88,0" transform="translate(-5 -25.43)" style="fill:none;stroke:#231f20;stroke-linecap:round;stroke-miterlimit:10;stroke-width:2px"/><path id="hair" d="M46.64,113.4A15.94,15.94,0,0,1,48,103h0a16.09,16.09,0,0,1,15.28-8.94h0c6.21-4.56,9.84-13.32,10.15-21l.83-7a7.31,7.31,0,0,1,9.35-6.26c.25.09.5.18.75.29l1.74.76a.85.85,0,0,0,.88-.12L90.29,58a8.22,8.22,0,0,0,2.94-6.06c.07-2.31.11-6.35.12-9.57a4.68,4.68,0,0,1,4.89-4.64l4.66.22C105.47,33.51,89.51,26.46,81,25.58a31.69,31.69,0,0,0-16.84,3.13C54.6,33.5,51.84,42.57,46.3,64.3c-.6,2.35-9.84,39.77-9.84,39.77a22.82,22.82,0,0,0,8.94,20.3l3.78,2.85-.11-2.13Z" transform="translate(-5 -25.43)" style="fill:#231f20"/></g><g id="torso"><path d="M106,215.45,60.2,206.87,63.39,194,46.64,113.4A16.07,16.07,0,0,1,73.71,98.73l0-.1s46.81,47,44.72,57.78c-2,10.19-2.82,15-2.82,15v.06l0,.15c-.07.47-.16.94-.27,1.4h0Z" transform="translate(-5 -25.43)" style="fill:#fff"/><path d="M85.21,110.65c13.72,14.69,34.6,38.49,33.19,45.76" transform="translate(-5 -25.43)" style="fill:none;stroke:#ffe8e0;stroke-miterlimit:10"/></g><g id="arm-right"><g id="upperarm-right-2" data-name="upperarm-right"><rect id="upperarm-right-skin-2" data-name="upperarm-right-skin" x="51.17" y="113.04" width="99.8" height="24.79" rx="12.39" transform="translate(141.94 254.42) rotate(-157.69)" style="fill:#ff9b7a"/><path id="upperarm-right-clothes-2" data-name="upperarm-right-clothes" d="M86.87,133l-27.75-6.88c-6.33-2.6-12.5-12.73-8.87-21.55S65.66,93.42,72,96l37.53,19.49Z" transform="translate(-5 -25.43)" style="fill:#fff"/><polyline id="outline-2" data-name="outline" points="104.52 90.08 81.87 107.58 54.12 100.7" style="fill:none;stroke:#ffe8e0;stroke-miterlimit:10"/></g><g id="forearm-right-2" data-name="forearm-right"><path id="forearm-right-skin-2" data-name="forearm-right-skin" d="M202.84,139.1a6.54,6.54,0,0,1-4.75,3.49l-59.41,10.34a12.1,12.1,0,0,1-14-10.44h0a12.11,12.11,0,0,1,11.55-13.11l60.9.79a6.23,6.23,0,0,1,5.72,8.93Z" transform="translate(-5 -25.43)" style="fill:#ff9b7a"/><g id="hand-right"><path d="M200.16,142.75h0c2.94.29,5.64-2.6,6-6.45l2.16-21.89c.37-3.85-1.71-7.21-4.65-7.5h0c-2.95-.29-3,1.62-4.67,7.51l-5.55,13.51c-1.89,6.59,1,13.74,6.22,14.75Z" transform="translate(-5 -25.43)" style="fill:#ff9b7a"/><g id="fingers-right"><rect x="192.73" y="102.37" width="19.52" height="7.79" rx="3.89" transform="translate(247.14 -142.39) rotate(74.85)" style="fill:#ff9b7a"/><path id="tips-right" d="M205.17,83.51h0a2.7,2.7,0,0,0-3.41,1.73l-4.5,13.66a3.53,3.53,0,0,0,2.23,4.46h0A3.52,3.52,0,0,0,204,100.7L207,86.62A2.71,2.71,0,0,0,205.17,83.51Z" transform="translate(-5 -25.43)" style="fill:#ff9b7a"/></g></g></g></g><g id="shadow-arm-left"><g id="shadow-upperarm-right" style="opacity:0"><path id="upperarm-right-skin-3" data-name="upperarm-right-skin" d="M137.27,132.62l-72.5-9.16a12.39,12.39,0,0,1-10.56-13.82h0A12.06,12.06,0,0,1,67.6,98.86L140.1,108a12.4,12.4,0,0,1,10.57,13.82h0A12.06,12.06,0,0,1,137.27,132.62Z" transform="translate(-5 -25.43)" style="fill:#ffc0ab"/><path id="upperarm-right-clothes-3" data-name="upperarm-right-clothes" d="M91.1,126.78l-27.81.69c-6.62-.84-15-9-14-18.44S60.87,94.2,67.49,95l40.28,8.89Z" transform="translate(-5 -25.43)" style="fill:#fff"/><polyline id="outline-3" data-name="outline" points="102.76 78.5 86.1 101.35 58.28 102.04" style="fill:none;stroke:#ffe8e0;stroke-miterlimit:10"/></g><g id="shadow-forearm-right" style="opacity:0"><path id="forearm-right-skin-3" data-name="forearm-right-skin" d="M189.22,74.86a6.3,6.3,0,0,1-1.13,5.58l-39.16,48.61a11.37,11.37,0,0,1-16.69.72h0a12,12,0,0,1-.23-17.09L179.4,71.61a6.12,6.12,0,0,1,9.82,3.25Z" transform="translate(-5 -25.43)" style="fill:#ffc0ab"/></g><g id="hand-left"><path d="M204.65,83.1l.42,9.53a4.37,4.37,0,0,0,4.43,4.21h0a4.18,4.18,0,0,0,4-4.43l-.42-9.53a4.38,4.38,0,0,0-4.43-4.21h0A4.18,4.18,0,0,0,204.65,83.1Z" transform="translate(-5 -25.43)" style="fill:#ffc0ab"/><path d="M203.86,104.3h0c1.32.83,2.87.68,3.48-.33l5.81-9.74c.79-1.32,0-3.28-1.68-4.36h0c-1.85-1.18-4-.84-4.68.71l-4.32,10.6A2.73,2.73,0,0,0,203.86,104.3Z" transform="translate(-5 -25.43)" style="fill:#ffc0ab"/><path d="M179.26,73.19h0c-.78,2.82,1.54,6,5.19,7.12l20.71,6.29c3.64,1.11,7.22-.29,8-3.11h0c.77-2.83.19-4.34-5.19-7.12l-13.32-6.88c-6-3.11-13.39-1.65-15.25,3.26C179.35,72.9,179.3,73.05,179.26,73.19Z" transform="translate(-5 -25.43)" style="fill:#ffc0ab"/><path d="M198.71,80.58l-3,5.67L199.79,94a2.27,2.27,0,0,1-.35,2.32h0a2.18,2.18,0,0,1-3.39-.1l-7.53-9.51-7.71-8.57Z" transform="translate(-5 -25.43)" style="fill:#ffc0ab"/></g></g></svg>