<?xml version="1.0" encoding="utf-8"?>
<!-- Generator: Adobe Illustrator 25.0.1, SVG Export Plug-In . SVG Version: 6.00 Build 0)  -->
<svg version="1.1" id="eye-relaxation" xmlns="http://www.w3.org/2000/svg" xmlns:xlink="http://www.w3.org/1999/xlink" x="0px"
	 y="0px" viewBox="0 0 714 834.4" style="enable-background:new 0 0 714 834.4;" xml:space="preserve">
<g id="neck">
	<path style="fill:#F69A7C;" d="M102.5,403.7c0.6-7.2,3.1-15.9,9.6-23.1c10.5-11.6,18.2-24.8,23.6-39.4c0.7-1.9,1.2-4,1.5-6
		c0.9-5.9,3.6-11.1,5.4-16.7c1.2-3.6,3.2-6.7,6.1-9.1c4.4-3.7,8.6-7.5,13.2-10.9c4.4-3.2,9.8-3.9,15-5c2.6-0.6,5.2-0.7,7.8-1.1
		c5-1,9.9,0.3,14.8,0.4c5.8,0.2,11.5,1.2,17.1,2.3c3.4,0.7,6.3,2.1,8.6,4.7c6.7,7.2,14.2,13.5,21.7,19.9c5.3,4.6,8.2,10.7,10.9,17
		c1.5,3.5,2.8,7.1,4.6,10.4c3.2,6.2,5.1,12.9,6.5,19.5c1.2,5.7,1.6,11.6-0.8,17.5c-1.8,4.3-2.2,9.2-2.7,14c-0.4,3.5-1.5,7-2.6,10.5
		c-3.8,12.7-10.2,24.4-16.9,35.5c-5.2,8.6-11.6,17-21,22c-5.7,3.1-10.9,7.2-17.4,8.7c-2.1,0.5-4.3,0.7-6.5,0.8
		c-5.4,0.2-10.9,0.2-16.3,0.4c-6.9,0.3-13.9-0.7-20.7-1.7c-2.7-0.4-5.4-0.8-8.1-1.1c-8-0.9-14-5.8-19.9-10.5
		c-10.6-8.5-20.7-17.5-26.7-30.1C105.3,424.1,102.5,415.4,102.5,403.7z"/>
</g>
<g id="body">
	<path style="fill:#FFFFFF;" d="M0.3,698c-0.7-17.3-0.2-34.5,0.6-51.8c0.5-9.2,0.7-18.3,1.2-27.5c1.6-29.2,6.5-57.8,15.6-85.6
		c5.3-16.1,12.7-31.2,19.9-46.4c5.8-12.4,11.6-24.7,18.3-36.7c8.8-15.9,20.2-29.9,32.1-43.5c5.2-5.9,9.7-12.2,15.1-17.9
		c1.2-1.2,1.6-1.7,2.8,0.2c5,8.2,12.2,14.3,18.8,21.1c16.4,16.7,36.6,26.8,58.3,34.3c12.3,4.3,25,7.4,37.5,10.9
		c3.2,0.9,6.5,0.3,9.7,0.3c3.9,0,7.9,0.8,11.5-1.8c1.9-1.3,3.2,0.5,4,2.1c2,4.1,3.9,8.2,5.3,12.5c2.9,9.1,8.3,17.3,10.2,26.6
		c3.4,16.2,10.7,30.9,17.1,46c8.8,20.8,15.9,42.2,23.2,63.5c7.9,23.2,12.4,47.3,16.4,71.5c2.4,14.5,4.9,29,6.8,43.5
		c2.1,16.6,4.6,33.2,6.3,49.9c1,9.3,2,18.6,3.1,27.8c0.6,5-0.4,10-3.7,13.3c-3,3-7.2,5.2-12,5.6c-8.2,0.7-16.3,1.2-24.5,1
		c-9.6-0.2-19.2-1.3-28.7-2c-1.3-0.1-2.5-0.1-3.8-0.1c-22.7,0-45.5-0.5-68.2,0.1c-22.3,0.7-44.5,0.2-66.8,0.6
		c-16,0.3-31.9-0.7-47.9-1.2c-6.8-0.2-13.6,0-20.4-0.6c-11.6-0.9-23.2-1.5-34.7-2.1c-4.1-0.2-8.2-0.2-12.3-0.1
		c-1.7,0-2.3-0.3-2.5-2.2c-1.3-18.6-3.8-37-5.8-55.5c-1.2-10.9-1.5-21.9-1.8-32.9c-0.2-7.6,0-15.3,0-22.9C0.8,698,0.6,698,0.3,698z"
		/>
</g>
<g id="head">
	<path style="fill:#060606;" d="M139.6,327.5c-1.9-0.6-2.9-2.4-4.6-3.3c-5.5-2.9-10.7-6.2-15.7-10c-5.8-4.5-13.2-6.5-19.7-9.9
		c-5.2-2.7-10.6-5.1-15.9-7.8c-5.6-2.8-10.3-6.8-14.1-11.8c-6.8-9.1-15.1-16.7-24-23.6c-4.6-3.6-9.3-7.3-12.4-12.5
		c-1.6-2.7-2.7-5.5-3-8.7c-0.5-6.5-0.9-13-1.5-19.5c-0.5-6.4-2.9-12.1-6.7-17.3c-6.8-9.5-8.1-19.6-2.8-30.2
		c1.8-3.6,3.3-7.2,6.2-10.2c2.8-2.9,3.2-6.7,2.4-10.5c-0.9-4.5-0.9-9-1.1-13.6c-0.3-6,2.4-11.4,5.9-16.1c3.7-4.9,8.1-9.3,13.8-11.7
		c6.6-2.7,9.8-7.9,11.6-14.2C61.3,85,68.6,76.5,78.4,70c2.3-1.6,4.9-2.3,7.6-2.8c8.8-1.7,15.9-6,20.7-13.7
		c7.6-12.2,18.5-19.2,32.8-21.4c7.4-1.2,14.3-0.2,21,2.4c2.6,1,4.8,0.7,6.9-1c3-2.5,5.7-5.4,8.9-7.6c9.6-6.5,19.5-7.2,29.8-2
		c3.3,1.7,6.5,3.6,10,5c2.9,1.1,5,3.5,7.8,5c1.4,0.7,2.5,0.8,3.7,0c2.5-1.7,4.9-3.4,7.5-5c9-5.8,16.8-5.7,25.5,0.8
		c4.1,3,8.4,5.7,13,7.9c2.8,1.3,5.6,2,8.7,2c5.9,0,11.8,0.1,17.6,1.2c10.6,2,15.8,7.4,16.8,18.1c0.5,5.3,2,9.2,7.6,10.6
		c1.2,0.3,2.2,1.2,3.4,1.7c8.5,3.6,11.4,11.2,13.5,19.3c0.6,2.2,0.1,4.4-0.8,6.4c-2.5,6-5.7,11.6-11.3,15.3
		c-1.8,1.2-3.3,2.7-4.6,4.6c-3,4.2-7.3,6.7-11.6,9.3c-2.4,1-4.7,2.1-7.1,2.8c-9.9,3.1-19.1,2.2-26.7-5.4c-1.9-1.9-3.3-2-5.3-0.4
		c-3.7,2.8-7.8,4.6-12.5,4.7c-2.3,0.1-4.5-0.6-6.7-0.8c-6.9-0.5-13.1-2.8-18.6-7c-0.9-0.7-1.5-0.8-2.6-0.1
		c-10.4,7.4-21.3,8.6-32.8,2.8c-1.7-0.8-3.4-1.5-5.4-1.6c1.6,6,4.5,10.8,9.9,13.8c1.5,0.8,2.9,1.9,4.2,3c8.6,7.1,12,16.1,10.1,27.1
		c-1.2,7-4.4,13.6-4.8,20.9c-0.1,2.5-0.2,4.8,0.3,7.2c1.3,5.6,2.5,11.2,1,16.9c-1.9,7-5.2,13.3-9.8,19c-1.3,1.6-2.4,3.4-3.2,5.4
		c-0.7,1.6-0.6,2.8,0.5,4.3c4.2,5.9,4,14.7-0.2,20.5c-4.6,6.4-17.4,11-25,9c-1.7-0.4-2.9-0.5-4.2,0.8c-1,1.1-2.1,0.9-3-0.3
		c-2.6-3.4-5.9-6.2-8.5-9.5c-8.2-10.8-19.4-15.3-32.4-15.8c-6.1-0.3-12,1.1-16.9,5c-10.2,8-13,17.9-9.1,30.3
		c2.3,7.3,6,13.3,12.2,17.8c2.4,1.7,4.7,3.8,6.9,5.7c4.8,4.1,8.6,8.9,10.8,14.8C136.1,320.3,137.7,324,139.6,327.5z"/>
	<path style="fill:#F69A7C;" d="M139.6,327.5c-2-3.5-3.5-7.2-4.9-10.9c-2.2-5.9-6-10.7-10.8-14.8c-2.3-2-4.5-4-6.9-5.7
		c-6.2-4.5-9.9-10.6-12.2-17.8c-3.9-12.4-1.2-22.3,9.1-30.3c5-3.9,10.8-5.3,16.9-5c13,0.6,24.2,5.1,32.4,15.8
		c2.6,3.3,5.9,6.1,8.5,9.5c0.9,1.2,1.9,1.3,3,0.3c1.2-1.3,2.5-1.2,4.2-0.8c7.6,2,20.4-2.6,25-9c4.2-5.8,4.4-14.6,0.2-20.5
		c-1-1.5-1.2-2.7-0.5-4.3c0.8-1.9,1.9-3.7,3.2-5.4c4.5-5.7,7.9-12,9.8-19c1.6-5.8,0.3-11.4-1-16.9c-0.6-2.4-0.5-4.8-0.3-7.2
		c0.3-7.3,3.5-13.8,4.8-20.9c1.9-11-1.5-20-10.1-27.1c-1.3-1.1-2.7-2.2-4.2-3c-5.5-3-8.3-7.8-9.9-13.8c2,0,3.7,0.7,5.4,1.6
		c11.5,5.8,22.4,4.6,32.8-2.8c1-0.7,1.6-0.7,2.6,0.1c5.5,4.2,11.7,6.5,18.6,7c2.2,0.2,4.4,0.9,6.7,0.8c4.7-0.2,8.9-1.9,12.5-4.7
		c2-1.6,3.4-1.5,5.3,0.4c7.6,7.6,16.8,8.5,26.7,5.4c2.4-0.8,4.7-1.9,7.1-2.8c5,6.5,9,13.6,12.9,20.8c2.9,5.3,1.6,10.8,1.2,16.2
		c-0.1,1.1-0.4,2.2-0.7,3.2c-2.1,5.6,0.2,10.4,2.5,15.3c5.6,12,16.4,18.7,26.2,26.4c6.2,4.8,12.4,9.5,18.1,14.9c2.1,2,3.8,4.2,4.5,7
		c2,7.3-3.1,14.4-10.6,15.3c-4.6,0.6-7.9,3.3-10.8,6.8c-0.6,0.7-0.9,1.6-0.6,2.5c1.4,4.4,2.6,8.8,6.8,11.7c4.5,3.1,5.2,9.3,1.9,13.6
		c-0.5,0.6-1,1-1.7,1.3c-5.9,2.1-10.2,6.5-15.4,9.7c-0.1,0.1-0.1,0.3-0.2,0.5c1.9,0.6,5.8-0.4,9-2.1c3.8-2.1,3.8-2.1,6.9,1.3
		c2.3,2.6,4.1,5.4,4.9,9c0.7,3.5,0,6.1-2.9,8.4c-4.7,3.6-8.4,8-9.4,14.2c-0.3,1.9-0.1,3.5,0.7,5.3c2.7,6.2,4.9,12.5,5.7,19.2
		c0.8,6.8-2.6,12-7.6,16c-7.2,5.7-15.4,8.8-24.4,10.8c-12.7,2.8-25.5,4.8-38.3,6.9c-9.4,1.5-18.8,3.2-28.4,3
		c-8.4-0.2-16.2-2.9-24.1-5.5c-15.5-5.2-30.3-11.9-43.3-22c-9.6-7.5-18-16.1-22.5-27.8c-0.5-1.4-0.9-2.9-1.3-4.4
		c-0.5-1.8-1.6-3.1-3.6-3.3c-1.8-0.2-3.1,0.8-4.1,2.2c-0.8,1.2-1.5,2.5-2.2,3.8c-1.5,2.8-4,4.4-7,5.3c-1,0.3-2,0.4-2.9,0.8
		c-2.8,1.4-5.2,0.9-7.5-1c-1.1-0.9-2.3-1.8-3.9-1.5C140.4,329.3,140.4,327.9,139.6,327.5z M326.7,154.4c0.1-3.1-2.1-5.3-4.9-5.6
		c-2.5-0.2-4.6,0.9-6.5,2.4c-4.3,3.5-8,7.6-12,11.5c-2.8,2.7-4.9,5.8-6.2,9.5c-0.2,0.7-0.8,1.5-0.1,2c0.7,0.5,1.3-0.4,1.8-0.9
		c4.5-3.9,9.1-7.4,14.6-9.9c3-1.3,5.8-2.9,8.9-4.1C324.7,158.4,326.5,156.8,326.7,154.4z M305.8,205.6c5.9-0.2,11.4-1.4,16.5-3.8
		c2.6-1.2,3.7-3.7,3-6c-0.7-2.5-3.2-4-6-3.7c-1.4,0.2-2.6,0.6-3.9,1.3c-2.7,1.5-5.6,2.6-8.6,3.4c-2.9,0.7-5.8,1.5-8.7,2.2
		c-1.4,0.4-3,0.9-3,2.7c0,1.6,1.6,2.1,2.8,2.6C300.6,205.4,303.3,205.6,305.8,205.6z"/>
	<path style="fill:#201916;" d="M326.7,154.4c-0.2,2.4-2,4-4.4,4.9c-3.1,1.2-5.9,2.8-8.9,4.1c-5.5,2.5-10.1,6-14.6,9.9
		c-0.5,0.5-1.1,1.3-1.8,0.9c-0.7-0.5-0.2-1.3,0.1-2c1.3-3.7,3.4-6.9,6.2-9.5c4-3.8,7.7-8,12-11.5c1.9-1.5,3.9-2.6,6.5-2.4
		C324.6,149.1,326.8,151.3,326.7,154.4z"/>
	<path style="fill:#1D1715;" d="M305.8,205.6c-2.5,0-5.3-0.2-7.8-1.3c-1.2-0.5-2.8-1-2.8-2.6c0-1.7,1.6-2.3,3-2.7
		c2.9-0.8,5.8-1.5,8.7-2.2c3-0.8,5.9-1.9,8.6-3.4c1.2-0.7,2.5-1.1,3.9-1.3c2.8-0.3,5.3,1.2,6,3.7c0.7,2.3-0.5,4.8-3,6
		C317.2,204.3,311.7,205.5,305.8,205.6z"/>
</g>
<g id="rub">
	<path style="fill:#F39A7C;" d="M564.6,280c0.5,3.3,1,6.6,1.5,9.9c0.1,0.7-0.2,1.4-0.5,2.1c-2.9,7.7-5.3,15.6-7.6,23.6
		c-3.6,12.5-4,25.2-1.1,38c2.3,10.2,4.3,20.4,6.6,30.6c1.6,7,0.9,13.5-3,19.6c-9.2,14.7-18.8,29.2-30.1,42.4
		c-16,18.6-31.2,37.9-47,56.6c-9.8,11.6-19.9,22.9-30.2,34.1c-9.7,10.5-18.3,21.8-26.8,33.3c-2.3,3.2-3.7,3.3-6.9,0.8
		c-1.7-1.4-3.3-2.8-5.3-3.8c-2-0.9-2-2.2-0.8-3.9c2.8-3.6,5.9-6.9,9.2-10.1c13.1-12.9,25.1-26.8,37.5-40.3
		c7.2-7.8,14.6-15.4,21.6-23.4c11.8-13.6,24.2-26.6,35.3-40.7c4.8-6.1,8.7-13,13.8-18.9c2.3-2.7,4.1-5.8,7.2-7.7
		c0.3-0.2,0.5-0.6,0.6-0.9c3.5-6.3,7.4-12.3,10-19c2.7-7.2,3.1-14.8,2.9-22.5c-0.2-8.5-4.2-15.7-6.8-23.3c-2.3-6.9-4.2-13.9-5.3-21
		c1.4-0.5,2.8-0.4,4.3-0.3c1.8,0.1,3.2-0.6,4-2.2c0.8-1.5,0.7-3-0.3-4.3c-1.1-1.5-2.6-1.9-4.3-1.4c-1.5,0.4-3,0.6-4.5,0.4
		c-0.4-2.6-0.6-5.3-0.6-8c0.8-2,2.2-3.7,3.5-5.5C549.4,302.8,557,291.4,564.6,280z"/>
	<path style="fill:#FFFFFF;" d="M550.5,257.8c5.4-7.6,10.8-15.2,16.2-22.9c15.9-22.8,31.8-45.6,47.7-68.4c0.5-0.8,1.3-1.5,1.4-2.8
		c-6.2,0.8-12.2,1.5-18.2,2.3c-2.4,0.3-4.8,0.6-7.1-0.7c-0.5-0.2-1.1-0.2-1.2-0.8c-0.1-0.6,0.4-0.9,0.8-1.3c2.5-2.2,5.6-2.8,8.8-3.3
		c5.2-0.8,10.4-1.5,15.5-2.8c3.4-0.9,6.9-0.5,10.3-0.6c2.1-0.1,3.5,1.4,2.9,3.3c-0.8,2.7,0.1,5,0.7,7.4c1.2,4.6,2.5,9.1,3.8,13.6
		c0.6,2.1,0.1,3.9-2,4.7c-2.2,0.9-3.7-0.2-4.7-2.1c-2.1-4-2.6-8.5-3.4-12.8c-0.1-0.8-0.3-1.6-0.4-2.4c-0.3-1.1-0.8-1.1-1.4-0.3
		c-0.7,0.9-1.3,1.8-1.9,2.7c-20.6,29-41.2,58-61.9,87.1c-0.6,0.8-1,1.7-1.5,2.5c-4.5,5.6-8.6,11.5-12.5,17.4c-3,4-6,7.9-9,11.9
		c-0.5,0.7-1.1,1.5-1.7,2.1c-0.7,0.8-1.4,1.6-2.5,0.9c-1.2-0.8-0.7-1.9-0.1-2.9c3.2-4.8,6.4-9.6,9.7-14.5c0.6-1,1.3-2,1.9-3
		C544,267.6,547.4,262.8,550.5,257.8z"/>
	<path style="fill:#FFFFFF;" d="M564.6,280c-7.6,11.4-15.3,22.8-22.9,34.2c-1.2,1.8-2.6,3.5-3.5,5.5c-2.4,2.4-3.8,5.6-6.1,8.6
		c2.6-0.1,4.7,0.2,6.7-0.6c1.5,0.2,3,0,4.5-0.4c1.7-0.4,3.2,0,4.3,1.4c1,1.3,1.1,2.8,0.3,4.3c-0.9,1.5-2.3,2.3-4,2.2
		c-1.4-0.1-2.9-0.2-4.3,0.3c-3.5-0.2-6.9,0.6-10.3,0.9c-4.8,0.4-5.6-0.2-6.8-4.8c-1.4-5.4-3.4-10.6-4.2-16.1
		c-0.1-0.5-0.2-1.1-0.2-1.6c-0.1-0.9,0.1-1.7,0.9-2.1c1.1-0.5,1.7,0.3,2.2,1c2,3,3.2,6.3,4.4,9.6c0.6,1.7,1.2,1.8,2.2,0.3
		c4.5-6.7,9.4-13.2,13.5-20.1c5.4-7.1,10.2-14.6,15.2-21.9c1.9-2.8,4.3-5.4,5.6-8.6c2.5-2.3,4-5.4,5.9-8.1
		c13.9-20,27.5-40.4,41.9-60.1c0.8-1,1.5-2.1,2.4-3c0.8-0.9,1.8-2.3,3.2-1.3c1.2,0.9,0.4,2.2-0.1,3.2c-0.7,1.5-1.6,2.9-2.5,4.2
		c-10,15.9-20.6,31.4-31.1,47C576.4,262.8,570.5,271.4,564.6,280z"/>
	<path style="fill:#F39A7C;" d="M604.2,279.5c-2.5,0-5.1-0.1-7.4-1.2c-1.2-0.5-1.6-1.3-0.6-2.2c7.3-6.3,11.1-15.1,16.5-22.8
		c8.3-12,16.7-24,24.2-36.5c1.7-2.8,4.1-5.1,6.6-7.2c2.6-2.1,5.7-2.1,7.9-0.1c0.8,0.7,1.1,1.4,0.4,2.3c-12.1,16.4-19.6,35.6-31.6,52
		c-2.9,4-5.7,7.9-8.7,11.8C608.8,279.5,608.8,279.4,604.2,279.5z"/>
	<path style="fill:#03100B;" d="M534,182.9c4.8,0.5,9,2.2,11.4,6.8c0.8,1.6,1.6,1.7,3.2,1.1c4.7-1.9,9.1-0.6,12.1,3.4
		c2.6,3.5,2.5,7.9-0.6,11.8c-3.5,4.4-7.1,8.7-10.7,13c-1.7,2.1-3.8,2.4-6,0.9c-7.6-5.2-14.8-10.8-22-16.4c-2.1-1.7-2.8-4.2-1.9-6.6
		c2-5.4,5.4-9.8,10.4-12.9C531.1,183,532.5,182.8,534,182.9z M556.2,198.6c0-2.2-1.6-3.9-3.9-4c-2.4-0.2-6.2,2.4-7,5.1
		c-0.8,2.5-2.3,4.5-4.1,6.2c-2.7,2.5-2.6,2.5,0.5,4.8c2.3,1.7,3.9,1.6,5.6-0.7c2.5-3.1,5.2-6,7.8-9
		C555.7,200.4,556.2,199.6,556.2,198.6z M534.4,189.1c-2.7,0.2-4.2,2.4-5.9,4.3c-4,4.5-4,4.5,0.7,8c0.1,0.1,0.1,0.1,0.2,0.2
		c4,3,4,3,7.2-0.6c0.5-0.5,1.1-1,1.4-1.6c1.2-2.2,2.5-4.6,1.5-7.1C538.8,190.2,536.7,189.4,534.4,189.1z"/>
	<path style="fill:#03100B;" d="M507.9,249.2c-0.7,2.6,0.3,2.9,2.5,2.7c3.2-0.3,6.5-0.4,9.8,0c1.5,0.2,2.6,0.9,2.8,2.5
		s-0.5,2.6-1.9,3.2c-1.6,0.7-3.2,0.5-4.8,0.4c-2.4-0.1-4.9-0.2-7.3-0.2c-2.3,0.1-4.1,0.7-5.8,2.8c-1.7,2.2-1.1,3,0.8,4.1
		c2,1.2,4.1,2.5,5.9,4c1.1,0.9,2.5,2.3,1.2,4c-1.3,1.6-3.1,1.5-4.7,0.4c-7.2-5.2-14.6-10.1-21.4-15.9c-0.8-0.7-1.8-0.8-2.7-1.2
		c-1.6-0.6-2.5-1.5-1.9-3.3c1.8-5.7,4.9-10.5,10.3-13.5c3.9-2.2,7.9-1.8,11.4,0.3C505.6,241.6,507.7,245,507.9,249.2z M501.4,248.7
		c-0.3-1.9-0.9-3.5-2.6-4.4c-1.7-0.9-3.5-0.9-5.1,0.3c-1.6,1.3-3.1,2.7-4.3,4.5c-2.2,3.2-2.2,3.2,0.8,5.7c0.9,0.8,1.8,1.5,2.8,2.1
		c3,2.2,3,2.2,4.9-0.9C499.4,253.7,500.9,251.4,501.4,248.7z"/>
	<path style="fill:#F39A7C;" d="M393.4,704.4c-5.8-0.5-10.9-1-15.9-1.3c-4.6-0.3-9.1-0.7-13.4-2.3c-7.8-2.9-16.2-4.1-23.6-8.1
		c-4.8-2.6-10-4.5-15.1-6.4c-1.1-0.4-1.5-1.2-2-1.9c-2.4-2.8-1.9-6.4-2.1-9.8c-0.1-1.5,0.9-1.9,2.3-1.1c1.8,1,3.8,1.7,5.6,2.8
		c10.7,6.2,22,10.9,33.4,15.7C372.6,696.1,382.4,700.7,393.4,704.4z"/>
	<path style="fill:#03100B;" d="M536.9,230.9c-0.5,3.9-2.4,6.9-5.4,9.4c-4.3,3.5-8.8,4.7-14.1,2c-6.5-3.2-11.4-8.3-16.5-13.2
		c-1-1-1.2-2.3-0.1-3.4c1.1-1.1,2.4-1.2,3.7-0.3c3.6,2.7,7.2,5.3,10.6,8.1c2,1.7,4.3,2.7,6.7,3.6c2.2,0.8,5.6-1,7.7-3.5
		c1.8-2.2,1-4-0.2-6.1c-3.3-5.7-9.1-8.2-14.1-11.6c-3.4-2.4-4.4-3.9-3.1-6.2c1.3-2.1,3.8-2.2,6.9,0.1c6,4.5,12.7,8.2,16.2,15.4
		C536,227,536.7,228.9,536.9,230.9z"/>
	<path style="fill:#F39A7C;" d="M562.5,272.1c-1.3,3.2-3.7,5.8-5.6,8.6c-5,7.3-9.8,14.8-15.2,21.9c1.3-4.8,2.7-9.6,3-14.7
		c0.2-3.8-0.7-7.1-2.4-10.3c3.9-6,8-11.8,12.5-17.4C558.6,263.4,561.3,267.2,562.5,272.1z"/>
	<path style="fill:#F39A7C;" d="M550.5,257.8c-3,5.1-6.5,9.8-10,14.5c-1.7-3.4-1.6-7-0.9-10.5c0.7-3.9,3.7-5.7,7.9-4.9
		C548.5,257,549.5,257.4,550.5,257.8z"/>
</g>
<g id="armhand">
	<path style="fill:#F69A7C;" d="M369.1,544.1c5.3,2,9.5,5.7,13.8,9.1c12.4,9.9,26.3,17.5,40.1,25c0.9,0.5,1.6,0.6,2.3-0.3
		c10-12.8,22.7-23,33.5-35.1c19.8-22.2,38.5-45.3,55.6-69.6c9.4-13.3,20.4-25.3,29.6-38.7c6.6-9.7,13.7-19,20.8-28.3
		c2.5-3.3,4.8-6.9,6.8-10.5c2.2-3.9,1.6-8.6,0.8-13c-1.2-7.1-4.3-13.7-6.9-20.3c-4.9-12.2-4.7-24.6-3.1-37.3
		c0.7-5.9,2.6-11.3,4.3-16.9c2.7-9,4.1-18.2,3.8-27.7c-0.1-1.9,0.1-3.8,0.9-5.6c3.4-7.2,3.4-14.9,3.1-22.7c-0.1-2.8-0.5-5.6-0.7-8.4
		c-0.2-3.4,1-6.1,4.4-7.3c3.3-1.2,6.7-1.4,9.1,1.4c4.4,5.1,8.4,10.5,8.1,17.8c-0.2,5.1-0.1,10.1-1.4,15.1c-1.2,4.6,0.6,9.1,3.3,13.1
		c0.4,0.6,1,1.1,1.8,1.2c3,0.2,6,0.3,8.9,0.4c1,0,1.5-0.8,2.2-1.4c11.2-11.5,19.4-25.1,27.8-38.6c7.8-12.5,15.4-25.2,23.2-37.7
		c2.3-3.8,5.1-7.2,8.9-9.6c3-1.9,8.9-1.2,11.3,1.5c0.7,0.7,1.3,1.4,2.2,2c1,0.7,1.7,0.4,2.3-0.5c1.8-2.7,5.7-3.8,9.4-2.8
		c2.7,0.8,4.2,2.8,4.4,6.4c0.2,2.8-0.2,5.7,0.5,8.4c0.4,1.6,0.7,3.2,3.2,3.2c2.4,0,4.6,3.3,5,6.7c0.4,3.2-0.2,6.3-1.4,9.3
		c-0.8,1.9-1.1,3.8-1.1,5.8c-0.1,2.1-0.1,3.7,2.9,3.7c2.8,0.1,4.9,4.4,5,8.1c0.1,5.1-2,9.6-3.5,14.2c-1.7,4.8-3.4,9.6-5.2,14.3
		c-2.4,5.9-3.8,12.1-5.7,18.1c-2.6,8.7-7.5,16.5-10.8,25c-4.1,10.4-8.5,20.6-13.6,30.6c-6,11.8-13.4,22.7-24.1,31.2
		c-7.1,5.7-14,11.9-18.9,19.8c-1.6,2.6-2.7,5.5-4.1,8.2c-13.5,25.1-27.8,49.7-40.3,75.3c-9.7,19.8-21.7,38.2-31.8,57.7
		s-20.4,38.8-30.8,58.1c-7,13-15.7,24.9-23.5,37.3c-8.2,13-16.1,26-23,39.8c-3.9,7.8-8.3,15.1-15.9,19.9c-11.2,7.1-23.2,8.9-36,6.4
		c-7.7-1.5-15.5-2.9-23.3-4.1c-9.6-1.5-18.4-5.9-27.2-10c-11.3-5.3-22.6-10.6-34.4-14.7c-7.5-2.6-14.3-6.7-21.2-10.4
		c-8.8-4.7-17.8-9-27.4-11.7c2.3-2.7,4.7-5.3,6.9-8.1c12.7-15.4,24.3-31.5,35.7-47.8c7.5-10.7,15.3-21.2,21.5-32.8
		C361.5,559.2,364.6,551.3,369.1,544.1z"/>
	<path style="fill:#FEFFFF;" d="M369.1,544.1c-4.5,7.1-7.6,15.1-11.6,22.5c-6.3,11.5-14.1,22.1-21.5,32.8
		c-11.4,16.3-23.1,32.4-35.7,47.8c-2.2,2.7-4.6,5.4-6.9,8.1c-5.5,5.8-11.1,11.5-16,17.8c-3.9,5.1-9,8.2-15.4,7.6
		c-7.1-0.7-14.1-2.3-20.6-5.3c-5.3-2.4-10.7-4.4-16.1-6.6c-10.9-4.4-21.9-4.2-33.1-1.6c-8.2,1.9-15.8,5.3-22.8,9.9
		c-3.3,2.2-6.8,4.2-10.1,6.5c-9.4,6.6-19.8,7.3-30.7,6.2c-12.9-1.3-21.2-9.3-28.4-18.8c-9.5-12.6-14.9-27.1-17.5-42.4
		c-4.3-25.8-4.9-52-0.6-77.9c2-12.2,3.1-24.5,6.4-36.5c4.2-15.2,8.9-30.3,14.6-45c3.8-9.9,8.2-19.8,15.5-27.6
		c4.9-5.2,10.4-9.9,18.2-11.1c4.4-0.7,8.6-2.6,13.1-3.1c11.5-1.2,22.6,0.6,33.7,3.3c31.1,7.3,59,21.6,84.8,39.9
		c8.6,6.1,17.3,12,26.1,17.7c19.3,12.6,38.6,25.2,56.8,39.5c2,1.6,4.2,2.9,6.5,4c3,1.4,5.8,3,8.3,5.1
		C368.3,538.9,369.6,541.1,369.1,544.1z"/>
</g>
<g id="nice">
	<path style="fill:#F69A7C;" d="M296.2,107.3c3.6-5.9,7.8-6.5,12.9-2c1.9,1.7,3.7,3.5,6.1,4.6c1.2,0.5,2.3,0.8,3.4-0.5
		c1-1.2,2.5-1.3,4-1.1c4.5,0.5,8.6,4.2,9.7,8.7c0.7,2.9,2.1,5.6,3.8,8.1c8.9,13.7,19.1,26.3,29.4,38.9c6.6,8.2,12.8,16.8,17.6,26.4
		c7.3,14.6,13.7,29.4,18.8,44.9c4.4,13.3,6.5,26.7,6.3,40.7c-0.1,4.2,1,8.6,2.6,12.4c6.6,15.7,11.5,32,17.4,47.9
		c5.2,14,9.5,28.3,15.5,41.9c7.2,16.4,11.5,33.7,17.4,50.4c7.6,21.4,15.7,42.6,23.6,63.9c6,16.3,10.3,33.1,14.6,50
		c1,3.8,2.1,7.5,3.3,11.2c4.2,12.6,8.2,25.2,12.7,37.7c6.5,17.7,1.2,32.8-11.6,45.8c-4.3,4.4-9.6,7.8-14.5,11.5
		c-2.7,2-5.4,4-7.7,6.5c-1.7,1.9-3.9,2.9-6.5,3.1c-7.4,0.6-14.7,0.6-22-0.6c-0.5-0.1-1.1-0.1-1.7-0.2c0.1,1.4,1.6,1.5,2.1,2.8
		c-5-1.3-9.8-2.7-14.3-4.7c-7.1-3.2-14.5-5.7-21.7-8.7c-26.5-10.9-52.9-22.1-77.5-36.8c-1.1-0.6-2.2-1.2-3.3-1.8
		c-1.6-0.9-3.2-2.4-4.4,0.7c-0.5,1.3-2.1,0.5-3.2,0.4c1.3-2.5,2.5-5,3.8-7.5c0.5-1,1.1-1.9,1-3.1c-0.3-3.7,1-6.9,2.5-10.2
		c7.9-17.3,15.7-34.7,23.7-52c4.7-10.2,8.9-20.7,11.8-31.6c1.9-7,2.8-14.3,5.2-21.1c2.8,0.2,0.7,2.2,1.3,3.4
		c2.3-0.3,4.5,0.8,6.6,1.8c1,0.5,1.9,0.5,1.6-1c-1.4-6.3,0.2-12.6-0.6-18.9c-1.1-8.4-1.9-16.7-2.9-25.1c-1.2-9.9-2-19.9-2.2-29.9
		c-0.3-12.2-2.8-24.2-5.3-36.1c-2.6-12.6-5.7-25.1-8-37.8c-0.8-4.5-1.9-9.1-3.4-13.4c-1-2.8-3.1-5.1-5.8-6.7c-0.8-1-2-1.5-3-2.2
		c-6.2-4.2-13.4-5.9-20.2-8.8c-5.2-2.2-10.4-4.3-14.9-7.9c-9.9-8-18.1-17.5-24.5-28.6c-4.1-7.2-8.8-14-15.4-19.3
		c-2.7-2.2-5.5-4.3-7-7.8c-2.2-5.4-6-9.7-10.5-13.4c-2.7-2.2-5.5-4.5-8.1-6.9c-2.5-2.3-2.7-4.3-0.6-6.9c2.3-3,5.7-4.6,9.4-3.9
		c6.6,1.2,12.4,3.9,16.6,9.5c3,4,6,8.3,10.4,11.1c4,2.5,9.2,1.7,11.6-2c2.6-3.9,4.1-8.5,3.9-13.1c-0.3-6-1.1-12.1-2.7-18
		c-5.8-22.3-13.1-44.2-19.3-66.5c-0.5-1.9-0.9-3.8-0.7-5.6c1-7.1,3.2-12.1,9.7-13.1c2.7-0.4,3.5-2.1,3.1-4.8
		C296.1,110.5,296.2,108.9,296.2,107.3z"/>
	<path style="fill:#FEFEFE;" d="M377,484c-2.5,6.9-3.4,14.1-5.2,21.1c-2.9,10.9-7.1,21.3-11.8,31.6c-8,17.3-15.8,34.7-23.7,52
		c-1.5,3.2-2.8,6.5-2.5,10.2c0.1,1.1-0.5,2.1-1,3.1c-1.3,2.5-2.5,5-3.8,7.5c-2.2,2.8-3.7,6-5.3,9.1c-2.4,4.6-4.8,9.2-7.2,13.7
		c-3.2,5.9-8.1,9.8-15.6,9.2c-3-0.2-6,0.8-9.2,0.6c-9.3-0.6-18.3-2.8-27.5-3.9c-9.6-1.1-18.4,0.8-27,4.5
		c-9.9,4.2-18.2,10.4-25.4,18.4c-2.5,2.8-5.3,5.2-7.8,8c-7.2,8-16.6,10.6-26.7,12c-15.2,2.2-26.4-5.3-36.4-15
		c-12.4-11.9-20.9-26.4-26.7-42.5c-6.2-17.1-10.3-34.8-13.6-52.7c-1.3-7.2-1.8-14.4-1.8-21.7c0-9.8-2.4-19.5-1.8-29.3
		c0.9-16.6,1.7-33.2,4.2-49.7c1.5-9.6,3.3-19.5,8.3-28.1c3.9-6.7,9.1-11.8,16.3-15.8c9.3-5.1,19-8,29.3-9.4c7.5-1,15.1-0.5,22.6-0.4
		c15.7,0.2,31.1,3,46.3,6.7c14.7,3.6,29.1,8.3,43,14.5c8.4,3.8,17.3,6.7,26.1,9.6c12.4,4.1,24.4,9.5,36.7,13.8
		c7.4,2.6,14.6,5.5,21.6,9c5.9,3,12.3,4.2,18.5,6.3C373.4,477.9,376.5,479.7,377,484z"/>
	<path style="fill:#BD5E3E;" d="M296.2,107.3c0,1.5-0.1,3.1,0.2,4.6c0.4,2.6-0.4,4.3-3.1,4.8c-6.5,1-8.7,6.1-9.7,13.1
		c-0.3,1.9,0.2,3.8,0.7,5.6c6.2,22.2,13.5,44.1,19.3,66.5c1.5,5.9,2.4,12,2.7,18c0.2,4.6-1.3,9.2-3.9,13.1c-2.5,3.7-7.7,4.5-11.6,2
		c-4.4-2.8-7.4-7-10.4-11.1c-4.2-5.6-10-8.4-16.6-9.5c-3.7-0.6-7,0.9-9.4,3.9c-2.1,2.7-1.9,4.7,0.6,6.9c2.6,2.4,5.4,4.6,8.1,6.9
		c4.5,3.7,8.2,8,10.5,13.4c1.5,3.5,4.3,5.6,7,7.8c6.6,5.3,11.3,12,15.4,19.3c6.3,11.1,14.5,20.6,24.5,28.6c4.4,3.6,9.7,5.7,14.9,7.9
		c6.7,2.9,14,4.6,20.2,8.8c1.1,0.7,2.2,1.2,3,2.2c-2.8,0.5-3,1-2.3,4.1c0.1,0.5,0.9,1.2,0.2,1.7c-0.9,0.7-1.1-0.5-1.7-0.8
		c-3.3-1.9-6.8-3.4-10.4-4.6c-7.1-2.5-14.3-4.7-21.3-7.6c-11.9-5-21-13.1-27.7-24c-3.5-5.7-6.5-11.7-10.9-16.9
		c-4.3-5-8.5-9.9-14.2-13.4c-2.6-1.6-4.5-3.9-5.2-6.8c-1.4-6-5.4-10.2-9.7-14.1c-3-2.8-5.4-6.1-8-9.2c-4-4.7-2.8-11.6,1.8-15.8
		c8.7-7.9,19.3-6.3,27.1-2c4.6,2.5,8.1,7.2,12,10.9c2.1,2,4.5,1.6,5.8-1c0.8-1.7,1-3.6,1.3-5.5c1.8-11.5-3-21.9-5.7-32.7
		c-3-11.9-8-23.2-10.5-35.2c-1.5-7.4-2.5-14.9,0.2-22.3c0.8-2.3,1.9-4.5,3.1-6.7c1.1-1.9,2.6-3.8,4.8-4.2c3.4-0.7,5.3-2.5,6.4-5.6
		C293.9,107.5,294.9,107,296.2,107.3z"/>
	<path style="fill:#F7FAF9;" d="M385.3,159.5c-1.9-3.7-1-8.8,2.5-12.4c5-5.2,11.1-8.4,18.4-9c4.2-0.3,8.3-0.4,12.5-0.6
		c9.6-0.3,17.2-3.8,21.4-13c2-4.4,4.5-8.4,7.5-12.3c5.4-6.7,12.8-8.9,20.8-9.7c6.7-0.7,13.2,1,19.7,1.8c3,0.4,6,0.7,9,0
		c8.9-2,11.3-6.3,12.4-14.6c0.1-0.8,0.1-1.6,0.2-2.4c0.6-3.1,3-5.1,5.6-4.9c2.7,0.2,5.1,2.6,5,5.5c-0.5,9.5-3.7,17.5-12.4,22.5
		c-6.8,3.9-14.1,4.4-21.6,3.2c-5.4-0.8-10.6-2.4-16.1-2.1c-7.2,0.3-13.1,2.7-16.9,9.1c-2,3.3-4,6.7-5.9,10.1
		c-6.1,10.5-15.7,14.9-27.4,15.3c-5.1,0.1-10.2-0.3-15.2-0.6c-5.8-0.3-10.7,1.9-15.1,5.2c-2.1,1.6-3.7,3.7-3.5,6.7
		C386.2,158.2,385.9,158.9,385.3,159.5z"/>
	<path style="fill:#F7FAF9;" d="M403.5,200.1c-1-3.4,1.2-5,3.4-6.6c1.9-1.4,4.3-1.9,6.6-2.3c7-1.2,14-1.9,20.9,0.9
		c3.9,1.6,8.1,2.6,11.9,4.6c8.5,4.4,16.7,3,24.3-2.3c2.8-2,5.4-4.3,8.2-6.3c14-10.1,33.5-10.6,47.9-1.2c4.9,3.2,9.5,6.5,15.8,6.7
		c3.2,0.1,5.3,3.1,4.9,5.8c-0.4,3-3,5.1-6.5,4.9c-4.3-0.2-8.5-1.1-12.2-3.5c-1.8-1.2-3.8-2.1-5.5-3.6c-9.6-8.4-20.4-7.8-31.5-4.2
		c-3.3,1.1-5.9,3.5-8.6,5.7c-5.7,4.6-11.5,8.9-18.9,10.3c-7.7,1.4-15.1,0.8-21.6-3.9c-4.5-3.3-9.4-5.8-14.3-8.4
		c-6.3-3.3-13.1-3-19.9-1.4C406.2,196.1,404.7,197.9,403.5,200.1z"/>
	<path style="fill:#F8FBF9;" d="M465.9,15.3c0.4,4.8-1.2,9-4.1,12.7c-5.6,7.2-12.1,13.2-21.6,14.9c-5.2,0.9-9.7,3.4-13.7,6.9
		c-1.5,1.4-2.1,3.1-2.7,4.9c-1,3.2-1.9,6.4-2.9,9.6c-2.8,9.1-8.7,16.2-15.4,22.8c-3.4,3.3-7.5,5.1-12,6c-9.2,1.8-17,6.5-24.3,12.1
		c-4.1,3.2-6,7.9-7.7,12.6c-0.2,0.4-0.1,1-0.3,1.3c-0.4,0.6,0.1,1.7-0.9,1.7c-1.1,0-1-1.1-1.1-1.9c-0.2-7.7,1.8-14.5,7.6-19.9
		c7.4-6.9,15.1-13.1,25.3-15.3c3.1-0.7,5.4-2.6,7.7-4.8c6.9-6.4,11.3-14.2,13.2-23.3c2.2-10.4,9.2-16.1,18.4-19.7
		c2.8-1.1,5.7-1.9,8.6-2.6c7.1-1.8,11.8-6.7,15.6-12.7c0.7-1.1,0.6-2.4,0.5-3.7c0-2.1-0.2-4.2,0-6.3c0.2-2.5,1.6-4.3,4.3-4.5
		c2.5-0.1,4,1.3,4.8,3.6C466.1,11.7,465.9,13.5,465.9,15.3z"/>
	<path style="fill:#F8FBF9;" d="M575,84.4c-2.3-5.9-4.3-11.1-6.5-16.2c-1.9-4.5-2.8-9.4-4.4-14c-0.7-2.1-0.3-4.3,1.9-5.4
		c2.3-1.1,4,0.2,5.3,2c0.6,0.9,1.1,1.9,1.4,2.9c3.1,11.7,8.7,22.4,13,33.6c0.7,1.9,1.5,3.7,2.1,5.6c0.6,2.1,0.3,4-1.5,5.4
		c-1.8,1.3-3.6,1-5.3-0.2c-9-6.4-19.1-11.3-27.4-18.7c-0.6-0.5-1.3-0.9-2.6-1.9c0.9,2.3,1.6,3.9,2.3,5.6c3.1,7.3,5.9,14.6,8.1,22.2
		c0.4,1.5,1,3.2-0.8,4.1c-1.9,1-3-0.5-4-1.8c-0.7-0.9-1.4-1.9-2-2.9c-6.4-11.6-12.4-23.4-17.8-35.5c-0.2-0.5-0.4-1-0.6-1.5
		c-0.5-2.5-0.1-4.8,2.3-6.1c2.3-1.3,4.2-0.6,6.2,1c8.5,6.5,17.1,12.8,25.7,19.2C571.7,82.7,573.1,83.3,575,84.4z"/>
	<path style="fill:#F7FAF9;" d="M671,33.7c0,1.7-1,3.1-2.5,4.1c-2.2,1.4-4.6,2.6-7.2,3c-1.5,0.3-1.9,0.6-1.2,2
		c1.6,3.5,3.2,7.1,4.8,10.6c0.4,0.8,0.7,1.1,1.6,0.7c2.7-1.2,5.7-1.9,7.9-4.1c1-1,2.3-1.5,3.6-1.9c2.2-0.6,4,0.1,5.3,1.9
		c1.3,1.7,0.9,3.5-0.4,5c-2.2,2.8-5.1,4.6-8.4,5.9c-2.5,1-5,2-7.3,3.5c-3.5,2.3-6.7,1.1-8.7-3.3c-2.8-6.2-5.7-12.3-7.8-18.8
		c-1.7-5.3-3.1-10.6-4.6-15.9c-0.2-0.8-0.4-1.5-1.1-2.1c-2.1-2.1-2-3.6-0.1-5.9c1.1-1.2,2.4-2.3,3.8-3c3.7-2,7.4-3.9,11.1-5.7
		c2.6-1.3,4.9-0.5,6.1,1.7c1.1,2.1,0.3,4.7-2.1,6c-3.5,2-7.4,3-11.1,4.4c-1.5,0.6-1.9,1.1-1,2.7c1.5,2.8,3,5.6,4.1,8.5
		c0.8,2,1.6,1.9,3.1,0.8c1.7-1.3,3.5-2.7,5.4-3.7C667.7,28.6,670.9,30.4,671,33.7z"/>
	<path style="fill:#F7FAF9;" d="M634.5,78.7c-16.3-0.2-26-10.4-25.8-26.7c0.1-7.1,1.7-13.6,5.8-19.5c4.5-6.6,10.1-8.6,17.1-6.3
		c1,0.3,2,0.9,2.9,1.5c1,0.8,1.7,1.9,1.3,3.3c-0.4,1.4-1.3,2.1-2.7,2.3c-1.8,0.2-3.6,0.4-5.4,0.4c-2-0.1-3.5,0.8-4.7,2.2
		c-2,2.2-3.5,4.7-4.2,7.5c-1.3,5.2-1.3,10.4,0,15.6c1.6,6.6,6.6,8.8,12.7,9.7c3.7,0.5,6.8,0.2,8.7-3.6c0.4-0.8,1.1-1.4,1.7-2.1
		c1.4-1.4,2.9-2.8,5-1.7s2.4,3.3,2.2,5.5c-0.5,5.7-6.3,11.4-12.1,11.9C636.1,78.7,635.3,78.7,634.5,78.7z"/>
	<path style="fill:#F7FAF9;" d="M606.8,83.3c-0.1,1.9-0.7,3.6-2.6,4.4c-2,0.9-3.7,0.3-5.2-1.1c-1.1-1-1.6-2.4-2.3-3.7
		c-4.1-8.1-7.1-16.6-10.9-24.8c-0.7-1.6-1.5-3.1-2.4-4.5c-2.1-3.1-1.4-6.2-0.1-9.3c0.6-1.5,2.1-2.2,3.6-1.4c2.6,1.3,5,2.9,5.6,6.2
		c1.6,9.7,6,18.3,11.1,26.6C605,78,606.6,80.3,606.8,83.3z"/>
	<path style="fill:#F7FAF9;" d="M695.8,23.6c-0.3,2.2-0.8,4.5-3.4,5.3c-2.6,0.8-4.3-0.7-5.7-2.7c-0.6-0.8-1-1.7-1.4-2.6
		c-1.9-5.6-3.6-11.2-4.9-17c-0.3-1.5-0.3-2.9,0.3-4.3c1.2-2.5,4.6-3.3,6-0.9c3.8,6.9,7.3,14,9.1,21.7
		C695.8,23.2,695.8,23.3,695.8,23.6z"/>
	<path style="fill:#F7FAF9;" d="M704,44.9c0,2.4-1.7,4.2-4,4.3c-2.3,0-4-1.7-4.1-4.2c-0.1-2.9,1.8-5.6,4-5.7
		C702,39.3,704,41.9,704,44.9z"/>
</g>
</svg>
