<svg id="illu-tiny-squats" xmlns="http://www.w3.org/2000/svg" viewBox="0 0 493.89 640"><path id="chair" d="M319.67,479.71V467.62a14.52,14.52,0,0,0-14.53-14.53H189.68l-33-178a2.21,2.21,0,0,0-2.17-1.8h-6.25a2.21,2.21,0,0,0-2.19,2.48L168.5,453.09v26.62L157.91,621.54a1.68,1.68,0,0,0,1.67,1.8h7.34a1.67,1.67,0,0,0,1.65-1.43l19.07-128.48a16.08,16.08,0,0,1,15.9-13.72h81.09a16.07,16.07,0,0,1,15.89,13.72L319.6,621.91a1.67,1.67,0,0,0,1.65,1.43h7.34a1.68,1.68,0,0,0,1.67-1.8Z" transform="translate(-146.11)" style="fill:#d3562c"/><g id="dude"><rect x="173.89" width="320" height="640" style="fill:none"/><g id="head-neck"><g id="neck"><rect x="366.9" y="76.48" width="26.8" height="46.94" transform="translate(-80.99 -135.16) rotate(22)" style="fill:#ff9b7a"/><circle cx="225.4" cy="121.71" r="13.4" style="fill:#ff9b7a"/><circle cx="242.98" cy="78.19" r="13.4" style="fill:#ff9b7a"/></g><g id="head"><path d="M425.66,74.42,422.25,107c0,5.7-6.81,9.41-12.47,8.74l-26.44-8.07-3-24.14Z" transform="translate(-146.11)" style="fill:#ff9b7a"/><path d="M427.41,68.91l-1.51,3.57c-2,19.53-17.17,35.16-37.22,35.16a38.74,38.74,0,1,1,38.73-38.73Z" transform="translate(-146.11)" style="fill:#ff9b7a"/><path d="M422.25,64.85a12.71,12.71,0,0,0-10.45,2.73" transform="translate(-146.11)" style="fill:none;stroke:#231f20;stroke-linecap:round;stroke-linejoin:round;stroke-width:2.684388220310211px"/><path d="M422.13,98.37s-4.7,1.07-7.17-1.84" transform="translate(-146.11)" style="fill:none;stroke:#db694c;stroke-linecap:round;stroke-linejoin:round;stroke-width:2.684388220310211px"/><polyline points="273.44 71.78 266.07 74.74 268.77 77.06" style="fill:none;stroke:#231f20;stroke-linecap:round;stroke-linejoin:round;stroke-width:2.684388220310211px"/><polyline points="279 77.45 285.19 87.94 277.32 89.92" style="fill:#ff9b7a;stroke:#000;stroke-linecap:round;stroke-linejoin:round;stroke-width:2.4535502857674523px"/><path d="M424.82,41.2C417.1,29.08,403,21,386.86,21c-24.42,0-44.22,18.6-44.22,41.55,0,14,7.33,26.3,18.57,33.84l4.3,3.6,9.24-13a23.11,23.11,0,0,1-2.19-6.26,8.14,8.14,0,0,1,7.68-10.08,8,8,0,0,1,4.42.87,8.79,8.79,0,0,1,3.85,5l6.73-4.28a11.45,11.45,0,0,0,5.19-7.9l1.77-11.2a9.19,9.19,0,0,1,13.18-6.79l7.45,4.37A6.87,6.87,0,0,0,424.82,41.2Z" transform="translate(-146.11)" style="fill:#231f20"/></g><path d="M356.56,93.21c-1-.79-3.25-.11-4.16-1s-.37-3.16-1.2-4.1-3.19-.66-3.94-1.66.18-3.18-.48-4.25-3-1.2-3.59-2.33.76-3.09.3-4.26-2.76-1.73-3.11-2.94,1.31-2.9,1.08-4.14-2.39-2.2-2.5-3.47,1.82-2.59,1.82-3.87c0-2.14-1.82-4.4-1.5-6.46s2.76-3.7,3.4-5.7-.39-4.73.56-6.61,3.75-2.68,5-4.4,1-4.62,2.48-6.16,4.36-1.47,6-2.79,2.26-4.14,4.1-5.22,4.59-.22,6.56-1,3.29-3.38,5.35-3.93,4.48,1,6.6.74,4-2.4,6.19-2.4c1.42,0,2.74,2.05,4.13,2.17s3.07-1.67,4.44-1.43,2.34,2.49,3.69,2.85,3.31-1.11,4.62-.63,1.86,2.87,3.13,3.46,3.45-.51,4.66.2,1.31,3.16,2.45,4,3.49.13,4.55,1.05.7,3.34,1.67,4.36,3.4.77,4.27,1.88.05,3.41.81,4.59L374.56,51.59,363.73,71.78Z" transform="translate(-146.11)" style="fill:#231f20"/></g><g id="hip"><circle cx="226.41" cy="302.38" r="35.48"/><circle cx="226.49" cy="326.16" r="35.48"/><rect x="190.94" y="302.38" width="70.95" height="25.97"/></g><g id="torso"><circle id="torso-lower" cx="226.41" cy="302.38" r="35.48"/><g id="torso-upper"><path d="M384,126.47c.49.28,26.35,36.29,26.35,36.29a49.85,49.85,0,0,1,8.35,38.94L408,302.38,347.73,277l-7.51-56.46s-5-22.84-7.19-42.15c-2.39-20.8,8.79-46.61,14.5-54.61a36.92,36.92,0,0,1,13.27-11.4Z" transform="translate(-146.11)" style="fill:#fff"/></g></g><g id="leg-l"><g id="leg-upper"><polygon points="249.72 442.46 261.89 326.16 191.08 328.84 202.09 446.9 249.72 442.46"/><circle cx="225.54" cy="440.8" r="23.92"/><circle cx="226.41" cy="326.16" r="35.48"/></g><g id="leg-lower"><polygon points="202.37 433.71 194.72 570.1 222.23 576.78 249.77 440.15 202.37 433.71"/><circle cx="225.54" cy="440.8" r="23.92"/><g id="foot"><polygon points="196.22 569.88 192.72 587.37 184.86 620.99 215.92 621.64 258.92 622.55 280.49 623 280.68 613.72 259.18 610.45 216.75 587.88 216.97 569.88 196.22 569.88"/><circle cx="206.59" cy="569.88" r="10.37"/></g></g></g><g id="arm"><g id="arm-upper"><polygon points="196.91 201.22 199.77 235.04 240.06 231.63 240.96 200.23 196.91 201.22" style="fill:#ff9b7a"/><polygon points="242.4 150.02 192.92 154.21 196.91 201.22 240.96 200.23 242.4 150.02" style="fill:#fff"/><circle cx="219.92" cy="233.34" r="20.22" style="fill:#ff9b7a"/><circle cx="217.62" cy="151.64" r="24.82" style="fill:#fff"/></g><g id="arm-lower"><rect x="372.96" y="319.77" width="29.58" height="12.65" transform="translate(-50.59 739.97) rotate(-94.84)" style="fill:#ff9b7a"/><circle cx="219.92" cy="233.34" r="20.22" style="fill:#ff9b7a"/><polygon points="234.5 316.61 199.9 236.69 240.14 233.29 247.01 314.4 234.5 316.61" style="fill:#ff9b7a"/><g id="hand"><path d="M395.25,340.91l-6.17,26.93a4,4,0,0,1-3.9,3.13h0c-4,0-6.26-6.36-5.86-8.62l.73-4.16-3.17-16.84,0-.78C377.51,329.72,395.25,340.91,395.25,340.91Z" transform="translate(-146.11)" style="fill:#ff9b7a"/><path d="M376.22,340.11l-8.42,18.46a2.48,2.48,0,0,0,1.95,3h0a2.47,2.47,0,0,0,2.5-1L379,349.81Z" transform="translate(-146.11)" style="fill:#ff9b7a"/><circle cx="240.05" cy="340.25" r="9.09" style="fill:#ff9b7a"/><circle cx="239.03" cy="342.79" r="9.3" style="fill:#ff9b7a"/><g id="finger"><g id="finger-upper"><rect x="376.94" y="368.45" width="11.21" height="7.4" transform="translate(-283.08 494.33) rotate(-57.44)" style="fill:#ff9b7a"/><circle cx="239.46" cy="367.42" r="3.7" style="fill:#ff9b7a"/><circle cx="232.93" cy="377.65" r="3.7" style="fill:#ff9b7a"/></g><g id="finger-lower"><path d="M368.15,378.69l10.2-4.67,1.36,7.27-10,1.88a2.43,2.43,0,0,1-2.84-1.95h0A2.34,2.34,0,0,1,368.15,378.69Z" transform="translate(-146.11)" style="fill:#ff9b7a"/><circle cx="232.93" cy="377.65" r="3.7" style="fill:#ff9b7a"/></g></g></g></g></g></g></svg>