<svg id="shoulder-stretch" xmlns="http://www.w3.org/2000/svg" viewBox="0 0 224.86 419.55">
  <path id="chair" d="M150,306V295.89a12.15,12.15,0,0,0-12.14-12.14H41.41L13.88,135a1.84,1.84,0,0,0-1.81-1.51H6.85A1.84,1.84,0,0,0,5,135.6L23.71,283.75V306L14.87,424.5a1.4,1.4,0,0,0,1.39,1.5h6.13a1.39,1.39,0,0,0,1.38-1.19L39.71,317.46A13.43,13.43,0,0,1,53,306h67.75A13.43,13.43,0,0,1,134,317.46L150,424.81a1.41,1.41,0,0,0,1.39,1.19h6.13a1.4,1.4,0,0,0,1.39-1.5Z" transform="translate(-5 -6.45)" style="fill: #d3562c"/>
  <g id="legs">
    <path d="M229.82,424.24c-.4-1.55-1.2-6.75-1.2-6.75S211,414.56,208.1,413.2l-29.58-13.73v-8.72L183,363.49l-25.15,0v27.2L152.27,418a6.71,6.71,0,0,0,6.58,8h7.36a24.28,24.28,0,0,0,6.51-.89l5.19-1.45a30.75,30.75,0,0,1,15-.37L205,426h23.49A1.41,1.41,0,0,0,229.82,424.24Z" transform="translate(-5 -6.45)" style="fill: #ff9b7a"/>
    <path d="M57,219.68l3.19-12.81L106,215.45l-2.62,12.08,75.11,14.78c11.35,2.39,20.72,9.28,20.72,20.72a66.87,66.87,0,0,1-.55,7.23L183,363.49l-25.15,0V283.75H61.33C36.36,268.1,43.31,237.1,57,219.68Z" transform="translate(-5 -6.45)" style="fill: #231f20"/>
  </g>
  <g id="upperarm-left">
    <rect id="upperarm-left-skin" x="51.5" y="112.69" width="99.8" height="24.79" rx="12.39" transform="translate(142.94 272.77) rotate(-157.78)" style="fill: #fff"/>
    <path id="upperarm-left-clothes" d="M112.49,116.23,71.36,99.42a12.4,12.4,0,0,0-16.16,6.79h0A12.39,12.39,0,0,0,62,122.37l37.24,15.22Z" transform="translate(-5 -6.45)" style="fill: #fff"/>
  </g>
  <g id="head">
    <rect id="neck" x="60.88" y="63.58" width="23.93" height="49.95" rx="8.92" transform="translate(125.81 181.03) rotate(-170.93)" style="fill: #ff9b7a"/>
    <path d="M72.84,28.32c15.82-2.4,28.55,2.94,34.7,17.44a46.72,46.72,0,0,1,2.15,8.18,5.31,5.31,0,0,1-.84,3.85l-1.24,1.85L113,67.28a2,2,0,0,1-1.3,3.09l-3.62.71,1.85,3a1.28,1.28,0,0,1-.61,1.84l-2.55,1.11,1.7,1.51a1.28,1.28,0,0,1-.38,2.15l-1.94.8s2.14,7.72-6,7.71c-5.06,0-11.65-1.48-14.47-2.18-4.38-1.08-8-9.26-9.31-11.57C63.33,72.66,59,70.83,54.49,62,48,49.19,57,30.73,72.84,28.32Z" transform="translate(-5 -6.45)" style="fill: #ff9b7a"/>
    <polyline points="98.42 52.44 95.26 55.34 96.92 57.85" style="fill: none;stroke: #231f20;stroke-linecap: round;stroke-linejoin: round;stroke-width: 2px"/>
    <path d="M108.11,54.2a9,9,0,0,0-8.88,0" transform="translate(-5 -6.45)" style="fill: none;stroke: #231f20;stroke-linecap: round;stroke-miterlimit: 10;stroke-width: 2px"/>
    <path id="hair" d="M46.64,113.4A15.94,15.94,0,0,1,48,103h0a16.09,16.09,0,0,1,15.28-8.94h0c6.21-4.56,9.84-13.32,10.15-21l.83-7a7.31,7.31,0,0,1,9.35-6.26c.25.09.5.18.75.29l1.74.76a.85.85,0,0,0,.88-.12L90.29,58a8.22,8.22,0,0,0,2.94-6.06c.07-2.31.11-6.35.12-9.57a4.68,4.68,0,0,1,4.89-4.64l4.66.22C105.47,33.51,89.51,26.46,81,25.58a31.69,31.69,0,0,0-16.84,3.13C54.6,33.5,51.84,42.57,46.3,64.3c-.6,2.35-9.84,39.77-9.84,39.77a22.82,22.82,0,0,0,8.94,20.3l3.78,2.85-.11-2.13Z" transform="translate(-5 -6.45)" style="fill: #231f20"/>
  </g>
  <g id="torso">
    <path d="M106,215.45,60.2,206.87,63.39,194,46.64,113.4A16.07,16.07,0,0,1,73.71,98.73l0-.1s46.81,47,44.72,57.78c-2,10.19-2.82,15-2.82,15v.06l0,.15c-.07.47-.16.94-.27,1.4h0Z" transform="translate(-5 -6.45)" style="fill: #fff"/>
    <path d="M85.21,110.65c13.72,14.69,34.6,38.49,33.19,45.76" transform="translate(-5 -6.45)" style="fill: none;stroke: #ffe8e0;stroke-miterlimit: 10"/>
  </g>
  <g id="arm-right">
    <g id="upperarm-right">
      <rect id="upperarm-right-skin" x="54.21" y="98.26" width="99.8" height="24.79" rx="12.39" transform="translate(203.22 214.85) rotate(-180)" style="fill: #ff9b7a"/>
      <path id="upperarm-right-clothes" d="M93.85,123l-28.28,4.18c-6.85,0-16.39-7-16.39-16.57S59.2,94.47,66,94.47l42.12,3.79Z" transform="translate(-5 -6.45)" style="fill: #fff"/>
      <polyline id="outline" points="103.16 91.81 88.85 116.59 60.57 120.77" style="fill: none;stroke: #ffe8e0;stroke-miterlimit: 10"/>
    </g>
    <g id="forearm-right">
      <path id="forearm-right-skin" d="M152.55,49.58l2.86,61.26a11.85,11.85,0,0,1-12.14,12.09h0a11.85,11.85,0,0,1-11.54-12.66l9.94-67.7Z" transform="translate(-5 -6.45)" style="fill: #ff9b7a"/>
      <g id="hand-right">
        <path d="M137.9,46.35,135.32,43a14.47,14.47,0,0,1-2.92-7.08l-.7-5.44.88-8.1a1.92,1.92,0,0,1,2.9-1.44h0a1.94,1.94,0,0,1,.93,1.53Z" transform="translate(-5 -6.45)" style="fill: #ff9b7a"/>
        <path d="M135.73,28.32H156.4l-2.17,18a8.26,8.26,0,0,1-8.17,7h0a8.25,8.25,0,0,1-8.16-7Z" transform="translate(-5 -6.45)" style="fill: #ff9b7a"/>
        <path d="M146.06,28.32V8.67a2.22,2.22,0,0,0-2.22-2.22h0a2.23,2.23,0,0,0-2.22,2.14l-.72,19.73Z" transform="translate(-5 -6.45)" style="fill: #ff9b7a"/>
        <path d="M140.9,28.32l.57-15.63a2.17,2.17,0,0,0-2.16-2.24h0a2.16,2.16,0,0,0-2.15,2l-1.43,15.9Z" transform="translate(-5 -6.45)" style="fill: #ff9b7a"/>
        <path d="M151.23,28.32l-.7-15.74a2.24,2.24,0,0,0-2.23-2.13h0a2.23,2.23,0,0,0-2.24,2.23V28.32Z" transform="translate(-5 -6.45)" style="fill: #ff9b7a"/>
        <path d="M156.4,28.32,155,16.51a2.16,2.16,0,0,0-2.14-1.91h0a2.16,2.16,0,0,0-2.16,2.26l.51,11.46Z" transform="translate(-5 -6.45)" style="fill: #ff9b7a"/>
      </g>
    </g>
  </g>
  <g id="forearm-left">
    <g>
      <path d="M137.1,152.78a12.35,12.35,0,0,1-12-13.2l8.64-58.9a8.71,8.71,0,0,1-2.45-4.78l-2.5-3.24a15.15,15.15,0,0,1-3-7.33l-.7-5.5.88-8.16a2.42,2.42,0,0,1,3.66-1.81l.17.12.75-8.26a2.66,2.66,0,0,1,4.38-1.78l.08-2a2.72,2.72,0,0,1,5.44.1v1.9a2.73,2.73,0,0,1,4.46,2l.1,2.2a2.63,2.63,0,0,1,1.75-.66,2.67,2.67,0,0,1,2.65,2.35l1.38,11.87-2.18,18.09a8.78,8.78,0,0,1-1.63,3.95l2.81,60.46a12.33,12.33,0,0,1-12.34,12.61Z" transform="translate(-5 -6.45)" style="fill: #ff9b7a"/>
      <path d="M137.69,35.8A2.21,2.21,0,0,1,139.91,38v4a2.23,2.23,0,0,1,2.24-2.23h0a2.22,2.22,0,0,1,2.22,2.13l.2,4.28a2.16,2.16,0,0,1,4.3-.35l1.38,11.81-2.17,18a8.25,8.25,0,0,1-1.65,3.85l2.82,60.64a11.84,11.84,0,0,1-11.84,12.09h-.29a11.85,11.85,0,0,1-11.54-12.66l8.68-59.12a8.25,8.25,0,0,1-2.51-4.8l-2.58-3.35a14.61,14.61,0,0,1-2.93-7.08l-.69-5.45.88-8.09a1.91,1.91,0,0,1,2.9-1.44h0a1.92,1.92,0,0,1,.82,1l.85-9.54a2.17,2.17,0,0,1,4.32.27l.15-4.1a2.21,2.21,0,0,1,2.22-2.14m0-1a3.21,3.21,0,0,0-3.22,3.1l0,1.16a3.24,3.24,0,0,0-1.27-.26A3.15,3.15,0,0,0,130,41.68l-.68,7.51a2.76,2.76,0,0,0-1-.18,2.93,2.93,0,0,0-2.91,2.61l-.87,8.1V60l.69,5.45A15.54,15.54,0,0,0,128.38,73l2.42,3.15a9.34,9.34,0,0,0,2.4,4.74l-8.61,58.62v.08a12.85,12.85,0,0,0,12.51,13.73h.32a12.82,12.82,0,0,0,12.84-13.11l-2.81-60.31a9.21,9.21,0,0,0,1.63-4l2.17-18.05,0-.12,0-.12-1.38-11.81a3.17,3.17,0,0,0-4.43-2.52l-.06-1.33a3.22,3.22,0,0,0-3.22-3.09,3.38,3.38,0,0,0-1.24.24V38a3.22,3.22,0,0,0-3.22-3.22Z" transform="translate(-5 -6.45)" style="fill: #ffe8e0"/>
    </g>
    <path d="M130.15,51.31l.69,9.81s11.19,2.06,9.07,10.8" transform="translate(-5 -6.45)" style="fill: none;stroke: #ffe8e0;stroke-miterlimit: 10"/>
  </g>
</svg>
