<svg id="tiny-seated-side-bends" xmlns="http://www.w3.org/2000/svg" viewBox="0 0 390.25 684.14"><g id="whole"><path id="body" d="M331.78,660H315a99.4,99.4,0,0,1-99.34-95.87l-5.2-166.37a50,50,0,0,1,36.37-49.86l76.58-21.6,75.22,21.22a51.73,51.73,0,0,1,37.64,51.6l-5.15,165A99.4,99.4,0,0,1,331.78,660Z" transform="translate(-128.28 24.14)" style="fill:#ff9b7a"/><g id="head-neck"><path id="neck" d="M294.46,272.54v79.4a28.95,28.95,0,0,0,57.89,0v-79.4Z" transform="translate(-128.28 24.14)" style="fill:#fff"/><g id="head"><path id="breatheman-ear-right" d="M265.32,257.54c-.91-13-1-15.21-1.62-36,0,0-14.36-18.56-15.34-1.88C250,242.39,254,257.54,265.32,257.54Z" transform="translate(-128.28 24.14)" style="fill:#fff"/><path id="breatheman-ear-left" d="M398.47,218.3c.32-19.3-15.12,3.09-15.24,3.26h0l-.15,1.79c-.63,18.85-.76,21.06-2,35.68C398.47,261,398.47,218.3,398.47,218.3Z" transform="translate(-128.28 24.14)" style="fill:#fff"/><path id="breatheman-face" d="M374.16,135.55c-.89-1.08-1.8-2.14-2.73-3.17,0,0-7.24,40.78-40.78,40.78S263.7,156.3,263.7,156.3s6.14,3.52,6.14,28.6v48.77c0,8.48.65,16.94,5.36,22.83a17.67,17.67,0,0,0,10.6,6.32c.45-.37,17.48-12.43,38.43-.28a.62.62,0,0,0,.19.07.67.67,0,0,0,.18-.07c20.48-13.54,35.53-1.73,38-.05,4.24-1.14,7.61-4,10.3-7.6,3.67-5.77,4.21-13.49,4.21-21.22V184.9c0-9.9.95-16.43,2.11-20.72-4.78-6.44-11.92-11.43-10.06-16.78A76.25,76.25,0,0,1,374.16,135.55Z" transform="translate(-128.28 24.14)" style="fill:#fff"/><path id="breatheman-eye-right" d="M295.45,216.9a21,21,0,0,1,12,3.78,1.64,1.64,0,1,1-2,2.6,17.58,17.58,0,0,0-19.94,0,1.64,1.64,0,0,1-2-2.6A21,21,0,0,1,295.45,216.9Z" transform="translate(-128.28 24.14)"/><path id="breatheman-eye-left" d="M352.23,216.9a20.9,20.9,0,0,1,12,3.79,1.64,1.64,0,0,1-2,2.59,17.58,17.58,0,0,0-19.94,0,1.64,1.64,0,0,1-2-2.59A20.9,20.9,0,0,1,352.23,216.9Z" transform="translate(-128.28 24.14)"/><path id="breatheman-nose" d="M324.42,253.84a1.64,1.64,0,0,1-.65-.13l-10.62-4.56a1.64,1.64,0,0,1-.8-2.28L321.46,230a1.64,1.64,0,1,1,2.88,1.56l-8.25,15.27,9,3.84a1.64,1.64,0,0,1-.64,3.15Z" transform="translate(-128.28 24.14)"/><path id="breatheman-hair" d="M374.16,135.55a77.58,77.58,0,0,0-5,11.85c-1.86,5.35,5.28,10.34,10.06,16.78-1.16,4.29-2.11,10.82-2.11,20.72v48.77c0,7.73-.54,15.45-4.21,21.22-2.69,3.64-6.06,6.46-10.3,7.6-2.46-1.68-17.51-13.49-38,.05a.67.67,0,0,1-.18.07.62.62,0,0,1-.19-.07c-21-12.15-38-.09-38.43.28a17.67,17.67,0,0,1-10.6-6.32c-4.71-5.89-5.36-14.35-5.36-22.83V184.9c0-25.08-6.14-28.6-6.14-28.6s33.4,16.86,66.95,16.86,40.78-40.78,40.78-40.78c10.58-53.27-122.9-13.52-122.9,12.79s-.22,76.4-.22,76.4c0-19.9,15.39,0,15.39,0l.13,1.52c-.09-1-.13-1.52-.13-1.52,1.12,98.32,22,104.73,59.71,104.73,37.44,0,58.34-14,59.67-102.94l.15-1.79h0c.12-.17,15.56-22.56,15.24-3.26V165.92C398.47,150.23,377.35,129.47,374.16,135.55Z" transform="translate(-128.28 24.14)"/><path id="breatheman-mouth" d="M324.18,290.68c-14.8,0-22.73-17.66-23.06-18.11a2.09,2.09,0,0,1,3.36-2.48c.1.13,7.1,5.69,19.7,5.69s18.92-5.27,19.18-5.64a2.09,2.09,0,0,1,3.44,2.38C346.49,273,339,290.68,324.18,290.68Z" transform="translate(-128.28 24.14)" style="fill:#fff"/><path id="brow-l" d="M283.27,201.09a1.64,1.64,0,0,1-.52-3.19l22.12-7.38a1.64,1.64,0,0,1,1,3.11L283.79,201A1.93,1.93,0,0,1,283.27,201.09Z" transform="translate(-128.28 24.14)"/><path id="brow-r" d="M362.53,201.09A1.81,1.81,0,0,1,362,201l-22.13-7.38a1.64,1.64,0,0,1,1-3.11l22.12,7.38a1.64,1.64,0,0,1-.52,3.19Z" transform="translate(-128.28 24.14)"/></g></g><g id="middle"><path id="mid-hand-l" d="M243.81,69.15a17.94,17.94,0,0,1,5.8-9.64h0a17.57,17.57,0,0,1,4.46-2.8L274,44.22a41.52,41.52,0,0,1,26-9.13h24.76a5.22,5.22,0,0,1,.43,10.42l-12.34-.37c-6-.3-2.71,10.9-6.34,15.56l26,9.42,41.37-5.94a11.29,11.29,0,0,1,12.88,10.46,5.14,5.14,0,0,1-3.52,5.21L333,96.42a13.84,13.84,0,0,1-9.21,1.15l-40.28-8.89c-5.84-1.29-17-.55-18.26,5.3l-25.67,32L207,120.8Z" transform="translate(-128.28 24.14)" style="fill:#fff"/><path id="mid-arm-l" d="M198.19,434.24l-68.29-199a29.85,29.85,0,0,1,4.34-27.58l86.08-115a5.86,5.86,0,0,1,6.62-4.41l36.7,5.8a5.86,5.86,0,0,1,4.87,6.79l-63.5,106a25.18,25.18,0,0,0-2.58,20c5.49,18.86,16.51,57.08,17.63,64l12.58,7.82a111.29,111.29,0,0,1,27.36,24l14.42,17.6,16.26,69.81a46.73,46.73,0,0,1-32.44,55.46h0A49,49,0,0,1,198.19,434.24Z" transform="translate(-128.28 24.14)" style="fill:#ff9b7a"/><path id="mid-hand-r" d="M403,69.15a17.94,17.94,0,0,0-5.8-9.64h0a17.81,17.81,0,0,0-4.47-2.8L372.81,44.22a41.52,41.52,0,0,0-26-9.13H322.07a5.22,5.22,0,0,0-.43,10.42L334,45.14c6-.3,2.71,10.9,6.34,15.56l-26,9.42-41.37-5.94a11.29,11.29,0,0,0-12.88,10.46,5.13,5.13,0,0,0,3.53,5.21l50.28,16.57a13.84,13.84,0,0,0,9.21,1.15l40.28-8.89c5.84-1.29,17-.55,18.26,5.3l25.67,32,32.5-5.16Z" transform="translate(-128.28 24.14)" style="fill:#fff"/><path id="mid-arm-r" d="M448.62,434.24l68.29-199a29.85,29.85,0,0,0-4.34-27.58l-86.08-115a5.86,5.86,0,0,0-6.62-4.41L383.17,94a5.88,5.88,0,0,0-4.87,6.79l63.5,106a25.14,25.14,0,0,1,2.58,20c-5.49,18.86-16.51,57.08-17.63,64l-12.58,7.82a111.29,111.29,0,0,0-27.36,24l-14.42,17.6-16.26,69.81a46.74,46.74,0,0,0,32.44,55.46h0A49,49,0,0,0,448.62,434.24Z" transform="translate(-128.28 24.14)" style="fill:#ff9b7a"/></g><g id="up"><g id="up-armhand-l"><path id="up-hand-l" d="M232.08,9.92a17.9,17.9,0,0,1,5.8-9.64h0a18.1,18.1,0,0,1,4.47-2.8L262.27-15a41.52,41.52,0,0,1,26-9.13H313a5.22,5.22,0,0,1,5,3.64,5.22,5.22,0,0,1-4.54,6.78l-12.34-.37c-6-.31-2.71,10.9-6.34,15.55l26,9.43,41.37-5.95A11.3,11.3,0,0,1,375,15.41a5.14,5.14,0,0,1-3.53,5.21L321.22,37.19A13.91,13.91,0,0,1,312,38.34l-40.28-8.9a10.76,10.76,0,0,0-12.85,8.29l-7.41,35.19L219,67.75Z" transform="translate(-128.28 24.14)" style="fill:#fff"/><path id="up-arm-l" d="M261.33,474.17a54.37,54.37,0,0,1-58-42.81c-15.15-71-42.2-197.92-43.48-204.83-1.79-9.63,1.36-15.33,4.33-27.59S210.47,58.13,210.47,58.13a5.89,5.89,0,0,1,6.63-4.41l36.7,5.81a5.87,5.87,0,0,1,4.87,6.79L228.49,195.77c-1,9.15.26,11.66.8,21.13,1.1,19.61,9,58.93,9,58.93l4,14.85s11.62,12.13,18.31,19.78,13.86,29.66,13.86,29.66l26.91,69.82a47.38,47.38,0,0,1-40,64.23Z" transform="translate(-128.28 24.14)" style="fill:#ff9b7a"/></g><g id="up-armhand-r"><path id="up-hand-r" d="M420,9.92A17.91,17.91,0,0,0,414.23.28h0a18.1,18.1,0,0,0-4.47-2.8L389.85-15a41.57,41.57,0,0,0-26-9.13H339.1a5.22,5.22,0,0,0-5,3.64,5.22,5.22,0,0,0,4.54,6.78L351-14.09c6-.31,2.7,10.9,6.33,15.55l-26,9.43L290,4.94a11.3,11.3,0,0,0-12.88,10.47,5.16,5.16,0,0,0,3.53,5.21l50.28,16.57a13.91,13.91,0,0,0,9.21,1.15l40.28-8.9a10.75,10.75,0,0,1,12.85,8.29l7.41,35.19,32.49-5.17Z" transform="translate(-128.28 24.14)" style="fill:#fff"/><path id="up-arm-r" d="M385.48,474.17a54.36,54.36,0,0,0,58-42.81c15.15-71,42.2-197.92,43.49-204.83,1.78-9.63-1.37-15.33-4.34-27.59s-41-140.81-41-140.81A5.87,5.87,0,0,0,435,53.72l-36.7,5.81a5.86,5.86,0,0,0-4.87,6.79l24.87,129.45c1,9.15-.26,11.66-.79,21.13-1.11,19.61-9,58.93-9,58.93l-4,14.85s-11.62,12.13-18.31,19.78-13.86,29.66-13.86,29.66l-26.91,69.82a47.38,47.38,0,0,0,40,64.23Z" transform="translate(-128.28 24.14)" style="fill:#ff9b7a"/></g></g><g id="front"><g id="front-armhand-l"><path id="front-hand-l" d="M355.7,397.3a5.49,5.49,0,0,0-6.77-3.18L291,411.71h0l-43,10.6a33.23,33.23,0,0,0-25.21,34.28,34,34,0,0,0,13.27,24.6l22.36,17.39,58.9,7.29a3.85,3.85,0,0,0,4.41-3.76,8.28,8.28,0,0,0-5.15-7.81l-15.22-5.74-1.82-2a5.34,5.34,0,0,1,4.13-8.94L352,479.28l13.21-15.68A23.61,23.61,0,0,0,366.61,435l-15.89-23.18-12.26-.6,14.62-7.33A5.34,5.34,0,0,0,355.7,397.3Z" transform="translate(-128.28 24.14)" style="fill:#fff"/><path id="front-arm-l" d="M286.94,406.09c0,19.15-34.79,13.59-48.56,29.32-30.47,34.8,20.06,56.31,0,56.31-39.22,0-79.07-28.39-79.07-67.61a71,71,0,0,1,71-71C260.37,353.1,286.94,366.87,286.94,406.09Z" transform="translate(-128.28 24.14)" style="fill:#ff9b7a"/></g><g id="front-armhand-r"><path id="front-hand-r" d="M399.82,422.31l-43-10.6h0L299,394.12a5.49,5.49,0,0,0-6.77,3.18,5.35,5.35,0,0,0,2.61,6.63l14.63,7.33-12.26.6-14.64,29.41a17.55,17.55,0,0,0,.66,16.82l12.72,21.19,48.25-1.65a5.34,5.34,0,0,1,4.13,8.94l-1.82,2-15.23,5.74a8.29,8.29,0,0,0-5.14,7.81,3.85,3.85,0,0,0,4.41,3.76l58.9-7.29,22.36-17.39A34,34,0,0,0,425,456.59,33.24,33.24,0,0,0,399.82,422.31Z" transform="translate(-128.28 24.14)" style="fill:#fff"/><path id="front-arm-r" d="M359.87,406.09c0,19.15,34.79,13.59,48.57,29.32,30.47,34.8-20.07,56.31,0,56.31,39.21,0,79.07-28.39,79.07-67.61a71,71,0,0,0-71-71C386.44,353.1,359.87,366.87,359.87,406.09Z" transform="translate(-128.28 24.14)" style="fill:#ff9b7a"/></g></g></g></svg>