<svg id="illu-seated-cat-cows" xmlns="http://www.w3.org/2000/svg" viewBox="0 0 224.86 332.65"><path id="chair" d="M150,306V295.89a12.15,12.15,0,0,0-12.14-12.14H41.41L13.88,135a1.84,1.84,0,0,0-1.81-1.51H6.85A1.84,1.84,0,0,0,5,135.6L23.71,283.75V306L14.87,424.5a1.4,1.4,0,0,0,1.39,1.5h6.13a1.39,1.39,0,0,0,1.38-1.19L39.71,317.46A13.43,13.43,0,0,1,53,306h67.75A13.43,13.43,0,0,1,134,317.46L150,424.81a1.41,1.41,0,0,0,1.39,1.19h6.13a1.4,1.4,0,0,0,1.39-1.5Z" transform="translate(-5 -93.35)" style="fill:#d3562c"/><g id="legs"><path d="M229.82,424.24c-.4-1.55-1.2-6.75-1.2-6.75S211,414.56,208.1,413.2l-29.58-13.73v-8.72L183,363.49l-25.15,0v27.2L152.27,418a6.71,6.71,0,0,0,6.58,8h7.36a24.28,24.28,0,0,0,6.51-.89l5.19-1.45a30.75,30.75,0,0,1,15-.37L205,426h23.49A1.41,1.41,0,0,0,229.82,424.24Z" transform="translate(-5 -93.35)" style="fill:#fff"/><path d="M103.41,227.53l75.11,14.78c11.35,2.39,20.72,9.28,20.72,20.72a66.87,66.87,0,0,1-.55,7.23L183,363.49l-25.15,0V283.75H61.33c-25-15.65-18-46.65-4.32-64.07Z" transform="translate(-5 -93.35)" style="fill:#231f20"/></g><g id="body"><g id="torso-group"><path id="torso-bottom-fixer" d="M61.61,205.8l10.78-19a14.91,14.91,0,0,1,8.75-7,30.55,30.55,0,0,1,16-.48A29.19,29.19,0,0,1,108,184.81a15,15,0,0,1,4.76,17.25l-6,15.43Z" transform="translate(-5 -93.35)" style="fill:#ff9b7a"/><path id="torso-straight" d="M106.75,217.49,61.61,205.8l4.06-12.57L54.46,111.64a16.07,16.07,0,0,1,28-12.79l0-.11s43.49,50.1,40.67,60.69c-2.68,10-3.83,14.74-3.83,14.74l0,.06,0,.15c-.1.46-.23.92-.37,1.38h0Z" transform="translate(-5 -93.35)" style="fill:#ff9b7a"/><path id="torso-stretched" d="M106.75,217.49,61.61,205.8l13.27-23.34L54.46,121.64a16.09,16.09,0,0,1,20.65-17.57c2.86.88,7.4,2.54,9.36,4.78l0-.11s47.44,38,44.62,48.56A102.08,102.08,0,0,1,124.24,172v.06l0,.15q-.15.69-.36,1.38h0Z" transform="translate(-5 -93.35)" style="fill:#ff9b7a"/><path id="torso-arched" d="M106.75,217.49,61.61,205.8s-6.24-16.69-9-42.18-2-40.84-2-40.84c-1.6-11.63,13.24-22.15,24.47-18.71,2.86.88,7.4,2.54,9.36,4.78l0-.11s30.37,32.93,27.54,43.52A102.16,102.16,0,0,1,107.16,167v.06l0,.15q-.15.7-.36,1.38h0Z" transform="translate(-5 -93.35)" style="fill:#ff9b7a"/><path id="torso-bottom" d="M106.75,217.49,61.61,205.8l-2.88,8.9A25,25,0,0,0,57.07,219a23.69,23.69,0,1,0,45.62,12.8,24,24,0,0,0,.55-2.42h.07Z" transform="translate(-5 -93.35)" style="fill:#231f20"/></g></g></svg>