<svg id="eye-movements" xmlns="http://www.w3.org/2000/svg" xmlns:xlink="http://www.w3.org/1999/xlink" viewBox="0 0 592.74 410.66">
  <defs>
    <clipPath id="clip-path" transform="translate(-24.16 -114.67)">
      <path id="clippingpath" d="M323.81,114.67c216.79,0,293.09,201.65,293.09,201.65-62.5,125.54-173.34,209-299.65,209-122,0-229.57-77.87-293.09-196.3C24.16,329,107,114.67,323.81,114.67Z" style="fill: none"/>
    </clipPath>
  </defs>
  <g id="clipgroup">
    <g style="clip-path: url(#clip-path)">
      <g id="eyeinclip">
        <path id="eyewhite" d="M323.81,114.67c216.79,0,293.09,201.65,293.09,201.65-62.5,125.54-173.34,209-299.65,209-122,0-229.57-77.87-293.09-196.3C24.16,329,107,114.67,323.81,114.67Z" transform="translate(-24.16 -114.67)" style="fill: #fff"/>
        <g id="retina">
          <circle cx="296.37" cy="205.33" r="111.39" style="fill: #ff9b7a"/>
          <circle cx="296.37" cy="205.33" r="50.87"/>
        </g>
      </g>
    </g>
  </g>
</svg>
