<svg id="gaze-change" xmlns="http://www.w3.org/2000/svg" viewBox="0 0 640 778.34">
  <text id="nothing-to-see" transform="translate(89.8 379.19)" style="font-size: 87.99292755126953px;font-family: HeroNew-Bold, Hero New;font-weight: 700;letter-spacing: -0.021996618692703952em">N<tspan x="68.9" y="0" style="letter-spacing: -0.026990805580552984em">o</tspan><tspan x="124.07" y="0" style="letter-spacing: -0.020004493034106396em">thing</tspan><tspan x="351.09" y="0" style="letter-spacing: -0.025991968202983176em"> </tspan><tspan x="370.71" y="0">t</tspan><tspan x="407.49" y="0" style="letter-spacing: -0.01999894393756434em">o </tspan><tspan style="letter-spacing: -0.01999894393756434em"><tspan x="40.17" y="101.19">see he</tspan><tspan x="313.47" y="101.19" style="letter-spacing: -0.03298382984597182em">r</tspan><tspan x="347.52" y="101.19">e!</tspan></tspan></text>
  <text id="look-elsewhere" transform="translate(140.68 561.01)" style="font-size: 45.99292755126953px;fill: #ff9b7a;font-family: HeroNew-Regular, Hero New"><tspan style="letter-spacing: -0.01799486927261613em">L</tspan><tspan x="24.28" y="0">oo</tspan><tspan x="82.88" y="0" style="letter-spacing: -0.01198596307302868em">k</tspan><tspan x="107.53" y="0" xml:space="preserve"> els</tspan><tspan x="182.13" y="0" style="letter-spacing: -0.015988361725404066em">e</tspan><tspan x="208.62" y="0">whe</tspan><tspan x="303.05" y="0" style="letter-spacing: -0.01900343126724654em">r</tspan><tspan x="319.46" y="0">e!</tspan></text>
  <path id="arrow" d="M305.4,181.62S198.66,68.35,106.32,86.82l3.16,27.6-50-45.36,48.58-44.14L103.9,51.48S233.4,46.46,305.4,181.62Z" transform="translate(2.32 -24.92)" style="fill: #ff9b7a"/>
  <g id="eye">
    <path d="M321.64,190.58c75.52,0,102.1,55.76,102.1,55.76a123.16,123.16,0,0,1-206.48,3.52S246.13,190.58,321.64,190.58Z" transform="translate(2.32 -24.92)" style="fill: #fff"/>
    <circle cx="322.82" cy="222.45" r="38.8" style="fill: #ff9b7a"/>
    <circle cx="322.82" cy="222.45" r="17.72"/>
  </g>
</svg>
