<svg xmlns="http://www.w3.org/2000/svg" width="188.398" height="187.084" viewBox="0 0 188.398 187.084"><g transform="translate(-188 -292)"><g transform="translate(187.867 291.922)"><g transform="translate(0.133 0.078)" fill="#cbe3ef" stroke="#000" stroke-width="7"><ellipse cx="79" cy="79.5" rx="79" ry="79.5" stroke="none"/><ellipse cx="79" cy="79.5" rx="75.5" ry="76" fill="none"/></g><line x2="43.189" y2="43.189" transform="translate(137.564 136.195)" fill="none" stroke="#000" stroke-linecap="round" stroke-width="11"/></g><g transform="translate(-195.399 240.725)"><g transform="translate(428 135.967)"><path d="M34.093,525.3,0,536.667l2.232,20.9s2.029,12.988,31.861,12.988,31.861-12.988,31.861-12.988l2.232-20.9Z" transform="translate(0 -525.302)" fill="#ff9b7a"/></g><g transform="translate(454.413 122.953)"><g transform="translate(0)"><circle cx="7.467" cy="7.467" r="7.467" transform="translate(0 13.014)" fill="#fff"/><rect width="14.934" height="20.482" fill="#fff"/></g></g><g transform="translate(442.506 80)"><path d="M140.663,269.88c-.234-3.346-.263-3.924-.416-9.279,0,0-3.705-4.788-3.958-.486C136.7,265.972,137.753,269.88,140.663,269.88Z" transform="translate(-136.275 -230.799)" fill="#fff"/><path d="M462.208,254.837c.083-4.979-3.9.8-3.931.842v0l-.039.461c-.163,4.865-.2,5.435-.507,9.207C462.209,265.862,462.208,254.837,462.208,254.837Z" transform="translate(-423.47 -225.88)" fill="#fff"/><path d="M201.931,64.578q-.344-.42-.7-.817c0,.01-1.868,10.52-10.52,10.52s-17.271-4.349-17.271-4.349,1.582.908,1.582,7.378V89.892c0,2.186.168,4.37,1.384,5.891a4.556,4.556,0,0,0,2.733,1.628,9.268,9.268,0,0,1,9.916-.071.3.3,0,0,0,.048.018.221.221,0,0,0,.048-.018c5.283-3.494,9.166-.446,9.8-.013a4.934,4.934,0,0,0,2.658-1.961,10.294,10.294,0,0,0,1.085-5.474V77.31a20.938,20.938,0,0,1,.546-5.347c-1.234-1.661-3.075-2.947-2.6-4.327A20,20,0,0,1,201.931,64.578Z" transform="translate(-169.465 -56.968)" fill="#fff"/><path d="M223.045,270.155a5.412,5.412,0,0,1-3.088-.975.423.423,0,0,1,.517-.669,4.534,4.534,0,0,0,5.143,0,.423.423,0,0,1,.516.67A5.408,5.408,0,0,1,223.045,270.155Z" transform="translate(-210.882 -239.824)"/><path d="M360.531,270.156a5.407,5.407,0,0,1-3.087-.975.423.423,0,0,1,.517-.669,4.534,4.534,0,0,0,5.142,0,.423.423,0,0,1,.516.67A5.407,5.407,0,0,1,360.531,270.156Z" transform="translate(-333.72 -239.825)"/><path d="M293.917,304.475a.423.423,0,0,1-.166-.034l-2.741-1.175a.423.423,0,0,1-.205-.59l2.349-4.345a.423.423,0,0,1,.744.4l-2.129,3.938,2.316.992a.423.423,0,0,1-.167.811Z" transform="translate(-274.282 -266.348)"/><path d="M168.621,7.611a19.975,19.975,0,0,0-1.292,3.058c-.479,1.38,1.361,2.665,2.6,4.327a20.939,20.939,0,0,0-.546,5.347V32.924a10.294,10.294,0,0,1-1.085,5.474,4.934,4.934,0,0,1-2.658,1.961c-.633-.433-4.517-3.481-9.8.013a.22.22,0,0,1-.048.018.3.3,0,0,1-.048-.018,9.268,9.268,0,0,0-9.916.071,4.556,4.556,0,0,1-2.733-1.628c-1.216-1.521-1.384-3.7-1.384-5.891V20.343c0-6.47-1.582-7.378-1.582-7.378s8.615,4.349,17.271,4.349,10.52-10.52,10.52-10.52c2.731-13.742-31.707-3.487-31.707,3.3s-.056,19.71-.056,19.71c0-5.136,3.972,0,3.972,0l.033.393c-.024-.249-.033-.393-.033-.393.288,25.365,5.677,27.018,15.4,27.018,9.66,0,15.052-3.607,15.395-26.557l.039-.461v0c.03-.043,4.014-5.822,3.931-.842V15.444C174.892,11.4,169.444,6.042,168.621,7.611Z" transform="translate(-136.154 0)"/><path d="M269.1,398.837a7.688,7.688,0,0,1-5.95-2.826.539.539,0,0,1,.866-.642,6.72,6.72,0,0,0,5.084,2.39,6.2,6.2,0,0,0,4.948-2.376.539.539,0,0,1,.886.614A7.293,7.293,0,0,1,269.1,398.837Z" transform="translate(-249.523 -353.05)" fill="#fff"/><g transform="translate(8.596 21.771)"><path d="M217.258,207.088a.423.423,0,0,1-.134-.824l5.707-1.9a.423.423,0,0,1,.267.8l-5.707,1.9A.426.426,0,0,1,217.258,207.088Z" transform="translate(-216.835 -204.34)"/><g transform="translate(14.742 0)"><path d="M361.336,207.089a.426.426,0,0,1-.134-.022l-5.707-1.9a.423.423,0,0,1,.268-.8l5.707,1.9a.423.423,0,0,1-.134.824Z" transform="translate(-355.206 -204.341)"/></g></g></g></g></g></svg>