<svg id="beauty" xmlns="http://www.w3.org/2000/svg" viewBox="0 0 518.56 518.56">
  <path id="six" d="M488,310.26c41.06-9.34,93.17-22.79,86.26-53.45s-59.75-20.47-100.84-11.31c34.35-24.34,77.35-56.7,59.24-82.39s-63,4-97.5,28.15c22.43-35.63,49.77-82,23.2-98.79s-56.72,27.78-79.3,63.31c7.08-41.5,14.6-94.79-16.37-100.14s-41.78,47.37-49,88.84c-9.33-41.06-22.78-93.17-53.45-86.26S239.76,118,248.93,159.06c-24.34-34.35-56.7-77.35-82.39-59.23s4,63,28.14,97.49c-35.63-22.43-82-49.77-98.78-23.2s27.77,56.72,63.31,79.3c-41.5-7.08-94.79-14.6-100.15,16.37s47.37,41.78,88.84,49c-41.05,9.34-93.16,22.78-86.25,53.45s59.75,20.47,100.84,11.3c-34.36,24.34-77.36,56.71-59.24,82.39s63-4,97.49-28.14c-22.42,35.63-49.76,82-23.2,98.78s56.73-27.77,79.31-63.31c-7.09,41.5-14.61,94.79,16.37,100.15s41.77-47.37,49-88.84c9.34,41,22.79,93.16,53.45,86.26S396.17,511.12,387,470c24.34,34.36,56.7,77.36,82.39,59.24s-3.95-63-28.15-97.49c35.63,22.42,82,49.76,98.79,23.2s-27.77-56.73-63.31-79.31c41.5,7.09,94.79,14.61,100.14-16.37S529.51,317.52,488,310.26ZM330.5,370.19c-4.71,1.06-8.26,6.12-10.78,13.77-2.9-7.51-6.71-12.39-11.47-13.21s-10,2.49-15.23,8.59c.19-8-1.46-14-5.54-16.59s-10.17-1.51-17.36,2.11c3.26-7.36,4-13.5,1.24-17.44s-8.83-5.3-16.85-4.7c5.82-5.55,8.88-10.94,7.82-15.64s-6.13-8.27-13.78-10.79c7.51-2.9,12.39-6.71,13.21-11.46s-2.49-10-8.59-15.24c8.05.2,14-1.45,16.59-5.53s1.51-10.18-2.11-17.37c7.36,3.27,13.5,4,17.45,1.24s5.29-8.82,4.69-16.85c5.55,5.83,10.94,8.88,15.65,7.82s8.26-6.13,10.78-13.77c2.9,7.51,6.71,12.39,11.46,13.21s10-2.5,15.24-8.6c-.2,8.05,1.45,14,5.53,16.6s10.18,1.51,17.37-2.12c-3.26,7.36-4,13.51-1.24,17.45s8.82,5.29,16.85,4.69c-5.83,5.56-8.88,10.94-7.82,15.65s6.13,8.27,13.77,10.78c-7.51,2.9-12.39,6.71-13.21,11.47s2.5,10,8.6,15.23c-8-.19-14,1.46-16.59,5.54s-1.52,10.17,2.11,17.36c-7.36-3.26-13.51-4-17.45-1.24S345.55,370,346.15,378C340.6,372.18,335.21,369.13,330.5,370.19Z" transform="translate(-58.69 -55.26)" style="fill: #ff9b7a"/>
  <path id="five" d="M550,314.54c0-27.75-47.5-29.22-84.68-29.3,34.32-14.3,77.64-33.84,67-59.48s-55.07-8.82-89.45,5.33c26.24-26.34,58.78-61,39.16-80.59s-54.26,12.91-80.6,39.15c14.16-34.38,31-78.82,5.33-89.45s-45.18,32.7-59.48,67c-.08-37.18-1.55-84.68-29.3-84.68s-29.23,47.5-29.31,84.68c-14.3-34.32-33.83-77.64-59.47-67s-8.83,55.07,5.33,89.45c-26.35-26.24-61-58.78-80.6-39.15s12.92,54.25,39.15,80.59c-34.37-14.15-78.82-31-89.44-5.33s32.7,45.18,67,59.48c-37.17.08-84.67,1.55-84.67,29.3s47.5,29.23,84.67,29.31c-34.31,14.3-77.63,33.83-67,59.47s55.07,8.83,89.44-5.32c-26.23,26.34-58.77,61-39.15,80.59s54.25-12.92,80.6-39.15c-14.16,34.37-31,78.82-5.33,89.44s45.17-32.7,59.47-67c.08,37.17,1.55,84.67,29.31,84.67s29.22-47.5,29.3-84.67c14.3,34.31,33.84,77.63,59.48,67s8.83-55.07-5.33-89.44c26.34,26.23,61,58.78,80.6,39.15S469.1,424.34,442.86,398c34.38,14.15,78.83,31,89.45,5.32s-32.7-45.17-67-59.47C502.47,343.77,550,342.3,550,314.54ZM318,364.91c-4.26,0-8.31,3.67-12,9.77-1-7-3.38-12-7.31-13.61s-9.09.22-14.8,4.45c1.73-6.89,1.47-12.35-1.54-15.37s-8.48-3.27-15.37-1.54c4.24-5.71,6.08-10.86,4.45-14.79s-6.57-6.27-13.61-7.32c6.1-3.65,9.78-7.7,9.78-12s-3.68-8.31-9.78-12c7-1,12-3.37,13.61-7.31s-.21-9.08-4.45-14.79c6.89,1.73,12.35,1.46,15.37-1.55s3.27-8.47,1.54-15.37c5.71,4.24,10.86,6.08,14.8,4.45s6.27-6.57,7.31-13.6c3.65,6.1,7.7,9.77,12,9.77s8.31-3.67,12-9.77c1,7,3.37,12,7.31,13.6s9.08-.21,14.79-4.45c-1.73,6.9-1.46,12.36,1.55,15.37s8.47,3.28,15.37,1.55c-4.24,5.71-6.08,10.85-4.45,14.79s6.57,6.27,13.6,7.31c-6.1,3.65-9.77,7.7-9.77,12s3.67,8.31,9.77,12c-7,1.05-12,3.38-13.6,7.32s.21,9.08,4.45,14.79c-6.9-1.73-12.36-1.47-15.37,1.54s-3.28,8.48-1.55,15.37c-5.71-4.23-10.85-6.08-14.79-4.45s-6.27,6.58-7.31,13.61C326.28,368.58,322.23,364.91,318,364.91Z" transform="translate(-58.69 -55.26)" style="fill: #ffc0ab"/>
  <path id="four" d="M454.26,311.11c32.91-7.49,74.67-18.26,69.14-42.84s-47.89-16.4-80.82-9.06c27.53-19.5,62-45.44,47.47-66s-50.52,3.17-78.13,22.56c18-28.56,39.88-65.71,18.59-79.17S385.05,158.83,367,187.31c5.68-33.27,11.71-76-13.12-80.26s-33.48,38-39.3,71.2c-7.48-32.91-18.26-74.67-42.83-69.13s-16.41,47.88-9.06,80.82c-19.51-27.54-45.45-62-66-47.48s3.16,50.52,22.55,78.14c-28.55-18-65.71-39.89-79.17-18.6s22.26,45.46,50.74,63.56c-33.26-5.68-76-11.71-80.26,13.12s38,33.48,71.2,39.3c-32.9,7.48-74.66,18.26-69.13,42.83s47.89,16.41,80.82,9.06c-27.53,19.51-62,45.45-47.48,66s50.52-3.16,78.14-22.55c-18,28.55-39.88,65.71-18.59,79.17s45.46-22.26,63.55-50.74c-5.67,33.26-11.7,76,13.12,80.26s33.49-38,39.3-71.2c7.49,32.9,18.26,74.67,42.84,69.13s16.4-47.89,9.06-80.82c19.5,27.53,45.44,62,66,47.48s-3.17-50.52-22.56-78.14c28.56,18,65.71,39.89,79.18,18.59s-22.26-45.46-50.75-63.55c33.27,5.68,76,11.7,80.27-13.12S487.5,316.93,454.26,311.11ZM328,359.14c-3.77.85-6.62,4.91-8.64,11-2.32-6-5.38-9.93-9.19-10.59s-8,2-12.21,6.89c.16-6.45-1.16-11.23-4.43-13.3s-8.16-1.21-13.92,1.69c2.61-5.9,3.22-10.82,1-14s-7.08-4.23-13.52-3.75c4.68-4.45,7.13-8.78,6.28-12.55s-4.91-6.63-11-8.65c6-2.32,9.93-5.37,10.58-9.18s-2-8-6.89-12.21c6.45.15,11.24-1.17,13.3-4.44s1.22-8.15-1.69-13.91c5.9,2.61,10.82,3.22,14,1s4.23-7.09,3.75-13.52c4.45,4.68,8.78,7.13,12.55,6.28s6.63-4.91,8.65-11c2.32,6,5.37,9.93,9.18,10.59s8-2,12.21-6.89c-.15,6.45,1.17,11.23,4.44,13.3s8.15,1.21,13.92-1.7c-2.62,5.9-3.22,10.83-1,14s7.09,4.22,13.52,3.74c-4.68,4.46-7.13,8.78-6.28,12.56s4.91,6.62,11,8.64c-6,2.33-9.93,5.38-10.59,9.19s2,8,6.89,12.21c-6.45-.16-11.23,1.16-13.3,4.43s-1.21,8.16,1.7,13.92c-5.9-2.61-10.83-3.22-14-1s-4.22,7.08-3.74,13.52C336.11,360.74,331.79,358.29,328,359.14Z" transform="translate(-58.69 -55.26)" style="fill: #ffe8e0"/>
  <path id="three" d="M490.9,312.85c0-19.5-29.52-22.66-56.77-23.18,24.79-10.87,50.36-25,43-42.87s-35.95-9.64-61.32.31c18.74-19.52,37-42.37,23.28-56s-36.9,4.85-56.53,23.75c9.84-25.21,17.93-53.29.06-60.69s-32.23,18.6-43.14,43.58c-.55-27.06-3.83-56.09-23.16-56.09-19.5,0-22.67,29.51-23.18,56.76-10.87-24.79-25-50.35-42.87-42.95-18,7.46-9.64,35.94.31,61.31-19.53-18.74-42.37-37-56-23.28s4.85,36.9,23.76,56.53c-25.22-9.84-53.29-17.93-60.69-.06s18.59,32.23,43.57,43.14c-27.06.55-56.09,3.83-56.09,23.16,0,19.5,29.52,22.67,56.77,23.18-24.79,10.87-50.36,25-43,42.87,7.46,18,35.94,9.64,61.32-.31-18.75,19.53-37,42.37-23.28,56s36.9-4.85,56.53-23.76c-9.84,25.22-17.93,53.29-.07,60.69,18,7.47,32.24-18.59,43.14-43.57.56,27.06,3.83,56.09,23.17,56.09,19.5,0,22.66-29.51,23.18-56.77,10.87,24.79,25,50.36,42.87,43s9.64-35.94-.31-61.32c19.52,18.75,42.37,37,56,23.29s-4.84-36.9-23.75-56.54c25.21,9.85,53.29,17.93,60.69.07,7.46-18-18.6-32.24-43.58-43.14C461.87,335.46,490.9,332.19,490.9,312.85ZM313,347c-1-2.64-2.48-4.5-4.44-5.31-2.14-.89-4.73-.48-7.6.94.07-2.83-.56-5.11-2.06-6.61s-4.19-2.24-7.38-2c1.15-2.6,1.43-4.94.62-6.91-.89-2.13-3-3.67-6-4.69,2-2,3.21-4,3.21-6.15,0-2.31-1.37-4.55-3.78-6.66,2.64-1,4.5-2.47,5.32-4.43.88-2.14.47-4.73-1-7.6,2.83.06,5.11-.56,6.61-2.07s2.24-4.18,2-7.37c2.59,1.15,4.94,1.43,6.9.61,2.14-.88,3.67-3,4.7-6,1.95,2.06,4,3.22,6.14,3.22,2.31,0,4.55-1.37,6.66-3.79,1,2.64,2.47,4.51,4.43,5.32,2.14.89,4.73.48,7.61-.95-.07,2.84.56,5.11,2.06,6.61s4.18,2.24,7.37,2c-1.15,2.6-1.43,4.94-.61,6.9.88,2.14,3,3.67,6,4.7-2.06,2-3.21,4-3.21,6.14,0,2.32,1.37,4.55,3.78,6.66-2.64,1-4.51,2.48-5.32,4.44-.89,2.14-.47,4.73,1,7.6-2.83-.07-5.11.56-6.61,2.06s-2.24,4.19-2,7.38c-2.59-1.15-4.94-1.43-6.9-.62-2.14.89-3.67,3-4.7,6-2-2.05-4-3.21-6.14-3.21C317.34,343.2,315.11,344.57,313,347Z" transform="translate(-58.69 -55.26)" style="fill: #fff"/>
  <path id="two" d="M400,312.48c19.8-4.5,44.92-11,41.59-25.77s-28.81-9.87-48.62-5.45c16.57-11.73,37.3-27.34,28.56-39.72s-30.39,1.91-47,13.57c10.81-17.18,24-39.53,11.19-47.63S358.32,220.87,347.43,238c3.42-20,7.05-45.7-7.89-48.28s-20.14,22.83-23.64,42.83c-4.5-19.8-11-44.92-25.77-41.59s-9.86,28.81-5.45,48.62C273,223,257.35,202.29,245,211s1.91,30.39,13.57,47c-17.17-10.81-39.52-24-47.62-11.19s13.39,27.35,30.52,38.24c-20-3.42-45.7-7-48.28,7.89S216,313.11,236,316.61c-19.79,4.5-44.91,11-41.58,25.77s28.8,9.86,48.61,5.45c-16.56,11.73-37.29,27.33-28.56,39.72s30.39-1.91,47-13.57c-10.82,17.18-24,39.52-11.19,47.62s27.35-13.39,38.23-30.52c-3.41,20-7,45.7,7.89,48.28s20.14-22.84,23.64-42.83c4.51,19.79,11,44.92,25.77,41.59s9.87-28.81,5.45-48.62C363,406.06,378.59,426.79,391,418.06s-1.9-30.39-13.57-47c17.18,10.82,39.53,24,47.63,11.19S411.64,354.89,394.5,344c20,3.41,45.7,7,48.29-7.89S420,316,400,312.48ZM324,341.37c-2.27.51-4,3-5.2,6.66-1.4-3.63-3.23-6-5.53-6.39s-4.81,1.22-7.35,4.16c.1-3.88-.69-6.77-2.66-8s-4.92-.71-8.39,1c1.58-3.55,2-6.53.62-8.43s-4.27-2.54-8.15-2.25c2.82-2.68,4.3-5.28,3.79-7.56s-3-4-6.66-5.19c3.63-1.4,6-3.24,6.39-5.53s-1.22-4.82-4.16-7.35c3.88.09,6.77-.69,8-2.66s.71-4.92-1-8.39c3.56,1.58,6.53,2,8.43.61s2.54-4.27,2.25-8.14c2.68,2.81,5.28,4.3,7.56,3.79s4-3,5.19-6.67c1.4,3.63,3.24,6,5.53,6.4s4.82-1.22,7.35-4.17c-.09,3.89.7,6.78,2.66,8s4.92.72,8.39-1c-1.57,3.55-1.95,6.52-.61,8.43s4.27,2.54,8.14,2.25c-2.81,2.68-4.3,5.28-3.79,7.55s3,4,6.67,5.2c-3.63,1.4-6,3.23-6.4,5.53s1.22,4.81,4.17,7.35c-3.89-.1-6.78.69-8,2.66s-.72,4.92,1,8.39c-3.55-1.58-6.52-2-8.42-.62s-2.55,4.27-2.26,8.15C328.88,342.34,326.28,340.86,324,341.37Z" transform="translate(-58.69 -55.26)" style="fill: #ffe8e0"/>
  <path id="one" d="M407.64,314.54c0-10.73-18.36-11.29-32.73-11.32,13.26-5.53,30-13.08,25.9-23s-21.28-3.41-34.57,2.06c10.14-10.18,22.72-23.57,15.13-31.15s-21,5-31.15,15.13c5.47-13.29,12-30.47,2.06-34.57s-17.46,12.64-23,25.9c0-14.37-.59-32.73-11.32-32.73s-11.3,18.36-11.33,32.73c-5.53-13.26-13.08-30-23-25.9s-3.41,21.28,2.06,34.57c-10.18-10.14-23.56-22.72-31.15-15.13s5,21,15.14,31.15c-13.29-5.47-30.47-12-34.58-2.06s12.64,17.46,25.91,23c-14.37,0-32.73.59-32.73,11.32s18.36,11.3,32.73,11.33c-13.27,5.53-30,13.08-25.91,23s21.29,3.41,34.58-2.06C259.56,357,247,370.36,254.56,378s21-5,31.15-15.13c-5.47,13.28-12,30.46-2.06,34.57s17.46-12.64,23-25.91c0,14.37.6,32.73,11.33,32.73s11.29-18.36,11.32-32.73c5.53,13.27,13.08,30,23,25.91s3.41-21.29-2.06-34.57C360.41,373,373.79,385.54,381.37,378s-5-21-15.13-31.15c13.29,5.47,30.47,12,34.57,2.06s-12.64-17.46-25.9-23C389.28,325.84,407.64,325.27,407.64,314.54ZM318,334c-1.65,0-3.22,1.43-4.63,3.79-.4-2.72-1.3-4.64-2.82-5.27s-3.52.09-5.73,1.73c.67-2.67.58-4.79-.59-5.95s-3.28-1.26-5.95-.59c1.64-2.21,2.37-4.2,1.73-5.73s-2.55-2.42-5.27-2.82c2.36-1.41,3.79-3,3.79-4.63s-1.43-3.21-3.79-4.62c2.72-.41,4.64-1.3,5.27-2.83s-.09-3.51-1.73-5.72c2.67.67,4.79.57,5.95-.59s1.26-3.29.59-6c2.21,1.65,4.21,2.37,5.73,1.74s2.42-2.55,2.82-5.28c1.41,2.37,3,3.8,4.63,3.8s3.21-1.43,4.62-3.8c.41,2.73,1.3,4.65,2.83,5.28s3.51-.09,5.72-1.74c-.67,2.67-.57,4.79.59,6s3.29,1.26,6,.59c-1.65,2.21-2.37,4.2-1.74,5.72s2.55,2.42,5.28,2.83c-2.36,1.41-3.8,3-3.8,4.62s1.44,3.22,3.8,4.63c-2.73.4-4.65,1.3-5.28,2.82s.09,3.52,1.74,5.73c-2.67-.67-4.79-.58-6,.59s-1.26,3.28-.59,5.95c-2.21-1.64-4.2-2.36-5.72-1.73s-2.42,2.55-2.83,5.27C321.18,335.44,319.62,334,318,334Z" transform="translate(-58.69 -55.26)" style="fill: #ffc0ab"/>
  <path id="center" d="M358.61,313.52c9.81-2.23,22.27-5.45,20.61-12.77s-14.27-4.9-24.1-2.71c8.22-5.81,18.49-13.55,14.16-19.69s-15.06.95-23.3,6.73c5.36-8.52,11.9-19.59,5.55-23.61s-13.56,6.64-19,15.13c1.7-9.92,3.5-22.65-3.91-23.93s-10,11.32-11.72,21.23c-2.23-9.81-5.44-22.26-12.77-20.61s-4.89,14.28-2.7,24.1c-5.82-8.21-13.55-18.49-19.69-14.16s.94,15.06,6.73,23.3c-8.52-5.36-19.6-11.9-23.61-5.55s6.63,13.56,15.13,19c-9.92-1.7-22.66-3.49-23.94,3.91s11.32,10,21.24,11.72c-9.82,2.23-22.27,5.44-20.62,12.77s14.28,4.89,24.1,2.7c-8.21,5.82-18.49,13.55-14.16,19.69s15.07-.94,23.3-6.73c-5.36,8.52-11.89,19.6-5.54,23.61S298,361,303.36,352.48c-1.69,9.92-3.49,22.66,3.91,23.94s10-11.32,11.72-21.24c2.23,9.82,5.45,22.27,12.78,20.62s4.89-14.28,2.7-24.1c5.81,8.21,13.55,18.49,19.69,14.16s-1-15.07-6.73-23.3C356,347.92,367,354.45,371,348.1s-6.64-13.55-15.13-19c9.92,1.69,22.65,3.49,23.93-3.91S368.52,315.25,358.61,313.52ZM318,332.9a18.36,18.36,0,1,1,18.36-18.36A18.36,18.36,0,0,1,318,332.9Z" transform="translate(-58.69 -55.26)" style="fill: #ff9b7a"/>
</svg>
