<svg version="1.1" id="move-body-map" xmlns="http://www.w3.org/2000/svg" xmlns:xlink="http://www.w3.org/1999/xlink" x="0px"
	 y="0px" viewBox="0 0 292.6 496.5" style="enable-background:new 0 0 292.6 496.5;" xml:space="preserve">
<style type="text/css">
	.move-map-st0{fill:#E5947F;}
	.move-map-st1{fill:#FFFFFF;}
	.move-map-st2{fill:#E5947F;stroke:#E5947F;stroke-width:1.16;stroke-linecap:round;stroke-linejoin:round;}
</style>
<g id="hands">
	<path class="hand move-map-st1" d="M17.3,213.1L4,230l2.9,2.8l10.9-13l-11.6,14l2.4,2.4l12.2-12.7L10,234.6l2.8,2.6l11.9-10.8l-10.4,9.5l2.9,2.3
		l10.4-8.4c0,0,9.1-6.8,9.1-17.2l19.7-19.2l-8.3-9.2l-19,22h-11l-12,6l1.2,3.6l8.4-3.6c0,0,6,7.2,14.4,0"/>
	<path class="hand move-map-st1" d="M262.5,212.2c8.4,7.2,14.4,0,14.4,0l8.4,3.6l1.2-3.6l-12-6h-10.8l-19-22l-8.3,9.2l19.6,19.1
		c0,10.4,9.1,17.2,9.1,17.2l10.4,8.4l2.9-2.3l-10.4-9.5l11.9,10.8l2.8-2.6l-10.8-11.3l12.2,12.7l2.4-2.4l-11.6-14l10.9,13l2.9-2.8
		l-13.3-16.9"/>
</g>
<path id="body" class="move-map-st0" d="M215.6,147.5l-16.1-36.7c-5.9-13.2-11.7-26.4-22-29.4l-1-0.3c-2.7,5.1-30,31.7-30,31.7l0,0l0,0
		c0,0-27.3-26.6-30-31.7l-1,0.3c-10.3,2.9-16.2,16.1-22,29.4l-16.1,36.7L48,184.2l11.8,13.2l41-39.6l8.8-19.1c0,0,5,28,4.4,36.8
		s-6.2,16.6-9.9,33.4c-4.7,21.3-2.4,33.1-2.4,33.1h45.4l0,0h44.1c0,0,2.3-11.8-2.4-33.1c-3.7-16.8-9.3-24.6-9.9-33.4
		c-0.6-8.8,4.4-36.8,4.4-36.8l8.8,19.1l41.1,39.6l11.8-13.2L215.6,147.5z"/>

<path id="legs" d="M147.1,242L147.1,242h-44.4c0,1,0,2,0,3c0,19.2,22.3,199.2,22.3,199.2l12.9-0.8l8.4-183.1h1.2l6.9,183.1
		l13.5,0.8c0,0,22.1-180.8,22.1-199.2c0-1,0-2.1,0-3L147.1,242L147.1,242z"/>
<g id="feet">
	<path d="M139.6,468.2c-0.6-3-1-5.9-1.2-8.9c-0.2,10.2,1.1,13.1,1,16.4c-0.1,3.4-5.4,6.6-11,6.5c-1.2,0-7.9-0.3-7.6-4.9
		s1.6-18,1.6-18l-4.1,19.6c0,0-4.5,13.5,6.3,14.5s18.6-2.7,18.9-11.6C143.4,477.1,140.4,473.6,139.6,468.2z"/>
	<path d="M153.3,468.2c0.6-3,1-5.9,1.2-8.9c0.2,10.2-1.1,13.1-1,16.4c0.1,3.4,5.5,6.6,11,6.5c1.1,0,7.9-0.3,7.6-4.9s-1.6-18-1.6-18
		l4.1,19.6c0,0,4.6,13.5-6.2,14.5s-18.6-2.7-18.9-11.6C149.5,477.1,152.5,473.6,153.3,468.2z"/>
	<g>
		<path class="move-map-st1" d="M137.9,443.5L137.9,443.5l-12.9,0.8c0,0,0-0.3-0.1-0.7l0.1,0.7c-0.1,1-3.1,17.4-3.3,18
			c-1.6,20.6-2.7,23.9,7.2,24.1c4.3,0.1,9.6-2.8,10.8-6.3c1-5.4-1.3-17.4-1.3-17.4L137.9,443.5z"/>
		<path class="move-map-st1" d="M121.7,462.3L121.7,462.3L121.7,462.3z"/>
	</g>
	<g>
		<path class="move-map-st1" d="M167.9,444.3L167.9,444.3l-12.9-0.8l-0.6,19.1c0,0-2.3,12-1.3,17.4c1.2,3.5,6.5,6.4,10.8,6.3
			c9.9-0.2,8.8-3.5,7.2-24.1C171,461.7,168,445.3,167.9,444.3z"/>
		<path class="move-map-st1" d="M171.1,462.3L171.1,462.3L171.1,462.3z"/>
	</g>
</g>
<g id="head">
	<path class="move-map-st1" d="M146.4,112.8c0,0,27.3-26.5,30-31.6c-7.3-2-19.7-4.3-19.7-8.6c0-3.1-0.3-14.8-0.3-14.8h-20.1
		c0,0-0.3,11.8-0.3,14.8c0,4.2-12.2,6.5-19.6,8.5C119.1,86.2,146.4,112.8,146.4,112.8z"/>
	<path class="move-map-st1" d="M157.7,19.2C153.2,27,140,27.1,133.2,30c-3.6,1.5-6.3,4.7-7.2,8.6c1.3,28.4,20.9,31.1,20.9,31.1
		s20.4-2.7,21-30.7C166.3,31.5,162.8,24.7,157.7,19.2z"/>
	<circle class="move-map-st1" cx="146.9" cy="36.9" r="20.9"/>
	<path d="M164.6,9.1C157.8,3.3,151,2.3,142.7,3c-5.2,0.4-17,5.9-21.8,14.4c-6.8,12.1-9.8,46.8-9.8,50.5c0,3.2,14.8,20.7,21.8,18.8
		c9.6-2.6,7.5-15.8,3.3-22.5c-3-4.8-6.4-8.8-8.1-14.3c-2.1-7,0.1-16.9,3.1-24.2c2.9,2.7,8.3,5.2,12.7,6.3c4.7,1.2,16,2.4,18.9,7.6
		s-2.6,19.9-6.2,25.7s-7.4,16.9-0.2,21.2c6.8,4.1,24.1-14.5,24.1-19.1c0-2.6-0.1-22.2-4.1-38.2C173.5,17.4,166.9,11.1,164.6,9.1z"/>
	<path d="M137.4,39.5c1.4-0.1,2.8,0.3,4,1.1c0.8,0.5,0.9,1.2,0.5,1.8s-1.1,0.5-1.8-0.1c-1.3-1.1-3-1.3-4.5-0.6
		c-0.5,0.3-1,0.6-1.5,0.8c-0.3,0.2-0.8,0.5-1.1,0s0-0.8,0.3-1.2C134.3,40.1,135.8,39.4,137.4,39.5z"/>
	<path d="M147.8,43.8c-0.2,1.3-0.7,2.5-1.4,3.5c-0.1,0.1-0.2,0.2-0.3,0.4c-0.8,1.1-0.8,1.1,0.4,1.8c0.5,0.4,1.1,0.8,1.7,1.1
		c0.4,0.2,0.6,0.6,0.4,1c0,0.1,0,0.1-0.1,0.1c-0.2,0.4-0.6,0.5-0.9,0.4c0,0-0.1,0-0.1-0.1c-1.3-0.8-2.5-1.9-3.4-3.2
		c-0.2-0.4-0.1-1,0.2-1.3c0.4-0.7,0.8-1.4,1.3-2c0.6-0.8,1-1.7,1.3-2.7c0-0.2,0.1-0.3,0.2-0.3c0.2,0,0.4,0.1,0.4,0.3
		C147.6,43.1,147.8,43.4,147.8,43.8z"/>
	<path d="M156.1,39.4c1.2-0.1,2.3,0.2,3.3,0.9c0.3,0.2,0.6,0.5,0.8,0.9c0.2,0.3,0.1,0.8-0.2,1s-0.8,0.1-1-0.2l0,0
		c-0.7-1.1-1.9-1.1-3-1c-0.8,0-1.6,0.4-2.2,0.9c-0.2,0.3-0.6,0.4-0.9,0.1c0,0,0,0-0.1-0.1c-0.3-0.3-0.4-0.7-0.1-1.1l0,0
		c0.6-0.9,1.6-1.4,2.6-1.5C155.6,39.4,155.8,39.4,156.1,39.4z"/>
	<path class="move-map-st2" d="M147.6,59.4c-2.3-0.1-4.4-1.1-5.9-2.8l0.7-0.5l-0.3,0.3l0.3-0.3c2.4,2.9,6.7,3.3,9.6,0.9
		c0.3-0.3,0.7-0.6,0.9-0.9l0.6,0.5C152,58.3,149.8,59.3,147.6,59.4z"/>
</g>
</svg>