<svg id="illu-thankful" xmlns="http://www.w3.org/2000/svg" viewBox="0 0 646.95 646.95"><path id="heart" d="M319,640,60.94,323.84C-113.48,110.16,115.07-109.36,319,60.65h0c203.93-170,432.48,49.51,258.06,263.19Z" transform="translate(4.48 3.48)" style="fill:none;stroke:#ff9b7a;stroke-linecap:round;stroke-linejoin:round;stroke-width:6.952067017555237px"/><g id="i-am"><path d="M263.34,108.81h7.39l-7,45.87h-7.4Z" transform="translate(4.48 3.48)"/><path d="M322.14,154.68H316l.12-5.61c-3.2,4-7.08,6.41-11.89,6.41-7,0-13.13-5.86-13.13-15.29,0-11.53,7.83-20,16.76-20a12.16,12.16,0,0,1,11.29,6.72L321,121h6.29Zm-23.73-15.35c0,6,3.88,9.49,8.57,9.49,6.47,0,10.73-6.35,10.73-12.64,0-5.79-3.76-9.31-8.51-9.31C303.1,126.87,298.41,132.36,298.41,139.33Z" transform="translate(4.48 3.48)"/><path d="M342.24,121v4.75h.18a11.8,11.8,0,0,1,9.74-5.55,8.71,8.71,0,0,1,8.63,6,12.38,12.38,0,0,1,10.61-6c5.54,0,9.3,3.88,9.3,9.61a18.48,18.48,0,0,1-.18,2.53l-3.39,22.32h-7.28l3.21-20.84c.06-.62.19-1.29.19-1.85,0-3.14-1.67-5-4.69-5-4.13,0-6.84,3.45-7.46,7.46L358,154.68h-7.28L354,133.84a11.59,11.59,0,0,0,.19-2c0-2.59-1.42-4.87-4.63-4.87-4.19,0-6.9,3.45-7.46,7.46L339,154.68H331.7L336.75,121Z" transform="translate(4.48 3.48)"/></g><path id="thankful" d="M133.3,230.09c-4.42,33.47-55.5,20.22-58.74,0S85.3,197.25,139,197.25c66,0,201.72,2.07,173.9-15.41s-87.06-8.28-123.06,35.93S118.27,331.91,102.38,339c-60.13,26.65-23-40.19-23-40.19s-37.51,66.42,23,40.19c14.76-6.4,116.28-67,148.2-115.57,17.17-26.14-13.29-25.3-29.89,6.36-15.46,29.48-43.7,80.67-59.75,108.76,18.79-29.79,68.35-72.51,82.25-73.41S191.48,337.46,207,337.46c18.69,0,62.27-78.63,97.13-70.5-34.86-8.13-75.91,70.5-54.62,70.5,19.61,0,35.75-38.55,51.26-58.69-22.69,29.46-28.06,57.29-21.39,58.69s40-50.37,52.24-70.5c-11.74,25.57-17.46,41.1-31.91,70.5C313.31,308,350.26,267,362.79,267c16.41,0-35.25,72.92-24.73,70.5,17.8-4.11,72.13-85.28,98.15-117.13,27.37-33.5-13.38-30.54-26.85,4.41-8.38,21.72-31.59,78.69-45.66,112.72,19.07-28.23,44.3-55.6,53-65.55,12.55-14.34,30.7-6.89,21.51,2.39s-36.6,26.28-46.16,28.84c-.44,13.94-2.94,33.21,12.08,33.76s90-93.48,108.87-121.45c19.12-28.37-19.38-21.59-28.76,4.94C477.32,240,426.2,352,414.13,385.17s-32.49,49.11-43.57,38c-22.27-22.28,96.16-115,123.31-156.24-14.53,17.73-40.56,69.94-23.75,69.94,18.6,0,43-49.54,54.11-69.94C512,289.4,494.45,345.93,504,336.9c13.08-12.34,75.27-81.18,98.36-115.57s-17.84-24.16-29.3,4.2C562.63,251.37,527,333.7,527,333.7c-43.94,119.13,67.11,81.38,91.23,38.05,36-64.69-173.45,9.33-317.45,42s-254,30.38-288.06-28.28S76.46,252,133.3,230.09" transform="translate(4.48 3.48)" style="fill:none;stroke:#fff;stroke-linecap:round;stroke-linejoin:round;stroke-width:6.952067017555237px"/></svg>