<svg id="seated-twists" xmlns="http://www.w3.org/2000/svg" viewBox="0 0 257.85 605.86">
  <g id="chair">
    <rect x="36.76" y="379.39" width="184.33" height="26.73" style="fill: #db694c"/>
    <polygon points="36.76 590.45 36.76 406.12 63.16 406.12 54.45 590.45 36.76 590.45" style="fill: #db694c"/>
    <polygon points="221.09 590.45 221.09 406.12 194.69 406.12 203.4 590.45 221.09 590.45" style="fill: #db694c"/>
    <rect x="36.76" y="173.86" width="184.33" height="205.53" style="fill: #db694c"/>
  </g>
  <g id="frontal">
    <rect x="218.2" y="246.97" width="36.63" height="133.89" rx="18.32" transform="translate(443.76 366.93) rotate(137.76)" style="fill: #fff"/>
    <path id="breathman-chest" d="M309.53,143,255,165.35c-15.44,6.33-25.12,23.66-23.51,42.11l21,113.16s9.5,37.84,57,37.84,57-37.84,57-37.84l21-113.16c1.6-18.45-8.07-35.78-23.51-42.11Z" transform="translate(-178.89 -20.39)" style="fill: #fff"/>
    <path id="breatheman-neck" d="M289.83,131.09v28.56c0,4.75,8.82,8.61,19.7,8.61s19.69-3.86,19.69-8.61V131.09Z" transform="translate(-178.89 -20.39)" style="fill: #ff9b7a"/>
    <g id="head">
      <circle cx="130.64" cy="57.8" r="44.6" style="fill: #ff9b7a"/>
      <path d="M309.53,145.47h0c20.17,0,36.53-19.17,36.53-39.34V73H273v33.17C273,126.3,289.35,145.47,309.53,145.47Z" transform="translate(-178.89 -20.39)" style="fill: #ff9b7a"/>
      <g>
        <polyline id="breatheman-nose" points="127.01 79.14 122.99 91.83 132.46 94.14" style="fill: none;stroke: #000;stroke-linecap: round;stroke-linejoin: round;stroke-width: 3px"/>
        <path d="M318.69,95a9,9,0,0,0,11.59,0" transform="translate(-178.89 -20.39)" style="fill: none;stroke: #000;stroke-linecap: round;stroke-linejoin: round;stroke-width: 3px"/>
        <path d="M286.67,95a9,9,0,0,0,11.59,0" transform="translate(-178.89 -20.39)" style="fill: none;stroke: #000;stroke-linecap: round;stroke-linejoin: round;stroke-width: 3px"/>
        <path d="M300.53,126.93a18.12,18.12,0,0,0,15.87,0" transform="translate(-178.89 -20.39)" style="fill: none;stroke: #db694c;stroke-linecap: round;stroke-linejoin: round;stroke-width: 3px"/>
        <g id="breatheman-brows">
          <path d="M302.08,84.55a14.92,14.92,0,0,0-19.23,0" transform="translate(-178.89 -20.39)" style="fill: none;stroke: #000;stroke-linecap: round;stroke-linejoin: round;stroke-width: 3px"/>
          <path d="M335.63,84.55a14.92,14.92,0,0,0-19.23,0" transform="translate(-178.89 -20.39)" style="fill: none;stroke: #000;stroke-linecap: round;stroke-linejoin: round;stroke-width: 3px"/>
        </g>
      </g>
      <path d="M345.2,114.51l-.33,0,1.19-22.58h0c1.89.2,4.8,1.79,4.6,3.68L349,111.45A3.43,3.43,0,0,1,345.2,114.51Z" transform="translate(-178.89 -20.39)" style="fill: #ff9b7a"/>
      <path d="M273.85,114.51l.34,0L273,91.89h0c-1.89.2-4.8,1.79-4.6,3.68l1.67,15.88A3.44,3.44,0,0,0,273.85,114.51Z" transform="translate(-178.89 -20.39)" style="fill: #ff9b7a"/>
      <path d="M359.06,70.27c.12-1.26,1.86-2.44,1.86-3.73s-1.74-2.47-1.86-3.72,1.37-2.77,1.13-4-2.18-2.09-2.53-3.31.82-3,.35-4.15-2.52-1.65-3.09-2.78.27-3.07-.4-4.15-2.78-1.17-3.54-2.19-.26-3.07-1.1-4-2.93-.7-3.85-1.58-.74-3-1.73-3.8-3-.23-4.05-1S339.07,29,338,28.38s-3,.21-4.15-.37-1.57-2.63-2.75-3.13-2.95.63-4.16.22-1.92-2.39-3.15-2.72-2.84,1-4.09.78-2.22-2.11-3.49-2.28-2.68,1.4-4,1.31-2.47-1.8-3.75-1.8-2.5,1.72-3.76,1.8-2.7-1.47-3.95-1.31-2.25,2-3.49,2.28-2.87-1.11-4.09-.78-2,2.31-3.16,2.72-3-.71-4.16-.22-1.62,2.56-2.75,3.13-3.06-.28-4.15.37-1.24,2.76-2.27,3.48-3.08.17-4.05,1-.82,2.92-1.73,3.79-3,.64-3.85,1.59-.34,3-1.1,4-2.87,1.12-3.54,2.19.17,3-.4,4.15-2.63,1.6-3.1,2.78.71,2.93.36,4.15-2.29,2.06-2.53,3.31,1.25,2.74,1.13,4S256,65.26,256,66.54s1.75,2.47,1.87,3.73-1.37,2.77-1.13,4,2.17,2.09,2.53,3.31-.83,3-.36,4.15,2.53,1.65,3.1,2.78-.27,3.06.4,4.15,2.78,1.17,3.54,2.19.25,3.06,1.1,4a2.7,2.7,0,0,0,1.38.69,85.85,85.85,0,0,0,5.23,9.14L273,73s0-20.37,13.67-17.75c10.42,2,9.92,8.88,22.86,8.88s12.44-6.88,22.86-8.88C346.06,52.59,346.06,73,346.06,73l-.67,31.75a44.58,44.58,0,0,0,7.19-14.84,4,4,0,0,0,1.94-1.2c.67-1.08-.18-3,.4-4.15s2.63-1.6,3.09-2.78-.71-2.93-.35-4.15,2.29-2.06,2.53-3.31S358.94,71.54,359.06,70.27Zm-5.15,12.41h0Z" transform="translate(-178.89 -20.39)"/>
    </g>
    <rect x="362.1" y="246.97" width="36.63" height="133.89" rx="18.32" transform="translate(130.92 -194.6) rotate(42.24)" style="fill: #fff"/>
    <rect x="367.28" y="162.63" width="36.63" height="133.89" rx="18.32" transform="translate(655.43 215.22) rotate(150)" style="fill: #fff"/>
    <rect x="213.03" y="162.63" width="36.63" height="133.89" rx="18.32" transform="translate(-33.11 -105.3) rotate(30)" style="fill: #fff"/>
    <g id="legs">
      <path d="M335.33,409.78,309.61,398l-28,11.76c-15,0-27.91-8.83-30.89-21.12L243.28,358c-4-16.33,11-31.6,30.89-26.26h68.61c19.92-5.34,34.84,9.93,30.88,26.26l-7.45,30.67C363.23,401,350.32,409.78,335.33,409.78Z" transform="translate(-178.89 -20.39)"/>
      <path d="M263.45,552.05v25.49a4.8,4.8,0,0,1-.27,1.6L252.1,611.57a4.89,4.89,0,0,0-.27,1.6v8.13a5,5,0,0,0,4.95,5h40.88a5,5,0,0,0,4.95-5l-13-69.25a5,5,0,0,0-4.95-4.95H268.4A5,5,0,0,0,263.45,552.05Z" transform="translate(-178.89 -20.39)"/>
      <path d="M355.78,552.05v25.49a4.8,4.8,0,0,0,.27,1.6l11.08,32.43a4.89,4.89,0,0,1,.27,1.6v8.13a5,5,0,0,1-4.95,5H321.57a5,5,0,0,1-4.95-5l12.95-69.25a5,5,0,0,1,4.95-4.95h16.31A5,5,0,0,1,355.78,552.05Z" transform="translate(-178.89 -20.39)"/>
      <path d="M291.13,342.79A28.08,28.08,0,0,0,235,344.53a28.54,28.54,0,0,0,.47,5.1L251.39,522a19.75,19.75,0,0,0,19.86,17.71h0a19.7,19.7,0,0,0,19.94-19.46V342.79Z" transform="translate(-178.89 -20.39)"/>
      <path d="M325.81,342.79a28.08,28.08,0,0,1,56.11,1.74,28.54,28.54,0,0,1-.47,5.1L365.55,522a19.76,19.76,0,0,1-19.86,17.71h0a19.7,19.7,0,0,1-19.94-19.46V342.79Z" transform="translate(-178.89 -20.39)"/>
    </g>
  </g>
  <g id="left">
    <g>
      <g id="frontal-2" data-name="frontal">
        <path id="breatheman-neck-2" data-name="breatheman-neck" d="M240.64,145.32l16.9,23.87c2.81,4,12,2.27,20.58-3.78s13.2-14.19,10.39-18.16l-16.89-23.86Z" transform="translate(-178.89 -20.39)" style="fill: #ff9b7a"/>
        <path d="M196.69,355.14l-8.33,24.38a8,8,0,0,0,1.65,6.27l21.42,27.66a3.54,3.54,0,0,0,4.59.79l1.09-.67a1.1,1.1,0,0,0,.47-1.43l-11.24-22.49,5-13.28s10.44-20.71,4.49-28.18l-4.36-8.68-14.75,5.17Z" transform="translate(-178.89 -20.39)" style="fill: #ff9b7a"/>
        <path id="breathman-chest-2" data-name="breathman-chest" d="M279.18,151.07c-23.58,4.6-38.4,17.1-38.4,17.1-10.34,8.62-14.19,27.45-9.37,45.75L256,329s28,32.11,63.58,25.15,38-16.16,38-16.16l-9.14-147c-2-15.71-12.09-32.86-22.84-40.43a18.72,18.72,0,0,0-10.91-3.32A197.09,197.09,0,0,0,279.18,151.07Z" transform="translate(-178.89 -20.39)" style="fill: #fff"/>
        <rect x="180.93" y="247.65" width="37.5" height="100.65" rx="18.32" transform="translate(-193.89 -9.77) rotate(-2.94)" style="fill: #fff"/>
        <g>
          <path d="M188.36,283.82h0a19,19,0,0,0,25.3-6.8L274.36,209c5-8.59-10.46-34-19.41-38.78h0a19,19,0,0,0-25.3,6.8l-48.37,82.55A17.47,17.47,0,0,0,188.36,283.82Z" transform="translate(-178.89 -20.39)" style="fill: #fff"/>
          <path d="M278.24,227c-12.5-7.82-23.38,4-23.38,4l-37.69,42.08L220,329" transform="translate(-178.89 -20.39)" style="fill: none;stroke: #ffe8e0;stroke-linecap: round;stroke-linejoin: round;stroke-width: 3px"/>
        </g>
        <path d="M418.68,175.85l-.34,3.68a18.32,18.32,0,0,1-21.55,14.37l-92.35-18.44c-9.92-2-35.64-12.42-33.66-22.34L310,142.87a57,57,0,0,1,31.67-.85l65.63,17.09A15.89,15.89,0,0,1,418.68,175.85Z" transform="translate(-178.89 -20.39)" style="fill: #fff"/>
      </g>
      <path d="M300.78,88.79c0,1.47-2.06,2.82-2.2,4.26s1.62,3.19,1.34,4.61-2.56,2.37-3,3.76,1,3.43.44,4.78-3,1.84-3.64,3.13.34,3.55-.45,4.78-3.25,1.26-4.14,2.42-.3,3.55-1.29,4.63-3.42.68-4.49,1.68-.88,3.44-2,4.35-3.49.12-4.71.93-1.42,3.26-2.69,4-3.47-.41-4.8.2-1.89,3-3.26,3.52-3.37-.93-4.77-.52-2.31,2.7-3.75,3-3.19-1.41-4.64-1.2-2.67,2.34-4.14,2.44-3-1.84-4.43-1.84-3,1.94-4.43,1.84-2.71-2.24-4.14-2.44-3.23,1.51-4.65,1.2-2.35-2.6-3.74-3-3.42,1-4.77.52-1.95-2.91-3.26-3.52-3.54.51-4.8-.2-1.49-3.17-2.69-4-3.57,0-4.71-.94-1-3.36-2-4.35-3.52-.61-4.5-1.68-.4-3.47-1.28-4.62-3.37-1.2-4.15-2.42.22-3.49-.45-4.78-3.09-1.78-3.64-3.13.86-3.38.44-4.78-2.7-2.33-3-3.76,1.49-3.15,1.35-4.61-2.21-2.79-2.21-4.26,2.07-2.83,2.21-4.27-1.63-3.18-1.35-4.6,2.57-2.38,3-3.77-1-3.43-.44-4.78,3-1.83,3.64-3.13-.33-3.55.45-4.77,3.26-1.27,4.15-2.43.29-3.55,1.28-4.62,3.43-.69,4.5-1.68.88-3.45,2-4.35,3.49-.13,4.71-.93,1.41-3.27,2.69-4,3.47.42,4.8-.2,1.89-3,3.26-3.52,3.36.93,4.77.52,2.31-2.7,3.74-3,3.2,1.41,4.65,1.21,2.67-2.35,4.13-2.45,3,1.85,4.44,1.85,3-2,4.43-1.85,2.7,2.24,4.13,2.45S256,39,257.36,39.27s2.36,2.61,3.74,3,3.42-1,4.78-.52,1.95,2.92,3.26,3.52,3.53-.5,4.8.2,1.48,3.18,2.69,4,3.57,0,4.71.93,1,3.37,2,4.35,3.52.61,4.5,1.68.39,3.48,1.28,4.63,3.36,1.19,4.14,2.42-.21,3.49.45,4.78,3.1,1.78,3.64,3.13-.85,3.38-.44,4.78,2.7,2.32,3,3.76-1.49,3.14-1.35,4.6S300.78,87.32,300.78,88.79Z" transform="translate(-178.89 -20.39)" style="fill: #231f20"/>
      <path d="M290.38,87.53c6.35,21.73-8.1,46.42-34.51,54.14s-54.79-4.48-61.13-26.21,9.92-45.59,36.33-53.3S284,65.8,290.38,87.53Z" transform="translate(-178.89 -20.39)" style="fill: #ff9b7a"/>
      <path d="M200.24,121.61l16,39.61a10.66,10.66,0,0,0,15,5.36l27.16-21.78-8.22-31.21Z" transform="translate(-178.89 -20.39)" style="fill: #ff9b7a"/>
      <path d="M244.61,49.73a51.77,51.77,0,0,0-51.39,45.59l5.05-5.69a10.28,10.28,0,0,1,16.5,1.54L221.28,102a12.86,12.86,0,0,0,8.68,6l8.77,1.62,3.73-7a6.36,6.36,0,0,1,10.14-1.47l1,1a14.17,14.17,0,0,1,3.82,12.66l-1.06,5.45L277.12,131s24.87-5.48,17.44-43.1A51.77,51.77,0,0,0,244.61,49.73Z" transform="translate(-178.89 -20.39)" style="fill: #231f20"/>
      <path d="M201.2,122.45l-5.33,19.15c-.48,1.74,1.71,3.65,4.8,4.19l13.84-3.15" transform="translate(-178.89 -20.39)" style="fill: #ff9b7a"/>
      <path d="M197,108s7.94-3.59,16.23,4.39" transform="translate(-178.89 -20.39)" style="fill: none;stroke: #231f20;stroke-linecap: round;stroke-linejoin: round;stroke-width: 3px"/>
      <path d="M214.51,153s3.06.21,5.34-3.39" transform="translate(-178.89 -20.39)" style="fill: none;stroke: #db694c;stroke-linecap: round;stroke-linejoin: round;stroke-width: 3px"/>
      <line x1="25.18" y1="103" x2="32.18" y2="99.48" style="fill: none;stroke: #231f20;stroke-linecap: round;stroke-linejoin: round;stroke-width: 3px"/>
    </g>
    <g id="legs-2" data-name="legs">
      <path d="M335.33,409.78H281.61c-15,0-27.91-8.83-30.89-21.12L243.28,358c-4-16.33,11-31.6,30.89-26.26l83.43-1.08c16,27.81,8.61,58,8.61,58C363.23,401,350.32,409.78,335.33,409.78Z" transform="translate(-178.89 -20.39)"/>
      <path d="M263.45,552.05v25.49a4.8,4.8,0,0,1-.27,1.6l-30.37,32.43a4.89,4.89,0,0,0-.27,1.6v8.13a5,5,0,0,0,5,5h60.17a5,5,0,0,0,4.95-5l-13-69.25a5,5,0,0,0-4.95-4.95H268.4A5,5,0,0,0,263.45,552.05Z" transform="translate(-178.89 -20.39)"/>
      <path d="M328.23,552.05v25.49a5.06,5.06,0,0,1-.26,1.6l-11.09,32.43a5.15,5.15,0,0,0-.26,1.6v8.13a5,5,0,0,0,4.95,5h40.88a5,5,0,0,0,4.95-5l-13-69.25a5,5,0,0,0-4.95-4.95H333.18A5,5,0,0,0,328.23,552.05Z" transform="translate(-178.89 -20.39)"/>
      <path d="M273.48,341.73a28.08,28.08,0,0,0-55.65,7.36,28.4,28.4,0,0,0,1,5L251.91,524a19.74,19.74,0,0,0,21.53,15.63h0a19.7,19.7,0,0,0,17.89-21.36L273.54,341.72Z" transform="translate(-178.89 -20.39)"/>
      <path d="M274.71,354.82a28.08,28.08,0,0,1,54.73-12.47,27.71,27.71,0,0,1,.83,5l28.1,170.75a19.76,19.76,0,0,1-14.75,22.16h0a19.7,19.7,0,0,1-24.2-13.8L274.65,354.83Z" transform="translate(-178.89 -20.39)"/>
      <polygon points="57.63 300.38 174.94 310.44 178.12 345.33 94.11 354.49 48.23 327.43 57.63 300.38"/>
    </g>
    <path d="M400,194.25H376l5.86-23.2a18.32,18.32,0,0,1,22.24-13.28l.84.21a18.33,18.33,0,0,1,13.28,22.25L400,252.34Z" transform="translate(-178.89 -20.39)" style="fill: #fff"/>
  </g>
  <g id="right">
    <g>
      <g id="frontal-3" data-name="frontal">
        <path id="breatheman-neck-3" data-name="breatheman-neck" d="M375,145.32,358.1,169.19c-2.82,4-12,2.27-20.58-3.78s-13.21-14.19-10.4-18.16L344,123.39Z" transform="translate(-178.89 -20.39)" style="fill: #ff9b7a"/>
        <path d="M418.94,355.14l8.33,24.38a8,8,0,0,1-1.65,6.27L404.2,413.45a3.54,3.54,0,0,1-4.59.79l-1.08-.67a1.09,1.09,0,0,1-.48-1.43l11.24-22.49-5-13.28s-10.43-20.71-4.49-28.18l4.37-8.68,14.74,5.17Z" transform="translate(-178.89 -20.39)" style="fill: #ff9b7a"/>
        <path id="breathman-chest-3" data-name="breathman-chest" d="M336.45,151.07c23.58,4.6,38.4,17.1,38.4,17.1,10.34,8.62,14.19,27.45,9.37,45.75L359.62,329s-28,32.11-63.57,25.15S258,338,258,338l9.14-147c2-15.71,12.08-32.86,22.83-40.43a18.74,18.74,0,0,1,10.91-3.32A197,197,0,0,1,336.45,151.07Z" transform="translate(-178.89 -20.39)" style="fill: #fff"/>
        <rect x="397.21" y="247.65" width="37.5" height="100.65" rx="18.32" transform="translate(637.21 596.48) rotate(-177.06)" style="fill: #fff"/>
        <g>
          <path d="M427.27,283.82h0A19,19,0,0,1,402,277L341.27,209c-5-8.59,10.47-34,19.41-38.78h0A19,19,0,0,1,386,177l48.37,82.55A17.47,17.47,0,0,1,427.27,283.82Z" transform="translate(-178.89 -20.39)" style="fill: #fff"/>
          <path d="M337.4,227c12.49-7.82,23.38,4,23.38,4l37.68,42.08L395.59,329" transform="translate(-178.89 -20.39)" style="fill: none;stroke: #ffe8e0;stroke-linecap: round;stroke-linejoin: round;stroke-width: 3px"/>
        </g>
        <path d="M197,175.85l.35,3.68a18.31,18.31,0,0,0,21.54,14.37l92.35-18.44c9.92-2,35.64-12.42,33.66-22.34l-39.22-10.25A57,57,0,0,0,274,142l-65.63,17.09A15.89,15.89,0,0,0,197,175.85Z" transform="translate(-178.89 -20.39)" style="fill: #fff"/>
      </g>
      <path d="M316.85,88.79c0,1.47-1.92,3-1.79,4.45s2.33,2.62,2.61,4-1.31,3.32-.9,4.71,2.79,2.11,3.33,3.46-.66,3.51,0,4.8,3.13,1.55,3.92,2.78,0,3.57.87,4.72,3.35,1,4.34,2,.6,3.51,1.67,4.51,3.47.4,4.62,1.3,1.15,3.37,2.37,4.17,3.49-.15,4.77.57,1.66,3.14,3,3.76,3.42-.68,4.79-.17,2.11,2.86,3.52,3.27,3.29-1.17,4.72-.86,2.5,2.52,3.95,2.73,3.08-1.64,4.55-1.53,2.83,2.15,4.29,2.15,2.86-2,4.3-2.15,3.12,1.73,4.55,1.53,2.54-2.43,3.95-2.73,3.33,1.27,4.72.86,2.16-2.76,3.51-3.27,3.49.77,4.8.17,1.73-3.06,3-3.76,3.56.23,4.77-.57,1.23-3.28,2.37-4.17,3.56-.32,4.62-1.31.69-3.43,1.67-4.5,3.45-.9,4.34-2,.09-3.5.87-4.72,3.25-1.49,3.92-2.78-.54-3.45,0-4.8,2.91-2.06,3.33-3.46-1.18-3.28-.9-4.72,2.46-2.57,2.6-4-1.78-3-1.78-4.45,1.92-3,1.78-4.46-2.32-2.61-2.6-4,1.31-3.33.89-4.72-2.78-2.11-3.32-3.46.65-3.5,0-4.8-3.12-1.55-3.91-2.78,0-3.56-.87-4.72-3.36-1-4.34-2-.6-3.51-1.67-4.5-3.47-.4-4.62-1.31-1.15-3.36-2.37-4.17-3.49.15-4.77-.56-1.66-3.15-3-3.76-3.42.68-4.8.16-2.1-2.86-3.51-3.27-3.29,1.18-4.72.87-2.5-2.53-3.95-2.73-3.09,1.63-4.55,1.53-2.83-2.15-4.3-2.15-2.85,2-4.29,2.15-3.12-1.74-4.55-1.53-2.54,2.42-3.95,2.73S355.35,40,354,40.36s-2.16,2.77-3.52,3.27-3.48-.77-4.8-.16-1.72,3.05-3,3.76-3.56-.24-4.77.56-1.23,3.28-2.37,4.18-3.56.32-4.62,1.3-.69,3.43-1.67,4.5-3.45.91-4.34,2.06-.09,3.49-.88,4.72-3.24,1.49-3.91,2.78.54,3.45,0,4.8-2.91,2.06-3.33,3.46,1.18,3.28.9,4.71-2.47,2.57-2.61,4S316.85,87.32,316.85,88.79Z" transform="translate(-178.89 -20.39)" style="fill: #231f20"/>
      <path d="M325.25,87.53c-6.34,21.73,8.11,46.42,34.52,54.14s54.78-4.48,61.12-26.21S411,69.87,384.56,62.16,331.6,65.8,325.25,87.53Z" transform="translate(-178.89 -20.39)" style="fill: #ff9b7a"/>
      <path d="M415.39,121.61l-16,39.61a10.66,10.66,0,0,1-15,5.36L357.22,144.8l8.23-31.21Z" transform="translate(-178.89 -20.39)" style="fill: #ff9b7a"/>
      <path d="M371,49.73a51.76,51.76,0,0,1,51.38,45.59l-5.05-5.69a10.28,10.28,0,0,0-16.5,1.54L394.35,102a12.86,12.86,0,0,1-8.68,6l-8.77,1.62-3.73-7A6.36,6.36,0,0,0,363,101.21l-1,1a14.2,14.2,0,0,0-3.82,12.66l1.06,5.45L338.51,131s-24.86-5.48-17.44-43.1A51.77,51.77,0,0,1,371,49.73Z" transform="translate(-178.89 -20.39)" style="fill: #231f20"/>
      <path d="M414.43,122.45l5.33,19.15c.48,1.74-1.71,3.65-4.8,4.19l-13.84-3.15" transform="translate(-178.89 -20.39)" style="fill: #ff9b7a"/>
      <path d="M418.59,108s-7.94-3.59-16.23,4.39" transform="translate(-178.89 -20.39)" style="fill: none;stroke: #231f20;stroke-linecap: round;stroke-linejoin: round;stroke-width: 3px"/>
      <path d="M401.12,153s-3.05.21-5.34-3.39" transform="translate(-178.89 -20.39)" style="fill: none;stroke: #db694c;stroke-linecap: round;stroke-linejoin: round;stroke-width: 3px"/>
      <line x1="232.67" y1="103" x2="225.67" y2="99.48" style="fill: none;stroke: #231f20;stroke-linecap: round;stroke-linejoin: round;stroke-width: 3px"/>
    </g>
    <g id="legs-3" data-name="legs">
      <path d="M280.3,409.78H334c15,0,27.91-8.83,30.89-21.12L372.35,358c4-16.33-11-31.6-30.89-26.26L258,330.65c-16,27.81-8.62,58-8.62,58C252.4,401,265.31,409.78,280.3,409.78Z" transform="translate(-178.89 -20.39)"/>
      <path d="M352.18,552.05v25.49a4.8,4.8,0,0,0,.27,1.6l30.37,32.43a4.89,4.89,0,0,1,.27,1.6v8.13a5,5,0,0,1-4.95,5H318a5,5,0,0,1-5-5l13-69.25a5,5,0,0,1,4.95-4.95h16.31A5,5,0,0,1,352.18,552.05Z" transform="translate(-178.89 -20.39)"/>
      <path d="M287.4,552.05v25.49a5.06,5.06,0,0,0,.26,1.6l11.09,32.43a5.15,5.15,0,0,1,.26,1.6v8.13a5,5,0,0,1-4.94,5H253.18a5,5,0,0,1-4.94-5l12.95-69.25a5,5,0,0,1,4.95-4.95h16.31A5,5,0,0,1,287.4,552.05Z" transform="translate(-178.89 -20.39)"/>
      <path d="M342.15,341.73a28.08,28.08,0,0,1,55.65,7.36,28.4,28.4,0,0,1-1,5L363.73,524a19.76,19.76,0,0,1-21.54,15.63h0a19.7,19.7,0,0,1-17.89-21.36l17.79-176.52Z" transform="translate(-178.89 -20.39)"/>
      <path d="M340.92,354.82a28.08,28.08,0,0,0-54.73-12.47,27.71,27.71,0,0,0-.83,5l-28.1,170.75A19.77,19.77,0,0,0,272,540.31h0a19.71,19.71,0,0,0,24.21-13.8L341,354.83Z" transform="translate(-178.89 -20.39)"/>
      <polygon points="200.22 300.38 82.91 310.44 79.74 345.33 163.74 354.49 209.63 327.43 200.22 300.38"/>
    </g>
    <path d="M215.65,194.25h24l-5.86-23.2a18.32,18.32,0,0,0-22.24-13.28l-.84.21a18.32,18.32,0,0,0-13.27,22.25l18.2,72.11Z" transform="translate(-178.89 -20.39)" style="fill: #fff"/>
  </g>
</svg>
