<svg id="illu-ankle-flexions" xmlns="http://www.w3.org/2000/svg" viewBox="0 0 533.19 226.09"><g id="leg"><g id="foot"><g id="heel"><circle cx="407.24" cy="195.14" r="30.95" style="fill:#ff9b7a"/><path d="M386.18,327l-1.62,1.34c-1.66,1.38-4.88,2.94-9,5.32a38.08,38.08,0,0,0-17.46,22.13l-7.17,24.05a12.1,12.1,0,0,0,3.06,12c19.56,19.4,26.68,31.58,26.68,31.58L437,416.13l2.31-22.88c1.43-6.81,1.82-9.26,4.84-15.47Z" transform="translate(0 -212.51)" style="fill:#ff9b7a"/></g><g id="frontfoot"><g id="midfoot"><circle cx="410.82" cy="144.49" r="38.71" style="fill:#ff9b7a"/><path d="M386.18,327l73.48-61,28.54,53s-14.67,8.28-25.31,22.2-17.26,33.47-18.74,36.53Z" transform="translate(0 -212.51)" style="fill:#ff9b7a"/></g><circle cx="480.26" cy="76.64" r="30.95" style="fill:#ff9b7a"/><g id="toes"><g id="toeytoetoe"><path d="M499.06,220.8H526a9.75,9.75,0,0,1,9.75,9.75v.18A20.72,20.72,0,0,1,515,251.45h-16a0,0,0,0,1,0,0V220.8A0,0,0,0,1,499.06,220.8Z" transform="translate(-44.75 109.87) rotate(-33.25)" style="fill:#ff9b7a"/><circle cx="502.1" cy="33.66" r="15.27" style="fill:#ff9b7a"/></g><g id="football"><rect x="473.17" y="250.1" width="36.69" height="30.65" transform="translate(25.63 361.12) rotate(-61.86)" style="fill:#ff9b7a"/><circle cx="499.86" cy="37.31" r="15.27" style="fill:#ff9b7a"/><circle cx="482.1" cy="70.51" r="15.27" style="fill:#ff9b7a"/></g></g></g></g><g id="upperleg"><circle cx="109.27" cy="72.87" r="30.82" style="fill:#ff9b7a"/><rect x="205.23" y="187.57" width="61.89" height="269.04" transform="matrix(0.28, -0.96, 0.96, 0.28, -138.86, 246.96)" style="fill:#ff9b7a"/><path d="M320,314.12l-18.28,59.15L60.28,324.46c-5.14-.79-33.85-5.72-49.89-31.33-3.57-5.69-14.78-23.6-8.53-44.52,7.59-25.4,34.34-33.31,37.23-34.11a57.94,57.94,0,0,1,35.72,1.9Z" transform="translate(0 -212.51)" style="fill:#231f20"/><circle cx="364.16" cy="147.06" r="31.35" style="fill:#ff9b7a"/></g></g></svg>