<svg id="tiny-first-aid" version="1.1" xmlns="http://www.w3.org/2000/svg" xmlns:xlink="http://www.w3.org/1999/xlink" x="0px" y="0px" viewBox="0 0 445 524" style="enable-background:new 0 0 445 524;" xml:space="preserve">
  <g id="illu01-sun">
    <circle id="illu01-sun--body" style="fill:#FFFFFF;" cx="218.5" cy="267.5" r="55.5"/>
    <g id="illu01-sun--rays">
      <path style="fill:#FFFFFF;" d="M218.5,196L218.5,196c-2.5,0-4.5-2-4.5-4.5v-18c0-2.5,2-4.5,4.5-4.5l0,0c2.5,0,4.5,2,4.5,4.5v18
        C223,194,221,196,218.5,196z"/>
      <path style="fill:#FFFFFF;" d="M269.1,216.9L269.1,216.9c-1.8-1.8-1.8-4.6,0-6.4l12.7-12.7c1.8-1.8,4.6-1.8,6.4,0v0
        c1.8,1.8,1.8,4.6,0,6.4l-12.7,12.7C273.7,218.7,270.8,218.7,269.1,216.9z"/>
      <path style="fill:#FFFFFF;" d="M290,267.5L290,267.5c0-2.5,2-4.5,4.5-4.5h18c2.5,0,4.5,2,4.5,4.5l0,0c0,2.5-2,4.5-4.5,4.5h-18
        C292,272,290,270,290,267.5z"/>
      <path style="fill:#FFFFFF;" d="M269.1,318.1L269.1,318.1c1.8-1.8,4.6-1.8,6.4,0l12.7,12.7c1.8,1.8,1.8,4.6,0,6.4l0,0
        c-1.8,1.8-4.6,1.8-6.4,0l-12.7-12.7C267.3,322.7,267.3,319.8,269.1,318.1z"/>
      <path style="fill:#FFFFFF;" d="M218.5,339L218.5,339c2.5,0,4.5,2,4.5,4.5v18c0,2.5-2,4.5-4.5,4.5l0,0c-2.5,0-4.5-2-4.5-4.5v-18
        C214,341,216,339,218.5,339z"/>
      <path style="fill:#FFFFFF;" d="M167.9,318.1L167.9,318.1c1.8,1.8,1.8,4.6,0,6.4l-12.7,12.7c-1.8,1.8-4.6,1.8-6.4,0h0
        c-1.8-1.8-1.8-4.6,0-6.4l12.7-12.7C163.3,316.3,166.2,316.3,167.9,318.1z"/>
      <path style="fill:#FFFFFF;" d="M147,267.5L147,267.5c0,2.5-2,4.5-4.5,4.5h-18c-2.5,0-4.5-2-4.5-4.5l0,0c0-2.5,2-4.5,4.5-4.5h18
        C145,263,147,265,147,267.5z"/>
      <path style="fill:#FFFFFF;" d="M167.9,216.9L167.9,216.9c-1.8,1.8-4.6,1.8-6.4,0l-12.7-12.7c-1.8-1.8-1.8-4.6,0-6.4l0,0
        c1.8-1.8,4.6-1.8,6.4,0l12.7,12.7C169.7,212.3,169.7,215.2,167.9,216.9z"/>
    </g>
  </g>
  <g id="illu01-body">
    <path id="Path_49" style="fill:#FFFFFF;" d="M222.4,459c0,0,84.3-82,92.7-97.8c-22.7-6.2-60.8-13.4-60.8-26.5
      c0-9.5-0.9-45.9-0.9-45.9h-62.2c0,0-0.9,36.4-0.9,45.9c0,13-37.7,20.2-60.4,26.4C138,376.9,222.4,459,222.4,459z"/>
    <path id="Path_52" style="fill:#FF9B7A;" d="M222,523.7c134.1,0,163.7-70.9,163.7-70.9s-36.3-81.7-68-90.7l-2.7-0.7
      c-8.3,15.8-92.7,97.8-92.7,97.8s-84.4-82.2-92.7-97.9l-3.1,0.9c-31.8,9.1-49.9,49.9-68,90.7C58.6,452.8,87.9,523.7,222,523.7z"/>
  </g>
  <g id="illu01-head">
    <path style="fill:#FFFFFF;" d="M288.1,231.9c0.3-2.4,0.4-4.9,0.4-7.4c0-35.7-29-64.7-64.7-64.7c-35.7,0-64.7,29-64.7,64.7
      c0,2.6,0.2,5.1,0.5,7.6c-0.1,0.5-0.3,0.9-0.4,1.4c3.9,87.7,64.6,96,64.6,96s63.1-8.3,64.9-95C288.5,233.7,288.3,232.8,288.1,231.9z
      "/>
    <path id="Path_53" d="M278.4,143.5c-21-17.9-42-21-67.7-18.9c-16,1.3-52.5,18.3-67.4,44.6c-21.1,37.5-30.2,144.5-30.2,155.9
      c0,9.8,45.7,63.9,67.3,58c29.5-8,23.3-48.8,10.2-69.6c-9.3-14.8-19.8-27.3-24.9-44.2c-6.5-21.6,0.2-52.3,9.6-74.7
      c8.9,8.2,25.6,15.9,39.3,19.4c14.5,3.6,49.4,7.4,58.4,23.4c9,16.1-8,61.6-19.3,79.5c-11.3,17.9-22.9,52.2-0.8,65.6
      c21,12.7,74.6-44.8,74.6-59c0-8.2-0.3-68.5-12.6-118C306,169.1,285.6,149.6,278.4,143.5z"/>
    <path id="Path_54" d="M194.5,228.4c4.4-0.3,8.7,0.8,12.4,3.3c2.3,1.5,2.9,3.7,1.5,5.5c-1.4,1.8-3.5,1.6-5.5-0.2
      c-3.9-3.3-9.4-4-14-1.9c-1.6,0.8-3.1,1.8-4.7,2.5c-1,0.5-2.3,1.4-3.3,0c-1-1.4,0-2.5,1-3.6C184.9,230.2,189.6,228.1,194.5,228.4z"
      />
    <path id="Path_55" d="M226.5,245.7c-0.6,3.9-2.1,7.6-4.4,10.8c-0.2,0.4-0.6,0.8-0.9,1.2c-2.4,3.4-2.4,3.4,1.1,5.6
      c1.7,1.2,3.5,2.3,5.3,3.3c1.2,0.5,1.8,1.8,1.3,3c0,0,0,0,0,0c-0.1,0.2-0.1,0.3-0.2,0.4c-0.5,1.1-1.8,1.6-2.9,1.2
      c-0.2-0.1-0.3-0.1-0.4-0.2c-4.1-2.5-7.6-5.9-10.4-9.9c-0.6-1.4-0.4-3,0.6-4.1c1.3-2.1,2.6-4.2,4-6.2c1.8-2.4,3.2-5.2,3.9-8.2
      c0-0.5,0.3-1,0.7-1c0.6,0,1.1,0.3,1.3,0.8C226.1,243.5,226.4,244.6,226.5,245.7z"/>
    <path id="Path_56" d="M252.8,229c3.7-0.2,7.4,0.8,10.5,2.7c1.1,0.7,1.9,1.6,2.5,2.7c0.6,1.1,0.3,2.4-0.8,3.1
      c-1,0.7-2.5,0.4-3.2-0.6l0-0.1c-2.3-2.8-6.1-4.1-9.7-3.1c-2.6,0.1-5.2,1.1-7,2.9c-0.7,0.9-2.1,1.1-3,0.4c0,0,0,0,0,0
      c-0.1-0.1-0.1-0.1-0.2-0.2c-1-0.8-1.2-2.3-0.4-3.3l0,0c2-2.7,5.1-4.3,8.5-4.5C251,229,251.9,229,252.8,229z"/>
    <g id="illu01-smile">
      <path style="fill:none;stroke:#FF9B7A;stroke-width:5;stroke-linecap:round;stroke-miterlimit:10;" d="M207.3,283.9
        c0,0,6,9.7,18.1,9.7s18.3-9.7,18.3-9.7"/>
    </g>
  </g>
  <g id="cloudrain">
    <g id="illu01-raindrop01">
      <path style="fill:#FFFFFF;" d="M150.5,91L150.5,91c-2.5,0-4.5-2-4.5-4.5v-18c0-2.5,2-4.5,4.5-4.5l0,0c2.5,0,4.5,2,4.5,4.5v18
        C155,89,153,91,150.5,91z"/>
    </g>
    <g id="illu01-raindrop02">
      <path style="fill:#FFFFFF;" d="M219,91L219,91c-2.5,0-4.5-2-4.5-4.5v-18c0-2.5,2-4.5,4.5-4.5l0,0c2.5,0,4.5,2,4.5,4.5v18
        C223.5,89,221.5,91,219,91z"/>
    </g>
    <g id="illu01-raindrop03">
      <path style="fill:#FFFFFF;" d="M253.2,91L253.2,91c-2.5,0-4.5-2-4.5-4.5v-18c0-2.5,2-4.5,4.5-4.5l0,0c2.5,0,4.5,2,4.5,4.5v18
        C257.8,89,255.7,91,253.2,91z"/>
    </g>
    <g id="illu01-raindrop04">
      <path style="fill:#FFFFFF;" d="M287.5,91L287.5,91c-2.5,0-4.5-2-4.5-4.5v-18c0-2.5,2-4.5,4.5-4.5l0,0c2.5,0,4.5,2,4.5,4.5v18
        C292,89,290,91,287.5,91z"/>
    </g>
    <g id="illu01-raindrop05">
      <path style="fill:#FFFFFF;" d="M184.8,91L184.8,91c-2.5,0-4.5-2-4.5-4.5v-18c0-2.5,2-4.5,4.5-4.5l0,0c2.5,0,4.5,2,4.5,4.5v18
        C189.2,89,187.2,91,184.8,91z"/>
    </g>           
    <g id="illu01-cloud">
      <path d="M388.6,68.8h-12.9c0.3-1.3,0.4-2.6,0.4-4c0-11.6-9.4-21-21-21c-1.2,0-2.4,0.1-3.5,0.3c-9-25.8-34.2-44.3-64-44.3
        c-28.5,0-52.9,17.1-62.8,41.2c-7.5-5.1-17.4-8.2-28.2-8.2c-19.4,0-35.8,9.9-40.8,23.5c-1.5-0.3-3.1-0.5-4.7-0.5
        c-6.8,0-12.9,3.3-16.7,8.3c-2.8-12.2-13.7-21.3-26.8-21.3c-14.7,0-26.7,11.5-27.5,26H51.6c-8,0-14.5,6.5-14.5,14.5
        c0,8,6.5,14.5,14.5,14.5h337c8,0,14.5-6.5,14.5-14.5C403.1,75.3,396.6,68.8,388.6,68.8z"/>
    </g>
  </g>
</svg>