<svg id="illu-positivity" xmlns="http://www.w3.org/2000/svg" viewBox="0 0 542.03 517.9"><g id="woman"><path id="Path_49" data-name="Path 49" d="M320.3,453.77s83.9-81.62,92.29-97.34C390,350.28,352,343.08,352,330.06c0-9.48-.92-45.69-.92-45.69h-62s-.92,36.21-.92,45.69c0,12.95-37.54,20.12-60.18,26.24C236.24,372.06,320.3,453.77,320.3,453.77Z" transform="translate(-27.05 -58.39)" style="fill:#fff"/><path id="Path_52" data-name="Path 52" d="M319.91,518.24c133.53,0,163-70.62,163-70.62s-36.12-81.32-67.68-90.33l-2.65-.74c-8.3,15.72-92.3,97.34-92.3,97.34s-84-81.83-92.29-97.47l-3.08.86c-31.63,9-49.69,49.68-67.68,90.32C157.21,447.6,186.38,518.24,319.91,518.24Z" transform="translate(-27.05 -58.39)" style="fill:#ff9b7a"/><g id="head"><path d="M384.84,229.76a64.42,64.42,0,1,0-128.41-7.35,65.33,65.33,0,0,0,.45,7.57c-.12.46-.25.92-.36,1.39,3.9,87.34,64.33,95.59,64.33,95.59s62.85-8.23,64.6-94.54C385.26,231.53,385.05,230.64,384.84,229.76Z" transform="translate(-27.05 -58.39)" style="fill:#fff"/><path id="Path_53" data-name="Path 53" d="M375.21,141.76C354.32,124,333.43,120.84,307.83,123c-16,1.29-52.3,18.18-67.13,44.4-21,37.34-30.09,143.85-30.09,155.21,0,9.78,45.5,63.59,67,57.71,29.37-8,23.19-48.55,10.18-69.31-9.23-14.77-19.75-27.2-24.83-44-6.46-21.53.22-52.07,9.57-74.39,8.83,8.18,25.45,15.88,39.17,19.32,14.39,3.6,49.22,7.33,58.14,23.33s-7.94,61.28-19.2,79.11-22.79,51.94-.77,65.28c20.9,12.69,74.3-44.63,74.3-58.72,0-8.13-.27-68.21-12.55-117.44C402.63,167.27,382.32,147.8,375.21,141.76Z" transform="translate(-27.05 -58.39)"/><path id="Path_49-2" data-name="Path 49" d="M320.3,453.77s83.9-81.62,92.29-97.34C390,350.28,352,343.08,352,330.06c0-9.48-.92-45.69-.92-45.69h-62s-.92,36.21-.92,45.69c0,12.95-37.54,20.12-60.18,26.24C236.24,372.06,320.3,453.77,320.3,453.77Z" transform="translate(-27.05 -58.39)" style="fill:#fff"/><path d="M306.38,285.06a17.63,17.63,0,0,0,14.32,7.67c9.59,0,14.55-7.67,14.55-7.67" transform="translate(-27.05 -58.39)" style="fill:none;stroke:#ff9b7a;stroke-linecap:round;stroke-miterlimit:10;stroke-width:5.973196563300863px"/><path d="M302.4,235.44s-10.46-7.46-20.56,0" transform="translate(-27.05 -58.39)" style="fill:none;stroke:#000;stroke-linecap:round;stroke-linejoin:round;stroke-width:5.973196563300863px"/><path d="M337.24,235.44s10.45-7.46,20.56,0" transform="translate(-27.05 -58.39)" style="fill:none;stroke:#000;stroke-linecap:round;stroke-linejoin:round;stroke-width:5.973196563300863px"/><path d="M317.33,248.39,312.6,261a3.29,3.29,0,0,0,2.16,4.31l8.54,2.49" transform="translate(-27.05 -58.39)" style="fill:none;stroke:#000;stroke-linecap:round;stroke-linejoin:round;stroke-width:5.973196563300863px"/></g></g><g id="icecream-in-cloud"><g id="cloud"><g id="cloud-trail"><circle id="cloud-trail-3" cx="498.38" cy="508.24" r="9.66" style="fill:#fff"/><circle id="cloud-trail-2" cx="449.22" cy="474.71" r="14.59" style="fill:#fff"/><circle id="cloud-trail-1" cx="397.77" cy="431.14" r="18.97" style="fill:#fff"/></g><g id="cloud-body"><circle cx="97.74" cy="182.94" r="97.74" style="fill:#fff"/><circle cx="216.78" cy="260.12" r="145.05" style="fill:#fff"/><circle cx="245.24" cy="145.05" r="145.05" style="fill:#fff"/><circle cx="396.98" cy="232.41" r="145.05" style="fill:#fff"/></g></g><g id="icecream"><circle cx="219.23" cy="124.57" r="61.72" style="fill:#ff9b7a"/><path d="M358.19,181.4s-14,12.11-16.73,23.41-7.69,19.2-7.24,26.09,6.33,16.41.45,21.84-9.57,1.73-9.57,1.73L327.44,194l20-15.37Z" transform="translate(-27.05 -58.39)" style="fill:#be1e2d"/><circle cx="287.41" cy="88.69" r="55.61" style="fill:#be1e2d"/><circle cx="249.98" cy="144.29" r="55.61" style="fill:#fff"/><path d="M274.36,215H220.58a5,5,0,0,0-4.86,6.14L267.2,438.45a7.35,7.35,0,0,0,14.31,0L333,221.18a5,5,0,0,0-4.86-6.14Z" transform="translate(-27.05 -58.39)" style="fill:#db694c"/><path d="M234,215s-11.92,7-10,25.46,3.62,30.56,3.62,30.56-12,6.83-12-2.5,11.36-18.83-6.27-36.18,12.94-40.84,12.94-40.84a21.44,21.44,0,0,0,1.68,14.86C227.84,214.24,234,215,234,215Z" transform="translate(-27.05 -58.39)" style="fill:#ff9b7a"/><path d="M259.62,217.92h0a47.15,47.15,0,0,1,10.05,18c4.38,15.27.32,33-3.45,66-.34,3-.91,8.56,2.21,10.93,2.86,2.16,8.24,1.27,10.91-1.64s2.21-7.05,2-8.93c-1.39-13.37-5.31-43.37-4.73-62.68.4-13.07,2.77-18.6,7-21.71,4.43-3.28,9.81-3.18,12.66-2.88v-22l-54.71,3.17,2,18.82C246.29,214.59,253.24,213.88,259.62,217.92Z" transform="translate(-27.05 -58.39)" style="fill:#fff"/></g></g></svg>