<svg id="illu-seated-cat-cows" xmlns="http://www.w3.org/2000/svg" viewBox="0 0 224.86 404.25"><path id="chair" d="M150,306V295.89a12.15,12.15,0,0,0-12.14-12.14H41.41L13.88,135a1.84,1.84,0,0,0-1.81-1.51H6.85A1.84,1.84,0,0,0,5,135.6L23.71,283.75V306L14.87,424.5a1.4,1.4,0,0,0,1.39,1.5h6.13a1.39,1.39,0,0,0,1.38-1.19L39.71,317.46A13.43,13.43,0,0,1,53,306h67.75A13.43,13.43,0,0,1,134,317.46L150,424.81a1.41,1.41,0,0,0,1.39,1.19h6.13a1.4,1.4,0,0,0,1.39-1.5Z" transform="translate(-5 -21.75)" style="fill:#d3562c"/><g id="legs"><path d="M229.82,424.24c-.4-1.55-1.2-6.75-1.2-6.75S211,414.56,208.1,413.2l-29.58-13.73v-8.72L183,363.49l-25.15,0v27.2L152.27,418a6.71,6.71,0,0,0,6.58,8h7.36a24.28,24.28,0,0,0,6.51-.89l5.19-1.45a30.75,30.75,0,0,1,15-.37L205,426h23.49A1.41,1.41,0,0,0,229.82,424.24Z" transform="translate(-5 -21.75)" style="fill:#fff"/><path d="M103.41,227.53l75.11,14.78c11.35,2.39,20.72,9.28,20.72,20.72a66.87,66.87,0,0,1-.55,7.23L183,363.49l-25.15,0V283.75H61.33c-25-15.65-18-46.65-4.32-64.07Z" transform="translate(-5 -21.75)" style="fill:#231f20"/></g><g id="body"><g id="head-neck"><rect id="neck" x="70.33" y="63.65" width="23.93" height="49.95" rx="8.92" transform="translate(137.57 171.72) rotate(-167.01)" style="fill:#fff"/><g id="head"><path d="M86.41,28.54c15.94-1.32,28.28,4.88,33.42,19.77a46.57,46.57,0,0,1,1.59,8.3,5.32,5.32,0,0,1-1.1,3.78L119,62.16l4.83,8a2,2,0,0,1-1.5,3l-3.67.46,1.64,3.16a1.27,1.27,0,0,1-.73,1.79l-2.62.94,1.59,1.61a1.28,1.28,0,0,1-.52,2.13l-2,.66s1.61,7.86-6.47,7.29C104.46,90.83,98,88.91,95.22,88c-4.29-1.38-7.3-9.79-8.49-12.18-12.84-3.72-17-5.84-20.92-15C60.22,47.66,70.45,29.86,86.41,28.54Z" transform="translate(-5 -21.75)" style="fill:#fff"/><polyline points="109.82 39.37 106.48 42.05 107.96 44.66" style="fill:none;stroke:#231f20;stroke-linecap:round;stroke-linejoin:round;stroke-width:2px"/><path d="M119.82,56.77a9,9,0,0,0-8.86-.61" transform="translate(-5 -21.75)" style="fill:none;stroke:#231f20;stroke-linecap:round;stroke-miterlimit:10;stroke-width:2px"/><path d="M124.83,45.23l-22.12,16-8.1,32.14s-40.84-5.9-40.84-35.26,28.53-39.92,45-35.29S124.83,45.23,124.83,45.23Z" transform="translate(-5 -21.75)" style="fill:#231f20"/></g></g><g id="torso-group"><path id="torso-bottom-fixer" d="M61.61,205.8l10.78-19a14.91,14.91,0,0,1,8.75-7,30.55,30.55,0,0,1,16-.48A29.19,29.19,0,0,1,108,184.81a15,15,0,0,1,4.76,17.25l-6,15.43Z" transform="translate(-5 -21.75)" style="fill:#ff9b7a"/><path id="torso-straight" d="M106.75,217.49,61.61,205.8l4.06-12.57L54.46,111.64A16.09,16.09,0,0,1,75.11,94.07c2.86.88,7.34,4.67,7.34,4.67s43.49,50.1,40.67,60.69c-2.68,10-3.83,14.74-3.83,14.74l0,.06,0,.15c-.1.46-.23.92-.37,1.38h0Z" transform="translate(-5 -21.75)" style="fill:#ff9b7a"/><path id="torso-stretched" d="M106.75,217.49,61.61,205.8l13.27-23.34L54.46,121.64a16.09,16.09,0,0,1,20.65-17.57c2.86.88,7.4,2.54,9.36,4.78l0-.11s47.44,38,44.62,48.56A102.08,102.08,0,0,1,124.24,172v.06l0,.15q-.15.69-.36,1.38h0Z" transform="translate(-5 -21.75)" style="fill:#ff9b7a"/><path id="torso-arched" d="M106.75,217.49,61.61,205.8a114.31,114.31,0,0,0-1.69-16.05c-5.75-35.63,20-76.94,35.1-86.33,14.42-8.94,21-10.07,27-6.35,2.54,1.58,7.24,9.41,8.29,12.43,2.05,5.89-2,31.87-3.49,48-.93,10.34-7.21,21.48-7.21,21.48V179l0,.15c-.1.47-.23.93-.37,1.38h0Z" transform="translate(-5 -21.75)" style="fill:#ff9b7a"/><path id="torso-bottom" d="M106.75,217.49,61.61,205.8l-2.88,8.9A25,25,0,0,0,57.07,219a23.69,23.69,0,1,0,45.62,12.8,24,24,0,0,0,.55-2.42h.07Z" transform="translate(-5 -21.75)" style="fill:#231f20"/></g><g id="arm"><g id="upperarm-right"><rect id="upperarm-right-skin" x="43.21" y="130.54" width="99.8" height="24.79" rx="12.39" transform="translate(25.02 279.68) rotate(-125.22)" style="fill:#fff"/><path id="upperarm-right-clothes" d="M77.07,141.7,57.34,121c-3.94-5.59-3.71-17.44,4.09-23s19-1.14,22.94,4.45l21.2,36.6Z" transform="translate(-5 -21.75)" style="fill:#ff9b7a"/></g><g id="forearm-hand"><g id="forearm"><path id="forearm-right-skin" d="M155.66,231.22a6.54,6.54,0,0,1-5.54-2L108.5,185.58a12.11,12.11,0,0,1,.89-17.45h0a12.1,12.1,0,0,1,17.32,2.31L159.9,221.5a6.23,6.23,0,0,1-4.24,9.72Z" transform="translate(-5 -21.75)" style="fill:#fff"/></g><g id="hand"><path d="M152.17,230.81h0c-.58,2.9,2,5.87,5.82,6.62l21.58,4.29c3.8.76,7.34-1,7.92-3.89h0c.57-2.91,1.61-1.57-4.08-3.83l-15.84-8.39c-6.37-2.53-13.77-.35-15.29,4.74C152.24,230.51,152.2,230.66,152.17,230.81Z" transform="translate(-5 -21.75)" style="fill:#fff"/><rect x="179.73" y="237.12" width="17.2" height="6.87" rx="3.43" transform="translate(200.61 523.81) rotate(-145.18)" style="fill:#fff"/><path d="M196.56,257.75h0a2.38,2.38,0,0,0,1.87-2.8L196,242.51a3.11,3.11,0,0,0-3.63-2.48h0a3.11,3.11,0,0,0-2.36,4l3.81,12.09A2.38,2.38,0,0,0,196.56,257.75Z" transform="translate(-5 -21.75)" style="fill:#fff"/></g></g></g></g></svg>