<svg id="illu-ankle-rotations" xmlns="http://www.w3.org/2000/svg" viewBox="0 0 517.91 514.96"><g id="r-foot"><g id="r-foot-down"><polygon points="166.22 281.87 120.74 281.87 115.74 0 171.22 0 166.22 281.87" style="fill:#ff9b7a"/><path d="M208.82,276.38,208.05,320l3.63-9.54a36.21,36.21,0,0,0,.38-24.68Z" transform="translate(-41.83 -38.14)" style="fill:#ff9b7a"/><path d="M161.79,276.38l.77,43.62-3.62-9.54a36.22,36.22,0,0,1-.39-24.68Z" transform="translate(-41.83 -38.14)" style="fill:#ff9b7a"/><path d="M208.05,320l14.73,85.44,4,13.16a157.86,157.86,0,0,1,4.74,71.56l-1.6,9.76-1,5.42a41.06,41.06,0,0,0-.57,10.73l1.58,16.49c0,8.37-4.48,20.54-15.16,20.54s-15.16-12.17-15.16-20.54l1.55-16a41.44,41.44,0,0,0-.77-11.7l-.78-3.68L125,469.41,162.56,320Z" transform="translate(-41.83 -38.14)" style="fill:#ff9b7a"/><path d="M178,522l1.61-39.73h15.95l.81,39.91a9.19,9.19,0,0,1-9.19,9.38h0A9.19,9.19,0,0,1,178,522Z" transform="translate(-41.83 -38.14)" style="fill:#ff9b7a"/><path d="M118.11,428h15.1a0,0,0,0,1,0,0V477.3a7.55,7.55,0,0,1-7.55,7.55h0a7.55,7.55,0,0,1-7.55-7.55V428A0,0,0,0,1,118.11,428Z" style="fill:#ff9b7a"/><path d="M100.93,415.69h15.51a0,0,0,0,1,0,0V465a7.55,7.55,0,0,1-7.55,7.55h-.41a7.55,7.55,0,0,1-7.55-7.55V415.69A0,0,0,0,1,100.93,415.69Z" style="fill:#ff9b7a"/><path d="M83.17,428.81H98.68a0,0,0,0,1,0,0v23.06a7.55,7.55,0,0,1-7.55,7.55h-.41a7.55,7.55,0,0,1-7.55-7.55V428.81A0,0,0,0,1,83.17,428.81Z" style="fill:#ff9b7a"/></g><g id="r-foot-up"><path d="M162.6,320,152.41,435.86l-.6,9.84A28.39,28.39,0,0,0,165.49,472c13.69,8,32.44,5.37,42.84-7.66a26,26,0,0,0,5.53-17.12l-.33-9.46L208.08,320Z" transform="translate(-41.83 -38.14)" style="fill:#ff9b7a"/><polygon points="166.25 281.87 120.77 281.87 115.77 0 171.25 0 166.25 281.87" style="fill:#ff9b7a"/><path d="M208.86,276.38,208.08,320l3.63-9.54a36.27,36.27,0,0,0,.39-24.68Z" transform="translate(-41.83 -38.14)" style="fill:#ff9b7a"/><path d="M161.83,276.38,162.6,320,159,310.46a36.27,36.27,0,0,1-.39-24.68Z" transform="translate(-41.83 -38.14)" style="fill:#ff9b7a"/><path d="M196.47,429.58l17.61-5.44,26.46-29.62-89.68-15.16,2.92,40.92,4.87,3.39A43.63,43.63,0,0,0,196.47,429.58Z" transform="translate(-41.83 -38.14)" style="fill:#ff9b7a"/><path d="M259.23,341c0-13.46-8-24.37-17.77-24.37S223.68,327.57,223.68,341a31.39,31.39,0,0,0,2.54,12.56l-4.82.25a23,23,0,0,0,.28-3.56c0-9.31-5.5-16.86-12.29-16.86-5.85,0-10.74,5.61-12,13.12-2.06-4.67-5.78-7.79-10-7.79-4.62,0-8.6,3.65-10.52,9-2.14-3.08-5.15-5-8.5-5-4.47,0-8.35,3.43-10.34,8.47a10.47,10.47,0,0,0-7.15-3c-5.35,0-9.85,4.55-11.28,10h-.09c-4.07,9.13,4.58,34,12.57,38,0,0,9-4.22,22.73-5.1s20.06,2.47,20.06,2.47l2,2.94c8.93,12.93,24,17.06,36.77,10.07l6.9-3.78c13.64-9.78,19.77-29.34,15.19-47.22A30.59,30.59,0,0,0,259.23,341Z" transform="translate(-41.83 -38.14)" style="fill:#ff9b7a"/><path d="M174.79,391.08c13.75-.88,20.06,2.47,20.06,2.47l2,2.94c8.93,12.93,24,17.06,36.77,10.07l6.9-3.78c13.64-9.78,19.77-29.34,15.19-47.22a30.59,30.59,0,0,0,3.5-14.53c0-13.46-8-24.37-17.77-24.37S223.68,327.57,223.68,341a31.39,31.39,0,0,0,2.54,12.56l-4.82.25a23,23,0,0,0,.28-3.56c0-9.31-5.5-16.86-12.29-16.86-5.85,0-10.74,5.61-12,13.12-2.06-4.67-5.78-7.79-10-7.79-4.62,0-8.6,3.65-10.52,9-2.14-3.08-5.15-5-8.5-5-4.47,0-8.35,3.43-10.34,8.47a10.47,10.47,0,0,0-7.15-3c-5.35,0-9.85,4.55-11.28,10h-.09c-4.07,9.13,4.58,34,12.57,38" transform="translate(-41.83 -38.14)" style="fill:none;stroke:#fff;stroke-miterlimit:10;stroke-width:2px"/></g><g id="r-foot-up-left"><path d="M163.22,318.42l-19,114.74-1.35,9.76a28.37,28.37,0,0,0,11.62,27.27c13,9,31.94,7.84,43.3-4.35a26,26,0,0,0,6.83-16.64l.4-9.47,3.93-129.2Z" transform="translate(-41.83 -38.14)" style="fill:#ff9b7a"/><polygon points="166.22 281.87 120.74 281.87 100.72 0 171.22 0 166.22 281.87" style="fill:#ff9b7a"/><path d="M214.17,442.71s29-18,34.39-18.7l19.55-2.34a34.11,34.11,0,0,0,21.1-10.86l6.08-6.66,11.61,2,8.19,6.1a11.23,11.23,0,0,0,13.57-4.09h0a11.22,11.22,0,0,0-3-15.6l-16-10.84,18.87,6.83a11.81,11.81,0,0,0,12.32-2.7h0c3.6-3.55,8.58-12.2,10.67-16.72s1.06-1.89,1.45-6.93l-2.18-8.61,9.25-1h0c12.11-3.91,14.08-2.43,17.5-14.69h0c2.26-8.12-2.12-16.88-10.53-16.3l-12.68,8.16L321,331.1a30.56,30.56,0,0,0-11.83,2.9l-18.85,8.91a37.62,37.62,0,0,1-10.83,3.24L237.91,352a23.75,23.75,0,0,1-15.8-3.31l-30.19-18.64,5.83,135.78,2.43-5.93A38.42,38.42,0,0,1,214.17,442.71Z" transform="translate(-41.83 -38.14)" style="fill:#ff9b7a"/></g><g id="r-foot-down-left"><polygon points="166.22 281.87 120.74 281.87 98.15 0 171.22 0 166.22 281.87" style="fill:#ff9b7a"/><path d="M164.26,299.19l-5,20a262,262,0,0,1-19.88,53.83l-10.48,21-2.74,8.12c-3,8.77-.26,18.74,7.44,25.58,11.49,10.2,30.21,12.73,43.13,4.4a20.71,20.71,0,0,0,9.12-13l1.77-8.05L208.1,301.56Z" transform="translate(-41.83 -38.14)" style="fill:#ff9b7a"/><path d="M188.22,435.61l26,22.14a34.15,34.15,0,0,0,20.63,11.71l8.91,1.44,4.65,10.83-.62,10.2a11.24,11.24,0,0,0,10.85,9.12h0A11.24,11.24,0,0,0,270,490l.32-19.32L275,490.22a11.79,11.79,0,0,0,9,8.82h0c4.94,1.07,14.91.5,19.83-.22s2.16-.15,6.59-2.58l6-6.54,5.92,7.18h0c9.9,8,9.75,10.45,21.88,6.6h0c8-2.55,13-11,7.87-17.74l-13.77-6.14-19.39-27.19a30.45,30.45,0,0,0-8.91-8.31s-23.92-15.33-26.42-18.19c0,0-7.88-3.57-27.67-31.58-47.83-67.73-47.83-112.2-47.83-112.2l-38,151,3.53-.88A16.26,16.26,0,0,1,188.22,435.61Z" transform="translate(-41.83 -38.14)" style="fill:#ff9b7a"/></g><g id="r-foot-up-right"><path d="M162.56,320,152.37,435.86l-.59,9.84A28.38,28.38,0,0,0,165.45,472c13.7,8,32.45,5.37,42.84-7.66a26,26,0,0,0,5.53-17.12l-.32-9.46L208.05,320Z" transform="translate(-41.83 -38.14)" style="fill:#ff9b7a"/><polygon points="166.22 281.87 120.74 281.87 115.74 0 171.22 0 166.22 281.87" style="fill:#ff9b7a"/><path d="M208.82,276.38,208.05,320l3.63-9.54a36.21,36.21,0,0,0,.38-24.68Z" transform="translate(-41.83 -38.14)" style="fill:#ff9b7a"/><path d="M161.79,276.38l.77,43.62-3.62-9.54a36.22,36.22,0,0,1-.39-24.68Z" transform="translate(-41.83 -38.14)" style="fill:#ff9b7a"/><path d="M69.79,399.36l5.56,7.11a34.09,34.09,0,0,0,20.2,12.43l19.32,3.84c5.32,1.06,32.85,21.28,32.85,21.28a38.36,38.36,0,0,1,12.63,18.22l2,6.1L178.54,333.4,147,349.68a23.8,23.8,0,0,1-16,2.09l-41-9a37.39,37.39,0,0,1-10.55-4.06h0a42.83,42.83,0,0,0-13.16,53.57Z" transform="translate(-41.83 -38.14)" style="fill:#ff9b7a"/><path d="M97.69,336.56l3.1,5.67a8.26,8.26,0,0,0,5.46,4.09l11.64,2.57s-48.44,14.69-56,1.57-5.07-28.76,5.6-34.92C73.94,311.81,79,324.07,86,328,90.54,330.62,97.69,336.56,97.69,336.56Z" transform="translate(-41.83 -38.14)" style="fill:#ff9b7a"/><ellipse cx="68.61" cy="367.3" rx="12.24" ry="15.06" transform="translate(-310.52 168.41) rotate(-53.94)" style="fill:#ff9b7a"/><ellipse cx="68.61" cy="382.44" rx="12.24" ry="15.06" transform="translate(-360.58 313.91) rotate(-75.34)" style="fill:#ff9b7a"/><ellipse cx="76.88" cy="392.84" rx="15.06" ry="12.24" transform="translate(-86.15 -26.8) rotate(-6.55)" style="fill:#ff9b7a"/><ellipse cx="82.64" cy="407.51" rx="15.38" ry="7.76" transform="translate(-117.85 -14.97) rotate(-10.97)" style="fill:#ff9b7a"/></g><g id="r-foot-down-right"><path d="M162.11,295.36l18.35,108.69,1.82,9.15a26.56,26.56,0,0,0,19.52,20.61c15.09,3.84,32.45-3.34,39.26-17.92a23.87,23.87,0,0,0,1.16-17.08l-2.61-8.59L205.78,283.78Z" transform="translate(-41.83 -38.14)" style="fill:#ff9b7a"/><polygon points="165.67 281.87 120.18 281.87 115.18 0 170.67 0 165.67 281.87" style="fill:#ff9b7a"/><ellipse cx="56.4" cy="474.24" rx="14.96" ry="12.16" transform="translate(-221.63 21.03) rotate(-22.86)" style="fill:#ff9b7a"/><ellipse cx="60.14" cy="461.61" rx="14.96" ry="12.16" transform="translate(-216.44 21.49) rotate(-22.86)" style="fill:#ff9b7a"/><ellipse cx="57.4" cy="490.39" rx="14.96" ry="12.16" transform="translate(-271.53 50.57) rotate(-28.88)" style="fill:#ff9b7a"/><ellipse cx="74.72" cy="486.45" rx="14.96" ry="12.16" transform="translate(-388.18 193.52) rotate(-50.09)" style="fill:#ff9b7a"/><ellipse cx="88.9" cy="493.08" rx="15.27" ry="7.7" transform="translate(-405.99 241.02) rotate(-54.5)" style="fill:#ff9b7a"/><path d="M160.53,282.14,133.11,369.9a43.9,43.9,0,0,1-12.51,19.51c-11.87,10.71-31.74,28.47-35,30.45,0,0-17.62,12.82-31.06,20.19a12.49,12.49,0,0,0-6,14.48c.48,1.63,4-.58,4.63,1.26,4.15,12.24,2.08,33.29,13.51,37.49L74.08,496l-19,13.25A9.91,9.91,0,0,0,53,524.17a21.73,21.73,0,0,0,16.32,7.37h.63c10,0,24.83-11.39,28-20.89l3.24-9.87,22.51-5.22a32.08,32.08,0,0,0,18.94-12.75c6.06-8.59,13.6-20.55,17.38-28.07a21.9,21.9,0,0,1,7.79-8.66l14.55-9.22a41,41,0,0,1,23.93-6.32l19,.91Z" transform="translate(-41.83 -38.14)" style="fill:#ff9b7a"/></g></g><g id="l-foot"><g id="l-foot-down"><polygon points="351.69 281.87 397.18 281.87 402.18 0 346.69 0 351.69 281.87" style="fill:#ff9b7a"/><path d="M392.75,276.38l.77,43.62-3.63-9.54a36.21,36.21,0,0,1-.38-24.68Z" transform="translate(-41.83 -38.14)" style="fill:#ff9b7a"/><path d="M439.78,276.38,439,320l3.63-9.54a36.22,36.22,0,0,0,.39-24.68Z" transform="translate(-41.83 -38.14)" style="fill:#ff9b7a"/><path d="M393.52,320l-14.73,85.44-4,13.16A157.86,157.86,0,0,0,370,490.16l1.6,9.76,1,5.42a41.06,41.06,0,0,1,.57,10.73l-1.58,16.49c0,8.37,4.48,20.54,15.16,20.54S402,540.93,402,532.56l-1.55-16a41.44,41.44,0,0,1,.77-11.7l.78-3.68,74.61-31.78L439,320Z" transform="translate(-41.83 -38.14)" style="fill:#ff9b7a"/><path d="M423.57,522,422,482.25H406l-.81,39.91a9.19,9.19,0,0,0,9.19,9.38h0A9.19,9.19,0,0,0,423.57,522Z" transform="translate(-41.83 -38.14)" style="fill:#ff9b7a"/><path d="M434.08,466.14h0a7.55,7.55,0,0,1,7.55,7.55V523a0,0,0,0,1,0,0h-15.1a0,0,0,0,1,0,0V473.69A7.55,7.55,0,0,1,434.08,466.14Z" transform="translate(826.33 950.99) rotate(-180)" style="fill:#ff9b7a"/><path d="M450.85,453.83h.41a7.55,7.55,0,0,1,7.55,7.55v49.29a0,0,0,0,1,0,0H443.3a0,0,0,0,1,0,0V461.37A7.55,7.55,0,0,1,450.85,453.83Z" transform="translate(860.28 926.36) rotate(-180)" style="fill:#ff9b7a"/><path d="M468.61,466.94H469a7.55,7.55,0,0,1,7.55,7.55v23.06a0,0,0,0,1,0,0H461.07a0,0,0,0,1,0,0V474.49a7.55,7.55,0,0,1,7.55-7.55Z" transform="translate(895.81 926.36) rotate(-180)" style="fill:#ff9b7a"/></g><g id="l-foot-up"><path d="M439,320l10.19,115.86.6,9.84A28.39,28.39,0,0,1,436.08,472c-13.69,8-32.44,5.37-42.84-7.66a26,26,0,0,1-5.53-17.12l.33-9.46L393.49,320Z" transform="translate(-41.83 -38.14)" style="fill:#ff9b7a"/><polygon points="351.66 281.87 397.14 281.87 402.14 0 346.66 0 351.66 281.87" style="fill:#ff9b7a"/><path d="M392.71,276.38l.78,43.62-3.63-9.54a36.22,36.22,0,0,1-.39-24.68Z" transform="translate(-41.83 -38.14)" style="fill:#ff9b7a"/><path d="M439.74,276.38,439,320l3.63-9.54a36.27,36.27,0,0,0,.39-24.68Z" transform="translate(-41.83 -38.14)" style="fill:#ff9b7a"/><path d="M405.1,429.58l-17.61-5.44L361,394.52l89.68-15.16-2.92,40.92-4.87,3.39A43.64,43.64,0,0,1,405.1,429.58Z" transform="translate(-41.83 -38.14)" style="fill:#ff9b7a"/><path d="M342.34,341c0-13.46,8-24.37,17.77-24.37s17.78,10.91,17.78,24.37a31.39,31.39,0,0,1-2.54,12.56l4.82.25a23,23,0,0,1-.28-3.56c0-9.31,5.5-16.86,12.29-16.86,5.85,0,10.73,5.61,12,13.12,2.06-4.67,5.78-7.79,10-7.79,4.62,0,8.6,3.65,10.52,9,2.14-3.08,5.15-5,8.5-5,4.47,0,8.35,3.43,10.34,8.47a10.47,10.47,0,0,1,7.15-3c5.35,0,9.85,4.55,11.28,10h.09c4.07,9.13-4.58,34-12.57,38,0,0-9-4.22-22.73-5.1s-20.06,2.47-20.06,2.47l-2,2.94c-8.92,12.93-24,17.06-36.76,10.07l-6.9-3.78c-13.64-9.78-19.77-29.34-15.19-47.22A30.59,30.59,0,0,1,342.34,341Z" transform="translate(-41.83 -38.14)" style="fill:#ff9b7a"/><path d="M426.78,391.08c-13.75-.88-20.06,2.47-20.06,2.47l-2,2.94c-8.92,12.93-24,17.06-36.76,10.07l-6.9-3.78c-13.64-9.78-19.77-29.34-15.19-47.22a30.59,30.59,0,0,1-3.5-14.53c0-13.46,8-24.37,17.77-24.37s17.78,10.91,17.78,24.37a31.39,31.39,0,0,1-2.54,12.56l4.82.25a23,23,0,0,1-.28-3.56c0-9.31,5.5-16.86,12.29-16.86,5.85,0,10.73,5.61,12,13.12,2.06-4.67,5.78-7.79,10-7.79,4.62,0,8.6,3.65,10.52,9,2.14-3.08,5.15-5,8.5-5,4.47,0,8.35,3.43,10.34,8.47a10.47,10.47,0,0,1,7.15-3c5.35,0,9.85,4.55,11.28,10h.09c4.07,9.13-4.58,34-12.57,38" transform="translate(-41.83 -38.14)" style="fill:none;stroke:#fff;stroke-miterlimit:10;stroke-width:2px"/></g><g id="l-foot-up-left"><path d="M438.35,318.42l19,114.74,1.35,9.76a28.39,28.39,0,0,1-11.62,27.27c-13,9-31.94,7.84-43.3-4.35A26,26,0,0,1,397,449.2l-.4-9.47-3.93-129.2Z" transform="translate(-41.83 -38.14)" style="fill:#ff9b7a"/><polygon points="351.69 281.87 397.18 281.87 417.19 0 346.69 0 351.69 281.87" style="fill:#ff9b7a"/><path d="M387.4,442.71s-29-18-34.39-18.7l-19.55-2.34a34.11,34.11,0,0,1-21.1-10.86l-6.08-6.66-11.61,2-8.19,6.1a11.25,11.25,0,0,1-13.58-4.09h0a11.23,11.23,0,0,1,3-15.6l16-10.84L273,388.59a11.81,11.81,0,0,1-12.32-2.7h0c-3.6-3.55-8.58-12.2-10.67-16.72s-1.06-1.89-1.45-6.93l2.18-8.61-9.25-1h0c-12.11-3.91-14.08-2.43-17.5-14.69h0c-2.26-8.12,2.12-16.88,10.53-16.3l12.68,8.16,33.38,1.34a30.47,30.47,0,0,1,11.82,2.9l18.86,8.91a37.52,37.52,0,0,0,10.83,3.24L363.66,352a23.75,23.75,0,0,0,15.8-3.31l30.19-18.64-5.83,135.78-2.43-5.93A38.42,38.42,0,0,0,387.4,442.71Z" transform="translate(-41.83 -38.14)" style="fill:#ff9b7a"/></g><g id="l-foot-down-left"><polygon points="351.69 281.87 397.18 281.87 419.77 0 346.69 0 351.69 281.87" style="fill:#ff9b7a"/><path d="M437.31,299.19l5,20a262,262,0,0,0,19.88,53.83l10.48,21,2.74,8.12c3,8.77.26,18.74-7.44,25.58-11.49,10.2-30.21,12.73-43.13,4.4a20.71,20.71,0,0,1-9.12-13l-1.77-8.05L393.47,301.56Z" transform="translate(-41.83 -38.14)" style="fill:#ff9b7a"/><path d="M413.35,435.61l-26,22.14a34.17,34.17,0,0,1-20.63,11.71l-8.91,1.44-4.65,10.83.62,10.2A11.24,11.24,0,0,1,343,501.05h0A11.24,11.24,0,0,1,331.55,490l-.32-19.32-4.61,19.54a11.79,11.79,0,0,1-9,8.82h0c-4.94,1.07-14.91.5-19.83-.22s-2.16-.15-6.59-2.58l-6-6.54-5.92,7.18h0c-9.9,8-9.75,10.45-21.88,6.6h0c-8-2.55-13-11-7.87-17.74l13.77-6.14,19.39-27.19a30.45,30.45,0,0,1,8.91-8.31s23.92-15.33,26.42-18.19c0,0,7.88-3.57,27.67-31.58,47.83-67.73,47.83-112.2,47.83-112.2l38,151-3.53-.88A16.26,16.26,0,0,0,413.35,435.61Z" transform="translate(-41.83 -38.14)" style="fill:#ff9b7a"/></g><g id="l-foot-up-right"><path d="M439,320l10.2,115.86.59,9.84A28.38,28.38,0,0,1,436.12,472c-13.7,8-32.45,5.37-42.84-7.66a26,26,0,0,1-5.53-17.12l.32-9.46L393.52,320Z" transform="translate(-41.83 -38.14)" style="fill:#ff9b7a"/><polygon points="351.69 281.87 397.18 281.87 402.18 0 346.69 0 351.69 281.87" style="fill:#ff9b7a"/><path d="M392.75,276.38l.77,43.62-3.63-9.54a36.21,36.21,0,0,1-.38-24.68Z" transform="translate(-41.83 -38.14)" style="fill:#ff9b7a"/><path d="M439.78,276.38,439,320l3.63-9.54a36.22,36.22,0,0,0,.39-24.68Z" transform="translate(-41.83 -38.14)" style="fill:#ff9b7a"/><path d="M531.78,399.36l-5.56,7.11A34.09,34.09,0,0,1,506,418.9l-19.32,3.84C481.38,423.8,453.85,444,453.85,444a38.36,38.36,0,0,0-12.63,18.22l-2,6.1L423,333.4l31.53,16.28a23.8,23.8,0,0,0,16,2.09l41-9a37.39,37.39,0,0,0,10.55-4.06h0a42.84,42.84,0,0,1,13.16,53.57Z" transform="translate(-41.83 -38.14)" style="fill:#ff9b7a"/><path d="M503.88,336.56l-3.1,5.67a8.26,8.26,0,0,1-5.46,4.09l-11.65,2.57s48.45,14.69,56,1.57,5.07-28.76-5.6-34.92c-6.46-3.73-11.55,8.53-18.52,12.5C511,330.62,503.88,336.56,503.88,336.56Z" transform="translate(-41.83 -38.14)" style="fill:#ff9b7a"/><ellipse cx="532.96" cy="367.3" rx="15.06" ry="12.24" transform="translate(-155.91 345.98) rotate(-36.06)" style="fill:#ff9b7a"/><ellipse cx="532.96" cy="382.44" rx="15.06" ry="12.24" transform="translate(-121.26 109.17) rotate(-14.66)" style="fill:#ff9b7a"/><ellipse cx="524.69" cy="392.84" rx="12.24" ry="15.06" transform="translate(32.72 831.14) rotate(-83.45)" style="fill:#ff9b7a"/><ellipse cx="518.93" cy="407.51" rx="7.76" ry="15.38" transform="translate(-21.69 801.3) rotate(-79.03)" style="fill:#ff9b7a"/></g><g id="l-foot-down-right"><path d="M439.46,295.36,421.11,404.05l-1.82,9.15a26.56,26.56,0,0,1-19.52,20.61c-15.09,3.84-32.45-3.34-39.26-17.92a23.87,23.87,0,0,1-1.16-17.08l2.61-8.59,33.83-106.44Z" transform="translate(-41.83 -38.14)" style="fill:#ff9b7a"/><polygon points="352.25 281.87 397.73 281.87 402.73 0 347.25 0 352.25 281.87" style="fill:#ff9b7a"/><ellipse cx="545.16" cy="474.24" rx="12.16" ry="14.96" transform="translate(-145.44 754.21) rotate(-67.14)" style="fill:#ff9b7a"/><ellipse cx="541.43" cy="461.61" rx="12.16" ry="14.96" transform="translate(-136.09 743.05) rotate(-67.14)" style="fill:#ff9b7a"/><ellipse cx="544.17" cy="490.39" rx="12.16" ry="14.96" transform="translate(-189.88 691.91) rotate(-61.12)" style="fill:#ff9b7a"/><ellipse cx="526.85" cy="486.45" rx="12.16" ry="14.96" transform="translate(-231.2 413.22) rotate(-39.91)" style="fill:#ff9b7a"/><ellipse cx="512.67" cy="493.08" rx="7.7" ry="15.27" transform="translate(-232.86 351.17) rotate(-35.5)" style="fill:#ff9b7a"/><path d="M441,282.14l27.43,87.76A43.9,43.9,0,0,0,481,389.41c11.87,10.71,31.74,28.47,35,30.45,0,0,17.62,12.82,31,20.19a12.49,12.49,0,0,1,6,14.48c-.48,1.63-4-.58-4.63,1.26-4.15,12.24-2.08,33.29-13.51,37.49L527.49,496l19,13.25a9.91,9.91,0,0,1,2.1,14.92,21.73,21.73,0,0,1-16.32,7.37h-.63c-10,0-24.83-11.39-27.95-20.89l-3.24-9.87L478,495.56A32.08,32.08,0,0,1,459,482.81c-6.06-8.59-13.6-20.55-17.38-28.07a21.9,21.9,0,0,0-7.79-8.66l-14.56-9.22a41,41,0,0,0-23.92-6.32l-19,.91Z" transform="translate(-41.83 -38.14)" style="fill:#ff9b7a"/></g></g></svg>