<svg id="breatheman" xmlns="http://www.w3.org/2000/svg" viewBox="0 0 602.41 872.43"><g id="breatheman-chest"><path d="M323.78,525.3l-209.95,72C54.35,617.7,17.06,673.55,23.23,733l9.88,95.15s18.52,121.9,290.67,121.9,290.66-121.9,290.66-121.9L624.32,733c6.17-59.46-31.11-115.31-90.59-135.71Z" transform="translate(-22.57 -77.63)" style="fill:#fff"/></g><g id="breatheman-neck"><circle cx="301.21" cy="517.76" r="70.09" style="fill:#ff9b7a"/><rect x="231.12" y="325.52" width="140.17" height="192.24" style="fill:#ff9b7a"/></g><g id="breatheman-head"><circle cx="301.21" cy="205.69" r="158.73" style="fill:#ff9b7a"/><path d="M323.78,522.76h0c71.79,0,130-68.2,130-140v-118h-260v118C193.78,454.56,252,522.76,323.78,522.76Z" transform="translate(-22.57 -77.63)" style="fill:#ff9b7a"/><polyline id="breatheman-nose" points="288.28 281.65 274 326.8 307.67 335.01" style="fill:none;stroke:#000;stroke-linecap:round;stroke-linejoin:round;stroke-width:10px"/><path d="M356.38,343.3a32,32,0,0,0,41.23,0" transform="translate(-22.57 -77.63)" style="fill:none;stroke:#000;stroke-linecap:round;stroke-linejoin:round;stroke-width:10px"/><path d="M242.43,343.3a32,32,0,0,0,41.23,0" transform="translate(-22.57 -77.63)" style="fill:none;stroke:#000;stroke-linecap:round;stroke-linejoin:round;stroke-width:10px"/><path d="M291.76,456.78s10.69,6.52,28.24,6.52,28.24-6.52,28.24-6.52" transform="translate(-22.57 -77.63)" style="fill:none;stroke:#db694c;stroke-linecap:round;stroke-linejoin:round;stroke-width:10px"/><g id="breatheman-brows-2" data-name="breatheman-brows"><path d="M297.25,306a53.16,53.16,0,0,0-68.42,0" transform="translate(-22.57 -77.63)" style="fill:none;stroke:#000;stroke-linecap:round;stroke-linejoin:round;stroke-width:10px"/><path d="M416.66,306a53.16,53.16,0,0,0-68.42,0" transform="translate(-22.57 -77.63)" style="fill:none;stroke:#000;stroke-linecap:round;stroke-linejoin:round;stroke-width:10px"/></g><path d="M450.74,412.58l-1.18-.13,4.22-80.35h0c6.72.71,17.07,6.37,16.36,13.09l-5.95,56.5A12.24,12.24,0,0,1,450.74,412.58Z" transform="translate(-22.57 -77.63)" style="fill:#ff9b7a"/><path d="M196.82,412.58l1.18-.13-4.22-80.35h0c-6.73.71-17.07,6.37-16.37,13.09l6,56.5A12.24,12.24,0,0,0,196.82,412.58Z" transform="translate(-22.57 -77.63)" style="fill:#ff9b7a"/><path d="M500.05,255.15c.42-4.46,6.62-8.7,6.62-13.26s-6.2-8.79-6.62-13.26,4.86-9.85,4-14.26-7.74-7.45-9-11.78S498,192,496.33,187.83s-9-5.87-11-9.91,1-10.91-1.42-14.75-9.88-4.19-12.6-7.82-.9-10.9-3.91-14.3-10.44-2.48-13.71-5.63-2.63-10.61-6.14-13.49-10.7-.84-14.42-3.45-4.19-10.08-8.09-12.42-10.72.75-14.77-1.3-5.6-9.37-9.79-11.14-10.5,2.25-14.81.78-6.83-8.5-11.22-9.68-10.1,3.66-14.57,2.77S352,80,347.44,79.39s-9.53,5-14.08,4.67-8.8-6.43-13.36-6.43-8.89,6.14-13.36,6.43-9.63-5.24-14.08-4.67-8,7.24-12.41,8.11-10.23-3.94-14.57-2.78-7,8.23-11.22,9.68-10.67-2.52-14.81-.78-5.78,9.11-9.79,11.14-10.91-1-14.76,1.3-4.42,9.83-8.1,12.42-11,.59-14.42,3.44-2.9,10.38-6.14,13.5-10.73,2.26-13.71,5.63-1.22,10.69-3.91,14.3-10.22,4-12.6,7.81.62,10.73-1.42,14.76-9.36,5.7-11,9.9,2.53,10.42,1.26,14.77-8.15,7.32-9,11.77,4.44,9.74,4,14.27-6.62,8.7-6.62,13.26,6.2,8.8,6.62,13.26-4.86,9.85-4,14.27,7.74,7.44,9,11.77S142,291.76,143.67,296s9,5.87,11,9.9-1,10.91,1.42,14.76,9.88,4.18,12.6,7.81.9,10.9,3.91,14.3a9.57,9.57,0,0,0,4.94,2.47c-.18-.4,10.93,22.17,18.6,32.53l-2.39-113s0-72.49,48.65-63.16c37.08,7.12,35.3,31.58,81.35,31.58s44.27-24.46,81.35-31.58c48.65-9.33,48.65,63.16,48.65,63.16l-2.4,113A158.22,158.22,0,0,0,477,324.89c2.75-1.12,5.58-2.18,6.88-4.27,2.39-3.85-.62-10.73,1.42-14.75s9.36-5.71,11-9.91-2.53-10.42-1.26-14.77,8.15-7.31,9-11.77S499.62,259.68,500.05,255.15ZM481.7,299.31v0Z" transform="translate(-22.57 -77.63)"/></g></svg>