<svg xmlns="http://www.w3.org/2000/svg" viewBox="0 0 108.45 108.67"><g id="Layer_2" data-name="Layer 2"><g id="illu-workdays"><g id="calendar"><rect x="0.16" width="100.93" height="100.93" style="fill:#fff"/><rect width="101.09" height="20.63" style="fill:#fb8562"/><polygon points="101.09 0 108.45 7.74 108.45 28.55 101.09 20.63 101.09 0" style="fill:#dd3714"/><polygon points="106.61 106.83 7.15 106.83 7.15 108.67 108.45 108.67 108.45 28.55 106.61 26.57 106.61 106.83" style="fill:#fff"/><polygon points="102.93 22.61 102.93 103.14 3.47 103.14 3.47 104.98 104.77 104.98 104.77 24.59 102.93 22.61" style="fill:#fff"/></g><path d="M31.17,42l-6.92,2.67V34.87l16.15-6H41V63.8H31.17Z"/><path d="M76.88,57H71.67V63.8H62.44V57H46.53V51.29L62.81,29.34h8.86V49.13h5.21ZM62.44,49.13V40.64l-6.18,8.44v.05Z"/><path d="M29.76,81.65c0-3.17,2.14-5.18,4.46-5.18a3.76,3.76,0,0,1,3.3,1.85V72.08h2.13V86.6H37.88l-.26-1.7a3.85,3.85,0,0,1-3.39,1.94C31.91,86.84,29.76,84.82,29.76,81.65Zm7.79,0a2.85,2.85,0,1,0-2.81,3.23A3,3,0,0,0,37.55,81.65Z"/><path d="M41.86,81.67c0-3.16,2.18-5.2,4.44-5.2a3.9,3.9,0,0,1,3.43,1.94L50,76.7h1.77v9.9H50l-.24-1.7a3.92,3.92,0,0,1-3.43,1.94C44,86.84,41.86,84.79,41.86,81.67Zm7.8,0a2.85,2.85,0,1,0-2.81,3.23A3,3,0,0,0,49.66,81.65Z"/><path d="M57.63,90.41H55.47l1.71-4.14L53.46,76.7h2.32l2.48,7.14h0l2.5-7.14H63Z"/><path d="M70.81,77.3v2a5,5,0,0,0-3-1c-1.12,0-1.74.43-1.74,1.12s.75,1,2,1.38c1.56.42,3.3.94,3.3,3,0,1.87-1.47,3.07-3.92,3.07A5.71,5.71,0,0,1,64,85.78v-2.1A5,5,0,0,0,67.4,85c1.21,0,1.9-.5,1.9-1.23s-.85-1.09-2.21-1.5C65.48,81.81,64,81.23,64,79.48s1.41-3,3.75-3A5.64,5.64,0,0,1,70.81,77.3Z"/></g><g id="Layer_1-2" data-name="Layer 1"><path d="M31.86,7.92h3.87V9.18H33.24v1.58h2.33V12H33.24v2.29H31.86Z" style="fill:#fff"/><path d="M36.63,9.54h1.08l.13.71h0a1.43,1.43,0,0,1,1.27-.76,1.2,1.2,0,0,1,.35,0V10.8a1.23,1.23,0,0,0-.38,0A1,1,0,0,0,38,11.94v2.3H36.63Z" style="fill:#fff"/><path d="M44.31,12.27H41.12a1.41,1.41,0,0,0,1.47,1,2.72,2.72,0,0,0,1.47-.47v1.11a3.23,3.23,0,0,1-1.64.42,2.36,2.36,0,0,1-2.6-2.44,2.35,2.35,0,0,1,2.36-2.48,2.15,2.15,0,0,1,2.17,2.38A2.13,2.13,0,0,1,44.31,12.27Zm-1.25-.81a.89.89,0,0,0-.89-1,1.14,1.14,0,0,0-1.08,1Z" style="fill:#fff"/><path d="M49.46,12.27H46.27a1.41,1.41,0,0,0,1.47,1,2.72,2.72,0,0,0,1.47-.47v1.11a3.26,3.26,0,0,1-1.64.42A2.36,2.36,0,0,1,45,11.91a2.35,2.35,0,0,1,2.36-2.48,2.14,2.14,0,0,1,2.16,2.38A2.17,2.17,0,0,1,49.46,12.27Zm-1.25-.81a.89.89,0,0,0-.89-1,1.14,1.14,0,0,0-1.08,1Z" style="fill:#fff"/><path d="M54,9.54h1.26v1.12H54v1.69c0,.59.39.82.92.82a3.47,3.47,0,0,0,.42,0v1.13a3.32,3.32,0,0,1-.74.08,1.75,1.75,0,0,1-1.91-1.91V10.66h-.66V9.54h.67V8.46H54Z" style="fill:#fff"/><path d="M56.16,9.54h1.07l.14.71h0a1.45,1.45,0,0,1,1.28-.76,1.2,1.2,0,0,1,.35,0V10.8a1.29,1.29,0,0,0-.39,0,1,1,0,0,0-1.11,1.18v2.3H56.16Z" style="fill:#fff"/><path d="M59.65,8.16a.75.75,0,1,1,.75.74A.73.73,0,0,1,59.65,8.16Zm.07,1.38h1.36v4.7H59.72Z" style="fill:#fff"/><path d="M62,11.91A2.28,2.28,0,0,1,64,9.43a1.78,1.78,0,0,1,1.54.83l.14-.72h1.14v4.7H65.72l-.14-.72a1.76,1.76,0,0,1-1.54.83A2.27,2.27,0,0,1,62,11.91Zm3.57,0a1.13,1.13,0,0,0-1.09-1.24,1.15,1.15,0,0,0-1.12,1.24,1.11,1.11,0,1,0,2.21,0Z" style="fill:#fff"/><path d="M68,7.44h1.36v6.8H68Z" style="fill:#fff"/></g></g></svg>