<svg id="Layer_1" data-name="Layer 1" xmlns="http://www.w3.org/2000/svg" viewBox="0 0 571.15 383.67"><path d="M520.48,361.62c-.05-32.46,0-64.91,0-97.37q-.06-60-.2-120L519,143.14q-87.18,0-174.34-.1-65.2,0-130.41.15l-2.84,1.13-1.4-1.19c-27.68-.07-55.36,0-83-.35-5.83-.08-7.67,1.09-7.64,7.39q.39,105.32,0,210.65c0,6.46,2.06,7.29,7.71,7.28q126.27-.25,252.55-.13c9.37,0,18.75-.12,28.13-.19,35.88.07,71.77,0,107.66.31C520.82,368.13,520.48,365.24,520.48,361.62Z" transform="translate(-34.44 -128.33)" style="fill:#afbbc6"/><path d="M34.49,491.64C33.82,482.4,41,477,45.41,470.5c20.2-29.8,41-59.2,61.54-88.75,2.73.1,5.47.29,8.2.29H504.08c9.6,0,19.2-.08,28.8-.13q21.92,31.45,43.84,62.89c8.15,11.67,16.38,23.29,24.56,34.94,2.5,3.57,4.84,7.21,4.21,11.89-2.61,2.05-5.59,2.43-8.86,2.82-11.39,1.37-22.71-.12-34,0-59.2.54-118.4-.79-177.61.87-47.4,1.33-94.87-.13-142.3-.76-66.27-.87-132.55-.22-198.83-.24C40.5,494.31,36.89,495,34.49,491.64Zm285.44-33.12q113.19,0,226.39,0a41.74,41.74,0,0,0,7.51-.38c3.79-.69,6.45-1.61,3.18-6.61-11-16.76-21.36-33.91-32.24-50.74-2.2-3.4-4.27-6.85-9.95-6.84q-194.84.33-389.68.1c-4.16,0-6.67,1.4-8.86,5-9.78,15.87-19.88,31.56-29.75,47.39-2,3.13-7,6-4.59,9.77,2.17,3.36,7.48,2.38,11.59,2.38Zm.12,4.3c-16.92,0-33.84.26-50.75-.15-5.5-.14-8.59,1.59-10.23,6.64s-3.17,9.91-5.15,14.7c-2,5,.19,6.09,4.56,5.9,7.52-.33,15-.82,22.56-.85,27.43-.1,54.87,0,82.3-.05,6.58,0,13.09,1.45,19.77.16,3.33-.64,4.4-1,2.95-4.55a174,174,0,0,1-6.13-17.29c-1.15-3.86-3.41-4.61-7.07-4.58C355.26,462.91,337.65,462.82,320.05,462.82Z" transform="translate(-34.44 -128.33)" style="fill:#e5e5e5"/><path d="M532.88,381.92c-9.6.05-19.2.13-28.8.13H115.15c-2.73,0-5.47-.19-8.2-.29q0-122.76-.13-245.54c0-6.2,1.47-7.89,7.8-7.88q204.08.24,408.15,0h1.38c8.88,0,8.89,0,8.89,8.7Q533,259.5,532.88,381.92ZM210.05,143.13c-27.68-.07-55.36,0-83-.35-5.83-.08-7.67,1.09-7.64,7.39q.39,105.32,0,210.65c0,6.46,2.06,7.29,7.71,7.28q126.27-.25,252.55-.13c9.37,0,18.75-.12,28.13-.19,35.88.07,71.77,0,107.66.31,5.4,0,5.06-2.85,5.06-6.47-.05-32.46,0-64.91,0-97.37q-.06-60-.2-120c0-.82-.33-1.26-1.21-1.11q-87.18-.06-174.34-.11-65.2,0-130.41.14Zm109.77-4.35c6.4,0,12.81.05,19.21,0,1.67,0,4.18.47,4-2.32-.15-2.13-2.31-1.82-3.85-1.83q-19.89,0-39.79,0c-1.54,0-3.61-.22-3.68,2s2,2.15,3.54,2.16C306.1,138.81,313,138.79,319.82,138.78Z" transform="translate(-34.44 -128.33)" style="fill:#494949"/><path d="M34.49,491.64c2.4,3.4,9.36,2.67,9.36,2.67l518.74.13s22.65,1.39,34,0c3.27-.39,6.25-.77,8.86-2.82-.83,14.49-5.27,19.15-19.41,20.28-1.82.15-3.66.05-5.49.05q-259.13,0-518.24-.05a131.47,131.47,0,0,1-17-1.25C38.71,509.78,34.41,501.88,34.49,491.64Z" transform="translate(-34.44 -128.33)" style="fill:#c4c4c4"/><path d="M319.93,458.52H93.53c-4.11,0-9.42,1-11.59-2.38-2.44-3.77,2.64-6.64,4.59-9.77,9.87-15.83,20-31.52,29.75-47.39,2.19-3.56,4.7-5,8.86-5q194.83.12,389.68-.1c5.68,0,7.75,3.44,9.95,6.84,10.88,16.83,21.26,34,32.24,50.74,3.27,5,.61,5.92-3.18,6.61a41.74,41.74,0,0,1-7.51.38Q433.13,458.53,319.93,458.52Z" transform="translate(-34.44 -128.33)" style="fill:silver"/><path d="M372.86,462.75c3.66,0,5.92.72,7.07,4.58a174,174,0,0,0,6.13,17.29c1.45,3.51.38,3.91-2.95,4.55-6.68,1.29-117.11.41-124.63.74-4.37.19-6.61-.91-4.56-5.9,2-4.79,3.54-9.77,5.15-14.7s4.73-6.78,10.23-6.64C286.21,463.08,355.26,462.91,372.86,462.75Zm-51.51,21.87q24,0,47.95,0c2.2,0,4.82.7,6.22-1.74,2.5-4.36-4.21-14.63-9.53-14.64q-45.89,0-91.78,0c-6.32,0-10.57,4.47-10,12.1.39,5.16,5.91,3.21,9.2,4.24a12.12,12.12,0,0,0,3.41.05Z" transform="translate(-34.44 -128.33)" style="fill:#9a9a9a"/><path d="M319.82,138.78c-6.86,0-13.72,0-20.58,0-1.56,0-3.62.08-3.54-2.16s2.14-2,3.68-2q19.9-.06,39.79,0c1.54,0,3.7-.3,3.85,1.83.19,2.79-2.32,2.29-4,2.32C332.63,138.83,326.22,138.78,319.82,138.78Z" transform="translate(-34.44 -128.33)" style="fill:#7a7a7a"/><path d="M211.45,144.32l-1.4-1.19,4.24.06Z" transform="translate(-34.44 -128.33)" style="fill:#63a0bc"/><path d="M520.25,144.26,519,143.14C519.92,143,520.26,143.44,520.25,144.26Z" transform="translate(-34.44 -128.33)" style="fill:#63a0bc"/><path d="M321.35,484.62H276.82a12.12,12.12,0,0,1-3.41-.05c-3.29-1-8.81.92-9.2-4.24-.57-7.63,3.68-12.1,10-12.1q45.89,0,91.78,0c5.32,0,12,10.28,9.53,14.64-1.4,2.44-4,1.74-6.22,1.74Q345.32,484.65,321.35,484.62Z" transform="translate(-34.44 -128.33)" style="fill:#7a7a7a"/><circle cx="284.87" cy="125.34" r="54.32" style="fill:#fff"/><path d="M319.31,291.66c-22.65,0-36-16.56-36.77-17.29l4.14-3.17-1.95,1.71,1.95-1.71c.24.25,12.66,15.35,32.63,15.35S351.71,271.2,352,271.2l4.14,3.17C355.36,274.86,341.72,291.66,319.31,291.66Z" transform="translate(-34.44 -128.33)" style="fill:#ff9b7a"/><path d="M290.3,224.53h4.13l.65,6.73h0A13.49,13.49,0,0,1,307,224.09a8.77,8.77,0,0,1,2.6.22v5a10.83,10.83,0,0,0-2.6-.21c-5.65,0-11.51,3.69-11.51,11.94v24.75H290.3Z" transform="translate(-34.44 -128.33)"/><path d="M350.66,247.11H319.18c.87,9.12,6.73,14.76,15.2,14.76A21.13,21.13,0,0,0,348.7,256v5.86a23.56,23.56,0,0,1-14.54,5c-12.38,0-20.19-8.46-20.19-21.27,0-13.46,9.33-21.71,19.54-21.71,9.55,0,17.37,7.16,17.37,20.62A10.47,10.47,0,0,1,350.66,247.11Zm-5-4.56c-.22-9.77-6.08-14.11-12.38-14.11-7,0-13.24,5.42-14.11,14.11Z" transform="translate(-34.44 -128.33)"/><path d="M211.45,144.32c6,12.29,13.65,23.51,21.52,34.59,11.19,15.76,21.67,32,33.27,47.49C285.3,251.86,304.72,277,326,300.72c17.41,19.44,35.68,37.91,56.7,53.35,7.61,5.59,16.68,9.2,25.09,13.71-9.38.07-18.76.19-28.13.19q-126.27,0-252.55.13c-5.65,0-7.74-.82-7.71-7.28q.42-105.33,0-210.65c0-6.3,1.81-7.47,7.64-7.39,27.67.38,55.35.28,83,.35Z" transform="translate(-34.44 -128.33)" style="fill:#fcfcfc;opacity:0.2"/><rect x="17.73" y="371.52" width="17.85" height="5.49" rx="2.75" style="fill:#8a8a8a"/><rect x="528.64" y="371.52" width="17.85" height="5.49" rx="2.75" style="fill:#8a8a8a"/></svg>