<svg xmlns="http://www.w3.org/2000/svg" width="108.453" height="108.666" viewBox="0 0 108.453 108.666"><defs><style>.a{fill:#fff;}.b{fill:#f48467;}.c{fill:#ca4527;}.d{fill:#1a1818;}</style></defs><g transform="translate(-243.411 -264.503)"><rect class="a" width="100.931" height="100.931" transform="translate(243.566 264.503)"/><rect class="b" width="101.086" height="20.628" transform="translate(243.411 264.503)"/><path class="c" d="M344.5,264.5l7.367,7.736v20.816l-7.367-7.923Z"/><path class="a" d="M350.023,371.327H250.565v1.842h101.3V293.054l-1.842-1.981Z"/><path class="a" d="M346.339,287.112v80.532H246.882v1.842h101.3V289.093Z"/><path class="d" d="M278.832,309.231l-7.316,2.971v-7.139l13.879-5.41h.532v33.39h-7.1Z"/><path class="d" d="M313.551,306.482h-11.4l-1.063,5.853a11.531,11.531,0,0,1,2.749-.355c7.36,0,11.351,4.922,11.351,10.332,0,5.72-4.168,11.485-12.726,11.485a15.736,15.736,0,0,1-9.267-2.75v-7.4a12.354,12.354,0,0,0,8.513,3.458c3.858,0,5.986-2.084,5.986-4.745,0-2.7-2.173-4.877-6.606-4.877a12.988,12.988,0,0,0-5.5,1.2l-1.109-.754,2.661-17.958h16.407Z"/><path class="d" d="M266.212,347.1v1.852a4.226,4.226,0,0,0-2.284-.7c-.815,0-1.383.321-1.383.9,0,.543.507.79,1.47,1.185,1.308.518,2.74,1.1,2.74,2.851,0,1.728-1.345,2.888-3.382,2.888a4.866,4.866,0,0,1-2.79-.826v-1.951a4.077,4.077,0,0,0,2.592,1.012c.914,0,1.518-.419,1.518-1.049s-.641-.913-1.641-1.321c-1.136-.469-2.494-1.074-2.494-2.716,0-1.6,1.272-2.752,3.259-2.752A4.838,4.838,0,0,1,266.212,347.1Z"/><path class="d" d="M274.232,353.008h-4.654a2.056,2.056,0,0,0,2.148,1.481,3.979,3.979,0,0,0,2.136-.678v1.617a4.7,4.7,0,0,1-2.383.617,3.6,3.6,0,1,1-.357-7.185c1.74,0,3.16,1.2,3.16,3.482A3.661,3.661,0,0,1,274.232,353.008Zm-1.827-1.185a1.289,1.289,0,0,0-1.3-1.407,1.644,1.644,0,0,0-1.567,1.407Z"/><path class="d" d="M275.562,349.033h1.654l.2,1.05a2.623,2.623,0,0,1,2.234-1.223,3.3,3.3,0,0,1,3.062,3.593c0,2.2-1.42,3.592-3.024,3.592a2.525,2.525,0,0,1-2.148-1.173v3.592h-1.975Zm5.147,3.407a1.612,1.612,0,1,0-1.617,1.827A1.679,1.679,0,0,0,280.709,352.44Z"/><path class="d" d="M286.235,349.033h1.827v1.63h-1.827v2.456c0,.864.568,1.2,1.333,1.2a3.892,3.892,0,0,0,.618-.062v1.654a4.677,4.677,0,0,1-1.074.111,2.543,2.543,0,0,1-2.79-2.777v-2.58h-.963v-1.63h.975v-1.58h1.9Z"/><path class="d" d="M295.491,353.008h-4.654a2.056,2.056,0,0,0,2.148,1.481,3.982,3.982,0,0,0,2.136-.678v1.617a4.7,4.7,0,0,1-2.383.617,3.6,3.6,0,1,1-.358-7.185c1.741,0,3.161,1.2,3.161,3.482A3.661,3.661,0,0,1,295.491,353.008Zm-1.827-1.185a1.289,1.289,0,0,0-1.3-1.407,1.645,1.645,0,0,0-1.568,1.407Z"/><path class="d" d="M306.561,351.342v4.53h-1.976v-4.123c0-.741-.247-1.1-.913-1.1a.965.965,0,0,0-1,1.025v4.2H300.7v-4.123c0-.741-.246-1.1-.913-1.1a.993.993,0,0,0-.988,1.111v4.111H296.82v-6.839h1.531l.2.951h.037a2.124,2.124,0,0,1,1.9-1.124,1.979,1.979,0,0,1,1.914,1.161,2.245,2.245,0,0,1,1.963-1.161C305.856,348.86,306.561,349.848,306.561,351.342Z"/><path class="d" d="M310.135,350.033a2.569,2.569,0,0,1,2.172-1.173c1.592,0,3,1.408,3,3.593a3.306,3.306,0,0,1-3.074,3.592,2.573,2.573,0,0,1-2.222-1.222l-.2,1.049h-1.654v-9.913h1.976Zm-.026,2.42a1.611,1.611,0,1,0,3.2.012,1.679,1.679,0,0,0-1.618-1.827A1.649,1.649,0,0,0,310.109,352.453Z"/><path class="d" d="M322.759,353.008H318.1a2.058,2.058,0,0,0,2.149,1.481,3.982,3.982,0,0,0,2.136-.678v1.617a4.7,4.7,0,0,1-2.383.617,3.6,3.6,0,1,1-.358-7.185c1.741,0,3.161,1.2,3.161,3.482A3.664,3.664,0,0,1,322.759,353.008Zm-1.827-1.185a1.29,1.29,0,0,0-1.3-1.407,1.645,1.645,0,0,0-1.568,1.407Z"/><path class="d" d="M324.088,349.033h1.567l.2,1.025h.024a2.194,2.194,0,0,1,2.37-1.049v1.851a2.249,2.249,0,0,0-.568-.062,1.528,1.528,0,0,0-1.618,1.729v3.345h-1.974Z"/></g></svg>