<svg xmlns="http://www.w3.org/2000/svg" viewBox="0 0 109.59 125.57"><defs><style>.cls-1{fill:#fff;}.cls-2{fill:#e5947f;}.cls-3{fill:none;stroke:#fff;stroke-linecap:round;stroke-linejoin:round;stroke-width:4px;}</style></defs><g id="Layer_2" data-name="Layer 2"><g id="_03" data-name="03"><circle class="cls-1" cx="54.79" cy="54.79" r="28.18"/><path class="cls-2" d="M41.33,82.19H68.26a0,0,0,0,1,0,0V107.3a11.51,11.51,0,0,1-11.51,11.51H52.84A11.51,11.51,0,0,1,41.33,107.3V82.19a0,0,0,0,1,0,0Z"/><path class="cls-2" d="M50.68,114.38h8.23a0,0,0,0,1,0,0v7.67a3.52,3.52,0,0,1-3.52,3.52H54.2a3.52,3.52,0,0,1-3.52-3.52v-7.67A0,0,0,0,1,50.68,114.38Z"/><path class="cls-2" d="M37.51,76.93H72a0,0,0,0,1,0,0v1.58a3.67,3.67,0,0,1-3.67,3.67H41.19a3.67,3.67,0,0,1-3.67-3.67V76.93A0,0,0,0,1,37.51,76.93Z"/><line class="cls-3" x1="15.59" y1="54.79" x2="2" y2="54.79"/><line class="cls-3" x1="54.79" y1="15.59" x2="54.79" y2="2"/><line class="cls-3" x1="93.99" y1="54.79" x2="107.59" y2="54.79"/><line class="cls-3" x1="82.23" y1="26.8" x2="91.75" y2="17.09"/><line class="cls-3" x1="27.35" y1="26.8" x2="17.84" y2="17.09"/></g></g></svg>