<svg xmlns="http://www.w3.org/2000/svg" viewBox="0 0 95.35 398.42"><defs><style>.cls-1{fill:#fff;}.cls-2{fill:#FF9B7A;}.cls-3{fill:#945146;}.cls-4,.cls-5{fill:#FF9B7A;}.cls-4{stroke:#FF9B7A;stroke-linecap:round;stroke-linejoin:round;stroke-width:0.83px;}</style></defs><g id="Layer_2" data-name="Layer 2"><g id="_01" data-name="01"><path class="cls-1" d="M49,349.8l-1.65,19.56s2.9,23.18,9.7,21.28,9.12-13,7.86-20.82-4-26.34-4-26.34Z"/><path class="cls-2" d="M18.7,275c-.26,1.58-.51,3.15-.78,4.72q-.62,3.65-1.25,7.3c-.59,3.46-1.19,6.93-1.77,10.4s-1.14,6.83-1.71,10.25-1.19,7-1.77,10.45-1.14,6.84-1.72,10.25c-.5,2.92-1.06,5.82-1.54,8.74a30.2,30.2,0,0,0-.58,3.53c0,.37-.23.71-.11,1.12,0,.17-.06.45-.29.42-.56-.06-1,.29-1.51.4a2.21,2.21,0,0,1-1.49-.34c-1-.53-1.11-1.29-.95-2.33.35-2.16.58-4.34.85-6.51.23-1.79.44-3.58.66-5.37s.48-3.58.71-5.37.44-3.55.66-5.32l.72-5.58c.22-1.81.43-3.62.66-5.43.26-2.09.54-4.18.81-6.26L9,294.65,9.68,289c.22-1.81.42-3.62.66-5.42.32-2.36.66-4.72,1-7.08.07-.5.19-1,.29-1.49.2,0,.42.09.61-.08l2.07,0A1.17,1.17,0,0,0,15,275C16.25,275,17.47,275.05,18.7,275Z"/><path class="cls-2" d="M84.13,275.13a33.25,33.25,0,0,1,.65,3.72c.29,2,.56,4.09.82,6.14.24,1.83.44,3.66.66,5.48.27,2.11.55,4.21.81,6.32.23,1.82.44,3.65.67,5.48s.47,3.58.7,5.37c.19,1.53.37,3.07.57,4.6.23,1.82.47,3.65.7,5.47.19,1.51.37,3,.56,4.54s.41,3.09.6,4.64l.57,4.48c.19,1.53.39,3.06.58,4.59s.39,3.13.58,4.69a1.12,1.12,0,0,1-.7,1.28c-.22.09-.38.31-.59.43a1.75,1.75,0,0,1-1.33.15,3.73,3.73,0,0,0-1.41-.37c-.25,0-.32-.26-.3-.47a7.84,7.84,0,0,0-.26-2.32c-.64-3.53-1.3-7.05-1.87-10.6-.41-2.57-.9-5.13-1.33-7.7-.48-2.81-.93-5.63-1.41-8.44-.4-2.4-.83-4.8-1.23-7.19s-.79-4.84-1.19-7.25l-1.11-6.52c-.41-2.42-.81-4.84-1.22-7.25-.36-2.16-.73-4.31-1.09-6.47a20,20,0,0,1-.4-2.54,1.71,1.71,0,0,1,1-.25Z"/><path class="cls-3" d="M75.35,235.15H20L1.26,264.66A8.09,8.09,0,0,0,0,269v2.6a3.54,3.54,0,0,0,3.54,3.54H91.82a3.54,3.54,0,0,0,3.53-3.54V269a8.08,8.08,0,0,0-1.25-4.33Z"/><path d="M23.64,73.86c.05,0,.15,0,.16,0,.19-.69.14.24.29,0a13.26,13.26,0,0,1,1.32-2.42,10.77,10.77,0,0,1,1.77-2.1,42,42,0,0,1,4.88-3.94A21.77,21.77,0,0,1,42.73,62c2.13-.17,4.26-.25,6.4-.21a8.22,8.22,0,0,1,2.29.49,20.79,20.79,0,0,1,7.44,4.22A31.39,31.39,0,0,1,64.61,73a23.18,23.18,0,0,1,2.78,6.51,27.9,27.9,0,0,1,.93,3.09,19.61,19.61,0,0,1,.44,4.12c0,.28,0,.56,0,.84a4.72,4.72,0,0,1-.37,1.62c-2.29,6.73-4.86,13.36-6.55,20.28-.82,3.36-2.18,6.57-3.16,9.89C57.62,123,56,126.42,54.82,130a3.42,3.42,0,0,1-.63.92,38.23,38.23,0,0,0-2.44,4.15c-.07.14,0,.4-.32.36-.81-.73-1.49-1.57-2.28-2.32-3-2.88-3.37-6.4-2.18-10.16a27.11,27.11,0,0,1,5-8.69c2.08-2.58,4.3-5,5.82-8a16.35,16.35,0,0,0,1.9-8.16,36.89,36.89,0,0,0-.9-5.6A3.46,3.46,0,0,0,57,90a40.94,40.94,0,0,0-9.56-4c-1.92-.55-3.93-.77-5.83-1.41-2.62-.87-5.25-1.76-7.36-3.72a18.48,18.48,0,0,0-1.19,3.72,52.09,52.09,0,0,0-1.23,9.3,21.43,21.43,0,0,0,.65,7.13c.35,1.15.83,2.25,1.25,3.37a43.62,43.62,0,0,0,3.7,8.29,27,27,0,0,1,3.91,10.57,16,16,0,0,1-.24,6.53,49.17,49.17,0,0,1-1.8,6.41c-.14.11-.17,0-.23-.1-.22-.37-.49-.72-.67-1.1a12.51,12.51,0,0,0-2.34-3.27,7.17,7.17,0,0,0-2.13-2,1.56,1.56,0,0,1-.66-.73c-2.32-3.9-3.7-8.19-5.3-12.39a83.76,83.76,0,0,1-3.38-10.53,16.77,16.77,0,0,1-.2-3.75c0-2.61-.13-5.21-.35-7.81-.47-5.5-.25-11-.32-16.52C23.74,76.63,23.68,75.24,23.64,73.86Z"/><path class="cls-1" d="M39.34,136.22a49.17,49.17,0,0,0,1.8-6.41,16,16,0,0,0,.24-6.53,27,27,0,0,0-3.91-10.57,43.62,43.62,0,0,1-3.7-8.29c-.42-1.12-.9-2.22-1.25-3.37a21.43,21.43,0,0,1-.65-7.13,52.09,52.09,0,0,1,1.23-9.3,18.48,18.48,0,0,1,1.19-3.72c2.11,2,4.74,2.85,7.36,3.72,1.9.64,3.91.86,5.83,1.41A40.94,40.94,0,0,1,57,90a3.46,3.46,0,0,1,1.74,2.51,36.89,36.89,0,0,1,.9,5.6,16.35,16.35,0,0,1-1.9,8.16c-1.52,3-3.74,5.47-5.82,8A27.11,27.11,0,0,0,47,123c-1.19,3.76-.83,7.28,2.18,10.16.79.75,1.47,1.59,2.28,2.32a2.32,2.32,0,0,1-.59,1.19,31.21,31.21,0,0,0-4.34,8c-.67,1.82-1.33,3.65-2,5.55-.28-.73-.53-1.42-.81-2.1-1-2.46-2.07-4.92-2.88-7.46-.42-1.3-.79-2.61-1.2-3.91A3.8,3.8,0,0,0,39.34,136.22ZM39,92.27a3.49,3.49,0,0,0-2.95,1.34c-.21.24-.47.5-.22.83s.52.08.77,0,.71-.41,1.08-.59a3,3,0,0,1,3.25.44c.47.42,1,.44,1.27,0s.21-.92-.33-1.27A4.57,4.57,0,0,0,39,92.27Zm7.44,3.08a2,2,0,0,0-.22-.75.29.29,0,0,0-.3-.19c-.11,0-.15.12-.18.24a5.26,5.26,0,0,1-.9,1.84c-.33.48-.62,1-.93,1.47a.87.87,0,0,0-.13,1,8.17,8.17,0,0,0,2.41,2.31A.51.51,0,0,0,47,101a.55.55,0,0,0-.25-.81,9.87,9.87,0,0,1-1.24-.77c-.8-.51-.81-.51-.25-1.29.06-.09.15-.18.2-.27A5.62,5.62,0,0,0,46.48,95.35Zm6-3.18a4.65,4.65,0,0,0-.62,0,2.51,2.51,0,0,0-1.9,1A.53.53,0,0,0,50,94a.48.48,0,0,0,.7-.06,2.26,2.26,0,0,1,1.57-.67,2.08,2.08,0,0,1,2.15.74.5.5,0,0,0,.74.15.56.56,0,0,0,.18-.75,1.6,1.6,0,0,0-.55-.63A4,4,0,0,0,52.47,92.17Z"/><path d="M39,92.27a4.57,4.57,0,0,1,2.87.77c.54.35.67.87.33,1.27s-.8.37-1.27,0a3,3,0,0,0-3.25-.44c-.37.18-.72.41-1.08.59s-.54.33-.77,0,0-.59.22-.83A3.49,3.49,0,0,1,39,92.27Z"/><path d="M46.48,95.35a5.62,5.62,0,0,1-1,2.52c-.05.09-.14.18-.2.27-.56.78-.55.78.25,1.29a9.87,9.87,0,0,0,1.24.77A.55.55,0,0,1,47,101a.51.51,0,0,1-.77.21,8.17,8.17,0,0,1-2.41-2.31A.87.87,0,0,1,44,98c.31-.49.6-1,.93-1.47a5.26,5.26,0,0,0,.9-1.84c0-.12.07-.24.18-.24a.29.29,0,0,1,.3.19A2,2,0,0,1,46.48,95.35Z"/><path d="M52.47,92.17a4,4,0,0,1,2.35.62,1.6,1.6,0,0,1,.55.63.56.56,0,0,1-.18.75.5.5,0,0,1-.74-.15,2.08,2.08,0,0,0-2.15-.74,2.26,2.26,0,0,0-1.57.67A.48.48,0,0,1,50,94a.53.53,0,0,1-.08-.76,2.51,2.51,0,0,1,1.9-1A4.65,4.65,0,0,1,52.47,92.17Z"/><path class="cls-4" d="M46.31,106.55a5.81,5.81,0,0,1-4.25-2l.47-.38-.24.19.24-.19A5.23,5.23,0,0,0,46.31,106a5.29,5.29,0,0,0,3.79-1.79l.47.38A5.82,5.82,0,0,1,46.31,106.55Z"/><ellipse cx="46.21" cy="235.96" rx="38.67" ry="27.71"/><path class="cls-1" d="M88.38,66.16c-1.65-.16-3.3-.23-5-.31s-3.21-.19-4.82-.21A7,7,0,0,0,75,66.3a21.4,21.4,0,0,1-.32-2.76,10.47,10.47,0,0,1-.1-2.68,17.85,17.85,0,0,0-.07-4.26c-.12-1.76-.35-3.51-.38-5.29,0-1.29-.14-2.59-.18-3.88-.07-2.09-.21-4.17-.45-6.24-.12-1-.2-2-.36-3.07-.25-1.68-.41-3.37-.59-5.06-.12-1.15-.19-2.3-.34-3.44-.25-1.89-.56-3.77-.81-5.66a26.91,26.91,0,0,0-1.27-5.89,8.15,8.15,0,0,0-2.21-3.71c-.49-.41-.83-1.07-1.5-1.21-.89-.18-1.76-.44-2.64-.67-.31-.08-.42,0-.58.28a4.44,4.44,0,0,1-2.86,2.54,7.88,7.88,0,0,1-3.55,0,25.14,25.14,0,0,1-4.33-1.63A4.89,4.89,0,0,0,50.61,13a46.77,46.77,0,0,0-4.88-.12c-.57.06-1.15.06-1.72.17-1.31.24-2.58.65-3.86,1a11.17,11.17,0,0,1-1.69.39,2.33,2.33,0,0,1-2.78-1.76c-.12-.33-.25-.41-.59-.34a11.52,11.52,0,0,1-1.45.22,31,31,0,0,0-6.53,1.47.87.87,0,0,0-.46.25,9.14,9.14,0,0,0-1.72,3.28,38.35,38.35,0,0,0-1,6.22c-.13,1.81-.3,3.62-.54,5.43-.3,2.32-.44,4.66-.59,7-.11,1.65,0,3.31-.11,5s-.19,3.08-.2,4.62c0,2-.12,3.89-.06,5.85s.3,3.95.24,5.94c0,.44-.08.87-.09,1.31a35.55,35.55,0,0,0,.19,4.84,40.89,40.89,0,0,0-4.7.28c-.68.06-1.36.12-2,.13-2,0-3.94.25-5.91.34-1.17,0-2.33.16-3.5.18a20.93,20.93,0,0,0-.08-2.37,8.46,8.46,0,0,1,.22-2.18c.14-1.31.25-2.61.47-3.91.35-2,.56-4,.88-6,.35-2.19.72-4.38,1.15-6.56.93-4.78,2-9.53,3.21-14.25.65-2.57,1.44-5.1,2.09-7.66.78-3,1.68-6,2.27-9.13.29-1.46.4-2.95.78-4.38a10.76,10.76,0,0,1,2.82-5.46A11,11,0,0,1,25.4.33,18.37,18.37,0,0,1,30.58.09a59.8,59.8,0,0,0,7.21.05,10.67,10.67,0,0,1,3.86.08,2.47,2.47,0,0,1,2.06,2.51,2.38,2.38,0,0,1-.66,1.4c-.12.14-.32.22-.37.47a12.38,12.38,0,0,0,1.82.13,30.47,30.47,0,0,1,3.16.47,6.16,6.16,0,0,0,2.57-.27,6.7,6.7,0,0,1,1.39-.27c.16,0,.23,0,.23-.23A3.91,3.91,0,0,1,55.7.63c1.24.06,2.5,0,3.74,0A31,31,0,0,0,62.9.84C64.12.77,65.34.59,66.55.47c3.27-.31,6.2.29,8.31,3.09a6.84,6.84,0,0,1,1,1.8A16.6,16.6,0,0,0,77,8.06a15.92,15.92,0,0,1,1.85,5c.57,2.6,1,5.22,1.5,7.83.44,2.39,1,4.77,1.4,7.16.41,2.17.88,4.32,1.23,6.5.23,1.39.57,2.77.83,4.17.33,1.78.71,3.56,1,5.36s.65,3.51,1,5.27c.39,2.15.75,4.3,1.13,6.45.32,1.73.66,3.44,1,5.16.13.68,0,1.37.13,2.07A27.1,27.1,0,0,1,88.38,66.16Z"/><path d="M64.93,369.82a9,9,0,0,0-.63,3.65,8.12,8.12,0,0,0,.11,1.21A4.82,4.82,0,0,1,63,378.86a13.77,13.77,0,0,1-3.42,3,9.24,9.24,0,0,1-2.11.79,4,4,0,0,1-3-.77,10.16,10.16,0,0,1-4.23-4.76,17,17,0,0,1-1.71-4.8,5.35,5.35,0,0,0-1.09-3c-.21.36-.11.79-.21,1.17a38.53,38.53,0,0,0-.78,12.8,22.17,22.17,0,0,0,1.53,6.44,18.23,18.23,0,0,0,2.42,4.6,22.39,22.39,0,0,0,1.85,2.42c2,1.92,3.73,2.13,6.13.7,3.62-2.17,5.88-5.48,7.53-9.21a24.56,24.56,0,0,0,2.09-8.3,6.08,6.08,0,0,0-.35-2.28c-.79-2.53-1.64-5.05-2.47-7.57C65.07,370,65.05,369.89,64.93,369.82Z"/><path class="cls-1" d="M42.23,349.8l1.64,19.56S41,392.54,34.18,390.64s-9.13-13-7.86-20.82,4-26.34,4-26.34Z"/><path d="M26.32,369.82a9,9,0,0,1,.62,3.65,7,7,0,0,1-.11,1.21,4.82,4.82,0,0,0,1.45,4.18,13.72,13.72,0,0,0,3.41,3,9.42,9.42,0,0,0,2.11.79,4,4,0,0,0,3-.77,10.12,10.12,0,0,0,4.24-4.76,17.32,17.32,0,0,0,1.71-4.8,5.34,5.34,0,0,1,1.08-3c.21.36.11.79.22,1.17a38.53,38.53,0,0,1,.78,12.8,22.17,22.17,0,0,1-1.53,6.44,18.59,18.59,0,0,1-2.43,4.6,20.09,20.09,0,0,1-1.85,2.42c-2,1.92-3.73,2.13-6.13.7-3.61-2.17-5.87-5.48-7.53-9.21a24.8,24.8,0,0,1-2.09-8.3,6.29,6.29,0,0,1,.35-2.28c.8-2.53,1.65-5.05,2.48-7.57C26.18,370,26.19,369.89,26.32,369.82Z"/><path class="cls-3" d="M75.91,189.42c-.33-.82-.41-1.71-.7-2.54a61.35,61.35,0,0,1-1.5-6.12.45.45,0,0,1,0-.16,3.56,3.56,0,0,1,2.86.06,9.33,9.33,0,0,0,2.09.48,5,5,0,0,1,2.88,1.28A13.41,13.41,0,0,1,83,183.68a5.19,5.19,0,0,1,1.36,3.4c.06,3.54.05,7.09-.15,10.62-.22,3.84-.15,7.67-.17,11.5,0,1.5.09,3,.1,4.49,0,1,.16,2.06.09,3.1,0,.14,0,.28,0,.42-.06.31-.18.6-.55.61s-.48-.25-.57-.54a2.35,2.35,0,0,0-.32-.8c.12.86.22,1.65.33,2.44a16.43,16.43,0,0,1-1-3.35c-1-4.39-2.09-8.74-3.11-13.11a2.06,2.06,0,0,1,0-.26c0-.1,0-.22-.06-.3l0,0v0a5.25,5.25,0,0,0,0-.57c-.19-1.07-.34-2.15-.6-3.2a32.88,32.88,0,0,0-1.14-4h0v-.2a9.48,9.48,0,0,1-.53-2A9,9,0,0,0,75.91,189.42Z"/><path class="cls-3" d="M20.26,181.64a2.51,2.51,0,0,1-.21,1.88c-1.24,3.36-2.49,6.72-3.72,10.08-.26.71-.45,1.44-.65,2.16-.27,1-1,1.8-1,2.81-.11,2.08-1,4-1.49,5.92s-1.25,4-1.9,6c-.08.24,0,.5-.2.71l-.09.3h0a5.67,5.67,0,0,0-.64,1.69l-.18.11a1,1,0,0,1-.44-.94c0-.31,0-.63,0-1a4,4,0,0,0-.24-1.53A12,12,0,0,1,9.23,206c0-.79.13-1.58.14-2.37,0-2.55.05-5.1.06-7.65,0-2.32.21-4.63.4-6.94a16,16,0,0,1,1.11-5.28,3.92,3.92,0,0,1,2.23-1.87c1.65-.72,3.42-.38,5.12-.62l.63-.06A1.4,1.4,0,0,1,20.26,181.64Z"/><path class="cls-5" d="M77.07,194.07a32.88,32.88,0,0,1,1.14,4c.26,1,.41,2.13.6,3.2a5.25,5.25,0,0,1,0,.57c-.7-2.45-1.29-4.93-1.78-7.42A1.53,1.53,0,0,1,77.07,194.07Z"/><path d="M10.34,213.2a5.67,5.67,0,0,1,.64-1.69,5.56,5.56,0,0,1-.24,1.28C10.7,213,10.61,213.2,10.34,213.2Z"/><path class="cls-5" d="M75.91,189.42a9,9,0,0,1,.63,2.43A10.73,10.73,0,0,1,75.91,189.42Z"/><path d="M78.88,201.9c.1.08,0,.2.06.3Z"/><path d="M11,211.52l.09-.3C11.06,211.33,11.07,211.44,11,211.52Z"/><path d="M77.07,193.88v.2C77,194,77,194,77.07,193.88Z"/><path class="cls-5" d="M88.38,66.16a3.61,3.61,0,0,1,1.89.86c.08.09.2.13.22.27.14,1.26.45,2.49.52,3.75a59.08,59.08,0,0,1-.25,8.31,64.45,64.45,0,0,1-1.09,7.55c-.49,2.4-.77,4.86-1.31,7.25C87.47,98,86.78,102,86,105.88c-.84,4.23-2,8.36-3.28,12.48-.52,1.74-.71,3.55-1.09,5.32-.8,3.74-1.63,7.48-2.36,11.24-.54,2.8-1,5.6-1.37,8.43s-.66,5.47-1,8.2c-.58,4.18-1.25,8.34-2.12,12.47-.45,2.15-1,4.27-1.54,6.41a14.27,14.27,0,0,0-.25,5.33c.25,1.62.38,3.25.76,4.84a.45.45,0,0,0,0,.16,61.35,61.35,0,0,0,1.5,6.12c.29.83.37,1.72.7,2.54a10.73,10.73,0,0,0,.63,2.43,9.48,9.48,0,0,0,.53,2c-.11.07-.11.14,0,.2h0a1.53,1.53,0,0,0,0,.37c.49,2.49,1.08,5,1.78,7.42v0l0,0,.06.3a2.06,2.06,0,0,0,0,.26c1,4.37,2.13,8.72,3.11,13.11a16.43,16.43,0,0,0,1,3.35c.44,2,1,3.89,1.26,5.88.2,1.38,2.06,7.82-.37,8.94s-4.52-5.73-15.22-10c-5-2-16.48-1.66-22.47-1.71-6.81-.06-15.93.59-20.29,2.53-11.67,5.21-15.62,12.08-18.1,10.28s-.29-11.66,0-13c.56-2.49,1.31-4.93,2-7.39.1-.37.16-.75.23-1.13l.18-.11c.27,0,.36-.23.4-.41a5.56,5.56,0,0,0,.24-1.28h0c.1-.08.09-.19.09-.3.17-.21.12-.47.2-.71.65-2,1.35-4,1.9-6s1.38-3.84,1.49-5.92c.06-1,.76-1.84,1-2.81.2-.72.39-1.45.65-2.16,1.23-3.36,2.48-6.72,3.72-10.08a2.51,2.51,0,0,0,.21-1.88c1.07-1,.69-2.25.46-3.42a69.3,69.3,0,0,0-3.94-12.32,84.71,84.71,0,0,1-3-9.49c-.42-1.58-.54-3.22-.83-4.82-.43-2.37-.87-4.74-1.24-7.12-.7-4.51-1.71-9-2.46-13.47-.36-2.16-.53-4.36-.77-6.54s-.49-4.11-.71-6.17-.36-3.88-.56-5.81c-.24-2.4-.33-4.8-.43-7.21-.07-1.78-.2-3.57-.3-5.35q-.18-3.19-.43-6.39-.28-3.5-.31-7c0-1.89-.1-3.79-.21-5.68q-.21-3.25-.53-6.5c-.19-2-.56-4-.88-6a5.61,5.61,0,0,1,.22-2.81c.06-.16.1-.3.31-.37a4.81,4.81,0,0,1,1.94-.43c1.17,0,2.33-.13,3.5-.18,2-.09,3.93-.32,5.91-.34.68,0,1.36-.07,2-.13a40.89,40.89,0,0,1,4.7-.28,1.9,1.9,0,0,0,.85.2c.41,0,.65.2.53.63a2.07,2.07,0,0,0,.12,1.23,2.28,2.28,0,0,1,.18.76,28.85,28.85,0,0,0,.44,5.49c.17,1.05-.06,2.1.09,3.15a6.9,6.9,0,0,1,.09,1.57A6.49,6.49,0,0,0,25,78.55c0,1.3.09,2.6.11,3.91.07,5.16-.14,10.34.3,15.5.21,2.44.33,4.87.33,7.32A15.29,15.29,0,0,0,26,108.8a78.47,78.47,0,0,0,3.17,9.89c1.5,3.94,2.79,8,5,11.62a1.49,1.49,0,0,0,.62.69,6.9,6.9,0,0,1,2,1.88,12,12,0,0,1,2.2,3.07c.17.36.42.69.63,1,.05.09.08.19.21.09a3.39,3.39,0,0,1,.23.47c.38,1.22.73,2.45,1.12,3.67.76,2.38,1.74,4.69,2.7,7,.27.63.5,1.28.77,2,.65-1.79,1.27-3.5,1.9-5.2a29.15,29.15,0,0,1,4.07-7.5,2,2,0,0,0,.55-1.11c.27,0,.24-.21.31-.34a37.18,37.18,0,0,1,2.29-3.9,3.21,3.21,0,0,0,.59-.86c1.11-3.4,2.63-6.64,3.64-10.08.92-3.11,2.2-6.12,3-9.28,1.58-6.5,4-12.72,6.14-19a4.43,4.43,0,0,0,.35-1.52c.22,0,.2-.17.23-.28a44.52,44.52,0,0,0,1.32-4.5c.34-1.68,1-3.31.87-5.07a3.68,3.68,0,0,1,.16-1c.32-1.71,1-3.31,1.45-5a26.43,26.43,0,0,1,1.77-4,1.51,1.51,0,0,0,0-1.16c-.1-.31-.36-.62-.22-1a5.19,5.19,0,0,1,1.55-2.52A.77.77,0,0,0,75,66.3a7,7,0,0,1,3.62-.66c1.61,0,3.21.12,4.82.21S86.73,66,88.38,66.16Z"/><path d="M36.25,357h0c-4.68,0-8.56-3-8.85-6.79L19,237c-.31-4.16,3.74-7.66,8.85-7.66h8.45c4.9,0,8.87,3.23,8.87,7.22V349.8C45.12,353.79,41.15,357,36.25,357Z"/><path d="M55.54,357h0c4.68,0,8.56-3,8.85-6.79L72.84,237c.31-4.16-3.74-7.66-8.85-7.66H55.54c-4.9,0-8.87,3.23-8.87,7.22V349.8C46.67,353.79,50.64,357,55.54,357Z"/><circle cx="28.33" cy="236.69" r="16.79"/><circle cx="63.5" cy="236.69" r="16.79"/></g></g></svg>