<svg id="managing-shoulder-tension" xmlns="http://www.w3.org/2000/svg" viewBox="0 0 640 640"><rect width="640" height="640" style="fill:none"/><path id="breatheman-chest-shrugged" d="M330.07,327.58s-98.39-49.33-142.69-33.28-55.77,50.49-51.57,89.86l26.71,144s-17.42,80.73,167.55,80.73,167.54-80.73,167.54-80.73l26.72-144c4.19-39.37-16.76-77.78-51.57-89.86S330.07,327.58,330.07,327.58Z" style="fill:#fff"/><path id="breatheman-neck" d="M283.66,226.32V353.61a46.41,46.41,0,1,0,92.81,0V226.32Z" style="fill:#ff9b7a"/><circle cx="330.07" cy="167.36" r="105.1" style="fill:#ff9b7a"/><path d="M330.06,325.9h0c47.54,0,86.08-45.16,86.08-92.7V155.05H244V233.2C244,280.74,282.52,325.9,330.06,325.9Z" style="fill:#ff9b7a"/><polyline id="breatheman-nose" points="321.5 217.65 312.05 247.55 334.34 252.99" style="fill:none;stroke:#000;stroke-linecap:round;stroke-linejoin:round;stroke-width:6px"/><path d="M303.5,209a21.23,21.23,0,0,0-27.3,0" style="fill:none;stroke:#000;stroke-linecap:round;stroke-linejoin:round;stroke-width:6px"/><path d="M379,209a21.23,21.23,0,0,0-27.3,0" style="fill:none;stroke:#000;stroke-linecap:round;stroke-linejoin:round;stroke-width:6px"/><path d="M346.26,286.53s-7.08-4.32-18.7-4.32-18.69,4.32-18.69,4.32" style="fill:none;stroke:#db694c;stroke-linecap:round;stroke-linejoin:round;stroke-width:6px"/><line x1="280.1" y1="183.22" x2="312.05" y2="172.63" style="fill:none;stroke:#000;stroke-linecap:round;stroke-linejoin:round;stroke-width:6px"/><line x1="375.03" y1="183.22" x2="343.08" y2="172.63" style="fill:none;stroke:#000;stroke-linecap:round;stroke-linejoin:round;stroke-width:6px"/><path d="M414.13,252.94l-.78-.08,2.8-53.21h0c4.45.47,11.3,4.22,10.83,8.67L423,245.73A8.11,8.11,0,0,1,414.13,252.94Z" style="fill:#ff9b7a"/><path d="M246,252.94l.78-.08L244,199.65h0c-4.45.47-11.3,4.22-10.83,8.67l3.94,37.41A8.11,8.11,0,0,0,246,252.94Z" style="fill:#ff9b7a"/><path d="M446.78,148.7c.28-3,4.39-5.76,4.39-8.78s-4.11-5.82-4.39-8.78,3.22-6.52,2.66-9.45-5.12-4.93-6-7.79,1.94-7,.84-9.78-5.95-3.89-7.3-6.56.64-7.22-.94-9.77-6.54-2.77-8.34-5.17-.6-7.22-2.59-9.47-6.91-1.65-9.08-3.73-1.74-7-4.07-8.94-7.08-.55-9.54-2.28-2.78-6.67-5.36-8.22-7.1.5-9.78-.86-3.71-6.21-6.49-7.38-6.95,1.49-9.8.52-4.52-5.63-7.43-6.41-6.69,2.42-9.65,1.84-5.23-5-8.22-5.37-6.31,3.28-9.32,3.09-5.83-4.26-8.85-4.26-5.88,4.07-8.84,4.26-6.38-3.47-9.32-3.09-5.31,4.79-8.22,5.37-6.78-2.61-9.65-1.84-4.62,5.45-7.43,6.41-7.06-1.67-9.81-.52-3.82,6-6.48,7.38-7.22-.67-9.78.86-2.92,6.51-5.36,8.22-7.24.39-9.54,2.28-1.92,6.87-4.07,8.94-7.1,1.5-9.08,3.73-.8,7.08-2.59,9.46-6.76,2.65-8.34,5.18.41,7.1-.94,9.77-6.2,3.78-7.3,6.56,1.68,6.9.84,9.78-5.4,4.84-6,7.79,2.94,6.45,2.66,9.45S204,136.9,204,139.92s4.11,5.82,4.39,8.78-3.22,6.52-2.66,9.45,5.12,4.93,6,7.79-1.94,7-.84,9.78,5.95,3.89,7.3,6.56-.64,7.22.94,9.77,6.54,2.77,8.34,5.18.6,7.21,2.59,9.46a6.39,6.39,0,0,0,3.27,1.64c-.11-.27,7.24,14.68,12.32,21.54L244,155.05s0-48,32.22-41.83c24.55,4.71,23.37,20.91,53.87,20.91s29.31-16.2,53.86-20.91c32.22-6.17,32.22,41.83,32.22,41.83l-1.59,74.82a104.76,104.76,0,0,0,17-35c1.82-.74,3.7-1.44,4.56-2.83,1.58-2.55-.41-7.1.94-9.77s6.2-3.77,7.3-6.56-1.68-6.9-.84-9.78,5.4-4.84,6-7.79S446.5,151.7,446.78,148.7Zm-12.14,29.24v0Z"/><polygon points="210.62 255.17 121.65 177.32 174.78 166.2 105.58 104.42 125.36 100.71 192.09 173.62 142.66 183.5 210.62 255.17" style="fill:#fff"/><path d="M250.83,278.05l4.28,7.36L267.25,355c.51,1.25,7.93,20.3-3.7,36-1.39,1.88-10.41,13.67-24.42,13.5-13.74-.17-26.88-11.79-30.64-28.69a34.88,34.88,0,0,1-18.33-7.15c-8.06-6.33-10.77-14.45-12-18.45a42.62,42.62,0,0,1-1-21.63l-2.83-9.88-23.07-6.68,2.17-7.5A14.82,14.82,0,0,1,170,294.07l3.86.64,2.2-9.13a12.14,12.14,0,0,1,15.17-8.83l9,2.62,1.29-2.49a11.73,11.73,0,0,1,16.57-4.58l7.39,4.57,2.45-2.26A14.79,14.79,0,0,1,250.83,278.05Z" style="fill:#ff9b7a"/><path d="M420.1,521.4c4.95,8.54,18.88,32.59,10,54.64-.89,2.2-9.11,21.53-30.82,24.35-15.7,2.05-28.65-5.81-32.17-8.08l-148-200.84,41.53-36.42,73,89.95A376.81,376.81,0,0,1,387,486.44C410,507.82,416.37,515,420.1,521.4Z" style="fill:#ff9b7a"/><rect x="374.58" y="483.67" width="81.42" height="81.42" transform="translate(347.98 -141.13) rotate(32.6)" style="fill:#ff9b7a"/><circle cx="439.27" cy="486.89" r="40.83" style="fill:#ff9b7a"/><circle cx="393.48" cy="558.47" r="40.83" style="fill:#ff9b7a"/><path d="M250.83,278.05l4.28,7.36L267.25,355c.51,1.25,7.93,20.3-3.7,36-1.39,1.88-10.41,13.67-24.42,13.5-13.74-.17-26.88-11.79-30.64-28.69a34.88,34.88,0,0,1-18.33-7.15c-8.06-6.33-10.77-14.45-12-18.45a42.62,42.62,0,0,1-1-21.63l-2.83-9.88-23.07-6.68,2.17-7.5A14.82,14.82,0,0,1,170,294.07l3.86.64,2.2-9.13a12.14,12.14,0,0,1,15.17-8.83l9,2.62,1.29-2.49a11.73,11.73,0,0,1,16.57-4.58l7.39,4.57,2.45-2.26A14.79,14.79,0,0,1,250.83,278.05Z" style="fill:#ff9b7a"/><path d="M420.1,521.4c4.95,8.54,18.88,32.59,10,54.64-.89,2.2-9.11,21.53-30.82,24.35-15.7,2.05-28.65-5.81-32.17-8.08l-148-200.84,41.53-36.42,73,89.95A376.81,376.81,0,0,1,387,486.44C410,507.82,416.37,515,420.1,521.4Z" style="fill:#ff9b7a"/><rect x="374.58" y="483.67" width="81.42" height="81.42" transform="translate(347.98 -141.13) rotate(32.6)" style="fill:#ff9b7a"/><circle cx="439.27" cy="486.89" r="40.83" style="fill:#ff9b7a"/><circle cx="393.48" cy="558.47" r="40.83" style="fill:#ff9b7a"/><path d="M225,486.89,150.7,464.42l11.82,63.7s-10.73,49.77,74.2,71.15Z" style="fill:#ff9b7a"/></svg>