<svg id="preventing-wrist-pain_copy" data-name="preventing-wrist-pain copy" xmlns="http://www.w3.org/2000/svg" viewBox="0 0 640 640"><rect width="640" height="640" style="fill:none"/><g id="Group_81" data-name="Group 81"><path id="Path_94" data-name="Path 94" d="M549.1,168.18H435.47V112.4A35.42,35.42,0,0,0,400.08,77H239.91a35.42,35.42,0,0,0-35.39,35.39v55.78H90.9a38.71,38.71,0,0,0-38.7,38.71h0v317.4A38.7,38.7,0,0,0,90.9,563H549.1a38.7,38.7,0,0,0,38.7-38.7h0V206.89a38.71,38.71,0,0,0-38.7-38.71ZM248.22,120.71H391.78v47.47H248.22Z" transform="translate(0)" style="fill:#fff"/><rect id="Rectangle_51" data-name="Rectangle 51" x="292.44" y="259.67" width="55.13" height="211.85" style="fill:#fb9b7a"/><rect id="Rectangle_52" data-name="Rectangle 52" x="214.07" y="338.02" width="211.85" height="55.13" style="fill:#fb9b7a"/></g></svg>