<svg id="uplift-and-reenergise" xmlns="http://www.w3.org/2000/svg" viewBox="0 0 640 640"><rect width="640" height="640" style="fill:none"/><circle cx="234.81" cy="459.43" r="56.3" style="fill:#fff"/><circle cx="132.89" cy="438.76" r="76.97" style="fill:#fff"/><rect x="16.19" y="442.98" width="391.43" height="76.97" rx="38.49" transform="translate(423.8 962.92) rotate(-180)" style="fill:#fff"/><g id="dude"><g id="body-upper"><g id="other-leg"><g id="leg-upper"><polygon points="379.87 377.62 331.13 288.62 281.93 325.5 348.08 404.3 379.87 377.62"/><circle cx="361.8" cy="388.37" r="20.75"/><circle cx="305.81" cy="306.14" r="30.79"/></g><g id="leg-lower"><polygon points="361.65 371.36 247.28 402.5 249.33 426.98 369.36 412.14 361.65 371.36"/><circle cx="362.18" cy="392.38" r="20.75"/><g id="foot"><polygon points="255.42 409.92 236.79 386.46 219.6 407.23 195.81 435.99 183.88 450.4 190.09 455.54 203.9 442.68 242.12 425.99 255.42 409.92"/><circle cx="246.25" cy="416.14" r="11.08"/></g></g></g><g id="leg-lower-2" data-name="leg-lower"><polygon points="230.94 368.2 161.17 464.04 178.08 481.85 262.46 395.2 230.94 368.2"/><circle cx="244.49" cy="384.27" r="20.75"/><g id="foot-2" data-name="foot"><path d="M173.64,466.18l-21.58-8.32a5.53,5.53,0,0,0-7.45,4.28L141.41,482l-5.92,36.86-2.57,16a2.52,2.52,0,0,0,2.09,2.89l3.28.53a2.53,2.53,0,0,0,2.82-1.77l4.75-16,24.47-33.77Z" transform="translate(0)"/><circle cx="168.89" cy="476.19" r="11.08"/></g></g><g id="leg-upper-2" data-name="leg-upper"><polygon points="259.88 398.17 330.13 324.95 280.18 289.09 224.87 375.86 259.88 398.17"/><circle cx="244.19" cy="384.16" r="20.75"/><circle cx="305.82" cy="306.06" r="30.79"/></g><g id="hip-torso"><g id="hip"><circle cx="318.48" cy="289.76" r="30.79"/><circle cx="305.87" cy="306.1" r="30.79"/><rect x="280.78" y="287.39" width="61.57" height="22.54" transform="translate(248.72 -128.33) rotate(37.84)"/></g><g id="torso"><g id="arm-back"><g id="arm-upper"><polygon points="443.39 166.56 467.92 139.68 441.11 116.93 416.2 139.66 443.39 166.56" style="fill:#ffd0c0"/><polygon points="376.39 176.01 409.3 203.93 443.39 166.56 416.2 139.66 376.39 176.01" style="fill:#fff"/><circle cx="454.64" cy="128.18" r="17.55" style="fill:#ffd0c0"/><circle cx="392.26" cy="190.58" r="21.54" style="fill:#fff"/></g><g id="arm-lower"><rect x="494.7" y="59.14" width="25.67" height="10.97" transform="translate(928.72 -225.84) rotate(138.15)" style="fill:#ffd0c0"/><circle cx="454.61" cy="128.14" r="17.55" style="fill:#ffd0c0"/><polygon points="504.69 74.54 467.39 140.26 444.02 114.16 496.64 67.03 504.69 74.54" style="fill:#ffd0c0"/></g></g><path d="M506.38,56.45l21.3-12.33a2.35,2.35,0,0,1,3.09.65l9.51,13.06a3.92,3.92,0,0,1-2.15,6.09l-7.31,2V66a4.16,4.16,0,0,1-3.15,4.55h0a4.21,4.21,0,0,1-3.34-.63l-3.44-2.38-4.44,1.9a12.69,12.69,0,0,1-11.71-.92l-3.31-2.08Z" transform="translate(0)" style="fill:#ffd0c0"/><circle id="torso-lower" cx="318.48" cy="289.76" r="30.79"/><g id="head-neck"><g id="neck"><rect x="393.47" y="132.61" width="23.26" height="40.73" transform="translate(1.95 -5.06) rotate(0.72)" style="fill:#ffd0c0"/><circle cx="404.85" cy="173.35" r="11.63" style="fill:#ffd0c0"/><circle cx="405.36" cy="132.61" r="11.63" style="fill:#ffd0c0"/></g><g id="head"><path d="M433.74,118.05l7.49,27.39c1.79,4.62-2.53,9.76-7.33,11L410,158.24l-10.06-18.57Z" transform="translate(0)" style="fill:#ffd0c0"/><path d="M433.42,113l-.09,3.36c4.55,16.42-2.81,33.84-19,40.16A33.61,33.61,0,1,1,433.42,113Z" transform="translate(0)" style="fill:#ffd0c0"/><path d="M428,111.39a11,11,0,0,0-7.59,5.5" transform="translate(0)" style="fill:none;stroke:#231f20;stroke-linecap:round;stroke-linejoin:round;stroke-width:2.68438822031021px"/><path d="M438.43,138.53s-3.46,2.34-6.38.77" transform="translate(0)" style="fill:none;stroke:#db694c;stroke-linecap:round;stroke-linejoin:round;stroke-width:2.68438822031021px"/><polyline points="427.96 117.84 422.94 122.56 425.85 123.58" style="fill:none;stroke:#231f20;stroke-linecap:round;stroke-linejoin:round;stroke-width:2.68438822031021px"/><polyline points="434.24 120.67 442.55 127.21 436.82 131.28" style="fill:#ffd0c0;stroke:#000;stroke-linecap:round;stroke-linejoin:round;stroke-width:2.45355028576745px"/><path d="M422.6,91.46A38.86,38.86,0,0,0,385.53,87c-19.75,7.69-29.9,29-22.67,47.53,4.39,11.28,14.21,19,25.67,21.51l4.61,1.56,3.38-13.44a19.52,19.52,0,0,1-3.75-4.37,7.07,7.07,0,0,1,3-10.57,7,7,0,0,1,3.85-.68,7.6,7.6,0,0,1,4.67,2.8l4.1-5.58a10,10,0,0,0,1.71-8l-2.09-9.61a8,8,0,0,1,8.51-9.65L424,99.7A6,6,0,0,0,422.6,91.46Z" transform="translate(0)" style="fill:#231f20"/></g><path d="M383.78,155c-1-.32-2.66.94-3.67.53s-1.29-2.44-2.26-2.94-2.78.48-3.71-.1-.85-2.63-1.72-3.28-2.82,0-3.64-.76-.36-2.73-1.1-3.54-2.77-.53-3.44-1.4.15-2.75-.43-3.68-2.62-1-3.12-2,.66-2.67.26-3.7c-.68-1.73-2.86-3-3.25-4.76s1.07-3.86,1-5.67-1.81-3.71-1.63-5.53,2.19-3.34,2.63-5.12-.63-4.06.07-5.76,3.06-2.56,4-4.15.53-4.07,1.67-5.52,3.65-1.62,5-2.9,1.6-3.77,3.09-4.86,3.94-.6,5.57-1.49,2.51-3.21,4.25-3.89c1.15-.45,2.86.8,4,.46s1.95-2.32,3.14-2.56,2.68,1.28,3.88,1.15,2.33-2,3.54-2,2.41,1.73,3.62,1.81,2.64-1.5,3.83-1.3,2.06,2.14,3.24,2.44,2.86-1,4-.59,1.62,2.48,2.73,3,3-.45,4,.17,1.12,2.75,2.1,3.47l-36.19,25.14-2.4,19.74Z" transform="translate(0)" style="fill:#231f20"/></g><g id="torso-upper"><path d="M410.89,183.27c.19.45-1.26,38.9-1.26,38.9a43.24,43.24,0,0,1-15,31.12l-51.83,55.36L315,259.18l15.8-34.76s2.33-21.15,11.09-35.56c9.44-15.53,30.84-27.27,39-29.71a31.9,31.9,0,0,1,15.16-.74Z" transform="translate(0)" style="fill:#fff"/></g><g id="arm"><g id="arm-upper-2" data-name="arm-upper"><polygon points="328.21 161.51 292.18 166.65 298.4 201.26 332.07 199.56 328.21 161.51" style="fill:#ffd0c0"/><polygon points="385.92 196.84 378.28 154.36 328.21 161.51 332.07 199.56 385.92 196.84" style="fill:#fff"/><circle cx="295.11" cy="183.97" r="17.55" style="fill:#ffd0c0"/><circle cx="382.94" cy="175.5" r="21.54" style="fill:#fff"/></g><g id="arm-lower-2" data-name="arm-lower"><circle cx="293.37" cy="184.88" r="17.55" style="fill:#ffd0c0"/><polygon points="334.57 245.58 278.73 194.66 309.36 177.64 343.68 239.38 334.57 245.58" style="fill:#ffd0c0"/></g></g><path d="M332.07,239.4l1.18,3.95a7.61,7.61,0,0,0,5.85,5.29l26.48,5.12a5.38,5.38,0,0,0,6.32-6.2l-2.44-14.05a5.56,5.56,0,0,0-6.62-4.5l-10.19,2.12h0a4.44,4.44,0,0,0-5.36-4.35l-4.62,1a12,12,0,0,0-8.45,6.84Z" transform="translate(0)" style="fill:#ffd0c0"/></g></g></g></g><circle cx="439.14" cy="556.36" r="43.33" style="fill:#fff"/><circle cx="517.58" cy="540.45" r="59.24" style="fill:#fff"/><rect x="306.16" y="543.7" width="301.24" height="59.24" rx="29.62" style="fill:#fff"/></svg>