<svg id="reducing-eye-strain" xmlns="http://www.w3.org/2000/svg" viewBox="0 0 640 640"><rect width="640" height="640" style="fill:none"/><g id="eye"><path d="M322.2,210.65C467.64,210.65,518.83,318,518.83,318a237.19,237.19,0,0,1-397.66,6.77S176.76,210.65,322.2,210.65Z" style="fill:#fff"/><circle cx="320" cy="320" r="74.73" style="fill:#ff9b7a"/><circle cx="320" cy="320" r="34.13"/></g><polygon points="322.53 189.76 347.63 82.73 301.44 103.1 320.29 18.92 303.34 26.83 292.37 118.07 335.09 98.78 322.53 189.76" style="fill:#fff"/><polygon points="487.85 250.88 584.69 198.85 538.85 177.71 614.42 136.12 597.28 128.64 521.63 180.82 564.37 200.07 487.85 250.88" style="fill:#fff"/><polygon points="152.15 250.88 55.31 198.85 101.15 177.71 25.57 136.12 42.72 128.64 118.37 180.82 75.63 200.07 152.15 250.88" style="fill:#fff"/><polygon points="322.53 450.24 347.63 557.27 301.44 536.9 320.29 621.08 303.34 613.17 292.37 521.93 335.09 541.22 322.53 450.24" style="fill:#fff"/><polygon points="487.85 389.12 584.69 441.15 538.85 462.29 614.42 503.88 597.28 511.36 521.63 459.18 564.37 439.93 487.85 389.12" style="fill:#fff"/><polygon points="152.15 389.12 55.31 441.15 101.15 462.29 25.57 503.88 42.72 511.36 118.37 459.18 75.63 439.93 152.15 389.12" style="fill:#fff"/></svg>