<svg id="refocus-your-attention" xmlns="http://www.w3.org/2000/svg" viewBox="0 0 640 640"><rect width="640" height="640" style="fill:none"/><path d="M393,250.35A269.17,269.17,0,0,1,381.38,346a259.3,259.3,0,0,0,46.05-47.5,256.17,256.17,0,0,0,51.09-154.24,260.75,260.75,0,0,0-1.69-29.5,254.92,254.92,0,0,0-74.64-39.66A260.9,260.9,0,0,0,299.73,62.53c5.25,4.51,10.32,9.2,15.16,14A267.93,267.93,0,0,1,393,250.35Z" transform="translate(0)" style="fill:#fff"/><path d="M420.87,322.36A269,269,0,0,1,345,381.78a259.36,259.36,0,0,0,66.16-1,256.1,256.1,0,0,0,145.18-72.93A259.91,259.91,0,0,0,576,285.76a254.6,254.6,0,0,0-24.74-80.82,260.83,260.83,0,0,0-63.57-81.33c.53,6.9.8,13.8.8,20.64A267.89,267.89,0,0,1,420.87,322.36Z" transform="translate(0)" style="fill:#fff"/><path d="M389.65,393A269.17,269.17,0,0,1,294,381.38a259.3,259.3,0,0,0,47.5,46.05,256.17,256.17,0,0,0,154.24,51.09,260.75,260.75,0,0,0,29.5-1.69,254.92,254.92,0,0,0,39.66-74.64,260.9,260.9,0,0,0,12.56-102.46c-4.51,5.25-9.2,10.32-14,15.16A267.93,267.93,0,0,1,389.65,393Z" transform="translate(0)" style="fill:#fff"/><path d="M317.64,420.87A269,269,0,0,1,258.22,345a259.36,259.36,0,0,0,1,66.16,256.1,256.1,0,0,0,72.93,145.18A259.91,259.91,0,0,0,354.24,576a254.6,254.6,0,0,0,80.82-24.74,260.83,260.83,0,0,0,81.33-63.57c-6.9.53-13.8.8-20.64.8A267.89,267.89,0,0,1,317.64,420.87Z" transform="translate(0)" style="fill:#fff"/><path d="M247,389.65A269.17,269.17,0,0,1,258.62,294a259.3,259.3,0,0,0-46.05,47.5,256.17,256.17,0,0,0-51.09,154.24,260.75,260.75,0,0,0,1.69,29.5,254.92,254.92,0,0,0,74.64,39.66,260.9,260.9,0,0,0,102.46,12.56c-5.25-4.51-10.32-9.2-15.16-14A267.93,267.93,0,0,1,247,389.65Z" transform="translate(0)" style="fill:#fff"/><path d="M219.13,317.64A269,269,0,0,1,295,258.22a259.36,259.36,0,0,0-66.16,1A256.1,256.1,0,0,0,83.64,332.18,259.91,259.91,0,0,0,64,354.24a254.6,254.6,0,0,0,24.74,80.82,260.83,260.83,0,0,0,63.57,81.33c-.53-6.9-.8-13.8-.8-20.64A267.89,267.89,0,0,1,219.13,317.64Z" transform="translate(0)" style="fill:#fff"/><path d="M250.35,247A269.17,269.17,0,0,1,346,258.62a259.3,259.3,0,0,0-47.5-46.05,256.17,256.17,0,0,0-154.24-51.09,260.75,260.75,0,0,0-29.5,1.69,254.92,254.92,0,0,0-39.66,74.64A260.9,260.9,0,0,0,62.53,340.27c4.51-5.25,9.2-10.32,14-15.16A267.93,267.93,0,0,1,250.35,247Z" transform="translate(0)" style="fill:#fff"/><path d="M322.36,219.13A269,269,0,0,1,381.78,295a259.36,259.36,0,0,0-1-66.16A256.1,256.1,0,0,0,307.82,83.64,259.91,259.91,0,0,0,285.76,64a254.6,254.6,0,0,0-80.82,24.74,260.83,260.83,0,0,0-81.33,63.57c6.9-.53,13.8-.8,20.64-.8A267.89,267.89,0,0,1,322.36,219.13Z" transform="translate(0)" style="fill:#fff"/></svg>