<svg xmlns="http://www.w3.org/2000/svg" width="309.666" height="295.481" viewBox="0 0 309.666 295.481">
  <g id="Group_8" data-name="Group 8" transform="translate(-894.589 -236.459)">
    <path id="Polygon_1" data-name="Polygon 1" d="M81.75,0l1.362,30.55L109,47,83.112,63.45,81.75,94,54.5,79.9,27.25,94,25.888,63.45,0,47,25.887,30.55,27.25,0,54.5,14.1Z" transform="translate(926.739 406.329) rotate(20)" fill="#ff9b7a"/>
    <path id="Polygon_3" data-name="Polygon 3" d="M64.709,0,82.871,28.846l33.73-3.692L105.519,57.432l23.9,24.242-31.981,11.4L93.507,127l-28.8-18.058L35.911,127,31.981,93.078,0,81.674,23.9,57.432,12.816,25.154l33.73,3.692Z" transform="translate(959.651 324.48) rotate(20)"/>
    <path id="Polygon_2" data-name="Polygon 2" d="M135.764,0l7.753,48.482L192,56.236,163.2,96,192,135.765l-48.482,7.753L135.764,192,96,163.2,56.235,192l-7.753-48.482L0,135.764,28.8,96,0,56.236l48.482-7.753L56.235,0,96,28.8Z" transform="translate(1023.834 236.459) rotate(20)" fill="#fff"/>
  </g>
</svg>
