<svg id="preventing-wrist-pain_copy_3" data-name="preventing-wrist-pain copy 3" xmlns="http://www.w3.org/2000/svg" viewBox="0 0 640 640"><rect width="640" height="640" style="fill:none"/><circle cx="320" cy="321.31" r="280.31" style="fill:#ffd4c6"/><path d="M395.34,164.09l25-52.15a233.86,233.86,0,0,0-42.79-15.52l-14.33,56A175.13,175.13,0,0,1,395.34,164.09Z" transform="translate(0)" style="stroke:#000;stroke-miterlimit:10;stroke-width:0.8759834335014474px"/><path d="M329.44,147.23l3.13-57.74a230.07,230.07,0,0,0-45.47,2l8.19,57.24A172.48,172.48,0,0,1,329.44,147.23Z" transform="translate(0)" style="stroke:#000;stroke-miterlimit:10;stroke-width:0.8759834335014474px"/><path d="M262.1,156.88l-19.2-54.54a233.41,233.41,0,0,0-41.23,19.26l29.47,49.74A175.2,175.2,0,0,1,262.1,156.88Z" transform="translate(0)" style="stroke:#000;stroke-miterlimit:10;stroke-width:0.8759834335014474px"/><path d="M494.09,330.75l57.74,3.13a230.1,230.1,0,0,0-2-45.47L492.6,296.6A173.25,173.25,0,0,1,494.09,330.75Z" transform="translate(0)" style="stroke:#000;stroke-miterlimit:10;stroke-width:0.8759834335014474px"/><path d="M477.23,396.65l52.14,25a233,233,0,0,0,15.52-42.78l-56-14.33A176,176,0,0,1,477.23,396.65Z" transform="translate(0)" style="stroke:#000;stroke-miterlimit:10;stroke-width:0.8759834335014474px"/><path d="M449.76,204.9l43-38.62a231.76,231.76,0,0,0-33.55-30.75L424.57,181.8A173.32,173.32,0,0,1,449.76,204.9Z" transform="translate(0)" style="stroke:#000;stroke-miterlimit:10;stroke-width:0.8759834335014474px"/><path d="M484.44,263.42,539,244.21A233,233,0,0,0,519.71,203L470,232.45A175.33,175.33,0,0,1,484.44,263.42Z" transform="translate(0)" style="stroke:#000;stroke-miterlimit:10;stroke-width:0.8759834335014474px"/><path d="M203.58,191.55l-38.61-43a231.83,231.83,0,0,0-30.76,33.55l46.27,34.68A174.46,174.46,0,0,1,203.58,191.55Z" transform="translate(0)" style="stroke:#000;stroke-miterlimit:10;stroke-width:0.8759834335014474px"/><path d="M310.56,495.4l-3.13,57.74a230.07,230.07,0,0,0,45.47-2l-8.19-57.24A173.25,173.25,0,0,1,310.56,495.4Z" transform="translate(0)" style="stroke:#000;stroke-miterlimit:10;stroke-width:0.8759834335014474px"/><path d="M244.66,478.54l-25,52.14a233.12,233.12,0,0,0,42.79,15.52l14.33-56A175.11,175.11,0,0,1,244.66,478.54Z" transform="translate(0)" style="stroke:#000;stroke-miterlimit:10;stroke-width:0.8759834335014474px"/><path d="M162.77,246l-52.14-25a232.76,232.76,0,0,0-15.52,42.78l56,14.33A175.48,175.48,0,0,1,162.77,246Z" transform="translate(0)" style="stroke:#000;stroke-miterlimit:10;stroke-width:0.8759834335014474px"/><path d="M436.42,451.08l38.61,43a231.23,231.23,0,0,0,30.76-33.54l-46.27-34.68A175,175,0,0,1,436.42,451.08Z" transform="translate(0)" style="stroke:#000;stroke-miterlimit:10;stroke-width:0.8759834335014474px"/><path d="M377.9,485.75l19.2,54.54A233.41,233.41,0,0,0,438.33,521l-29.47-49.74A175.2,175.2,0,0,1,377.9,485.75Z" transform="translate(0)" style="stroke:#000;stroke-miterlimit:10;stroke-width:0.8759834335014474px"/><path d="M145.91,311.88l-57.74-3.13a230.13,230.13,0,0,0,2,45.47L147.4,346A173.11,173.11,0,0,1,145.91,311.88Z" transform="translate(0)" style="stroke:#000;stroke-miterlimit:10;stroke-width:0.8759834335014474px"/><path d="M190.24,437.73l-43,38.61a231.83,231.83,0,0,0,33.55,30.76l34.68-46.27A173.32,173.32,0,0,1,190.24,437.73Z" transform="translate(0)" style="stroke:#000;stroke-miterlimit:10;stroke-width:0.8759834335014474px"/><path d="M155.56,379.21,101,398.41a232.8,232.8,0,0,0,19.26,41.24L170,410.17A174.91,174.91,0,0,1,155.56,379.21Z" transform="translate(0)" style="stroke:#000;stroke-miterlimit:10;stroke-width:0.8759834335014474px"/><path d="M424.57,181.8l34.68-46.27a230.48,230.48,0,0,0-38.92-23.59l-25,52.15A172.32,172.32,0,0,1,424.57,181.8Z" transform="translate(0)" style="fill:#ff9b7a"/><path d="M180.48,216.74l-46.27-34.68A230.78,230.78,0,0,0,110.63,221l52.14,25A174.11,174.11,0,0,1,180.48,216.74Z" transform="translate(0)" style="fill:#ff9b7a"/><path d="M231.14,171.34,201.67,121.6A233.57,233.57,0,0,0,165,148.51l38.61,43A175.43,175.43,0,0,1,231.14,171.34Z" transform="translate(0)" style="fill:#ff9b7a"/><path d="M295.29,148.72,287.1,91.48a231.34,231.34,0,0,0-44.2,10.86l19.2,54.54A173.84,173.84,0,0,1,295.29,148.72Z" transform="translate(0)" style="fill:#ff9b7a"/><path d="M363.21,152.43l14.33-56a232.93,232.93,0,0,0-45-6.93l-3.13,57.74A175.58,175.58,0,0,1,363.21,152.43Z" transform="translate(0)" style="fill:#ff9b7a"/><path d="M488.88,364.53l56,14.33a234,234,0,0,0,6.94-45l-57.74-3.13A174.93,174.93,0,0,1,488.88,364.53Z" transform="translate(0)" style="fill:#ff9b7a"/><path d="M470,232.45,519.71,203a233.4,233.4,0,0,0-26.91-36.7l-43,38.62A175.35,175.35,0,0,1,470,232.45Z" transform="translate(0)" style="fill:#ff9b7a"/><path d="M492.6,296.6l57.24-8.19A231.73,231.73,0,0,0,539,244.21l-54.53,19.21A174.3,174.3,0,0,1,492.6,296.6Z" transform="translate(0)" style="fill:#ff9b7a"/><path d="M344.71,493.91l8.19,57.24a231.34,231.34,0,0,0,44.2-10.86l-19.2-54.54A173.84,173.84,0,0,1,344.71,493.91Z" transform="translate(0)" style="fill:#ff9b7a"/><path d="M477.23,396.65a174.11,174.11,0,0,1-17.71,29.24l46.27,34.68a230.78,230.78,0,0,0,23.58-38.93Z" transform="translate(0)" style="fill:#ff9b7a"/><path d="M276.79,490.19l-14.33,56a232.19,232.19,0,0,0,45,6.94l3.13-57.74A174.83,174.83,0,0,1,276.79,490.19Z" transform="translate(0)" style="fill:#ff9b7a"/><path d="M408.86,471.29,438.33,521A233.63,233.63,0,0,0,475,494.11l-38.61-43A175.43,175.43,0,0,1,408.86,471.29Z" transform="translate(0)" style="fill:#ff9b7a"/><path d="M147.4,346l-57.24,8.2A231.44,231.44,0,0,0,101,398.41l54.53-19.2A174.22,174.22,0,0,1,147.4,346Z" transform="translate(0)" style="fill:#ff9b7a"/><path d="M215.43,460.83,180.75,507.1a229.78,229.78,0,0,0,38.92,23.58l25-52.14A172.32,172.32,0,0,1,215.43,460.83Z" transform="translate(0)" style="fill:#ff9b7a"/><path d="M151.12,278.1l-56-14.33a234,234,0,0,0-6.94,45l57.74,3.13A174.93,174.93,0,0,1,151.12,278.1Z" transform="translate(0)" style="fill:#ff9b7a"/><path d="M170,410.17l-49.74,29.48a232.85,232.85,0,0,0,26.91,36.69l43-38.61A175,175,0,0,1,170,410.17Z" transform="translate(0)" style="fill:#ff9b7a"/><path d="M329.44,147.23a172.48,172.48,0,0,0-34.15,1.49L320,321.31Z" transform="translate(0)"/><path d="M319.57,321.38l-24.78-173,.44-.07a174.13,174.13,0,0,1,34.23-1.49l.44,0,0,.44-9.43,174.09ZM295.79,149.09l24,167.76L329,147.64A172.9,172.9,0,0,0,295.79,149.09Z" transform="translate(0)" style="fill:#ff9b7a"/><path d="M363.21,152.43a175.58,175.58,0,0,0-33.77-5.2L320,321.31Z" transform="translate(0)"/><path d="M320.42,321.42l-.86-.13L329,146.76l.44,0A175.75,175.75,0,0,1,363.32,152l.43.11Zm9.43-173.73L320.68,316.9l42-164.15A175.55,175.55,0,0,0,329.85,147.69Z" transform="translate(0)" style="fill:#ff9b7a"/><path d="M295.29,148.72a173.84,173.84,0,0,0-33.19,8.16L320,321.31Z" transform="translate(0)"/><path d="M319.59,321.46l-58-164.85.42-.15a175.39,175.39,0,0,1,33.27-8.18l.43-.06.06.44,24.71,172.59ZM262.66,157.15,318.94,317l-24-167.76A174,174,0,0,0,262.66,157.15Z" transform="translate(0)" style="fill:#ff9b7a"/><path d="M231.14,171.34a175.43,175.43,0,0,0-27.56,20.21L320,321.31Z" transform="translate(0)"/><path d="M319.67,321.61,203,191.52l.33-.3A176,176,0,0,1,230.92,171l.37-.23,89.09,150.35Zm-115.47-130L317.36,317.71,231,171.94A174.9,174.9,0,0,0,204.2,191.59Z" transform="translate(0)" style="fill:#ff9b7a"/><path d="M262.1,156.88a175.2,175.2,0,0,0-31,14.46l88.86,150Z" transform="translate(0)"/><path d="M319.62,321.54,230.54,171.19l.38-.22a175.45,175.45,0,0,1,31-14.51l.41-.14.14.41,57.9,164.44Zm-87.88-150,86.37,145.76L261.83,157.44A174.94,174.94,0,0,0,231.74,171.5Z" transform="translate(0)" style="fill:#ff9b7a"/><path d="M180.48,216.74A174.11,174.11,0,0,0,162.77,246L320,321.31Z" transform="translate(0)"/><path d="M319.81,321.71,162.19,246.18l.19-.39a174.49,174.49,0,0,1,17.75-29.31l.27-.35L320.26,321ZM163.36,245.77,316.18,319,180.57,217.36A172.92,172.92,0,0,0,163.36,245.77Z" transform="translate(0)" style="fill:#ff9b7a"/><path d="M162.77,246a175.48,175.48,0,0,0-11.65,32.12L320,321.31Z" transform="translate(0)"/><path d="M319.89,321.74l-169.3-43.32.11-.43a175.47,175.47,0,0,1,11.68-32.2l.19-.4,157.62,75.53ZM151.65,277.79l164.15,42L163,246.56A175.72,175.72,0,0,0,151.65,277.79Z" transform="translate(0)" style="fill:#ff9b7a"/><path d="M203.58,191.55a174.46,174.46,0,0,0-23.1,25.19L320,321.31Z" transform="translate(0)"/><path d="M319.74,321.66,179.87,216.83l.26-.35a176,176,0,0,1,23.16-25.26l.33-.29L320.33,321Zm-138.64-105L316.7,318.3,203.55,192.17A173.52,173.52,0,0,0,181.1,216.65Z" transform="translate(0)" style="fill:#ff9b7a"/><path d="M395.34,164.09a175.13,175.13,0,0,0-32.13-11.66L320,321.31Z" transform="translate(0)"/><path d="M320.39,321.5l-.81-.29L362.9,151.9l.42.11a176.31,176.31,0,0,1,32.21,11.68l.39.19-.19.4ZM363.53,153l-42,164.14L394.75,164.3A174.35,174.35,0,0,0,363.53,153Z" transform="translate(0)" style="fill:#ff9b7a"/><path d="M494.09,330.75a173.25,173.25,0,0,0-1.49-34.15L320,321.31Z" transform="translate(0)"/><path d="M494.5,331.21l-.44,0L320,321.75l0-.87,173-24.77.06.43a174.2,174.2,0,0,1,1.5,34.23Zm-170-10.09,169.21,9.17a172.16,172.16,0,0,0-1.45-33.19Z" transform="translate(0)" style="fill:#ff9b7a"/><path d="M492.6,296.6a174.3,174.3,0,0,0-8.16-33.18L320,321.31Z" transform="translate(0)"/><path d="M320.06,321.75l-.21-.85,164.85-58,.15.41A174.26,174.26,0,0,1,493,296.54l.06.44-.43.06ZM484.17,264,324.34,320.25l167.76-24A174.13,174.13,0,0,0,484.17,264Z" transform="translate(0)" style="fill:#ff9b7a"/><path d="M488.88,364.53a174.93,174.93,0,0,0,5.21-33.78L320,321.31Z" transform="translate(0)"/><path d="M489.2,365.06,319.89,321.74l.13-.86,174.53,9.46,0,.43a175.75,175.75,0,0,1-5.23,33.87ZM324.42,322l164.14,42a175.31,175.31,0,0,0,5.07-32.83Z" transform="translate(0)" style="fill:#ff9b7a"/><path d="M424.57,181.8a172.32,172.32,0,0,0-29.23-17.71L320,321.31Z" transform="translate(0)"/><path d="M320.35,321.58l-.74-.46,75.52-157.61.4.18a173.4,173.4,0,0,1,29.3,17.76l.35.26Zm75.19-156.91L322.32,317.49,424,181.89A172.37,172.37,0,0,0,395.54,164.67Z" transform="translate(0)" style="fill:#ff9b7a"/><path d="M484.44,263.42a175.33,175.33,0,0,0-14.47-31L320,321.31Z" transform="translate(0)"/><path d="M320.15,321.73l-.37-.79,150.35-89.09.22.38a176.45,176.45,0,0,1,14.5,31l.15.41-.42.15Zm149.67-88.68L324.05,319.42l159.83-56.27A175.44,175.44,0,0,0,469.82,233.05Z" transform="translate(0)" style="fill:#ff9b7a"/><path d="M449.76,204.9a173.32,173.32,0,0,0-25.19-23.1L320,321.31Z" transform="translate(0)"/><path d="M320.29,321.64l-.64-.59L424.48,181.18l.35.27a174.29,174.29,0,0,1,25.26,23.15l.29.33-.32.29ZM424.66,182.41,323,318,449.14,204.86A174.18,174.18,0,0,0,424.66,182.41Z" transform="translate(0)" style="fill:#ff9b7a"/><path d="M470,232.45a175.35,175.35,0,0,0-20.21-27.55L320,321.31Z" transform="translate(0)"/><path d="M320.22,321.69l-.51-.7L449.8,204.28l.29.32a176.48,176.48,0,0,1,20.26,27.63l.22.38-.37.22ZM449.73,205.52,323.6,318.67,469.37,232.3A174.27,174.27,0,0,0,449.73,205.52Z" transform="translate(0)" style="fill:#ff9b7a"/><path d="M377.9,485.75a175.2,175.2,0,0,0,31-14.46L320,321.31Z" transform="translate(0)"/><path d="M377.63,486.31l-58-164.85.79-.37,89.08,150.35-.38.22a174.7,174.7,0,0,1-31,14.5ZM321.89,325.36l56.28,159.83a174.94,174.94,0,0,0,30.09-14.06Z" transform="translate(0)" style="fill:#ff9b7a"/><path d="M151.12,278.1a174.93,174.93,0,0,0-5.21,33.78L320,321.31Z" transform="translate(0)"/><path d="M320,321.75l-174.53-9.46,0-.44A175.77,175.77,0,0,1,150.7,278l.1-.42,169.31,43.32ZM146.37,311.46l169.21,9.18-164.14-42A174.74,174.74,0,0,0,146.37,311.46Z" transform="translate(0)" style="fill:#ff9b7a"/><path d="M276.79,490.19a174.83,174.83,0,0,0,33.77,5.21L320,321.31Z" transform="translate(0)"/><path d="M311,495.86l-.44,0a176.53,176.53,0,0,1-33.86-5.22l-.43-.11,43.33-169.3.86.13Zm-33.66-6a175.55,175.55,0,0,0,32.83,5.06l9.17-169.21Z" transform="translate(0)" style="fill:#ff9b7a"/><path d="M408.86,471.29a175.43,175.43,0,0,0,27.56-20.21L320,321.31Z" transform="translate(0)"/><path d="M408.71,471.89l-.23-.38-88.86-150,.71-.52L437,451.11l-.33.29a175.85,175.85,0,0,1-27.63,20.26Zm-86.07-147L409,470.69A175.57,175.57,0,0,0,435.8,451Z" transform="translate(0)" style="fill:#ff9b7a"/><path d="M310.56,495.4a173.25,173.25,0,0,0,34.15-1.49L320,321.31Z" transform="translate(0)"/><path d="M320.09,496.1c-3.19,0-6.37-.08-9.55-.26l-.44,0,0-.44,9.43-174.09.87,0,24.77,173-.43.06A174,174,0,0,1,320.09,496.1ZM311,495a173.71,173.71,0,0,0,33.19-1.45l-24-167.76Z" transform="translate(0)" style="fill:#ff9b7a"/><path d="M320,321.31l157.23,75.34a176,176,0,0,0,11.65-32.12Z" transform="translate(0)"/><path d="M477.43,397.24l-.39-.19L319.81,321.71l.3-.82,169.3,43.32-.11.43a175.74,175.74,0,0,1-11.68,32.2ZM324.2,322.84,477,396.07a176.3,176.3,0,0,0,11.33-31.23Z" transform="translate(0)" style="fill:#ff9b7a"/><path d="M459.52,425.89a174.11,174.11,0,0,0,17.71-29.24L320,321.31Z" transform="translate(0)"/><path d="M459.6,426.5l-.35-.26L319.74,321.66l.45-.74,157.62,75.53-.19.39a174.49,174.49,0,0,1-17.75,29.31ZM323.82,323.63,459.43,425.27a172.92,172.92,0,0,0,17.21-28.41Z" transform="translate(0)" style="fill:#ff9b7a"/><path d="M436.42,451.08a175,175,0,0,0,23.1-25.19L320,321.31Z" transform="translate(0)"/><path d="M436.39,451.7l-.3-.33L319.67,321.61l.59-.65L460.13,425.8l-.26.35a174.23,174.23,0,0,1-23.16,25.25ZM323.3,324.33,436.45,450.46A173.6,173.6,0,0,0,458.9,426Z" transform="translate(0)" style="fill:#ff9b7a"/><path d="M344.71,493.91a173.84,173.84,0,0,0,33.19-8.16L320,321.31Z" transform="translate(0)"/><path d="M344.34,494.41l-.06-.44L319.57,321.38l.84-.21,58,164.85-.42.14a174.07,174.07,0,0,1-33.27,8.18ZM321.06,325.65l24,167.76a173.34,173.34,0,0,0,32.26-7.93Z" transform="translate(0)" style="fill:#ff9b7a"/><path d="M147.4,346a174.22,174.22,0,0,0,8.16,33.19L320,321.31Z" transform="translate(0)"/><path d="M155.3,379.77l-.15-.41A175,175,0,0,1,147,346.09l-.06-.44.43-.06,172.6-24.71.21.85Zm-7.4-33.38a173.74,173.74,0,0,0,7.93,32.26l159.83-56.27Z" transform="translate(0)" style="fill:#ff9b7a"/><path d="M145.91,311.88A173.11,173.11,0,0,0,147.4,346L320,321.31Z" transform="translate(0)"/><path d="M147,346.52l-.06-.43a174.27,174.27,0,0,1-1.5-34.24l0-.43.44,0L320,320.88l0,.87Zm-.7-34.18a172.16,172.16,0,0,0,1.45,33.19l167.76-24Z" transform="translate(0)" style="fill:#ff9b7a"/><path d="M155.56,379.21a174.91,174.91,0,0,0,14.47,31l150-88.86Z" transform="translate(0)"/><path d="M169.87,410.77l-.22-.37a176.78,176.78,0,0,1-14.5-31l-.15-.42.42-.14,164.43-57.9.37.79Zm-13.75-31.29a175.69,175.69,0,0,0,14.06,30.09L316,323.2Z" transform="translate(0)" style="fill:#ff9b7a"/><path d="M244.66,478.54a175.11,175.11,0,0,0,32.13,11.65L320,321.31Z" transform="translate(0)"/><path d="M277.1,490.73l-.42-.11a176.61,176.61,0,0,1-32.21-11.69l-.39-.18,75.53-157.63.81.3Zm-31.85-12.4a174.35,174.35,0,0,0,31.22,11.33l42-164.15Z" transform="translate(0)" style="fill:#ff9b7a"/><path d="M170,410.17a175,175,0,0,0,20.21,27.56L320,321.31Z" transform="translate(0)"/><path d="M190.2,438.35l-.29-.32a176.31,176.31,0,0,1-20.26-27.63l-.22-.38,150.35-89.08.51.7Zm-19.57-28a175.24,175.24,0,0,0,19.64,26.78L316.4,324Z" transform="translate(0)" style="fill:#ff9b7a"/><path d="M215.43,460.83a172.32,172.32,0,0,0,29.23,17.71L320,321.31Z" transform="translate(0)"/><path d="M244.87,479.12l-.4-.19a173.35,173.35,0,0,1-29.3-17.75l-.35-.26.26-.35L319.65,321.05l.74.45ZM216,460.74A173.33,173.33,0,0,0,244.46,478l73.22-152.82Z" transform="translate(0)" style="fill:#ff9b7a"/><path d="M190.24,437.73a173.32,173.32,0,0,0,25.19,23.1L320,321.31Z" transform="translate(0)"/><path d="M215.52,461.44l-.35-.26A174.81,174.81,0,0,1,189.91,438l-.29-.33.32-.29L319.71,321l.64.59Zm-24.66-23.67a174.18,174.18,0,0,0,24.48,22.45L317,324.61Z" transform="translate(0)" style="fill:#ff9b7a"/><circle cx="320" cy="321.31" r="111.25" style="fill:#ffd4c6"/><circle cx="320" cy="321.31" r="33.29" style="fill:#fff"/><circle cx="320" cy="321.31" r="16.64" style="fill:#ff9b7a"/><circle cx="337.47" cy="254.8" r="9.64" style="fill:#ff9b7a"/><circle cx="303.38" cy="388.04" r="9.64" style="fill:#ff9b7a"/><circle cx="387.04" cy="338.47" r="9.64" style="fill:#ff9b7a"/><circle cx="255.82" cy="305.34" r="9.64" style="fill:#ff9b7a"/><rect x="251.22" y="315.73" width="138.41" height="11.39" transform="translate(89.68 -69.4) rotate(14.35)" style="fill:#ff9b7a"/><rect x="251.22" y="315.73" width="138.41" height="11.39" transform="translate(711.25 90.68) rotate(104.35)" style="fill:#ff9b7a"/><circle cx="409.14" cy="123.8" r="12.25" style="fill:#fff"/></svg>