<?xml version="1.0" encoding="utf-8"?>
<!-- Generator: Adobe Illustrator 25.2.1, SVG Export Plug-In . SVG Version: 6.00 Build 0)  -->
<svg version="1.1" id="Layer_1" xmlns="http://www.w3.org/2000/svg" xmlns:xlink="http://www.w3.org/1999/xlink" x="0px" y="0px"
	 viewBox="0 0 24 24" style="enable-background:new 0 0 24 24;" xml:space="preserve">
<path d="M13.1,1.7c-1.9,1.9-2.3,4.3-2.4,6.7l2.5,0.1c0.1-1.8,0.4-3.6,1.6-4.8c1.5-1.5,3.8-1.5,5.4,0.1c1.5,1.5,1.6,3.9,0,5.5
	c-1.8,1.8-4.7,1.5-7,1.6l-2.5,0c-3,0-6.5-0.1-8.8,2.2c-2.7,2.7-2.6,6.9-0.1,9.3c2.7,2.7,6.5,2.7,9.1,0.1c2.5-2.5,2.4-5.9,2.4-9.1
	c3,0,6.5,0.1,8.8-2.2c2.7-2.7,2.6-6.9,0.1-9.3C19.5-0.9,15.8-1,13.1,1.7z M9.1,20.4c-1.5,1.5-3.8,1.5-5.4-0.1
	c-1.5-1.5-1.6-3.9,0-5.5c1.8-1.8,4.7-1.5,7-1.6C10.8,15.6,10.9,18.6,9.1,20.4z"/>
</svg>
