<?xml version="1.0" encoding="utf-8"?>
<!-- Generator: Adobe Illustrator 25.2.1, SVG Export Plug-In . SVG Version: 6.00 Build 0)  -->
<svg version="1.1" id="Layer_1" xmlns="http://www.w3.org/2000/svg" xmlns:xlink="http://www.w3.org/1999/xlink" x="0px" y="0px"
	 viewBox="0 0 24 24" style="enable-background:new 0 0 24 24;" xml:space="preserve">
<style type="text/css">
	.st0{fill:none;stroke:#000000;stroke-width:2.8615;stroke-linecap:round;stroke-linejoin:round;stroke-miterlimit:10;}
</style>
<path class="st0" d="M6.6,2.8C7.1,1.9,8,1.3,9.1,1.3c1.6,0,2.9,1.3,2.9,2.9S10.7,7,9.1,7H0"/>
<path class="st0" d="M17.1,7.3C17.6,6.5,18.5,6,19.5,6c1.6,0,2.9,1.3,2.9,2.9s-1.3,2.9-2.9,2.9H0"/>
<path class="st0" d="M12,20.9c0.5,0.8,1.4,1.4,2.5,1.4c1.6,0,2.9-1.3,2.9-2.9c0-1.6-1.3-2.9-2.9-2.9H0"/>
</svg>
