<?xml version="1.0" encoding="utf-8"?>
<!-- Generator: Adobe Illustrator 24.1.0, SVG Export Plug-In . SVG Version: 6.00 Build 0)  -->
<svg version="1.1" id="Layer_1" xmlns="http://www.w3.org/2000/svg" xmlns:xlink="http://www.w3.org/1999/xlink" x="0px" y="0px"
	 viewBox="0 0 511 512" style="enable-background:new 0 0 511 512;" xml:space="preserve">
<path d="M173.3,447.9c2.6,0,5.2-1.1,7.1-2.9s2.9-4.4,2.9-7.1s-1.1-5.2-2.9-7.1c-1.9-1.9-4.4-2.9-7.1-2.9c-2.6,0-5.2,1.1-7.1,2.9
	s-2.9,4.4-2.9,7.1s1.1,5.2,2.9,7.1C168.1,446.9,170.7,447.9,173.3,447.9z"/>
<path d="M173.3,445.9c-2.1,0-4.2-0.9-5.7-2.3c-1.5-1.5-2.3-3.5-2.3-5.7c0-2.1,0.9-4.2,2.3-5.7c1.5-1.5,3.6-2.3,5.7-2.3
	c2.1,0,4.2,0.9,5.7,2.3c1.5,1.5,2.3,3.6,2.3,5.7c0,2.1-0.9,4.2-2.3,5.7C177.5,445.1,175.4,445.9,173.3,445.9z"/>
<path d="M10.5,510c-4.4,0-8-3.6-8-8s3.6-8,8-8h46v-28.4c0-13.8,7-26.4,18.7-33.8l129.5-81.4l24.6-44.3v-86.5c0-5.7,1.4-11.3,4-16.4
	c7.8-15.1,12.7-31.3,14.5-48.1l0.2-2.2l-2.8-0.1c-8.1-0.1-15.8-3.5-21.4-9.4c-5.7-5.9-8.7-13.6-8.6-21.8c0.1-8.2,3.5-15.8,9.3-21.4
	c5.7-5.5,13.2-8.6,21.1-8.6c0.2,0,0.4,0,0.6,0c0,0,0.1,0,0.2,0h2V10c0-4.4,3.6-8,8-8c26.5,0,48.1,21.6,48.1,48.1v43l1.8,0.2
	c27.3,2.4,48.7,25.8,48.7,53.3c0,22.8-14.5,43.1-36.1,50.6l-2.4,0.8l1.4,2.1c3.8,5.8,5.8,12.6,5.8,19.5v82.7l78.1,24.2
	c19.2,6,32.2,23.5,32.2,43.7v89.7l19.1,34.2h49.3c4.4,0,8,3.6,8,8s-3.6,8-8,8H10.5z M301.1,344.7l86.2,31.8c3.1,1.2,5.2,4.2,5.2,7.5
	v99.4c0,5.8,4.7,10.6,10.6,10.6h31.8l-15.8-28.2c-0.7-1.2-1-2.5-1-3.9v-91.7c0-13.1-8.4-24.5-20.9-28.4l-78-24.2L301.1,344.7z
	 M142.8,444.9c3.1,0,5.8,1.7,7.2,4.5c1.9,4,0.3,8.8-3.7,10.7l-43.5,21.4L87.2,494h291.3l-0.8-2.6c-0.8-2.6-1.2-5.3-1.2-8v-93.8
	l-84.6-31.1l-8.7,13.1c-13.8,20.7-32.9,37.5-55.3,48.5l-20.7,10.2c-1.1,0.5-2.3,0.8-3.5,0.8c-3.1,0-5.8-1.7-7.2-4.5
	c-0.9-1.9-1.1-4.1-0.4-6.1c0.7-2,2.1-3.7,4-4.6l20.7-10.2c19.8-9.7,36.8-24.6,49.1-43l31-46.5H242L217.7,360
	c-0.7,1.2-1.6,2.2-2.7,2.9L83.7,445.4c-7,4.4-11.2,12-11.2,20.3v19.7l21-16.9c0.5-0.4,1-0.7,1.5-0.9l44.3-21.8
	C140.4,445.2,141.6,444.9,142.8,444.9z M264.5,141.4c0,23.8-5.9,47.7-17.1,69.2c-1.4,2.8-2.2,5.8-2.2,9v80.6h62.5v-80.6
	c0-8.6-5.5-16.1-13.7-18.7c-3.3-1.1-5.6-4.1-5.6-7.6V50.1c0-13.6-8.6-25.7-21.4-30.2l-2.7-0.9V141.4z M304.6,184l2.3-0.3
	c18.4-2.6,32.3-18.5,32.3-37.1s-13.9-34.6-32.3-37.1l-2.3-0.3V184z M245.8,107.8c-3.8,0-7.4,1.4-10.1,4.1c-2.8,2.7-4.4,6.3-4.4,10.2
	c-0.1,3.9,1.4,7.6,4.1,10.4c2.7,2.8,6.3,4.4,10.2,4.5l3,0v-29.2l-2.3,0.1H245.8z"/>
</svg>
