<?xml version="1.0" encoding="utf-8"?>
<!-- Generator: Adobe Illustrator 24.1.0, SVG Export Plug-In . SVG Version: 6.00 Build 0)  -->
<svg version="1.1" id="Capa_1" xmlns="http://www.w3.org/2000/svg" xmlns:xlink="http://www.w3.org/1999/xlink" x="0px" y="0px"
	 viewBox="0 0 512 512" style="enable-background:new 0 0 512 512;" xml:space="preserve">
<path d="M504.6,497h-62.1c23.1-20.6,21.1-61.2-2.5-80.7c5,0.2,10.6-1.5,10.6-7.5c0-11.6-3.9-21.2-11.6-28.5
	c-4.5-4.2-9.8-7.2-15.2-9.2c2-3.3,3.1-7.1,3.1-11.2c0-12-9.7-21.7-21.7-21.7s-21.7,9.7-21.7,21.7c0,2.4,0.4,4.7,1.1,6.8h-12.3
	c0.1-23.7,2.4-48.8-3.6-72c-10.8-41.4-44.3-74-85.8-84.2v-17.9c27.9-10.8,47.8-38,47.8-69.7c0-26.5-14.5-51.4-37.4-64.7
	c2.5-5.4,3.8-11.2,3.8-17.2c0-22.6-18.4-41.1-41.1-41.1s-41.1,18.4-41.1,41.1c0,6,1.3,11.8,3.8,17.2c-22.3,12.9-37.4,37.1-37.4,64.7
	c0,31.2,19.2,57.9,46.4,69.1v18.7c-23.7,5.6-39,17.2-39.7,17.7c0,0,0,0,0,0c-5.6,3.9-10.9,8.4-15.8,13.3
	c-6.7,6.7,3.7,17.5,10.6,10.6c2.2-2.3,4.6-4.4,7.1-6.4c12.8,21.8,37.7,35.9,64.7,35.9c26.9,0,51.7-14.7,64.6-37.3
	c24.3,19.4,38.5,48.7,38.4,80.1l-0.2,42H348c-9.7,0-9.7,15,0,15h39.7v22.2c-9.5,0.8-19,2.2-28.3,4.2c-4.2,0.9-18.3,3.9-18.4,4.1
	c-0.1,0.1-18-7.8-17.2-35.5c0-0.1,0-0.1,0-0.2v-67.7c0-9.7-15-9.7-15,0v67.6c-0.6,21.3,7.5,34.2,14.9,41.5
	c-18.9,6.4-41.6,15.9-67.1,30.1c-26.3-14.7-50-24.6-70.3-31.2c7.2-7.4,14.9-20.2,14.3-40.9v-67.6c0-9.7-15-9.7-15,0v67.7
	c0,0.1,0,0.1,0,0.2c0.7,25.3-14.2,34-16.9,35.3c-19.2-5.1-34.4-7.1-44.8-7.8v-22.1h39.7c9.7,0,9.7-15,0-15h-10.9
	c0-3.3-0.1-6.6-0.2-9.9c-0.5-25.7-1-49.9,8.9-73c3.8-8.9-10-14.8-13.8-5.9c-11.1,26-10.6,53.1-10.1,79.2c0.1,3.1,0.1,6.4,0.2,9.6
	h-10.8c0.7-2.2,1.1-4.5,1.1-6.8c0-12-9.7-21.7-21.7-21.7s-21.7,9.7-21.7,21.7c0,4.1,1.1,8,3.1,11.2c-5.4,2.1-10.7,5-15.2,9.2
	c-7.7,7.2-11.6,16.8-11.6,28.5c0,6.5,6.2,7.7,11.4,7.5c-22.8,21.5-26.8,58.2-2.7,80.7H7.6c-4.1,0-7.5,3.4-7.5,7.5s3.4,7.5,7.5,7.5
	c0,0,328.5-0.1,332.9-0.1c9,0,7.5-14.9-1.2-14.9c0,0-104-0.5-130.2-0.4c56.9-42.2,105.1-61.2,136.4-69.8c30.9-8.5,51.3-8.6,56.8-8.4
	c22.2,1,40.5,14.5,41.5,38.2c0.9,20.7-15.5,38.3-35.8,40.4h-23.9c-9.4,0-10.1,14.1-0.8,15c1.3,0.1,121.4,0,121.4,0
	C514.3,512,514.3,497,504.6,497z M230.1,41.1c0-14.4,11.7-26.1,26.1-26.1c14.4,0,26.1,11.7,26.1,26.1c0,3.9-0.9,7.6-2.5,11
	c-7.4-2.5-15.4-3.8-23.6-3.8c-8.2,0-16.2,1.4-23.6,3.8C230.9,48.7,230.1,44.9,230.1,41.1z M256.1,63.3c17.8,0,33.8,7.8,44.7,20.2
	c-14.5,27.2-35.7,42.4-63,45.1c-22,2.2-40.1-4.7-40.3-4.8c-0.4-0.1-0.7-0.2-1.1-0.3c0-0.1,0-0.3,0-0.4
	C196.4,90.1,223.2,63.3,256.1,63.3z M198.9,139.9c6.6,1.8,17.4,4.1,30.2,4.1c3.1,0,6.3-0.1,9.7-0.4c21.5-2,50.4-11.9,71.4-46.1
	c3.7,7.7,5.7,16.4,5.7,25.5c0,32.9-26.8,59.7-59.7,59.7C229.1,182.7,206.2,164.6,198.9,139.9z M254.7,266.9
	c-22.2,0-42.6-11.7-52.5-29.7c6.5-3.9,18.8-10.1,34.4-12.9c3.6-0.6,6.2-3.7,6.2-7.4v-20.4c4.3,0.8,8.8,1.2,13.3,1.2
	c4.1,0,8.1-0.3,12-1v19.8c0,3.6,2.6,6.7,6.1,7.4c8.3,1.6,20.2,4.9,32.7,12.1C296.9,254.7,276.7,266.9,254.7,266.9z M434.8,401.3
	h-32.1v-19.6c7.5,0.6,18.9,2.7,26.1,9.5C431.8,394,433.7,397.3,434.8,401.3z M405.4,353.1c3.7,0,6.7,3,6.7,6.7s-3,6.7-6.7,6.7
	s-6.7-3-6.7-6.7S401.7,353.1,405.4,353.1z M106.3,353.1c3.7,0,6.7,3,6.7,6.7s-3,6.7-6.7,6.7c-3.7,0-6.7-3-6.7-6.7
	S102.6,353.1,106.3,353.1z M82.8,391.2c7.2-6.9,18.7-9,26.1-9.6v19.6H76.9C77.9,397.3,79.9,394,82.8,391.2z M76.2,433.7
	c6-7.7,18-14.7,33.6-15.2c5.1-0.2,56.5-1.7,131.7,38.3c-2.3,1.4-4.5,2.8-6.9,4.2c-7.7-0.5-81.5-4.2-101.5,35.8
	c-10.6,0-21.1-0.1-31.6-0.3C71.8,493.6,58.6,456.3,76.2,433.7z M185.5,496.7c-11.4,0-22.8,0.1-34.4,0.1c10-11.2,27.8-16.4,42.4-18.8
	c6.5-1.1,12.8-1.7,18.5-2c-8,5.6-16.2,11.7-24.5,18.2C186.7,494.9,186,495.7,185.5,496.7z"/>
</svg>
