<?xml version="1.0" encoding="utf-8"?>
<!-- Generator: Adobe Illustrator 24.1.0, SVG Export Plug-In . SVG Version: 6.00 Build 0)  -->
<svg version="1.1" xmlns="http://www.w3.org/2000/svg" xmlns:xlink="http://www.w3.org/1999/xlink" x="0px" y="0px"
	 viewBox="0 0 511 512" style="enable-background:new 0 0 511 512;" xml:space="preserve">
<style type="text/css">
	.st0{display:none;}
	.st1{display:inline;}
	.st2{fill:#010000;}
	.st3{fill:#E5947F;}
	.st4{fill:#FFFFFF;}
</style>
<g id="Layer_1" class="st0">
	<path class="st1" d="M173.3,447.9c2.6,0,5.2-1.1,7.1-2.9s2.9-4.4,2.9-7.1s-1.1-5.2-2.9-7.1c-1.9-1.9-4.4-2.9-7.1-2.9
		c-2.6,0-5.2,1.1-7.1,2.9s-2.9,4.4-2.9,7.1s1.1,5.2,2.9,7.1C168.1,446.9,170.7,447.9,173.3,447.9z"/>
	<path class="st1" d="M173.3,445.9c-2.1,0-4.2-0.9-5.7-2.3c-1.5-1.5-2.3-3.5-2.3-5.7c0-2.1,0.9-4.2,2.3-5.7c1.5-1.5,3.6-2.3,5.7-2.3
		c2.1,0,4.2,0.9,5.7,2.3c1.5,1.5,2.3,3.6,2.3,5.7s-0.9,4.2-2.3,5.7C177.5,445.1,175.4,445.9,173.3,445.9z"/>
	<path class="st1" d="M10.5,510c-4.4,0-8-3.6-8-8s3.6-8,8-8h46v-28.4c0-13.8,7-26.4,18.7-33.8l129.5-81.4l24.6-44.3v-86.5
		c0-5.7,1.4-11.3,4-16.4c7.8-15.1,12.7-31.3,14.5-48.1l0.2-2.2l-2.8-0.1c-8.1-0.1-15.8-3.5-21.4-9.4c-5.7-5.9-8.7-13.6-8.6-21.8
		c0.1-8.2,3.5-15.8,9.3-21.4c5.7-5.5,13.2-8.6,21.1-8.6c0.2,0,0.4,0,0.6,0c0,0,0.1,0,0.2,0h2V10c0-4.4,3.6-8,8-8
		c26.5,0,48.1,21.6,48.1,48.1v43l1.8,0.2c27.3,2.4,48.7,25.8,48.7,53.3c0,22.8-14.5,43.1-36.1,50.6l-2.4,0.8l1.4,2.1
		c3.8,5.8,5.8,12.6,5.8,19.5v82.7l78.1,24.2c19.2,6,32.2,23.5,32.2,43.7v89.7l19.1,34.2h49.3c4.4,0,8,3.6,8,8s-3.6,8-8,8H10.5V510z
		 M301.1,344.7l86.2,31.8c3.1,1.2,5.2,4.2,5.2,7.5v99.4c0,5.8,4.7,10.6,10.6,10.6h31.8l-15.8-28.2c-0.7-1.2-1-2.5-1-3.9v-91.7
		c0-13.1-8.4-24.5-20.9-28.4l-78-24.2L301.1,344.7z M142.8,444.9c3.1,0,5.8,1.7,7.2,4.5c1.9,4,0.3,8.8-3.7,10.7l-43.5,21.4L87.2,494
		h291.3l-0.8-2.6c-0.8-2.6-1.2-5.3-1.2-8v-93.8l-84.6-31.1l-8.7,13.1c-13.8,20.7-32.9,37.5-55.3,48.5l-20.7,10.2
		c-1.1,0.5-2.3,0.8-3.5,0.8c-3.1,0-5.8-1.7-7.2-4.5c-0.9-1.9-1.1-4.1-0.4-6.1c0.7-2,2.1-3.7,4-4.6l20.7-10.2
		c19.8-9.7,36.8-24.6,49.1-43l31-46.5H242L217.7,360c-0.7,1.2-1.6,2.2-2.7,2.9L83.7,445.4c-7,4.4-11.2,12-11.2,20.3v19.7l21-16.9
		c0.5-0.4,1-0.7,1.5-0.9l44.3-21.8C140.4,445.2,141.6,444.9,142.8,444.9z M264.5,141.4c0,23.8-5.9,47.7-17.1,69.2
		c-1.4,2.8-2.2,5.8-2.2,9v80.6h62.5v-80.6c0-8.6-5.5-16.1-13.7-18.7c-3.3-1.1-5.6-4.1-5.6-7.6V50.1c0-13.6-8.6-25.7-21.4-30.2
		l-2.7-0.9v122.4H264.5z M304.6,184l2.3-0.3c18.4-2.6,32.3-18.5,32.3-37.1s-13.9-34.6-32.3-37.1l-2.3-0.3V184z M245.8,107.8
		c-3.8,0-7.4,1.4-10.1,4.1c-2.8,2.7-4.4,6.3-4.4,10.2c-0.1,3.9,1.4,7.6,4.1,10.4c2.7,2.8,6.3,4.4,10.2,4.5h3v-29.2l-2.3,0.1
		L245.8,107.8L245.8,107.8z"/>
</g>
<g id="Layer_2">
	<g id="akXN4T_1_">
		<g>
			<path class="st2" d="M154.7,467.2c0.9-0.9,0.8-2.1,0.9-3.1c0.4-8.7,0.8-17.3,0.6-26c-0.1-3.3-0.1-6.7-0.3-10
				c-0.3-4.9-0.9-9.7-1.3-14.6c-0.2-2.4-0.3-4.7-0.4-7.1c-0.3-4.1-0.6-8.2-1-12.3c-0.3-3.1-0.6-6.2-0.9-9.2c-0.5-4.8-1-9.6-1.4-14.4
				c-0.2-2.5-0.2-4.9-0.4-7.4c-0.3-4.4-0.5-8.8-0.8-13.2c-0.1-1.3-0.1-2.6,0.1-3.9c0.3-1.9,0-3.8-0.2-5.6c-0.6-4.6-1.1-9.2-1.6-13.9
				c-0.3-3.1-0.6-6.3-1-9.4c-0.2-2.3,0.1-4.5,0.1-6.8c0-1.4,1.1-2.2,2.4-2.7c12.8-5,25.7-9.8,38.8-13.7c10.2-3.1,20.2-6.7,30.5-9.5
				c7.9-2.2,15.9-4.3,24-5.8c4.1-0.8,8.3-1.2,12.5-1.5c4.4-0.3,8.8-1,13.3-1.6c2.3-0.3,4.7-0.7,7.1-0.7c0.5,0,0.8-0.1,1-0.6
				c0.8-1.7,1.5-3.5,1.3-5.4c-0.1-0.6,0-1.2,0.3-1.7c0.3-0.6,0.8-0.9,1.5-0.7c4.7,1.3,9.5,1.7,14.3,2.5c3.6,0.6,7.1,1.4,10.7,1.8
				c5.2,0.6,10.4,1.3,15.6,1.9c5.4,0.6,10.8,1.8,16.1,3c3.8,0.9,7.6,1.7,11.5,2.6c1.6,0.4,3.1,0.7,4.6,1.2c1.7,0.6,3.4,1.4,3.7,3.6
				c0,0.3,0.1,0.7,0.1,1c-0.9,8-1.7,16-3.6,23.8c-0.8,3-1.5,6.1-2.6,9.1c-1.9,5-4.6,9.6-8.7,13.2c-0.7,0.6-1.5,1-2.5,1.1
				c-3.7,0.2-7.4,0.3-11,0.7c-6.1,0.6-12.2,0.3-18.3,0.8c-0.2,0-0.4,0-0.6,0c-6.4-0.2-12.8,0.1-19.2-0.1c-5-0.2-10.1-0.1-15.1,0.2
				c-3.3,0.2-6.6-0.1-9.9-0.3c-0.3,0-0.6-0.1-0.9-0.1c-4.9,0.2-9.8-0.2-14.7-0.4c-6.2-0.3-12.5-0.1-18.7-0.4
				c-2.9-0.1-5.7,0.2-8.6,0.4c-3.7,0.2-7.2,1.2-10.7,1.6c-2.1,0.3-4.1,0.8-6.2,1.1c-3.2,0.4-6.1,1.3-9.1,2.3c-1.9,0.7-2.9,2-2.9,4
				c0,1.8,0,3.7,0.1,5.5c0.2,3.8,0,7.6-0.1,11.3c-0.2,6.1-0.2,12.2-0.4,18.3c-0.1,3.1-0.3,6.3-0.5,9.4c-0.2,3.2-0.3,6.4-0.3,9.6
				c0.1,8.8-0.2,17.5,0.2,26.3c0.3,6.9-0.1,13.9,0,20.8c0.1,3.2,0.7,6.3,1.1,9.4c0.3,2.1,0.6,4.2,1,6.3c0.1,0.5,0,1-0.2,1.6
				c-0.4,1.3-1,2.7-1.1,4c-0.2,2.3-1.4,4.4-1.4,6.8c0,1.3-0.6,1.8-1.9,1.9c-4.2,0.5-8.4,0.3-12.6-0.5c-3-0.6-5.9-0.9-8.9-1.3
				c-2.1-0.3-4.1-0.5-6.1-1.1c-0.9-0.3-1.9-0.3-2.9-0.5C157.5,468.3,156.1,467.8,154.7,467.2z"/>
			<path class="st3" d="M248.8,145.9c-0.6-3.3-1.1-6.7-1.9-10c-0.7-3-1.5-5.9-2.3-8.8c-0.3-1.1-0.5-2.3-0.7-3.4
				c-0.2-1.1,0-1.3,1.1-1.5c4.4-0.9,8.8-1.7,13.2-2.6c4.3-0.8,8.5-2,12.7-3.1c3.2-0.8,6.4-1.6,9.5-2.5c2.4-0.6,4.8-1.5,7.1-2.6
				c1.9-0.9,3.4-2.4,5.1-3.5c3.6-2.4,7.4-4.2,11.8-4.3c0.6,0,1.1-0.2,1.7-0.3c4.9-0.7,9.7-0.8,14.6-0.5c3.9,0.3,7.9,0.6,11.8,1.3
				c0.2,0,0.4,0,0.8,0c-1.1-0.9-2.2-1.2-3.5-1.8c1.4-0.9,2.7-1.3,4.1-1.8c2.4-0.9,5-1.6,7.6-1.7c1.3,0,2.2,0.5,2.7,1.7
				c1.8,3.6,3,7.4,4.2,11.3c1.2,3.8,1.7,7.7,2.1,11.7c0.4,3.5,1,7,1.3,10.5c0.3,3,0.8,6,1,9.1c0.2,2.7,0.4,5.5,0.6,8.2
				c0.2,2.9,0.2,5.8,0,8.7c-0.1,2.2-0.2,4.3,0.2,6.5c0.2,1.4-0.2,2.8-0.2,4.2c0,3.5,0,7.1-0.3,10.6c-0.3,2.6-0.7,5.3-1,7.9
				c-0.2,2-0.5,4-0.7,6c-0.2,2.9-0.7,5.7-1.3,8.4c-0.7,3.2-1.1,6.5-1.4,9.7c-0.2,2.1-0.4,4.1-0.7,6.2c-0.2,1-0.1,2-0.1,3
				c0,3.1,0,6.1,0,9.2c0.1,2.6,0.6,5.2,1,7.8c0.4,2.9,0.9,5.8,1.3,8.7c0.5,3.5,1.1,7,1.6,10.4c0.3,1.9,0.6,3.8,0.7,5.7
				c0.2,2.4,0.4,4.7,0.4,7.1c0,2.4-0.5,2.3-2.5,2c-3.8-0.6-7.5-1.7-11.3-2.6c-4.8-1.1-9.6-2.2-14.5-2.8c-4.3-0.6-8.7-1.2-13-1.8
				c-5.7-0.8-11.5-1.7-17.1-2.8c-3.7-0.7-7.5-1.2-11.3-1.8c-1.9-0.3-3.7-0.6-5.6-0.9c-0.7-0.1-1.2-0.6-1.5-1.2c-0.6-1-0.8-2.1-1-3.2
				c-0.5-2.2-0.9-4.3-1.3-6.5c-0.2-1.2-0.4-2.4-0.5-3.6c-0.2-3.1-0.8-6.2-1.3-9.3c-0.3-2-0.5-3.9-0.7-5.9c-0.5-4.1-0.3-8.2-0.9-12.3
				c-0.4-2.8-0.8-5.5-1.3-8.3c-0.2-1.1-0.2-2.1-0.4-3.2c-0.3-1.5-0.3-3.1-0.4-4.6c-0.3-3.9-0.6-7.8-0.8-11.7c-0.1-2.5,0-5-0.1-7.6
				c0-1.6,0-3.3-0.2-4.9c-0.2-1.7,0.2-3.4,0.3-5.1c0.2-1.9,0.4-3.7,0.7-5.6c0.1-0.7,0.5-1.4,0.7-2.1c0.2-0.8,0.8-1,1.6-1
				c1.6,0,3.1,0.5,4.7,0.7c2.7,0.4,5.3,1.2,8,1.5c2.6,0.3,5.2,0.7,7.8,0.7c1.9,0,3.7,0.1,5.6,0.1c3.5,0,6.8-0.5,10.2-1.2
				c0.9-0.2,1.9-0.4,2.8-0.8c-1.3,0.1-2.6,0.3-4,0.4c-0.4,0-0.8,0.1-1.1,0.1c-3.6,0.1-7.2,0.1-10.8,0c-3.8-0.1-7.6-0.3-11.4-0.6
				c-2.5-0.2-5.1-0.6-7.6-1.1c-3.8-0.7-7.7-1.3-11.5-2.3c-3.5-0.9-6.8-2.4-10.2-3.8c-0.6-0.3-0.6-0.8-0.8-1.3
				c-1.1-2.7-1.6-5.6-2.4-8.4c-0.1-0.5-0.3-0.9-0.4-1.4C249,147,249.1,146.4,248.8,145.9z"/>
			<path class="st2" d="M316.2,347.3c1.2,1.4,1.9,3,2.2,4.8c0.6,3.7,1.7,7.3,2.5,11c2.9,12.7,5.8,25.5,8.7,38.2
				c3.9,17,7.8,33.9,11.7,50.9c3.7,16.2,7.5,32.4,11.2,48.6c0.5,2.3,1.2,4.6,1.7,6.9c0.2,0.7,0.3,1.4,0.3,2.1c0.1,0.7-0.4,1.2-1,1.4
				c-3.1,1.1-6.2,1.1-9-0.7c-0.4-0.2-0.7-0.6-0.7-1c-0.2-3-1.2-5.8-1.9-8.6c-2.9-12.3-6-24.5-9-36.8c-0.1-0.4-0.2-0.8-0.3-1.1
				c-0.1-0.3-0.2-0.4-0.5-0.4c-3-0.4-5.9-0.3-8.9-0.3c-6,0.1-12,0-18,0.1c-7.2,0-14.3,0.1-21.5,0.2c-17,0.1-34.1,0.2-51.1,0.3
				c-1.3,0-1.3,0-1.6,1.3c-3.9,13-7.7,26-11.9,39c-0.1,0.4-0.2,0.8-0.4,1.2c-0.4,1-0.7,1.9-0.3,2.9c0.2,0.4,0.1,0.9,0.1,1.3
				c0,1.6-0.5,2.3-2,2.1c-1.7-0.2-3.4,0.3-5.1,0.3c-0.9,0-1.8,0.1-2.7-0.3c-1.2-0.5-1.5-0.9-1.3-2.2c0-0.2,0-0.4,0.1-0.6
				c1.5-4.2,2.3-8.6,4.2-12.7c3-6.3,4.1-13.2,6.2-19.8c3.1-10.1,5.7-20.3,8.5-30.5c2.9-10.4,5.4-21,8.7-31.3
				c1.8-5.8,3.6-11.5,5.4-17.3c1.5-4.8,2.6-9.7,3.8-14.6c1.9-8.1,4.4-16,7-23.9c0.7-2.3,1.5-4.6,2.3-6.9c0.9-2.4,2.3-4.6,4.5-6.1
				c0.8-0.1,1.6-0.2,2.4-0.2c2.4,0,4.8,0.1,7.2,0.2c4.2,0.1,8.3,0.1,12.5,0.2c4.3,0.2,8.5,0.5,12.8,0.7c7,0.2,13.9,0.8,20.9,0.7
				C314.8,346.4,315.6,346.5,316.2,347.3z M332,460.1c-0.1-0.3-0.1-0.6-0.2-0.8c-1.8-7.2-3.5-14.4-5.3-21.5
				c-5.5-21.9-10.9-43.7-16.5-65.6c-0.9-3.4-1.6-6.9-2.8-10.2c-0.8-2.3-2-4.4-3.6-6.2c-0.6-0.7-1.2-1.3-2.1-1.5
				c-2.3-0.6-4.6-1.4-7-1.7c-4.6-0.5-9.2-0.9-13.8-0.5c-4.8,0.5-9.5,1.5-14,3.6c-2.9,1.3-4.7,3.7-5.5,6.6
				c-9.2,31.2-18.5,62.4-27.8,93.5c-0.6,1.8-1.1,3.7-1.6,5.5c0.4,0.3,0.7,0.2,1.1,0.2c7.7-0.1,15.4-0.1,23.1-0.2
				c16.8-0.2,33.5-0.1,50.3-0.3c7.5-0.1,14.9-0.1,22.4-0.1C329.7,460.9,330.8,460.8,332,460.1z M345.4,507c0.3,1.7,0.3,1.7,1.7,2
				c1.6,0.4,3.2,0.1,4.7-0.2c0.3-0.1,0.5-0.2,0.5-0.6c-0.1-0.4-0.3-0.4-0.6-0.3c-1,0.2-2,0.1-3-0.2
				C347.5,507.4,346.5,507.2,345.4,507z M209.4,508.4c2.4,0.5,4.5-0.4,6.6-0.1c0.3,0,0.3-0.3,0.3-0.5c-0.1-0.3-0.2-0.3-0.4-0.2
				c-1.3,0.5-2.7,0.3-4,0.3C211.1,508,210.4,508,209.4,508.4z"/>
			<path class="st3" d="M316.2,347.3c-0.6-0.7-1.4-0.9-2.3-0.9c-7,0.2-13.9-0.4-20.9-0.7c-4.3-0.1-8.5-0.5-12.8-0.7
				c-4.2-0.2-8.3-0.1-12.5-0.2c-2.4,0-4.8-0.2-7.2-0.2c-0.8,0-1.6,0.1-2.4,0.2c-0.8-0.4-1.6-0.3-2.4-0.2c-2.1,0.2-4.1,0.2-6.2,0
				c-1.5-0.2-3.1-0.2-4.6-0.3c-3.8-0.3-7.5-0.5-11.3-0.4c-1.8,0.1-3.6,0-5.4,0c-4.6,0-9.2,0.3-13.6,1.5c-2.6,0.7-4.9,2-6.9,3.8
				c-1.8,1.7-3.4,3.5-4.7,5.7c-0.3,0.5-0.7,1.1-1.2,1.5c-0.7,0.6-1.5,0.8-2.4,0.4c-0.9-0.4-1.5-1-1.6-2c-0.1-0.7-0.2-1.4-0.3-2.1
				c-0.1-1.1-0.2-2.1,0.6-3c0.4-0.5,0.3-1.2,0.4-1.8c0.1-1.1,0.7-2,1.5-2.7c2.1-2.1,4.5-3.8,7-5.4c2-1.2,4.1-2.2,6.4-2.8
				c3.4-0.9,6.9-1.4,10.4-1.7c1.7-0.1,3.4,0.1,5,0.4c0.8,0.1,1.6,0.2,2.4,0.2c3.2,0,6.4,0.1,9.6,0.2c1.5,0,3.1,0,4.6-0.2
				c2.1-0.2,4.2,0.2,6.4,0.4c0.3,0,0.6,0.1,0.9,0.1c2.2,0.1,4.4,0.2,6.7,0.3c1.9,0.1,3.8,0.3,5.6,0.5c0.3,0,0.6,0,0.9,0
				c4.8,0,9.6,0.2,14.4,0c5.7-0.3,11.4,0,17.1-0.3c10.3-0.5,20.6-0.1,30.9-0.3c3.4-0.1,6.8-0.3,10.2-0.8c0.9-0.1,1.7-0.2,2.6-0.3
				c1.5-0.2,2.7-0.9,3.8-1.9c2.8-2.6,5-5.6,6.9-8.9c1.4-2.5,2.6-5.1,3.6-7.7c1-2.5,1.6-5.1,2.2-7.6c0.3-1.5,0.7-2.9,1.2-4.3
				c0.7-2,0.9-4.1,1.2-6.2c0.4-2.5,0.5-5,0.6-7.5c0.2-2.3,0.6-4.6,0.9-6.9c0.4-3.1,1-6.1,1.4-9.2c0.3-2.8,0.8-5.5,1-8.3
				c0.2-2,0.3-4,0.7-6c0.7-3.3,1-6.7,1.4-10c0.3-2.8,0.8-5.6,1-8.5c0.2-3,0.8-6,1-9.1c0.2-2,0.4-3.9,0.6-5.9
				c0.4-3.4,0.7-6.7,1.1-10.1c0.2-1.5,0.1-3.1,0.3-4.6c0.3-3.3,0.8-6.5,1.1-9.8c0.2-2.2,0.6-4.4,0.7-6.6c0.2-2.3,0.3-4.6,0.7-6.9
				c0.3-2,0.5-4,0.7-6c0.3-2.2,0.5-4.3,0.8-6.5c0.2-1.7,0.4-3.5,0.6-5.2c0.4-2.6,1-5,1.8-7.4c0.9-2.8,2-5.6,3-8.5
				c0.9-2.7,2.5-5.1,4-7.6c0.7-1.2,1.3-2.4,2-3.5c2.3-3.4,4.4-7.1,7.6-9.9c3.4-2.9,7.1-5.3,11.9-5.5c1.6-0.1,3.2,0,4.6,1.2
				c2.6,2.4,1,5.4-1.3,6.1c-4.6,1.5-8.4,4.3-12,7.5c-1.5,1.3-2.4,3.1-3.4,4.8c-1.6,2.8-3.3,5.6-4.8,8.5c-1.4,2.8-2.2,5.8-3,8.8
				c-0.6,2.3-0.8,4.8-1.2,7.1c-0.5,2.7-0.7,5.4-1.1,8.2c-0.4,3.1-0.9,6.2-1.3,9.3c-0.4,3.4-1,6.8-1.3,10.2c-0.3,2.5-0.6,5.1-0.7,7.6
				c-0.3,3.8-0.4,7.6-0.7,11.4c-0.3,2.8-0.5,5.7-0.7,8.5c-0.2,2.8-0.4,5.7-0.7,8.5c-0.2,1.4-0.2,2.8-0.3,4.2
				c-0.2,3.1-0.7,6.2-1.1,9.3c-0.3,2.1-0.5,4.1-0.7,6.2c-0.3,2.6-0.6,5.3-0.9,7.9c-0.3,2.6-0.8,5.1-1.1,7.7
				c-0.3,2.7-0.9,5.4-1.3,8.1c-0.5,3.4-1.1,6.8-1.7,10.1c-1,5.8-2.1,11.7-3.6,17.4c-1.1,4.3-2.4,8.5-3.8,12.6
				c-1,2.7-1.8,5.5-3.2,8.1c-1.8,3.5-4.2,6.5-7.2,9c-2.5,2.2-5.2,4-8.2,5.5c-3.1,1.5-6.3,2.4-9.7,2.8c-3.4,0.3-6.8,0.7-10.2,1
				c-1.6,0.2-3.3,0.1-4.9-0.1C318.2,346.9,317.1,346.6,316.2,347.3z"/>
			<path class="st2" d="M275.7,68.1c-3.5,0.3-6.5-0.7-9.5-1.5c-0.6-0.2-1.1-0.5-1.1-1.2c0-0.6,0.4-0.9,0.9-1.2
				c0.6-0.3,1.1-0.6,1.6-0.9c0.2-0.1,0.5-0.2,0.5-0.4c0.2-1,1-1.1,1.7-1.2c2.2-0.4,4.1,0.2,5.9,1.4c1.2,0.8,2.4,1.5,3.8,1.8
				c1.1,0.2,2,0,2.8-0.7c3.4-2.9,6.5-6.1,9.2-9.7c1.4-1.8,3.1-3.3,4.4-5.2c1.2-1.6,2.2-3.3,3-5.1c0.6-1.1,0.8-2.4,0.9-3.7
				c0.2-4.3-0.5-8.6-1.5-12.8c-0.3-1.2-1.1-2.1-1.7-3.2c-0.5-0.8-1-1.6-1.5-2.5c-0.7-1.3-0.4-2.2,0.8-3c1.1-0.7,2.4-1.1,3.6-1.4
				c0.7-0.2,1.3-0.4,1.9-0.8c2.7-1.7,5.6-2.9,8.6-3.8c1.8-0.6,3.5-1,5.3-1.5c1.4-0.4,2.9-0.7,4.4-0.8c0.5,0,0.9-0.1,1.4-0.3
				c2.8-1,5.7-0.1,7.7,2.2c1.4,1.6,2.5,3.3,3.6,5.1c0.3,0.5,0.7,1.1,1,1.6c2.1,3,4.2,6.1,5.8,9.4c0.7,1.4,1.6,2.7,2.5,4.1
				c1.1,1.6,2.1,3.2,2.8,5.1c1,2.9,0.8,5.6-0.7,8.2c-1.6,2.7-3.1,5.4-4.7,8c-1.9,3-3.5,6.2-5.2,9.4c-0.3,0.7-0.7,1.3,0.1,2
				c0.4,0.4,0,1.2-0.6,1.5c-0.8,0.5-1.6,0.4-2.4,0.2c-0.7-0.1-1.3-0.4-1.9-0.7c-2.7-1.4-5.5-2.8-8-4.6c-1.4-1-2.9-1.9-4.5-2.6
				c-0.3-0.1-0.6-0.3-0.9-0.5c-0.8-0.5-0.9-1.2-0.2-2c0.5-0.5,1.1-1,1.6-1.5c2.9-3,4.3-6.6,3.6-10.8c-0.3-1.7-1.4-2.7-2.5-3.8
				c-0.4-0.4-1-0.3-1.5-0.1c-2.9,0.6-5.3,2-7.1,4.4c-3.5,4.8-5.7,10.1-6.9,15.8c-0.8,3.6-1.9,7.2-3,10.8c-0.6,1.9-1.7,3.7-2.8,5.4
				c-0.8,1.3-1.7,2.5-2.6,3.7c-2,2.9-4.8,5-7.5,7.3c-1.6,1.4-3.4,2.6-5.4,3.2c-4.1,1.2-7.8,0.9-11.2-2c-2.1-1.8-3.1-4.1-3.1-6.8
				c0-2.2-0.1-4.4-0.8-6.6c-0.7-2.2,0.6-3.8,2.9-4c0.9-0.1,1.8,0,2.7-0.2C274.1,71.3,274.9,69.9,275.7,68.1z"/>
			<path class="st2" d="M183.4,473.8c1.6-0.7,2.9-0.2,4,0.7c1.4,1.1,2.3,2.6,3.1,4.2c1.2,2.4,2.1,4.9,3,7.4c0.1,0.3,0.2,0.6,0.3,1
				c0.5,4.4,1.5,8.7,1.2,13.1c-0.1,2.1-0.8,4-2,5.7c-0.7,1-1.8,1.4-2.6,2.3c-0.2,0.2-0.5,0.1-0.8,0.1c-3.1,0-6.1-0.1-9.2,0.1
				c-1,0.1-1.9-0.5-3-0.4c-2,0.3-4,0.3-5.9,0.5c-1.6,0.1-2.5-0.5-2.7-2.1c-0.1-0.6-0.1-1.2-0.1-1.9c0.1-1.3-0.2-1.6-1.4-1.6
				c-3.1,0-6.2,0.1-9.2,1.2c-3.1,1.2-6.4,1.6-9.6,2.4c-2.4,0.6-4.8,1.1-7.3,1.3c-0.8,0-1.5,0.3-2.2,0.6c-0.7,0.2-1.5,0.4-2.3,0.3
				c-0.2,0-0.4-0.1-0.6,0c-3.7,1-7.4,0.6-11.1,0c-2.9-0.5-5.8-0.7-8.6-1.1c-6.9-1-13.4-3.1-19.6-6.4c-0.8-0.4-1.6-0.9-2.3-1.6
				c-1.2-1.3-1.4-2.5-0.6-4.1c1-2,2.5-3.1,4.7-3.2c6-0.3,11.7-1.9,17.6-2.9c3.5-0.6,7-1.1,10.4-2.2c2.5-0.8,5-1.7,7.4-2.9
				c3.7-1.8,7.4-3.5,11.2-5.2c1.7-0.8,3.3-1.6,4.8-2.7c2.8-1.9,5.9-3.4,8.9-4.9c1.1-0.5,2.4-0.4,3.3-1.3c0.2-0.2,0.4,0,0.7,0.1
				c2.5,0.8,4.2,2.4,5,5c0.7,2,1.4,4,2,6c0.2,0.6,0.5,1.2,0.8,1.8c0.6,1.1,1.3,1.9,2.7,2c0.9,0.1,1.8,0.6,2.8,0.6
				c1.1,0,2.1-0.4,2.8-1.3c0.5-0.7,1-1.4,1.4-2.2c1-2.2,2-4.3,2.9-6.5C183.7,475,184,474.4,183.4,473.8z"/>
			<path class="st2" d="M99,71.3c0.3,5.6,0.3,11.2,1,16.8c0.6,4.6,1.4,9.2,2.1,13.8c0.1,0.8,0.3,1.5,0.1,2.3
				c-0.1,0.5-0.2,0.9-0.8,0.7c-0.6-0.2-0.6,0.2-0.7,0.5c-0.7,2.3-1.1,4.7-1.1,7.1c0,0.9-0.1,1.8-0.2,2.7c-0.1,0.3-0.2,0.8-0.5,0.6
				c-0.9-0.6-0.8,0.2-0.8,0.6c-0.7,3.8-1.9,7.4-2.6,11.2c-0.6,3.2-1.2,6.4-1.1,9.6c0,1.3,0.3,2.5,1,3.6c1.9,2.9,4.4,5.3,7,7.5
				c0.7,0.6,1.6,0.9,2.6,0.8c1.5-0.1,3,0.4,4.5,0.3c0.4,0,1,0.2,1-0.6c0-0.4,0.5-0.5,0.9-0.6c2.8-0.2,5.7-0.6,8.5,0
				c0.6,0.1,1.3,0,1.9,0c6.8-0.6,13.6-0.9,20.5-0.8c6.2,0.1,12.3,0.6,18.4,1.3c6.8,0.8,13.5,1.7,20.4,2.2c8.1,0.6,16.2,1.2,24.3,1.9
				c2.3,0.2,4.7,0.4,7,0.2c1.9-0.2,3.8,0.1,5.6,0.4c1.4,0.2,2.8,0,4.2-0.5c-2.2-1.1-4.4-1.2-6.5-1.5c0.1-0.4,0.4-0.4,0.7-0.5
				c2.2-0.4,4.4-0.3,6.6,0.1c4.3,0.8,8.7,1.5,13.1,1c3.1-0.3,6.2-0.5,9.3-0.8c0.8-0.1,1.6,0.1,2.4,0.4c0.7,0.3,0.8,0.8,0.3,1.4
				c-0.7,0.8-1.6,1.3-2.6,1.3c-2.7,0.1-5.4,0.4-8.1,0.7c-1.9,0.2-3.9,0.2-5.8,0.1c-1.5-0.1-2.9-0.3-4.3-0.8
				c-0.8-0.3-1.6-0.3-2.3,0.2c-0.7,0.4-1.4,0.8-2.1,1.3c-1.6,1.1-3.3,1.4-5.1,1.1c-2-0.2-3.9-0.5-5.9-0.4c-1.6,0-3.2-0.1-4.7-0.6
				c-1.5-0.4-3.1-0.4-4.6-0.5c-6.3-0.6-12.5-1-18.8-1.6c-6.3-0.6-12.6-1.3-18.9-2.1c-10.9-1.5-21.9-2.4-32.9-2.2
				c-4.2,0.1-8.4,0.2-12.6,0.3c-0.4,0-0.8-0.2-1.1,0.4c-0.1,0.3-0.5-0.1-0.7-0.2c-1.3-0.7-2.6-0.6-3.7,0.4c-0.5,0.4-1.1,0.6-1.7,0.8
				c-2.5,0.8-5,1.2-7.6,1.3c-1.3,0-2.4-0.3-3.4-1c-3.4-2.6-6.4-5.5-8.6-9.2c-0.9-1.5-1.3-3.2-1.3-5c-0.1-3.6,0.5-7.1,1.3-10.5
				c1.1-4.6,2.4-9.2,3.7-13.7c0.3-1.1,0.6-2.2,1.3-3.2c0.2-0.3,0.2-0.6,0.2-1c0-0.8,0.1-1.6,0.1-2.5c0-1.4,0.4-2.7,1.5-3.6
				c0.7-0.6,0.8-1.4,0.5-2.2c-1.7-5.6-2.7-11.4-3.3-17.2c-0.2-1.5-0.2-3.1-0.3-4.6c-0.1-2.8-0.3-5.6-0.6-8.4
				c-0.2-1.9,0.8-3.1,2.7-3.3c0.5,0,1,0,1.5,0c0.9,0.1,1.6,0.5,1.9,1.4c0.2,0.5,0.4,1,0.5,1.5c0.8,3.9,2.1,7.5,3.1,11.3
				c1.2,4.5,2.9,8.8,4.1,13.3c0.7,2.8,1.5,5.6,2,8.5c0.1,0.5,0.2,1.1,0.5,1.5c0.9,1.1,0.9,2.2,1,3.5c0.2,4.1,0.1,8.1-0.2,12.2
				c-0.2,3.9-0.2,7.7-0.2,11.6c0,0.5,0.1,0.8,0.5,1.1c0.9,0.8,1.7,1.6,2.7,2.2c1,0.7,2,0.9,3.2,0.7c3.5-0.3,6.9-0.9,10.4-1.3
				c4.3-0.6,8.6-1.1,13-1.6c4-0.5,7.9-1.3,11.9-2c5.9-0.9,11.9-1.7,17.8-2.5c4-0.5,8.1-1,12.1-1.3c3.8-0.3,7.6-0.5,11.5-0.7
				c5.4-0.4,10.8-0.2,16.3-0.2c3,0,5.9-0.3,8.8-0.7c3.3-0.5,6.7-0.9,10.1-1.4c2.2-0.3,4.3-0.8,6.4-1c1.7-0.2,3.5,0.1,5.2-0.5
				c0.1,1.5,0.1,1.5-1.1,1.8c-2.2,0.6-4.4,0.9-6.7,1.2c-5.1,0.7-10.1,1.7-15.2,2.6c-2.4,0.5-4.9,0.9-7.3,0.9c-3.5,0-7.1,0.1-10.6,0
				c-3.6-0.1-7.3,0.3-10.9,0.4c-8.6,0.4-17.2,1.4-25.7,2.5c-6.9,0.9-13.8,2.2-20.6,3.2c-4,0.6-8.1,1-12.1,1.5
				c-3.5,0.4-6.9,0.9-10.4,1.3c-2.5,0.3-5,0.5-7.4,0.7c-0.1-0.2-0.2-0.3-0.2-0.3c0.2-1.1-0.2-1.9-1.2-2.5c-1.1-0.6-1.7-1.8-2.7-2.6
				c-0.6-0.4-0.5-1.3-0.5-2c-0.1-3.8-0.2-7.6,0-11.3c0.2-4.5,0.4-9.1,0.7-13.6c0-0.3,0-0.6-0.2-0.9c-1-1.2-1.6-2.7-1.9-4.2
				c-2-8.4-5-16.6-7.3-24.9c-0.5-1.8-0.9-3.6-1.3-5.3c0-0.4,0.1-0.8-0.4-0.9C98.8,70.7,98.8,71,99,71.3z"/>
			<path class="st2" d="M324.9,9.5c-4.8-0.7-9.6-0.5-14.3,0.4c-4.7,1-9.4,1.9-14,3.2c-1.6,0.5-3.1,1.1-4.6,1.6
				c-3.4,1.2-6.8,1.9-10.4,1.8c-3.2-0.1-5.8-1.5-7.9-3.8c-0.6-0.7-0.9-1.5-1.1-2.4c-0.3-1.4-0.2-2.8,0-4.2c0.2-1.4,1.1-2.4,2.2-3.1
				c1.9-1.2,3.9-1.9,6.1-2.1c1.2-0.1,1.6,0.1,1.8,1.3c0.1,0.5,0.3,0.8,0.8,0.9c0.6,0.1,0.6-0.4,0.8-0.7c1.1-1.4,2.3-2.4,4.3-2.2
				c1.2,0.1,2.3-0.1,3.5-0.2c3.4-0.3,6.8-0.1,10.3,0.6c4.5,0.9,9.1,1.5,13.5,2.6c1.3,0.3,2.5,0.7,3.5,1.6c1.1,0.9,2.2,1.7,3.6,2.1
				c0.6,0.2,1.4,0.5,1.3,1.5C324.3,8.8,324.9,8.9,324.9,9.5z"/>
			<path class="st3" d="M342.4,90.7c0,0.9,0,1.8,0,2.8c0.1,0.8-0.3,1.2-1,1.5c-2.9,1.2-5.8,2.4-8.7,3.6c-2.4,1-4.8,2-7.2,3.1
				c-0.7,0.3-1.3,0.4-2.1,0.3c-1.6-0.3-3.3-0.1-4.9-0.4c-2.8-0.5-5.7-0.3-8.5-0.3c-1.7,0-3.3,0.2-4.9,0.5c-0.1,0-0.3,0.1-0.4,0.1
				c-0.5,0-1-0.1-1.2-0.6c-0.1-0.5,0.4-0.7,0.7-0.9c0.1-0.1,0.3-0.1,0.4-0.2c2.3-0.6,4.1-2.2,6-3.5c6-4.1,12-8.3,18.3-12
				c2-1.2,4-2.5,6.1-3.7c1.3-0.7,2.7-1.3,4-1.9c0.5-0.2,1,0,1.3,0.4c0.2,0.3,0.3,0.6,0.4,0.9C341.7,83.7,342.6,87.1,342.4,90.7z"/>
			<path class="st2" d="M270.7,43.5c0.7,2.3,0.5,4.3-0.6,6.3c-0.7,1.2-1.6,2.2-2.7,3c-0.8,0.6-1.4,1.4-1.9,2.2
				c-0.8,1.1-0.6,2.1,0.5,2.9c0.5,0.4,1.1,0.6,1.7,0.7c0.2,0.1,0.4,0.1,0.5,0.2c0.5,0.2,1.2,0.4,1.1,1.2c-0.1,0.7-0.8,0.5-1.3,0.5
				c-0.3,0-0.7,0-1,0c-2.2,0-3.5-0.8-4.4-2.9c-0.8-1.8-0.3-3.3,1-4.7c0.6-0.6,1.2-1.3,2-1.7c2.9-1.5,4.7-3.8,4.7-7.2
				C270.3,43.9,270.4,43.8,270.7,43.5z"/>
			<path class="st2" d="M283.8,42.3c-1.9-1.3-3.5-2.4-5-3.6c-1.4-1.1-2.9-1.8-4.4-2.4c-0.8-0.3-1.6-0.1-2.4,0.1
				c-0.3,0.1-0.4,0.4-0.5,0.7c-0.1,0.3-0.1,0.7-0.2,1c-0.3,1.1-1.1,1.4-1.9,0.6c-1-0.9-1.1-2.1-0.8-3.4c0.3-1.1,1.2-1.6,2.3-1.7
				c1.8-0.2,3.4,0,4.9,1.2c1.4,1.1,2.8,2.1,4,3.4c0.9,1,2,1.8,3,2.7C283.1,41.1,283.5,41.5,283.8,42.3z"/>
			<path class="st2" d="M278.1,45.1c-0.1,0.9-0.5,1.7-1.5,2.1c-0.8,0.3-1.5,0.1-1.7-0.8c-0.2-1.2-0.6-2.3-1.6-3.1
				c-0.5-0.4-0.2-1.1,0.3-1.5c0.3-0.2,0.6-0.3,0.9-0.3C276.2,41.4,278.1,43.3,278.1,45.1z"/>
			<path class="st2" d="M248.8,145.9c0.4,0.5,0.3,1.1,0.5,1.6C249,147,248.4,146.6,248.8,145.9z"/>
			<path class="st3" d="M159.4,122.4c0.2,0.9-0.1,1.3-0.6,1.9C158.7,123.5,158.9,123,159.4,122.4z"/>
			<path class="st3" d="M190.5,174.2c-0.1-0.1-0.1-0.2-0.1-0.3c0.1-0.4,0-0.9,0.6-1c0.1,0,0.2,0.2,0.2,0.3
				C191.3,173.8,191.1,174.1,190.5,174.2z"/>
			<path class="st3" d="M195.5,502.6c0.4,0.1,0.3,0.3,0.3,0.6c0,0.2,0,0.5-0.3,0.5c-0.3,0-0.3-0.3-0.3-0.5
				C195.2,502.9,195.2,502.7,195.5,502.6z"/>
			<path class="st3" d="M99,71.3c-0.2-0.3-0.3-0.6-0.2-0.9c0.5,0.2,0.4,0.6,0.4,0.9c0,0-0.1,0-0.1,0L99,71.3z"/>
			<path class="st4" d="M345.4,507c1.1,0.3,2.2,0.5,3.2,0.8c1,0.3,2,0.4,3,0.2c0.3-0.1,0.6-0.1,0.6,0.3c0,0.4-0.1,0.5-0.5,0.6
				c-1.6,0.3-3.1,0.6-4.7,0.2C345.6,508.6,345.6,508.6,345.4,507z"/>
			<path class="st3" d="M209.4,508.4c1-0.4,1.7-0.5,2.4-0.5c1.3,0,2.7,0.2,4-0.3c0.2-0.1,0.4-0.1,0.4,0.2c0,0.3,0,0.6-0.3,0.5
				C213.9,508.1,211.8,508.9,209.4,508.4z"/>
		</g>
	</g>
</g>
</svg>
