<svg xmlns="http://www.w3.org/2000/svg" viewBox="0 0 28.61 23.13"><defs><style>.cls-1{fill:#9b9b9b;}</style></defs><g id="Layer_2" data-name="Layer 2"><g id="Layer_1-2" data-name="Layer 1"><path class="cls-1" d="M18.07,10.12H17V6.87a6.87,6.87,0,0,0-13.74,0v3.25H2.17A2.17,2.17,0,0,0,0,12.29V21a2.17,2.17,0,0,0,2.17,2.17h15.9A2.17,2.17,0,0,0,20.24,21V12.29A2.17,2.17,0,0,0,18.07,10.12Zm-4.7-3.25v3.25H6.87V6.87a3.25,3.25,0,1,1,6.5,0Z"/><path class="cls-1" d="M28.11,2.41A1.5,1.5,0,0,0,26,2.52L23,5.81,22,4.68a1.5,1.5,0,0,0-2.25,2l2.1,2.39A1.49,1.49,0,0,0,23,9.56h0a1.53,1.53,0,0,0,1.12-.49l4.09-4.54A1.5,1.5,0,0,0,28.11,2.41Z"/></g></g></svg>