<svg xmlns="http://www.w3.org/2000/svg" viewBox="0 0 284.6 490.69"><defs><style>.cls-1{fill:#fff;}.cls-2,.cls-3{fill:#FF9B7A;}.cls-3{stroke:#FF9B7A;stroke-linecap:round;stroke-linejoin:round;stroke-width:1.16px;}</style></defs><g id="Layer_2" data-name="Layer 2"><g id="_02-Move-illu" data-name="02-Move-illu"><path class="cls-1" d="M150.43,459.84l2.7-88.35,18.69-11.79-7.94,81.81c.08,1,3.43,19,3.25,17.95,1.58,20.63,2.7,23.93-7.21,24.15-4.3.1-9.64-2.84-10.82-6.34C148.15,471.88,150.43,459.84,150.43,459.84Z"/><path class="cls-1" d="M134.47,459.84l-2.71-88.35L113.08,359.7,121,441.51c-.08,1-3.43,19-3.25,17.95-1.58,20.63-2.7,23.93,7.2,24.15,4.31.1,9.65-2.84,10.82-6.34C136.75,471.88,134.47,459.84,134.47,459.84Z"/><path class="cls-1" d="M13.3,210.28,0,227.17l2.87,2.75,10.9-13-11.61,14,2.39,2.4,12.22-12.7L6,231.84l2.75,2.63L20.6,223.69l-10.42,9.47,2.88,2.27,10.42-8.38s9.1-6.83,9.1-17.25l19.69-19.16-8.34-9.23-19,22H14.13l-12,6L3.35,213l8.39-3.59s6,7.19,14.37,0"/><path class="cls-1" d="M258.49,209.44c8.39,7.19,14.38,0,14.38,0l8.38,3.59,1.2-3.59-12-6H259.69l-19-22-8.34,9.23L252,209.8c0,10.42,9.11,17.25,9.11,17.25l10.42,8.38,2.87-2.27L264,223.69l11.86,10.78,2.75-2.63-10.78-11.26,12.22,12.7,2.4-2.4-11.62-14,10.9,13,2.87-2.75-13.29-16.89"/><path class="cls-1" d="M142.45,110s27.27-26.53,30-31.64c-7.34-2-19.69-4.34-19.69-8.57,0-3.08-.3-14.85-.3-14.85H132.32s-.3,11.77-.3,14.85c0,4.21-12.2,6.54-19.56,8.53C115.13,83.44,142.45,110,142.45,110Z"/><path d="M98.72,242.26c0,19.24,22.3,199.25,22.3,199.25l12.86-.79,8.42-183.06h1.15l6.93,183.06,13.5.79S186,260.75,186,242.26s-.76-26-3.42-39.2H102.14C99.48,216.24,98.72,223,98.72,242.26Z"/><path class="cls-1" d="M153.66,16.36C149.2,24.2,136,24.23,129.2,27.19A12.3,12.3,0,0,0,122,35.75c1.27,28.39,20.91,31.07,20.91,31.07s20.43-2.67,21-30.73A41.8,41.8,0,0,0,153.66,16.36Z"/><path class="cls-2" d="M211.45,144.71,195.3,108c-5.87-13.21-11.74-26.43-22-29.36l-.86-.24c-2.7,5.11-30,31.64-30,31.64s-27.32-26.6-30-31.68l-1,.28c-10.28,2.93-16.15,16.15-22,29.36L73.3,144.71l-29.37,36.7,11.75,13.22L96.79,155l8.81-19.08s5,28,4.4,36.77-6.16,16.57-9.86,33.39c-4.69,21.3-1.42,33.14-1.42,33.14H186s4.71-11.56,0-30.78c-4-16.18-8.95-28.18-11.28-35.75s4.4-36.77,4.4-36.77L188,155l41.11,39.65,11.75-13.22Z"/><circle class="cls-1" cx="142.91" cy="34.13" r="20.94"/><path d="M160.58,6.3C153.79.52,147-.5,138.68.19c-5.19.42-17,5.91-21.82,14.43-6.83,12.14-9.78,46.76-9.78,50.45,0,3.18,14.79,20.67,21.78,18.76,9.55-2.6,7.54-15.78,3.31-22.53-3-4.8-6.42-8.84-8.07-14.3-2.1-7,.07-16.93,3.11-24.18,2.87,2.66,8.27,5.16,12.73,6.28,4.68,1.17,16,2.38,18.9,7.58S156.26,56.6,152.6,62.4s-7.41,16.88-.25,21.22c6.79,4.12,24.15-14.51,24.15-19.09,0-2.64-.09-22.17-4.08-38.17C169.49,14.59,162.89,8.26,160.58,6.3Z"/><path d="M133.42,36.7a6.32,6.32,0,0,1,4,1.07c.76.49.93,1.21.47,1.78s-1.13.51-1.77-.08a4.26,4.26,0,0,0-4.53-.61c-.52.26-1,.57-1.51.82-.34.16-.75.46-1.07,0s0-.82.31-1.16A4.87,4.87,0,0,1,133.42,36.7Z"/><path d="M143.78,41a7.83,7.83,0,0,1-1.42,3.51c-.08.13-.19.25-.28.38-.78,1.09-.77,1.08.35,1.8a13.75,13.75,0,0,0,1.72,1.07.76.76,0,0,1,.35,1.13.71.71,0,0,1-1.07.3A11.47,11.47,0,0,1,140.07,46a1.26,1.26,0,0,1,.18-1.34c.43-.68.84-1.37,1.3-2A7.21,7.21,0,0,0,142.81,40c0-.17.09-.34.24-.34a.41.41,0,0,1,.42.27A2.65,2.65,0,0,1,143.78,41Z"/><path d="M152.13,36.56a5.52,5.52,0,0,1,3.26.87,2.09,2.09,0,0,1,.77.87.76.76,0,0,1-.24,1,.71.71,0,0,1-1-.2c-.74-1.11-1.87-1.13-3-1a3.23,3.23,0,0,0-2.18.94.67.67,0,0,1-1,.08.75.75,0,0,1-.1-1.06,3.5,3.5,0,0,1,2.65-1.45A5.32,5.32,0,0,1,152.13,36.56Z"/><path class="cls-3" d="M143.55,56.6a8.08,8.08,0,0,1-5.93-2.8l.66-.53-.33.26.33-.26a6.82,6.82,0,0,0,10.54,0l.65.53A8.07,8.07,0,0,1,143.55,56.6Z"/><path d="M135.56,465.41a70.36,70.36,0,0,1-1.2-8.94c-.18,10.19,1.06,13.15,1,16.37-.07,3.43-5.45,6.62-11,6.5-1.15,0-7.89-.3-7.56-4.87s1.56-18,1.56-18l-4.13,19.57s-4.54,13.54,6.26,14.49,18.65-2.74,18.85-11.64C139.42,474.27,136.43,470.75,135.56,465.41Z"/><path d="M149.34,465.41a72.21,72.21,0,0,0,1.2-8.94c.17,10.19-1.06,13.15-1,16.37.08,3.43,5.46,6.62,11,6.5,1.14,0,7.89-.3,7.55-4.87s-1.55-18-1.55-18l4.12,19.57s4.55,13.54-6.25,14.49-18.65-2.74-18.85-11.64C145.48,474.27,148.47,470.75,149.34,465.41Z"/></g></g></svg>